<svg width="341" height="248" viewBox="0 0 341 248" fill="none" xmlns="http://www.w3.org/2000/svg">
<path fill-rule="evenodd" clip-rule="evenodd" d="M214.501 13.3977C216.817 12.0396 217.217 10.9212 222.01 8.76429C222.649 8.44475 223.208 8.28499 223.847 7.96545C235.91 3.0924 255.242 3.81138 261.953 12.8385C264.11 15.7144 264.749 18.9098 263.87 22.0254C263.631 22.9041 262.912 24.2622 262.912 24.9811C265.708 24.5018 266.746 23.9426 271.06 23.4633C286.957 21.7857 303.813 28.8157 290.872 37.4433C289.833 38.0824 289.434 38.402 288.235 38.9612C281.365 41.9169 278.809 41.6773 277.451 42.2365C278.409 44.2336 279.767 44.713 280.486 48.0682C281.924 54.3792 277.69 60.2907 269.143 64.285C260.994 68.1196 248.292 69.3178 237.508 66.6816C235.75 66.2822 234.552 65.8827 233.034 65.4034C232.235 65.0839 231.756 64.9241 230.957 64.6046C230.238 64.3649 229.679 63.9655 228.88 63.8057C228.481 64.4448 227.123 65.6431 226.404 66.2023C225.046 67.3207 224.566 67.4804 223.448 68.3592C221.77 69.6374 218.495 71.0753 216.098 72.034C201.639 77.7059 183.265 76.5076 170.883 69.7971C167.847 68.1994 163.853 65.1638 162.175 63.0069C161.456 63.6459 160.737 66.8414 158.421 69.3178C156.503 71.3949 154.826 72.8328 152.429 74.3506C141.245 81.3806 124.469 83.3778 108.812 78.8243C104.418 77.5461 99.4649 75.0696 96.8287 72.9127C96.0298 72.2736 94.3522 70.9954 93.8729 70.2765C90.8372 70.6759 90.1981 71.2351 85.3251 71.4748C82.0498 71.6345 78.6147 71.4748 75.579 70.9954C64.1553 69.238 56.7259 63.4862 60.8001 56.6959C63.1168 52.8613 65.5134 52.0625 69.268 49.586C65.4335 49.1866 63.1168 49.1067 59.6817 48.2279C45.5419 44.713 40.9085 35.0468 49.7759 28.4162C51.5334 27.0582 53.4506 26.0197 55.9271 25.061C59.9214 23.5432 64.8743 22.7443 69.987 22.7443C73.2623 9.96258 95.7103 0.136618 119.357 3.6516C125.028 4.45046 131.819 6.20793 136.212 8.28497C136.852 8.60451 137.571 9.00395 138.289 9.16372C140.127 8.04531 144.041 6.52749 146.198 5.64875C148.834 4.61023 152.27 3.65159 155.545 2.77285C162.415 1.01536 171.282 0.0567364 179.83 0.536052C188.138 1.09525 195.088 2.85273 200.521 5.00965C201.24 5.2493 201.799 5.56885 202.438 5.8884C203.237 6.20794 203.716 6.44762 204.435 6.84705C206.592 7.96545 207.87 8.52463 209.787 9.88269C210.347 10.2821 210.906 10.6017 211.385 11.0011L214.421 13.3178L214.501 13.3977Z" fill="white"/>
<path d="M46.1016 41.9175L80.0531 91.1272L92.2756 66.6821L127.266 85.8547L158.661 70.7563L188.938 89.2099L215.699 70.7563L226.324 83.538L252.367 64.8447L266.587 90.9674L280.167 79.3041L295.426 41.9175L286.079 77.946H57.2856L46.1016 41.9175Z" fill="#F5A98E"/>
<path d="M295.426 41.9173L270.421 55.0186L261.474 46.6306L247.654 55.0186L225.925 43.8346L218.016 52.7019L207.311 45.0329L202.039 52.7019L185.982 44.1541L170.803 52.7019L156.264 42.3966L140.926 52.7019L119.676 39.8403L106.655 50.2254L86.7635 31.6919L72.8633 56.137L46.2613 41.9173C43.4653 52.3025 42.0273 63.2468 42.267 74.5108C42.5067 88.8902 45.3826 102.631 50.3355 115.332C54.889 126.916 58.404 138.739 61.3597 150.722C72.3041 195.298 116.88 245.387 170.324 245.547C223.768 245.706 268.584 195.778 279.848 151.281C282.963 138.979 286.798 126.916 291.431 115.093C296.544 101.832 299.42 87.5322 299.42 72.5935C299.42 61.9687 298.062 51.6634 295.426 41.9173Z" fill="#FAC8A3"/>
<path d="M150.272 213.512C150.832 217.666 158.501 220.143 167.528 219.024C176.475 217.906 183.345 213.592 182.866 209.358C182.307 205.204 174.638 202.727 165.611 203.846C156.583 204.964 149.793 209.278 150.272 213.512Z" fill="#F5A98E"/>
<path d="M291.351 105.106C286.717 116.21 282.883 127.554 279.767 139.138C268.583 180.998 223.767 227.891 170.324 227.731C116.88 227.571 72.3036 180.439 61.2794 138.578C58.3236 127.315 54.7287 116.13 50.1752 105.266C45.3022 93.6027 42.5062 80.9807 42.1067 67.8794C42.0269 70.0363 42.0269 72.1932 42.0269 74.43C42.2665 88.8095 45.1424 102.55 50.0953 115.252C54.6488 126.835 58.1638 138.658 61.1196 150.641C72.064 195.218 116.64 245.306 170.084 245.466C223.528 245.626 268.344 195.697 279.608 151.2C282.723 138.898 286.558 126.835 291.191 115.012C296.304 101.751 299.18 87.4514 299.18 72.5128C299.18 71.1547 299.18 69.7168 299.1 68.3587C298.7 81.2203 295.904 93.5228 291.191 105.026L291.351 105.106Z" fill="#F5A98E"/>
<path d="M295.426 41.9173L270.421 55.0186L261.474 46.6306L247.654 55.0186L225.925 43.8346L218.016 52.7019L207.311 45.0329L202.039 52.7019L185.982 44.1541L170.803 52.7019L156.264 42.3966L140.926 52.7019L119.676 39.8403L106.655 50.2254L86.7635 31.6919L72.8633 56.137L46.2613 41.9173C43.4653 52.3025 42.0273 63.2468 42.267 74.5108C42.5067 88.8902 45.3826 102.631 50.3355 115.332C54.889 126.916 58.404 138.739 61.3597 150.722C72.3041 195.298 116.88 245.387 170.324 245.547C223.768 245.706 268.584 195.778 279.848 151.281C282.963 138.979 286.798 126.916 291.431 115.093C296.544 101.832 299.42 87.5322 299.42 72.5935C299.42 61.9687 298.062 51.6634 295.426 41.9173Z" stroke="#26262F" stroke-width="3.74028" stroke-miterlimit="10"/>
<path d="M298.061 111.818C298.061 111.818 310.763 93.604 307.807 60.2117L330.415 49.507L305.89 51.5041L317.394 37.5241L303.573 44.1546L306.289 36.166L270.82 54.7795C270.82 54.7795 270.501 72.6739 278.649 81.8608L274.734 113.575L298.061 111.898V111.818Z" fill="#744C3D"/>
<path d="M283.442 64.365L271.219 60.6902C271.379 61.8885 271.539 63.1667 271.699 64.5248L292.309 73.472L288.634 67.88L308.127 75.3094C308.286 72.8329 308.286 70.1967 308.206 67.4806L278.968 58.3735L283.362 64.365H283.442Z" fill="#BC7651"/>
<path d="M278.729 81.7814L274.815 113.496L298.142 111.819C298.142 111.819 305.411 101.433 307.648 82.0211L293.828 77.148L298.062 82.1808L281.685 74.7515L292.39 83.2194C292.39 83.2194 285.44 81.9412 274.895 75.7101C275.853 77.867 277.132 79.944 278.649 81.7015L278.729 81.7814Z" fill="#543A33"/>
<path d="M298.061 111.818C298.061 111.818 310.763 93.604 307.807 60.2117L330.415 49.507L305.89 51.5041L317.394 37.5241L303.573 44.1546L306.289 36.166L270.82 54.7795C270.82 54.7795 270.501 72.6739 278.649 81.8608L274.734 113.575L298.061 111.898V111.818Z" stroke="#26262F" stroke-width="3.74028" stroke-miterlimit="10"/>
<path d="M42.8255 111.818C42.8255 111.818 30.1236 93.604 33.0794 60.2117L10.4717 49.507L34.9967 51.5041L23.4931 37.5241L37.3133 44.1546L34.5972 36.166L70.0666 54.7795C70.0666 54.7795 70.3861 72.6739 62.2378 81.8608L66.1522 113.575L42.8255 111.898V111.818Z" fill="#744C3D"/>
<path d="M57.5246 64.365L69.7472 60.6902C69.6673 61.8885 69.4276 63.1667 69.2679 64.5248L48.6573 73.472L52.3321 67.88L32.8399 75.3094C32.6801 72.8329 32.6801 70.1967 32.76 67.4806L61.9982 58.3735L57.6045 64.365H57.5246Z" fill="#BC7651"/>
<path d="M62.2385 81.7814L66.153 113.496L42.8263 111.819C42.8263 111.819 35.5566 101.433 33.3198 82.0211L47.1401 77.148L42.9061 82.1808L59.2828 74.7515L48.5781 83.2194C48.5781 83.2194 55.5281 81.9412 66.0731 75.7101C65.1144 77.867 63.8363 79.944 62.3184 81.7015L62.2385 81.7814Z" fill="#543A33"/>
<path d="M42.8255 111.818C42.8255 111.818 30.1236 93.604 33.0794 60.2117L10.4717 49.507L34.9967 51.5041L23.4931 37.5241L37.3133 44.1546L34.5972 36.166L70.0666 54.7795C70.0666 54.7795 70.3861 72.6739 62.2378 81.8608L66.1522 113.575L42.8255 111.898V111.818Z" stroke="#26262F" stroke-width="3.74028" stroke-miterlimit="10"/>
<path d="M161.697 103.35C161.697 127.156 142.364 146.489 118.558 146.489C94.7523 146.489 75.4199 127.156 75.4199 103.35C75.4199 79.5443 94.7523 60.2119 118.558 60.2119C142.364 60.2119 161.697 79.5443 161.697 103.35Z" fill="#FAC8A3"/>
<path d="M147.396 104.468C147.396 120.445 134.454 133.387 118.477 133.387C102.5 133.387 89.5586 120.445 89.5586 104.468C89.5586 88.4908 102.5 75.5493 118.477 75.5493C134.454 75.5493 147.396 88.4908 147.396 104.468Z" fill="#F5A98E"/>
<path d="M75.4196 103.35C75.0202 98.7961 75.4196 94.1627 76.538 89.6092C77.6564 85.0557 79.8133 80.8218 82.4496 76.9074C87.7221 69.0786 95.8704 63.167 104.977 60.2911C109.531 58.9331 114.324 58.294 119.037 58.3738C123.751 58.5336 128.464 59.3325 132.858 61.09C141.725 64.3653 149.234 70.7562 153.868 78.585C147.956 71.6349 140.367 66.4423 131.899 63.9659C130.86 63.6463 129.742 63.4067 128.704 63.0871C127.585 62.9273 126.547 62.6877 125.508 62.5279L123.91 62.2883C123.351 62.2084 122.792 62.2084 122.313 62.1285C121.194 62.0486 120.156 62.0486 119.037 62.0486C114.723 62.2084 110.33 62.7676 106.256 64.0458C102.181 65.4038 98.1871 67.3211 94.6721 69.8774C93.7934 70.5165 92.9146 71.1556 92.0359 71.7947L89.5594 73.9516C88.0416 75.4694 86.5238 77.0672 85.1657 78.8247L84.1272 80.1028L83.2484 81.4609C82.6892 82.4195 81.9703 83.2983 81.4909 84.2569C81.0116 85.2155 80.4524 86.1742 79.8932 87.1328L78.615 90.1684C77.0173 94.3225 75.9788 98.7163 75.4196 103.27V103.35Z" fill="#26262F"/>
<path d="M178.711 103.35C178.711 127.156 198.044 146.489 221.85 146.489C245.656 146.489 264.988 127.156 264.988 103.35C264.988 79.5443 245.656 60.2119 221.85 60.2119C198.044 60.2119 178.711 79.5443 178.711 103.35Z" fill="#FAC8A3"/>
<path d="M193.011 104.468C193.011 120.445 205.953 133.387 221.93 133.387C237.907 133.387 250.849 120.445 250.849 104.468C250.849 88.4908 237.907 75.5493 221.93 75.5493C205.953 75.5493 193.011 88.4908 193.011 104.468Z" fill="#F5A98E"/>
<path d="M245.497 156.475C243.34 152.64 236.39 152.56 229.919 156.235C223.528 159.91 220.093 165.981 222.25 169.736C224.407 173.57 231.357 173.65 237.828 169.975C244.218 166.301 247.653 160.229 245.497 156.475Z" fill="#FBD2BA"/>
<path d="M110.49 156.155C104.099 152.48 97.1487 152.64 94.9119 156.395C92.755 160.229 96.19 166.221 102.581 169.895C108.972 173.57 115.922 173.41 118.159 169.656C120.316 165.821 116.881 159.75 110.49 156.155Z" fill="#FBD2BA"/>
<path d="M264.989 103.35C264.43 98.7968 263.471 94.4031 261.794 90.249L260.515 87.2133C260.036 86.2547 259.477 85.2961 258.918 84.3374C258.438 83.3788 257.719 82.5001 257.16 81.5414L256.281 80.1834L255.243 78.9052C253.885 77.1477 252.367 75.6299 250.849 74.0322L248.373 71.8753C247.574 71.1563 246.615 70.5971 245.736 69.958C242.142 67.4815 238.227 65.5643 234.153 64.1263C229.999 62.8481 225.685 62.209 221.371 62.1292C220.253 62.1292 219.214 62.1291 218.096 62.209C217.537 62.2889 216.978 62.2889 216.498 62.3688L214.901 62.6085C213.782 62.7683 212.744 63.0079 211.705 63.1677C210.667 63.4872 209.548 63.647 208.51 64.0464C200.042 66.5229 192.453 71.7155 186.541 78.6655C191.174 70.7568 198.684 64.4459 207.551 61.1705C211.945 59.4929 216.658 58.6142 221.371 58.4544C226.085 58.3745 230.878 59.0136 235.431 60.3717C244.458 63.2476 252.687 69.0792 257.959 76.9879C260.595 80.9024 262.672 85.1363 263.871 89.6898C264.989 94.2433 265.468 98.8767 264.989 103.43V103.35Z" fill="#26262F"/>
<path d="M20.5381 132.509C17.9018 114.215 26.7692 98.1583 41.5481 97.1997C55.1287 96.321 67.5909 109.023 69.7478 126.039C69.9875 128.116 70.1472 130.193 70.0673 132.19C69.9076 139.14 71.4254 146.09 74.0616 152.401C75.1001 154.957 75.7392 157.753 75.899 160.789C76.2185 170.215 71.1059 178.923 63.6765 179.802C48.2585 181.559 24.9318 162.307 20.5381 132.509Z" fill="#FAC8A3"/>
<path d="M42.1073 102.233C28.4468 103.111 19.899 116.852 20.6978 133.308C20.6179 133.068 20.6179 132.749 20.5381 132.509C17.9018 114.215 26.7692 98.1583 41.5481 97.1997C55.1287 96.321 67.5909 109.023 69.7478 126.039C69.9076 127.157 69.9874 128.355 70.0673 129.474C62.9575 110.621 55.2085 101.434 42.1073 102.233Z" fill="#FAD2C6"/>
<path d="M56.6461 146.807C45.0626 156.873 27.5676 144.171 30.2837 125.318C33.0797 106.465 50.9742 109.42 58.7231 123.88C66.472 138.259 56.6461 140.496 56.6461 146.887V146.807Z" fill="#F5A98E"/>
<path d="M57.6847 143.053C43.7046 142.814 39.8701 118.768 51.2938 118.848C62.7175 118.848 60.8002 137.861 59.8416 139.538C58.8031 141.216 57.6847 143.053 57.6847 143.053Z" fill="#C38372"/>
<path d="M75.7393 164.781C76.2186 166.699 75.9789 168.776 75.3399 170.693C74.7008 172.61 73.6623 174.448 72.3841 175.966C71.026 177.483 69.5082 178.841 67.7507 179.96C66.872 180.519 65.9133 180.998 64.7949 181.398C63.6765 181.797 62.638 181.877 61.5196 181.957C57.2058 182.117 53.2913 180.679 49.7764 179.001C46.2614 177.244 42.9861 174.927 40.0303 172.451C34.1187 167.418 29.1658 161.267 25.4111 154.476C21.6565 147.686 19.1002 140.177 17.9817 132.428C16.9432 124.599 17.7421 116.371 21.2571 109.021C23.0146 105.346 25.5709 101.991 28.9261 99.4348C32.2015 96.8784 36.3555 95.2008 40.5096 94.8813C44.6637 94.4818 48.8976 95.2807 52.6522 97.0382C56.4069 98.7957 59.6023 101.352 62.3185 104.308C64.9547 107.264 67.1116 110.699 68.6294 114.373C70.2272 117.968 71.026 122.043 69.668 126.037C67.3513 122.602 66.153 119.326 64.7949 116.051C63.357 112.856 61.4397 109.82 59.0431 107.264C56.6466 104.707 53.8505 102.55 50.735 101.192C47.6194 99.8342 44.2642 99.275 40.909 99.5945C37.6337 99.994 34.4383 101.272 31.8819 103.269C29.2457 105.346 27.1686 108.062 25.6508 111.178C22.6151 117.409 21.8962 124.759 22.8548 131.709C24.6922 146.008 32.1216 159.509 42.8263 169.175C45.5424 171.572 48.4183 173.729 51.6137 175.406C54.7293 177.004 58.1644 178.282 61.3598 178.202C62.1587 178.202 62.9575 178.043 63.5966 177.883C64.3156 177.643 65.0346 177.324 65.7536 176.844C67.1915 175.965 68.4697 174.847 69.668 173.569C72.0645 171.013 73.9818 168.217 75.6594 164.702L75.7393 164.781Z" fill="#26262F"/>
<path d="M63.1167 157.193C61.0397 156.235 59.2023 154.797 57.6046 153.039C56.8058 152.16 56.1667 151.042 55.7672 149.844C55.2879 148.645 55.1281 147.207 55.3678 145.929C55.7672 143.293 56.9655 141.296 57.9241 139.299L58.6431 137.781L59.0426 137.062C59.2023 136.822 59.2023 136.662 59.2822 136.423C59.6018 135.624 59.6816 134.665 59.6816 133.707C59.6816 131.71 59.2023 129.633 58.5632 127.635C57.8443 125.638 56.9655 123.721 55.927 121.884C53.7701 118.289 50.7344 115.093 46.9798 113.815C45.1424 113.176 43.2251 113.176 41.3079 113.735C39.4705 114.294 37.6331 115.333 36.2751 116.771C33.3992 119.567 32.0411 123.641 31.5618 127.715C31.0825 131.869 31.4819 136.183 32.6802 140.337C33.3193 142.414 34.1181 144.411 35.1567 146.329C36.1952 148.246 37.5532 150.003 39.2309 151.441C37.2337 150.403 35.5561 148.805 34.1181 146.968C32.6802 145.13 31.5618 143.133 30.683 141.056C28.9256 136.822 27.9669 132.109 28.2865 127.396C28.5261 122.682 30.4434 117.809 34.1181 114.454C35.9555 112.777 38.1124 111.498 40.509 110.779C42.9056 110.06 45.6217 110.14 48.0183 110.939C50.4149 111.738 52.4919 113.176 54.1695 114.774C55.927 116.451 57.365 118.289 58.5632 120.286C59.7615 122.283 60.8 124.44 61.519 126.677C62.238 128.914 62.7173 131.23 62.7173 133.707C62.7173 134.905 62.5575 136.263 62.0782 137.541C61.9983 137.861 61.7587 138.18 61.6788 138.42L61.2794 139.139L60.4805 140.577C59.442 142.494 58.3236 144.411 58.004 146.249C57.6845 148.086 58.4035 149.844 59.442 151.601C60.5604 153.359 61.9185 155.116 63.0369 157.113L63.1167 157.193Z" fill="#26262F"/>
<path d="M47.1398 136.262C45.5421 134.345 44.2639 132.108 43.6248 129.472C42.9857 126.916 43.1455 124.04 44.5835 121.563C45.3024 120.365 46.2611 119.247 47.4594 118.368C48.6576 117.489 50.1755 117.01 51.6933 116.93C53.2111 116.85 54.8089 117.249 56.087 118.048C57.3652 118.847 58.4836 119.966 59.2026 121.164L56.4865 122.841C55.3681 121.084 53.6905 119.886 51.7732 119.886C49.8559 119.886 47.8588 121.004 46.6605 122.762C45.4622 124.519 45.0628 126.916 45.2226 129.232C45.3823 131.629 46.1812 133.946 47.2197 136.262H47.1398Z" fill="#26262F"/>
<path d="M319.79 133.307C322.586 115.013 313.799 98.876 299.02 97.8375C285.439 96.8789 272.977 109.581 270.66 126.517C270.341 128.594 270.261 130.671 270.261 132.668C270.341 139.618 268.823 146.568 266.187 152.879C265.148 155.435 264.429 158.231 264.349 161.267C263.95 170.693 269.063 179.481 276.492 180.36C291.91 182.197 315.317 163.024 319.87 133.227L319.79 133.307Z" fill="#FAC8A3"/>
<path d="M298.461 102.87C312.121 103.829 320.589 117.569 319.711 134.106C319.79 133.866 319.79 133.546 319.87 133.307C322.666 115.013 313.879 98.876 299.1 97.8375C285.519 96.8789 273.057 109.581 270.74 126.517C270.581 127.635 270.501 128.833 270.421 129.952C277.691 111.099 285.439 101.992 298.541 102.87H298.461Z" fill="#FAD2C6"/>
<path d="M283.682 147.367C295.186 157.513 312.84 144.891 310.124 125.958C307.488 107.104 289.514 109.98 281.685 124.36C273.856 138.739 283.682 141.056 283.602 147.367H283.682Z" fill="#F5A98E"/>
<path d="M282.644 143.612C296.624 143.453 300.538 119.487 289.114 119.407C277.691 119.327 279.448 138.42 280.487 140.097C281.445 141.775 282.644 143.612 282.644 143.612Z" fill="#C38372"/>
<path d="M264.509 165.261C266.107 168.856 268.104 171.652 270.421 174.208C271.619 175.486 272.897 176.604 274.335 177.483C275.054 177.883 275.773 178.282 276.492 178.522C277.131 178.761 278.01 178.841 278.729 178.841C282.004 178.921 285.359 177.723 288.475 176.125C291.59 174.448 294.546 172.371 297.262 169.974C308.047 160.308 315.476 146.807 317.393 132.587C318.352 125.557 317.713 118.208 314.677 111.977C313.159 108.861 311.082 106.065 308.526 104.068C305.89 101.991 302.774 100.713 299.499 100.313C296.224 99.914 292.789 100.473 289.673 101.831C286.557 103.189 283.761 105.266 281.365 107.823C278.968 110.379 277.051 113.415 275.613 116.61C274.175 119.885 272.977 123.081 270.66 126.596C269.382 122.602 270.181 118.527 271.779 114.933C273.376 111.338 275.453 107.903 278.169 104.867C280.886 101.911 284.081 99.3548 287.836 97.6772C291.59 95.9197 295.824 95.2007 299.978 95.6001C304.132 95.9996 308.207 97.5973 311.482 100.234C314.757 102.79 317.314 106.225 319.071 109.9C322.586 117.249 323.385 125.477 322.266 133.306C321.148 141.055 318.512 148.485 314.677 155.275C310.923 162.065 305.97 168.216 299.978 173.249C297.023 175.726 293.747 177.963 290.232 179.72C286.717 181.398 282.803 182.836 278.489 182.676C277.371 182.596 276.332 182.436 275.214 182.117C274.175 181.717 273.217 181.238 272.338 180.679C270.58 179.56 269.062 178.202 267.704 176.604C266.426 175.087 265.388 173.249 264.749 171.332C264.11 169.415 263.95 167.338 264.429 165.42L264.509 165.261Z" fill="#26262F"/>
<path d="M277.132 157.752C278.33 155.755 279.688 153.998 280.806 152.24C281.925 150.483 282.644 148.725 282.324 146.888C282.005 145.05 280.886 143.133 279.848 141.216L279.049 139.778L278.649 139.059C278.49 138.819 278.33 138.42 278.25 138.18C277.771 136.902 277.611 135.624 277.611 134.346C277.611 131.869 278.17 129.552 278.889 127.316C279.608 125.079 280.647 123.002 281.845 121.005C283.043 119.007 284.561 117.17 286.319 115.493C288.076 113.895 290.153 112.457 292.55 111.658C294.946 110.859 297.662 110.779 300.059 111.498C302.455 112.217 304.612 113.495 306.45 115.173C310.125 118.608 311.962 123.481 312.202 128.194C312.441 132.908 311.562 137.541 309.725 141.855C308.846 144.012 307.648 146.009 306.21 147.766C304.772 149.524 303.095 151.122 301.097 152.16C302.775 150.722 304.133 148.965 305.251 147.047C306.29 145.13 307.169 143.133 307.728 141.056C308.926 136.902 309.406 132.588 308.846 128.434C308.367 124.36 307.009 120.286 304.133 117.49C302.775 116.132 300.938 115.013 299.1 114.454C297.263 113.895 295.266 113.895 293.428 114.534C289.674 115.732 286.638 119.007 284.481 122.522C283.363 124.28 282.484 126.277 281.765 128.194C281.046 130.192 280.647 132.269 280.567 134.266C280.567 135.224 280.647 136.183 280.966 136.982C281.046 137.221 281.126 137.301 281.206 137.621L281.605 138.34L282.324 139.858C283.283 141.855 284.481 143.932 284.881 146.488C285.04 147.766 284.881 149.204 284.401 150.403C284.002 151.601 283.283 152.639 282.564 153.598C281.046 155.435 279.129 156.794 277.052 157.752H277.132Z" fill="#26262F"/>
<path d="M293.268 136.901C294.307 134.584 295.106 132.268 295.265 129.951C295.505 127.634 295.106 125.238 293.828 123.48C292.629 121.723 290.632 120.524 288.715 120.604C286.798 120.604 285.04 121.803 283.922 123.56L281.206 121.803C282.004 120.604 283.043 119.486 284.321 118.687C285.599 117.888 287.197 117.489 288.715 117.648C290.233 117.728 291.671 118.208 292.869 119.086C294.067 119.965 295.026 121.084 295.745 122.282C297.103 124.758 297.263 127.714 296.624 130.191C295.984 132.747 294.706 134.984 293.109 136.901H293.268Z" fill="#26262F"/>
<path fill-rule="evenodd" clip-rule="evenodd" d="M160.977 117.33C164.092 141.295 151.79 162.705 133.496 165.022C115.202 167.418 97.867 149.843 94.7514 125.877C91.6359 101.912 103.938 80.5022 122.232 78.1855C140.526 75.7889 157.861 93.3639 160.977 117.33Z" fill="#FEFEFE"/>
<path d="M94.7515 125.958C94.5118 124.999 94.3521 124.12 94.1124 123.162L93.7929 121.724C93.713 121.244 93.6331 120.765 93.6331 120.286L93.3135 117.41C93.2337 116.451 93.2337 115.493 93.2337 114.454C93.1538 112.457 93.3135 110.54 93.4733 108.542C93.6331 107.584 93.7929 106.625 93.9526 105.587L94.1923 104.149L94.5118 102.711C95.3906 98.7964 96.9084 95.0417 98.9056 91.5268C99.4648 90.648 99.9441 89.7693 100.503 88.8905L102.341 86.4141C102.98 85.6152 103.699 84.8962 104.418 84.0974C105.057 83.2985 105.936 82.6594 106.654 81.9404C109.85 79.2243 113.525 77.0674 117.679 75.8691C121.753 74.7507 126.147 74.511 130.301 75.23C134.535 75.8691 138.449 77.5467 141.964 79.7036C145.479 81.9405 148.674 84.5767 151.231 87.7721C153.867 90.8877 156.104 94.2429 157.861 97.9176C158.82 99.6751 159.459 101.592 160.258 103.43C160.578 104.388 160.897 105.347 161.217 106.306L161.696 107.744C161.856 108.223 161.936 108.702 162.015 109.182C163.853 116.93 164.332 124.999 162.894 132.748C162.575 134.745 162.095 136.582 161.536 138.5C161.296 139.458 160.897 140.337 160.578 141.296L160.098 142.654C159.938 143.133 159.699 143.532 159.539 144.012C158.021 147.687 155.864 151.042 153.388 154.077C148.515 160.229 141.085 164.383 133.496 164.942C141.005 163.344 147.396 158.711 151.55 152.64C153.627 149.604 155.305 146.328 156.503 142.814C156.663 142.414 156.823 141.935 156.983 141.535L157.382 140.177C157.622 139.299 157.941 138.42 158.101 137.541C158.421 135.704 158.82 133.946 158.98 132.109C159.219 130.271 159.219 128.434 159.299 126.597C159.379 125.718 159.219 124.759 159.219 123.881C159.14 123.002 159.219 122.043 159.06 121.164C158.82 119.327 158.74 117.49 158.261 115.732C158.101 114.853 157.941 113.975 157.702 113.016L156.983 110.38C156.743 109.501 156.503 108.622 156.184 107.823C155.864 106.945 155.625 106.146 155.305 105.267C154.506 103.59 153.947 101.912 152.988 100.394C151.391 97.1987 149.234 94.2429 146.917 91.6066C144.6 88.9704 141.884 86.6537 138.928 84.8962C135.973 83.0588 132.777 81.7807 129.422 81.3014C126.067 80.7422 122.712 80.9818 119.436 81.8606L117.04 82.6594C116.241 82.979 115.522 83.3784 114.723 83.6979C114.563 83.7778 114.324 83.8577 114.164 83.9376L113.605 84.2571L112.486 84.8962C112.167 85.1359 111.767 85.2956 111.448 85.6152L110.409 86.4141C107.693 88.4911 105.296 91.1273 103.379 94.0831C101.382 97.0389 99.7044 100.234 98.5061 103.669L98.0268 104.948L97.6274 106.226C97.3877 107.105 97.0682 107.983 96.8285 108.862C96.509 110.699 95.9498 112.457 95.7101 114.294C95.071 117.969 94.9113 121.724 94.7515 125.638V125.958Z" fill="#26262F"/>
<path fill-rule="evenodd" clip-rule="evenodd" d="M152.43 122.92C154.587 139.617 146.039 154.475 133.337 156.073C120.635 157.751 108.572 145.528 106.416 128.832C104.259 112.136 112.806 97.2771 125.508 95.6794C138.21 94.0018 150.273 106.224 152.43 122.92Z" fill="#26262F"/>
<path fill-rule="evenodd" clip-rule="evenodd" d="M105.376 137.541L120.474 128.913L103.778 122.362L105.376 137.541Z" fill="#FEFEFE"/>
<path fill-rule="evenodd" clip-rule="evenodd" d="M179.431 117.33C176.316 141.295 188.618 162.705 206.912 165.022C225.206 167.418 242.541 149.843 245.657 125.877C248.772 101.912 236.47 80.5022 218.176 78.1855C199.882 75.7889 182.547 93.3639 179.431 117.33Z" fill="#FEFEFE"/>
<path d="M245.656 125.957C245.496 122.122 245.416 118.368 244.697 114.613C244.458 112.776 243.899 110.938 243.579 109.181C243.339 108.302 243.02 107.423 242.78 106.545L242.381 105.266L241.901 103.988C240.703 100.553 238.946 97.3577 237.028 94.402C235.111 91.4462 232.635 88.81 229.998 86.7329L228.96 85.934C228.64 85.6944 228.241 85.4547 227.921 85.2151L226.803 84.576L226.244 84.2564C226.084 84.1766 225.844 84.0967 225.685 84.0168C224.886 83.6973 224.167 83.2978 223.368 82.9783L220.971 82.1794C217.696 81.3007 214.341 81.061 210.986 81.6202C207.63 82.0995 204.435 83.3777 201.479 85.2151C198.523 87.0524 195.807 89.2893 193.491 91.9255C191.174 94.5617 189.017 97.5175 187.419 100.713C186.461 102.231 185.901 103.988 185.103 105.586C184.783 106.465 184.463 107.264 184.224 108.142C183.904 109.021 183.585 109.82 183.425 110.699L182.706 113.335C182.466 114.214 182.386 115.092 182.147 116.051C181.747 117.809 181.588 119.646 181.348 121.483C181.188 122.362 181.268 123.321 181.188 124.199C181.188 125.078 181.108 126.037 181.108 126.916C181.188 128.753 181.188 130.59 181.428 132.428C181.588 134.265 181.987 136.023 182.307 137.86C182.466 138.739 182.786 139.617 183.026 140.496L183.425 141.854C183.585 142.254 183.745 142.733 183.904 143.132C185.103 146.647 186.78 149.923 188.857 152.958C192.931 159.03 199.402 163.743 206.911 165.261C199.322 164.702 191.893 160.547 187.02 154.396C184.543 151.361 182.386 148.005 180.869 144.331C180.709 143.851 180.469 143.452 180.309 142.973L179.83 141.615C179.511 140.656 179.111 139.777 178.871 138.819C178.392 136.901 177.833 134.984 177.513 133.067C176.075 125.238 176.555 117.249 178.392 109.5C178.472 109.021 178.632 108.542 178.712 108.062L179.191 106.625C179.511 105.666 179.75 104.707 180.15 103.749C180.948 101.911 181.588 99.994 182.546 98.2365C184.304 94.6416 186.541 91.2065 189.177 88.091C191.733 84.9754 194.929 82.2593 198.444 80.0225C201.959 77.8656 205.873 76.188 210.107 75.5489C214.261 74.8299 218.655 75.0695 222.729 76.188C226.883 77.3064 230.558 79.5432 233.753 82.2593C234.552 82.9783 235.351 83.6174 235.99 84.4162C236.709 85.2151 237.428 85.9341 238.067 86.7329L239.904 89.2094C240.464 90.0082 240.943 90.9669 241.502 91.8456C243.499 95.3606 245.017 99.1152 245.896 103.03L246.215 104.468L246.455 105.906C246.615 106.864 246.775 107.823 246.934 108.861C247.094 110.858 247.254 112.776 247.174 114.773C247.174 115.731 247.174 116.69 247.094 117.729L246.775 120.605C246.695 121.084 246.695 121.563 246.615 122.042L246.295 123.48C246.056 124.439 245.896 125.398 245.656 126.276V125.957Z" fill="#26262F"/>
<path fill-rule="evenodd" clip-rule="evenodd" d="M187.978 122.92C185.822 139.617 194.369 154.475 207.071 156.073C219.773 157.751 231.836 145.528 233.993 128.832C236.15 112.136 227.602 97.2771 214.9 95.6794C202.198 94.0018 190.135 106.224 187.978 122.92Z" fill="#26262F"/>
<path fill-rule="evenodd" clip-rule="evenodd" d="M235.032 137.541L219.933 128.913L236.629 122.362L235.032 137.541Z" fill="#FEFEFE"/>
<path d="M196.047 181.558C195.967 181.558 195.887 181.478 195.807 181.478C175.836 174.448 150.672 178.602 146.837 179.64C146.757 179.64 146.678 179.64 146.598 179.72C138.13 182.037 133.097 190.745 135.334 199.292C137.571 207.84 146.358 213.033 154.906 210.716C167.528 207.361 179.75 210.237 179.83 210.237H179.75C181.508 210.636 183.265 211.116 185.103 211.755C193.491 214.71 202.598 210.317 205.554 201.929C208.509 193.621 204.195 184.514 195.967 181.558H196.047Z" fill="#26262F"/>
<path d="M146.837 179.72C146.758 179.72 146.678 179.72 146.598 179.8C145.959 179.959 145.4 180.199 144.84 180.439C149.953 185.072 159.38 188.188 170.244 188.188C180.469 188.188 189.497 185.392 194.769 181.238C174.957 174.767 150.752 178.761 146.917 179.8L146.837 179.72Z" fill="#FEFEFE"/>
<path d="M185.183 211.754C186.541 212.234 187.899 212.473 189.337 212.633C185.822 203.047 175.517 195.298 162.575 193.62C162.096 193.54 161.697 193.54 161.217 193.46C167.768 197.535 167.608 203.446 167.608 203.446C164.652 197.854 155.386 192.582 146.918 194.818C142.684 196.097 138.929 198.094 135.894 200.73C138.69 208.479 146.918 212.873 155.066 210.796C167.688 207.44 179.911 210.316 179.991 210.316H179.911C181.668 210.716 183.426 211.195 185.263 211.834L185.183 211.754Z" fill="#F088A3"/>
<path d="M196.047 181.558C195.967 181.558 195.887 181.478 195.807 181.478C175.836 174.448 150.672 178.602 146.837 179.64C146.757 179.64 146.678 179.64 146.598 179.72C138.13 182.037 133.097 190.745 135.334 199.292C137.571 207.84 146.358 213.033 154.906 210.716C167.528 207.361 179.75 210.237 179.83 210.237H179.75C181.508 210.636 183.265 211.116 185.103 211.755C193.491 214.71 202.598 210.317 205.554 201.929C208.509 193.621 204.195 184.514 195.967 181.558H196.047Z" stroke="#26262F" stroke-width="3.74028" stroke-miterlimit="10"/>
<path d="M164.972 132.348C175.597 115.252 183.985 134.664 183.665 149.603C183.665 149.603 186.621 148.564 193.89 151.52C201.16 154.476 197.965 179.8 169.765 172.291C148.595 166.619 164.972 132.348 164.972 132.348Z" fill="#F5A98E"/>
<path d="M192.212 156.154C192.212 157.592 189.656 158.79 186.54 158.79C183.425 158.79 180.868 157.592 180.868 156.154C180.868 154.716 183.425 153.518 186.54 153.518C189.656 153.518 192.212 154.716 192.212 156.154Z" fill="#FBD2BA"/>
<path d="M174.957 126.037C177.194 126.516 179.032 128.274 180.39 130.111C181.748 131.949 182.866 134.026 183.665 136.183C184.464 138.34 185.183 140.496 185.502 142.813C185.822 145.05 185.982 147.367 185.662 149.683L182.866 147.686L183.106 147.606L183.265 147.526C183.345 147.526 183.505 147.447 183.585 147.447C183.825 147.367 183.984 147.367 184.144 147.367C184.544 147.287 184.863 147.287 185.183 147.287C185.902 147.287 186.541 147.287 187.18 147.367C188.458 147.526 189.656 147.766 190.855 148.086C192.053 148.405 193.171 148.805 194.29 149.204C194.529 149.284 195.009 149.524 195.408 149.683C195.808 149.923 196.127 150.163 196.527 150.482C196.846 150.802 197.086 151.121 197.405 151.441C197.645 151.76 197.885 152.08 198.044 152.399C198.843 153.758 199.163 155.195 199.323 156.554C199.482 157.912 199.482 159.27 199.243 160.548C198.843 163.184 197.805 165.661 196.287 167.817C194.769 169.974 192.772 171.652 190.535 172.93C188.298 174.208 185.822 174.847 183.345 175.087C178.472 175.487 173.759 174.368 169.605 172.371C171.922 172.451 174.158 172.611 176.395 172.531C178.632 172.451 180.789 172.291 182.866 171.812C186.94 170.933 190.615 168.696 192.612 165.421C193.651 163.823 194.29 161.906 194.529 159.989C194.769 158.151 194.529 156.154 193.81 154.876L193.571 154.477C193.491 154.397 193.411 154.237 193.251 154.157C193.171 154.077 193.091 153.997 192.932 153.917C192.852 153.837 192.772 153.837 192.452 153.678C191.414 153.278 190.455 152.879 189.417 152.559C188.378 152.24 187.42 152 186.461 151.84C185.982 151.76 185.502 151.68 185.023 151.68C184.783 151.68 184.544 151.68 184.384 151.68H184.144H184.064C184.064 151.68 184.064 151.68 184.144 151.68L181.348 149.683C181.109 147.606 180.949 145.609 180.709 143.532C180.469 141.455 180.31 139.378 179.91 137.381C179.511 135.304 179.032 133.307 178.233 131.389C177.514 129.472 176.475 127.635 174.718 126.277L174.957 126.037Z" fill="#26262F"/>
</svg>
