<svg width="105" height="110" viewBox="0 0 105 110" fill="none" xmlns="http://www.w3.org/2000/svg">
<path d="M64.1484 17.5749L23.6462 29.7176L19.0927 13.1013L59.5949 0.95863L64.1484 17.5749ZM92.0286 19.2525L76.1313 24.0457L75.9715 23.5664L75.8117 23.1669L75.652 22.7675L75.4922 22.3681L75.2525 21.9686L75.0129 21.5692L74.7732 21.1698L74.5336 20.8502L74.214 20.5307L73.8945 20.2111L73.5749 19.8916L73.2554 19.5721L72.9358 19.2525L72.5364 19.0129L72.137 18.7732L71.7376 18.5335L71.3381 18.2939L70.9387 18.1341L70.5393 17.9743L70.0599 17.8146L69.5807 17.6548L69.1013 17.5749L68.622 17.495L68.1427 17.4151L67.6634 17.3352H67.1841H66.7048H66.2254L65.7461 17.4151L65.2668 17.495L64.7875 17.5749L64.3082 17.7347L59.7547 1.1184L61.0329 0.798859L62.311 0.479315L63.5892 0.239656L64.8674 0.079884L66.1456 0H67.4237L68.7019 0.079884L69.9801 0.159772L71.2582 0.319543L72.5364 0.559199L73.7347 0.878743L74.933 1.19829L76.1313 1.59772L77.3296 2.07703L78.448 2.63624L79.5664 3.19543L80.6848 3.83452L81.7233 4.5535L82.7618 5.27247L83.7205 6.07133L84.6791 6.95008L85.5578 7.82882L86.4366 8.78745L87.2354 9.82597L88.0343 10.8645L88.7533 11.9829L89.4722 13.1013L90.1113 14.2996L90.6705 15.4979L91.2297 16.776L91.7091 18.0542L92.1085 19.4123L92.0286 19.2525ZM88.0343 67.8232L76.1313 24.0457L92.0286 19.2525L103.932 63.03L88.0343 67.8232ZM85.5578 96.5821L81.0043 79.9658L81.4836 79.8061L81.963 79.6463L82.4423 79.4066L82.9216 79.167L83.321 78.9273L83.7205 78.6876L84.1199 78.3681L84.5193 78.0486L84.9187 77.729L85.2383 77.4095L85.5578 77.0899L85.8774 76.6905L86.1969 76.2911L86.5165 75.8916L86.7561 75.4922L86.9958 75.0928L87.2354 74.6933L87.4751 74.2939L87.6349 73.8945L87.7946 73.4152L87.9544 72.9359L88.0343 72.4565L88.1142 71.9772L88.1941 71.4979L88.274 71.0186V70.5393V70.06V69.5807L88.1941 69.1013L88.1142 68.622L88.0343 68.1427L87.9544 67.6634L103.852 62.8702L104.171 64.2283L104.411 65.5864L104.571 66.9444L104.651 68.3025L104.73 69.6605V71.0186L104.651 72.3767L104.491 73.7347L104.251 75.0129L104.011 76.2911L103.692 77.5692L103.292 78.8474L102.813 80.0457L102.334 81.244L101.775 82.4423L101.136 83.5607L100.497 84.6791L99.7775 85.7975L99.0586 86.836L98.2597 87.8745L97.381 88.8332L96.5022 89.7918L95.5436 90.6705L94.5849 91.5493L93.5464 92.3481L92.5079 93.0671L91.3895 93.7861L90.2711 94.4252L89.0728 94.9844L87.8745 95.5436L86.5963 96.0229L85.3182 96.4223L85.5578 96.5821ZM40.582 92.0286L81.0842 79.8859L85.6377 96.5022L45.1355 108.645L40.582 92.0286ZM12.7018 90.351L28.5992 85.5578L28.7589 86.0372L28.9187 86.4366L29.0785 86.836L29.2383 87.2354L29.4779 87.6349L29.7176 88.0343L29.9572 88.4337L30.1969 88.7533L30.5164 89.0728L30.8359 89.3924L31.1555 89.7119L31.4751 90.0315L31.8745 90.351L32.2739 90.5907L32.6733 90.8303L33.0728 91.07L33.4722 91.3096L33.8716 91.4694L34.271 91.6292L34.7504 91.7889L35.2297 91.9487L35.709 92.0286L36.1883 92.1085L36.6676 92.1884L37.1469 92.2683H37.6263H38.1056H38.5849L39.0642 92.1884L39.5435 92.1085L40.0228 92.0286L40.5022 91.8688L45.0557 108.485L43.7775 108.805L42.4993 109.124L41.2211 109.364L39.943 109.524L38.6648 109.604H37.3866L36.1084 109.524L34.8302 109.444L33.5521 109.284L32.2739 109.044L31.0756 108.725L29.8773 108.405L28.679 108.006L27.4808 107.526L26.3624 106.967L25.244 106.408L24.1255 105.769L23.087 105.05L22.0485 104.331L21.0899 103.532L20.1312 102.653L19.2525 101.775L18.3738 100.816L17.5749 99.8574L16.776 98.8189L16.0571 97.7005L15.3381 96.5821L14.699 95.3838L14.1398 94.1855L13.5806 92.9073L13.1013 91.6292L12.7018 90.2711V90.351ZM16.6961 41.7803L28.5992 85.5578L12.7018 90.351L0.798847 46.5735L16.6961 41.7803ZM19.1726 13.0214L23.7261 29.6377L23.2468 29.7975L22.7675 29.9572L22.2882 30.1969L21.8089 30.4365L21.4094 30.6762L21.01 30.9159L20.6106 31.2354L20.2111 31.5549L19.8117 31.8745L19.4922 32.194L19.1726 32.5136L18.8531 32.913L18.5335 33.3124L18.214 33.7119L17.9743 34.1113L17.7347 34.5107L17.495 34.9102L17.2554 35.3096L17.0956 35.709L16.9358 36.1883L16.776 36.6676L16.6961 37.147L16.6163 37.6263L16.5364 38.1056L16.4565 38.5849V39.0642V39.5435V40.0229L16.5364 40.5022L16.6163 40.9815L16.6961 41.4608L16.776 41.9401L0.87872 46.7333L0.559199 45.3752L0.319521 44.0172L0.159745 42.6591L0.0798725 41.301L0 39.943V38.5849L0.0798725 37.2268L0.239648 35.8688L0.479296 34.5906L0.718944 33.3124L1.0385 32.0343L1.43792 30.7561L1.91725 29.5578L2.39657 28.3595L2.95577 27.1612L3.59484 26.0428L4.23395 24.9244L4.95292 23.806L5.67189 22.7675L6.47074 21.729L7.34949 20.7703L8.22824 19.8117L9.18687 18.933L10.1455 18.0542L11.184 17.2554L12.2225 16.5364L13.3409 15.8174L14.4593 15.1783L15.6576 14.6191L16.8559 14.0599L18.1341 13.5806L19.4123 13.1812L19.1726 13.0214Z" fill="#FEFEFE"/>
<path fill-rule="evenodd" clip-rule="evenodd" d="M21.329 21.3299L61.8311 9.18726C71.4175 6.31136 81.4032 11.9034 84.0394 21.5696L95.9424 65.3471C98.5787 75.0133 92.8269 85.3186 83.2406 88.1945L42.7384 100.337C33.1521 103.213 23.1664 97.621 20.5301 87.9548L8.62712 44.1773C5.99089 34.5111 11.7427 24.2058 21.329 21.3299Z" fill="#99CFAD"/>
<path fill-rule="evenodd" clip-rule="evenodd" d="M56.7986 50.6476C58.3963 49.689 59.1952 51.8459 58.2365 52.485C56.7187 53.5235 55.6003 51.3666 56.7986 50.6476ZM45.1353 57.0385C45.6146 58.5563 46.0939 60.7133 45.9341 62.311C45.9341 62.6305 45.9341 62.3909 45.8542 62.6305C45.7743 62.9501 45.7743 62.7903 45.6945 62.9501L45.7744 63.3495L45.6945 63.5093L45.5347 63.5892L45.6146 63.669L45.6945 63.5093L45.7744 63.3495C47.6916 62.8702 49.6089 61.6719 51.0468 60.6334C53.5233 58.8759 54.1624 57.7575 55.0411 57.1184C55.2009 59.0357 55.2808 60.9529 55.4405 62.8702C55.5204 63.8288 55.6802 64.8673 55.84 65.9058C55.9997 66.7846 56.4791 68.2225 56.4791 68.9415C57.5975 67.4237 59.4349 65.826 61.9113 65.3466C61.1125 64.5478 59.994 60.3937 59.6745 59.0357C59.0354 56.1598 58.9555 55.4408 59.9142 53.0442C60.1538 52.4051 61.5119 51.766 62.151 51.2867C67.1838 47.5321 68.1424 46.174 71.9769 42.0998L76.0511 36.8274C77.0896 35.4693 78.7672 32.2739 79.3264 31.3152C79.8057 30.5963 80.2052 29.7974 80.4449 28.9985L59.2751 47.5321C58.7958 45.8545 59.5147 35.6291 59.5946 33.0727C59.7544 28.4393 60.2337 23.3266 60.2337 18.853C59.7544 19.4921 59.5147 20.3709 59.1952 21.2496C58.8757 22.0485 58.5561 22.8473 58.3164 23.7261C57.6774 25.3238 57.2779 27.0014 56.7986 28.679C55.84 31.9543 55.2009 35.6291 54.8014 39.2239C54.0825 45.7746 54.9612 46.3338 54.9612 51.1269C54.9612 51.8459 54.8015 51.9258 54.402 52.3252C51.5261 55.1212 49.2094 56.1598 45.1353 57.0385Z" fill="#858685"/>
<path fill-rule="evenodd" clip-rule="evenodd" d="M66.8642 77.8097C67.1039 81.085 66.0654 85.958 62.5504 86.3575C59.0354 86.7569 56.8785 81.6442 56.6388 78.289C56.3992 75.0137 57.5176 70.3004 60.8728 69.8211C64.228 69.3418 66.6246 73.8952 66.9441 77.8097H66.8642ZM56.4791 68.9423L56.3992 69.1021L56.3193 69.2619L56.2394 69.4216L56.1595 69.5814L56.0796 69.7412L55.9998 69.901L55.84 70.0607C52.4049 76.2918 53.8428 86.8368 59.0354 89.8724C61.0326 90.9908 63.6688 90.8311 65.6659 88.9138C70.2993 84.6 70.8585 74.4544 67.1838 68.7027C66.0654 66.8653 63.9884 65.1078 61.9113 65.1877C59.355 65.667 57.5975 67.3446 56.4791 68.7825V68.9423Z" fill="#EA2326"/>
<path fill-rule="evenodd" clip-rule="evenodd" d="M30.4364 71.8971C29.5577 71.8172 28.9985 71.4178 28.5192 70.6988C25.803 67.2637 30.6761 61.1125 35.3893 59.5147C39.9428 57.917 43.2182 60.074 42.0199 64.3079C40.8216 68.7016 34.7502 73.0954 30.4364 71.977V71.8971ZM44.9756 64.947C44.9756 64.4677 45.0555 64.4677 45.2153 64.0682C45.2952 63.9085 45.2952 63.8286 45.3751 63.6688C45.5348 63.3493 45.455 63.5889 45.5348 63.4292L45.6946 62.7901C45.5348 62.2309 45.6946 61.3521 45.6147 60.7929C45.6147 60.2337 45.3751 59.1952 45.2952 58.636C44.8958 56.7986 44.3366 56.1595 43.1383 55.6802C42.1796 55.2808 40.9015 54.9612 39.5434 55.0411C37.1468 55.2009 35.9485 55.9199 35.2296 55.9199C32.3537 56.3992 28.0398 60.5533 26.2823 62.9498C24.8444 64.947 22.3679 70.539 25.8829 73.5747C28.6789 76.0511 33.7916 75.0126 37.706 72.6959C40.3423 71.0982 42.0998 69.3407 43.7774 67.024C44.0969 66.5447 44.9756 65.4263 44.9756 64.7872V64.947Z" fill="#EA2326"/>
<path fill-rule="evenodd" clip-rule="evenodd" d="M56.7984 50.6486C55.68 51.3676 56.7185 53.5245 58.2363 52.486C59.195 51.8469 58.3961 49.69 56.7984 50.6486Z" fill="#D1D1D1"/>
<path fill-rule="evenodd" clip-rule="evenodd" d="M45.6945 62.9492L45.5347 63.5883C45.4548 63.748 45.5347 63.5084 45.3749 63.8279C45.295 63.9078 45.295 64.0676 45.2152 64.2274C45.0554 64.6268 44.9755 64.6268 44.9755 65.1061C45.295 64.7866 44.9755 65.186 45.295 64.7866C45.4548 64.5469 45.295 64.7866 45.4548 64.5469C45.5347 64.3072 45.5347 64.2274 45.6945 63.8279L45.6146 63.748L45.7744 63.6681L45.8542 63.5084L45.7744 63.109C45.8542 62.9492 45.8542 63.109 45.9341 62.7894C46.014 62.5497 45.9341 62.7894 46.014 62.4699C46.1738 60.8721 45.6945 58.7152 45.2152 57.1974C44.4163 56.5583 44.2565 56.2388 43.3778 55.8393C42.6588 55.5198 42.0996 55.2801 41.141 55.2002C40.1024 55.0405 36.0282 55.4399 35.3892 56.2388C36.1081 56.2388 37.3064 55.5198 39.703 55.36C41.0611 55.2801 42.3392 55.5198 43.2979 55.9991C44.4962 56.4784 45.0554 57.1175 45.4548 58.9549C45.6146 59.594 45.7744 60.5526 45.7744 61.1118C45.7744 61.671 45.6945 62.5497 45.8542 63.109L45.6945 62.9492Z" fill="#C13A3D"/>
<path fill-rule="evenodd" clip-rule="evenodd" d="M30.4363 71.898L29.957 71.6583C28.9185 71.2589 29.5575 71.5785 28.6788 70.8595L28.5989 70.7796L28.519 70.6997C28.9984 71.4187 29.5575 71.7382 30.4363 71.898Z" fill="#EB9395"/>
</svg>
