<svg width="178" height="178" viewBox="0 0 178 178" fill="none" xmlns="http://www.w3.org/2000/svg">
<path d="M72.5364 22.1284L21.9686 72.6962L11.184 61.9116L61.7519 11.3438L72.5364 22.1284ZM115.835 11.3438L104.97 22.2083L104.091 21.4094L103.213 20.6106L102.334 19.8916L101.375 19.2525L100.417 18.6134L99.458 18.0542L98.4195 17.5749L97.381 17.0956L96.3424 16.6962L95.3039 16.3766L94.2654 16.0571L93.147 15.8174L92.0286 15.6576L90.9102 15.4979L89.7918 15.418H88.6734H87.555L86.4366 15.4979L85.3182 15.6576L84.1998 15.8174L83.0814 16.0571L82.0429 16.3766L81.0044 16.6962L79.9658 17.0956L78.9273 17.5749L77.8888 18.0542L76.9302 18.6134L75.9715 19.1726L75.0129 19.8117L74.1342 20.5307L73.2554 21.2497L72.3767 22.0485L61.5921 11.2639L63.03 9.90586L64.468 8.62768L65.9858 7.4294L67.5835 6.31098L69.1812 5.27247L70.8588 4.39372L72.5364 3.59486L74.214 2.8759L75.9715 2.2368L77.729 1.6776L79.4865 1.19829L81.3239 0.798863L83.1613 0.479311L84.9987 0.239648L86.836 0.0798878L88.6734 0L90.5108 0.0798878L92.3481 0.239648L94.1855 0.479311L96.0229 0.798863L97.8603 1.19829L99.6178 1.6776L101.375 2.2368L103.133 2.8759L104.81 3.59486L106.488 4.39372L108.166 5.27247L109.763 6.31098L111.361 7.4294L112.879 8.62768L114.317 9.90586L115.755 11.2639L115.835 11.3438ZM155.218 72.3767L104.97 22.1284L115.835 11.2639L166.083 61.5122L155.218 72.3767ZM166.003 115.675L155.218 104.89L156.017 104.012L156.736 103.133L157.455 102.254L158.094 101.295L158.653 100.337L159.213 99.3781L159.692 98.3396L160.171 97.3011L160.571 96.2626L160.89 95.224L161.21 94.1855L161.449 93.0671L161.609 91.9487L161.769 90.8303L161.849 89.7119V88.5935V87.4751L161.769 86.3567L161.609 85.2383L161.449 84.1199L161.21 83.0015L160.89 81.963L160.571 80.9245L160.171 79.8859L159.692 78.8474L159.213 77.8089L158.653 76.8503L158.014 75.8916L157.375 74.933L156.656 74.0543L155.857 73.1755L155.059 72.2968L165.923 61.4323L167.281 62.8702L168.559 64.3082L169.758 65.826L170.876 67.4237L171.915 69.0215L172.793 70.6991L173.592 72.3767L174.311 74.0543L174.95 75.8118L175.509 77.5692L175.989 79.3267L176.388 81.1641L176.708 83.0015L176.947 84.8389L177.107 86.6762L177.187 88.5136L177.107 90.351L176.947 92.1884L176.708 94.0258L176.388 95.8631L175.989 97.7005L175.509 99.458L174.95 101.215L174.311 102.973L173.592 104.651L172.793 106.328L171.915 108.006L170.876 109.604L169.758 111.201L168.559 112.719L167.281 114.157L165.923 115.595L166.003 115.675ZM104.651 155.378L155.218 104.81L166.003 115.595L115.435 166.163L104.651 155.378ZM61.3524 166.163L72.2169 155.298L73.0956 156.097L73.9744 156.896L74.8531 157.615L75.8118 158.254L76.7704 158.893L77.729 159.452L78.7675 159.932L79.8061 160.411L80.8446 160.81L81.8831 161.13L82.9216 161.449L84.04 161.689L85.1584 161.849L86.2768 162.009L87.3952 162.089H88.5136H89.632L90.7504 162.009L91.8688 161.849L92.9872 161.689L94.1056 161.449L95.1441 161.13L96.1827 160.81L97.2212 160.411L98.2597 159.932L99.2982 159.452L100.257 158.893L101.215 158.334L102.174 157.695L103.053 156.976L103.932 156.257L104.81 155.458L115.595 166.243L114.157 167.601L112.719 168.879L111.201 170.077L109.604 171.196L108.006 172.234L106.328 173.113L104.651 173.912L102.893 174.631L101.136 175.27L99.3781 175.829L97.6206 176.308L95.7832 176.708L93.9459 177.027L92.1085 177.267L90.2711 177.427L88.4338 177.507L86.5964 177.427L84.759 177.267L82.9216 177.027L81.0842 176.708L79.2469 176.308L77.4894 175.829L75.7319 175.27L73.9744 174.631L72.2968 173.912L70.6192 173.113L68.9416 172.234L67.3438 171.196L65.7461 170.077L64.2283 168.879L62.7903 167.601L61.3524 166.243V166.163ZM21.9686 105.13L72.2169 155.378L61.3524 166.243L11.1042 115.994L21.9686 105.13ZM11.184 61.8317L21.9686 72.6163L21.1698 73.4951L20.4508 74.3738L19.7318 75.2526L19.0928 76.2112L18.5336 77.1698L17.9743 78.1284L17.495 79.167L17.0157 80.2055L16.6163 81.244L16.2967 82.2825L15.9772 83.321L15.7375 84.4394L15.5778 85.5578L15.418 86.6762L15.3381 87.7946V88.9131V90.0315L15.418 91.1499L15.5778 92.2683L15.7375 93.3867L15.9772 94.5051L16.2967 95.5436L16.6163 96.5821L17.0157 97.6206L17.495 98.6591L17.9743 99.6977L18.5336 100.656L19.1726 101.615L19.8117 102.574L20.5307 103.452L21.3296 104.331L22.1284 105.21L11.2639 116.074L9.90587 114.636L8.6277 113.198L7.42939 111.681L6.311 110.083L5.27247 108.485L4.39375 106.808L3.59487 105.13L2.8759 103.452L2.23683 101.695L1.67763 99.9373L1.1983 98.1798L0.798878 96.3425L0.479327 94.5051L0.239679 92.6677L0.079903 90.8303L0 88.9929L0.079903 87.1556L0.239679 85.3182L0.479327 83.4808L0.798878 81.6434L1.1983 79.8061L1.67763 78.0486L2.23683 76.2911L2.8759 74.5336L3.59487 72.7761L4.39375 71.0985L5.27247 69.4209L6.311 67.8232L7.42939 66.2254L8.6277 64.7076L9.90587 63.2697L11.2639 61.8317H11.184Z" fill="#FEFEFE"/>
<path fill-rule="evenodd" clip-rule="evenodd" d="M16.6157 67.2651L67.1835 16.6973C79.0865 4.79427 98.5787 4.79427 110.482 16.6973L160.73 66.9455C172.633 78.8485 172.633 98.3407 160.73 110.244L110.162 160.812C98.2592 172.715 78.767 172.715 66.864 160.812L16.6157 110.563C4.71273 98.6602 4.71273 79.1681 16.6157 67.2651Z" fill="#A6147F"/>
<path d="M115.914 143.713C111.121 145.87 101.774 147.308 90.9896 147.308C80.205 147.308 70.8583 145.87 66.0652 143.713C64.6272 143.074 63.5887 142.355 63.1094 141.636C62.8697 141.237 62.71 140.917 62.71 140.518V142.755C62.71 142.995 62.7099 143.154 62.7898 143.314C64.068 146.829 76.2107 149.865 90.9896 149.865C105.768 149.865 117.911 146.749 119.189 143.314C119.269 143.154 119.269 142.915 119.269 142.755V140.518L115.914 143.713Z" fill="#4D463F"/>
<path d="M115.914 143.713C111.121 145.87 101.774 147.308 90.9896 147.308C80.205 147.308 70.8583 145.87 66.0652 143.713C64.6272 143.074 63.5887 142.355 63.1094 141.636C62.8697 141.237 62.71 140.917 62.71 140.518V142.755C62.71 142.995 62.7099 143.154 62.7898 143.314C64.068 146.829 76.2107 149.865 90.9896 149.865C105.768 149.865 117.911 146.749 119.189 143.314C119.269 143.154 119.269 142.915 119.269 142.755V140.518L115.914 143.713Z" fill="#34312D"/>
<path d="M119.269 140.519C119.269 140.919 119.109 141.238 118.87 141.638C117.192 144.034 110.162 146.031 100.895 146.91C97.8598 147.15 94.5046 147.31 90.9896 147.31C80.205 147.31 70.8583 145.872 66.0652 143.715C64.6272 143.076 63.5887 142.357 63.1094 141.638C62.8697 141.238 62.71 140.919 62.71 140.519C62.71 136.765 75.3319 133.729 90.9896 133.729C93.3862 133.729 95.7028 133.809 97.9397 133.969C110.162 134.688 119.269 137.404 119.269 140.519Z" fill="#4D463F"/>
<path d="M109.523 143.316C107.766 143.316 106.168 143.156 105.05 142.757L94.8242 137.564C95.0639 137.245 95.1437 136.925 95.3035 136.606C96.9012 137.165 103.612 138.922 103.612 138.922C106.887 139.961 109.204 140.28 110.801 140.28C112.958 140.28 113.837 139.721 113.837 139.641C116.314 137.404 106.248 135.807 99.4576 134.928C97.4604 134.688 96.2622 134.608 95.6231 134.608C95.5432 134.608 95.5432 134.608 95.4633 134.608V133.81C96.2621 133.81 97.061 133.889 97.6202 133.889C109.204 134.608 118.391 137.484 117.751 140.121C117.672 140.44 117.352 141.239 117.032 141.479C115.674 142.677 112.559 143.236 109.603 143.236L109.523 143.316Z" fill="#6F6762"/>
<path d="M110.721 140.281C109.124 140.281 106.807 139.961 103.532 138.923C103.532 138.923 96.8214 137.165 95.2236 136.606C95.3035 136.286 95.3834 135.887 95.3834 135.488V134.609C95.4633 134.609 95.4633 134.609 95.5432 134.609C96.1823 134.609 97.3806 134.689 99.3777 134.928C106.168 135.807 116.234 137.405 113.757 139.642C113.677 139.722 112.878 140.281 110.721 140.281Z" fill="#9C9591"/>
<path d="M72.5362 143.314C69.5805 143.314 66.385 142.755 65.1069 141.557C64.7873 141.237 64.4678 140.518 64.3879 140.199C63.7488 137.562 72.9357 134.687 84.5191 133.968C84.9186 133.968 85.3979 133.888 85.8772 133.888V134.607C85.1582 134.607 84.1197 134.687 82.6818 134.926C75.8915 135.805 65.8258 137.403 68.3023 139.639C68.3822 139.719 69.181 140.279 71.3379 140.279C72.9357 140.279 75.2524 139.959 78.5277 138.921C78.5277 138.921 83.8002 137.562 86.1169 136.843C86.2766 137.243 86.4364 137.562 86.7559 137.882L77.0897 142.835C75.9713 143.154 74.2937 143.394 72.6161 143.394L72.5362 143.314Z" fill="#6F6762"/>
<path d="M71.3377 140.281C69.1808 140.281 68.302 139.722 68.302 139.642C65.8256 137.405 75.8912 135.807 82.6815 134.928C84.1195 134.769 85.158 134.689 85.8769 134.609V135.488C85.8769 135.967 85.9568 136.446 86.1166 136.766C83.7999 137.485 78.5274 138.843 78.5274 138.843C75.2521 139.881 72.9354 140.201 71.3377 140.201V140.281Z" fill="#9C9591"/>
<path d="M90.6708 139.161C88.0346 139.161 85.9575 138.122 85.9575 135.486V110.322H95.4639V135.486C95.4639 138.122 93.307 139.161 90.7507 139.161H90.6708Z" fill="#4D463F"/>
<path d="M103.612 47.8516L79.087 75.8915L63.5891 62.3109C59.4351 58.6362 57.2781 53.5235 57.1982 48.3309C57.1982 47.7717 57.1983 47.2125 57.2781 46.6533C57.358 45.9343 57.4379 45.2153 57.5977 44.4963C57.9172 43.0584 58.3966 41.6204 59.0356 40.1825C59.2753 39.7032 59.5149 39.144 59.8345 38.6647C60.3937 37.706 61.0328 36.8273 61.7518 36.0284C63.5891 33.9514 65.746 32.3537 68.0627 31.3152C74.5335 28.3594 82.3623 29.318 88.0342 34.2709L103.532 47.8516H103.612Z" fill="#34312D"/>
<path d="M91.1495 60.713C90.9898 60.2337 90.83 59.8342 90.5903 59.3549C88.9127 55.9997 85.5575 54.0825 82.0425 54.0825L73.7344 46.8128C69.8999 43.5375 66.0654 38.4248 68.8614 34.2707C68.8614 34.2707 70.539 30.9155 76.2109 30.9155C77.4092 30.9155 78.7672 31.0753 80.2851 31.3949C82.8414 31.9541 85.5575 33.0724 87.7145 34.9897L101.295 46.9726C101.774 47.372 101.854 48.091 101.375 48.5703L91.1495 60.5532C91.1495 60.6331 91.0697 60.6331 91.0697 60.6331L91.1495 60.713ZM77.5689 31.7943C76.2109 31.7943 75.4919 32.2736 75.2522 32.5931C75.2522 32.5931 71.6574 34.8299 78.2879 40.5018L94.5846 54.3221C94.7444 54.4819 94.9042 54.5618 95.1438 54.5618C95.3835 54.5618 95.6232 54.4819 95.7829 54.2422L100.656 48.5703C100.976 48.2508 100.896 47.6916 100.576 47.372L88.4334 36.7472C86.7558 35.2294 84.8386 34.0311 82.6816 33.0725C80.4448 32.1138 78.7672 31.7943 77.6488 31.7943H77.5689Z" fill="#5A5452"/>
<path d="M95.0642 54.5609C94.9045 54.5609 94.6648 54.4811 94.505 54.3213L78.2083 40.501C71.5778 34.8291 75.1726 32.5923 75.1726 32.5923C75.4123 32.2728 76.1313 31.7935 77.4893 31.7935C78.6077 31.7935 80.2054 32.113 82.5221 33.0716C84.5992 33.9504 86.5164 35.2286 88.2739 36.7464L100.417 47.3712C100.736 47.6908 100.816 48.1701 100.496 48.5695L95.6234 54.2414C95.4637 54.4012 95.224 54.5609 94.9844 54.5609H95.0642Z" fill="#8B8784"/>
<path d="M66.2253 56.8781C67.0241 57.5172 67.104 58.7155 66.385 59.5143C65.7459 60.3132 64.5477 60.3931 63.7488 59.6741C62.9499 59.035 62.8701 57.8367 63.589 57.0379C64.2281 56.239 65.4264 56.1591 66.2253 56.8781Z" fill="#34312D"/>
<path d="M72.6159 49.529C73.4147 50.1681 73.4946 51.3664 72.7757 52.1652C72.1366 52.9641 70.9383 53.044 70.1394 52.325C69.3406 51.6859 69.2607 50.4876 69.9797 49.6888C70.6187 48.8899 71.817 48.81 72.6159 49.529Z" fill="#34312D"/>
<path d="M79.0871 42.1803C79.8859 42.8194 79.9658 44.0177 79.2469 44.8166C78.6078 45.6155 77.4095 45.6953 76.6106 44.9764C75.8117 44.3373 75.7319 43.139 76.4509 42.3401C77.09 41.5413 78.2882 41.4614 79.0871 42.1803Z" fill="#34312D"/>
<path d="M85.5573 34.8307C86.3562 35.4698 86.4361 36.6681 85.7171 37.467C85.078 38.2658 83.8797 38.3457 83.0808 37.6267C82.282 36.9876 82.2021 35.7894 82.9211 34.9905C83.5602 34.1916 84.7585 34.1118 85.5573 34.8307Z" fill="#34312D"/>
<path d="M63.9885 41.9391C64.7873 42.5782 64.8672 43.7765 64.1482 44.5754C63.5092 45.3742 62.3109 45.4541 61.512 44.7351C60.7131 44.0961 60.6332 42.8978 61.3522 42.0989C61.9913 41.3 63.1896 41.2202 63.9885 41.9391Z" fill="#34312D"/>
<path d="M70.3791 34.5104C71.1779 35.1495 71.2578 36.3478 70.5389 37.1467C69.8998 37.9455 68.7015 38.0254 67.9026 37.3064C67.1037 36.6673 67.0239 35.4691 67.7429 34.6702C68.3819 33.8713 69.5802 33.7914 70.3791 34.5104Z" fill="#34312D"/>
<path d="M74.9333 64.4679C75.7321 65.107 75.812 66.3053 75.093 67.1042C74.4539 67.903 73.2557 67.9829 72.4568 67.264C71.658 66.6249 71.5781 65.4266 72.297 64.6277C72.9361 63.8289 74.1344 63.749 74.9333 64.4679Z" fill="#34312D"/>
<path d="M81.3234 57.1193C82.1223 57.7584 82.2021 58.9567 81.4832 59.7555C80.8441 60.5544 79.6458 60.6343 78.847 59.9153C78.0481 59.2762 77.9682 58.0779 78.6872 57.2791C79.3263 56.4802 80.5245 56.4003 81.3234 57.1193Z" fill="#34312D"/>
<path d="M87.7941 49.7702C88.593 50.4093 88.6729 51.6076 87.9539 52.4064C87.3148 53.2053 86.1165 53.2852 85.3177 52.5662C84.5188 51.9271 84.4389 50.7288 85.1579 49.93C85.797 49.1311 86.9953 49.0512 87.7941 49.7702Z" fill="#34312D"/>
<path d="M94.2653 42.4191C95.0642 43.0582 95.1441 44.2565 94.4251 45.0553C93.786 45.8542 92.5877 45.9341 91.7888 45.2151C90.99 44.576 90.9101 43.3777 91.6291 42.5789C92.2682 41.78 93.4665 41.7001 94.2653 42.4191Z" fill="#34312D"/>
<path d="M82.0426 64.2292C82.8415 64.8683 82.9214 66.0665 82.2024 66.8654C81.5633 67.6643 80.3651 67.7442 79.5662 67.0252C78.7673 66.3861 78.6874 65.1878 79.4064 64.3889C80.0455 63.5901 81.2438 63.5102 82.0426 64.2292Z" fill="#34312D"/>
<path d="M88.4333 56.8781C89.2322 57.5172 89.312 58.7155 88.593 59.5143C87.9539 60.3132 86.7557 60.3931 85.9568 59.6741C85.158 59.035 85.0781 57.8367 85.797 57.0379C86.4361 56.239 87.6344 56.1591 88.4333 56.8781Z" fill="#34312D"/>
<path d="M94.9045 49.529C95.7033 50.1681 95.7832 51.3664 95.0642 52.1652C94.4251 52.9641 93.2269 53.044 92.428 52.325C91.6291 51.6859 91.5493 50.4876 92.2682 49.6888C92.9073 48.8899 94.1056 48.81 94.9045 49.529Z" fill="#34312D"/>
<path d="M73.7351 57.0392C74.5339 57.6783 74.6138 58.8766 73.8948 59.6755C73.2557 60.4743 72.0574 60.5542 71.2586 59.8352C70.4597 59.1962 70.3798 57.9979 71.0988 57.199C71.7379 56.4001 72.9362 56.3203 73.7351 57.0392Z" fill="#34312D"/>
<path d="M80.2052 49.6891C81.0041 50.3282 81.084 51.5265 80.365 52.3254C79.7259 53.1242 78.5276 53.2041 77.7288 52.4851C76.9299 51.8461 76.85 50.6478 77.569 49.8489C78.2081 49.05 79.4064 48.9702 80.2052 49.6891Z" fill="#34312D"/>
<path d="M86.676 42.2609C87.4748 42.9 87.5547 44.0983 86.8357 44.8971C86.1967 45.696 84.9984 45.7759 84.1995 45.0569C83.4006 44.4178 83.3207 43.2195 84.0397 42.4207C84.6788 41.6218 85.8771 41.5419 86.676 42.2609Z" fill="#34312D"/>
<path d="M65.1066 49.3693C65.9055 50.0084 65.9854 51.2067 65.2664 52.0055C64.6273 52.8044 63.429 52.8843 62.6301 52.1653C61.8313 51.5262 61.7514 50.3279 62.4704 49.5291C63.1095 48.7302 64.3078 48.6503 65.1066 49.3693Z" fill="#34312D"/>
<path d="M71.4972 42.0197C72.2961 42.6588 72.376 43.8571 71.657 44.6559C71.0179 45.4548 69.8196 45.5347 69.0208 44.8157C68.2219 44.1766 68.142 42.9783 68.861 42.1795C69.5001 41.3806 70.6984 41.3007 71.4972 42.0197Z" fill="#34312D"/>
<path d="M77.9684 34.6711C78.7673 35.3102 78.8472 36.5084 78.1282 37.3073C77.4891 38.1062 76.2908 38.186 75.492 37.4671C74.6931 36.828 74.6132 35.6297 75.3322 34.8308C75.9713 34.032 77.1696 33.9521 77.9684 34.6711Z" fill="#34312D"/>
<path d="M82.9211 57.5185C82.9211 57.5185 83.4803 61.2731 81.2435 62.9507C80.205 63.7496 78.4475 64.149 75.7314 63.4301C75.4918 63.3502 64.2278 54.1633 57.2778 48.4115C56.4789 47.7724 55.9996 46.7339 56.0794 45.6954C56.3191 43.2988 56.9582 40.9022 58.1565 38.6654C58.3163 38.3459 61.5916 32.9935 67.3434 31.7153C66.864 31.955 63.5089 33.9521 61.5916 36.3487C60.5531 37.6269 60.7927 39.4643 61.991 40.4229L82.9211 57.5185Z" fill="#34312D"/>
<path d="M81.2435 62.9507C80.205 63.7496 78.4475 64.149 75.7314 63.4301C75.4918 63.3502 64.2278 54.1633 57.2778 48.4115C56.4789 47.7724 55.9996 46.7339 56.0794 45.6954C56.0794 45.2161 56.1593 44.8166 56.2392 44.3373C56.3191 43.7781 56.399 43.2988 56.5588 42.7396C56.8783 41.6212 57.1979 40.5028 57.7571 39.4643C57.9168 39.2246 57.9967 38.9051 58.1565 38.6654C58.3163 38.3459 61.5916 32.9935 67.3434 31.7153C66.864 31.955 63.5089 33.9521 61.5916 36.3487C60.5531 37.6269 60.7927 39.4643 61.991 40.4229L82.9211 57.5185C82.9211 57.5185 83.4803 61.2731 81.2435 62.9507Z" fill="#4D463F"/>
<path d="M79.3264 54.5623L73.5746 49.849L64.2279 42.18C64.2279 42.18 64.228 42.1001 64.1481 42.1001L79.3264 54.4824V54.5623ZM63.5889 41.6208C63.5889 41.6208 63.509 41.6208 63.509 41.5409L62.071 40.3426L63.6688 41.6208H63.5889Z" fill="#6C6765"/>
<path d="M64.2278 42.2602L63.5088 41.6211C63.5088 41.6211 63.5887 41.6211 63.5887 41.701L64.2278 42.1803L64.3077 42.2602H64.2278Z" fill="#6C6765"/>
<path d="M59.9941 36.1089C60.1539 35.9491 60.2338 35.7893 60.3936 35.6296C61.9913 34.0318 64.308 32.3542 67.2638 31.6353C67.2638 31.6353 67.1839 31.7151 67.104 31.7151C65.5063 32.1146 64.0683 32.8335 62.87 33.6324C61.6718 34.4313 60.7131 35.31 59.9941 36.1089Z" fill="#FCFDFE"/>
<path d="M73.5748 49.8487L61.9913 40.4221C61.6717 40.1026 61.3522 39.7831 61.1924 39.4635V39.5434C61.3522 39.8629 61.5918 40.1825 61.9114 40.4221L63.3493 41.6204L64.0683 42.2595L73.415 49.9286L73.5748 49.8487ZM59.9941 36.1083C60.7131 35.3095 61.7516 34.4307 62.87 33.6318C61.6718 34.4307 60.7131 35.3095 59.9941 36.1083Z" fill="#6C6765"/>
<path d="M78.2085 54.9621L60.7135 40.6626C59.3554 39.5442 59.0358 37.547 59.9945 36.1091C60.7135 35.3102 61.752 34.4315 62.8704 33.6326C64.0687 32.8337 65.5066 32.1148 67.1043 31.7153C66.3055 32.1946 63.2698 34.032 61.5123 36.2688C60.7933 37.2275 60.7134 38.4258 61.1928 39.4643C61.3525 39.8637 61.6721 40.1832 61.9916 40.4229L73.5751 49.8494L79.3269 54.5627C78.9274 54.6426 78.528 54.8024 78.2085 54.9621Z" fill="#807A76"/>
<path d="M111.92 97.7807C111.201 98.5795 110.402 99.3784 109.603 100.018C109.363 100.177 109.203 100.337 108.964 100.497C107.606 101.535 106.008 102.334 104.33 102.973C103.771 103.213 103.132 103.373 102.573 103.532C102.094 103.692 101.614 103.772 101.055 103.852C100.815 103.932 100.496 103.932 100.256 103.932C100.336 103.852 100.496 103.772 100.576 103.692C100.416 103.772 100.256 103.852 100.176 103.932C96.6614 104.331 93.1464 103.772 90.0308 102.254C89.3119 101.935 88.5929 101.535 87.9538 101.056V69.581L86.9153 69.4212V68.7022H83.1606L108.564 59.5952L115.514 79.0075C116.074 80.6052 116.473 82.2828 116.553 83.8805C116.952 88.9134 115.275 93.8663 111.92 97.6209V97.7807Z" fill="#EA572F"/>
<path d="M86.916 68.8618V69.5808H86.7562V100.417C83.9602 98.3397 81.7234 95.3839 80.4452 91.7891L77.809 84.4396L73.4951 72.3768L77.809 70.7791L83.1613 68.8618H86.916Z" fill="#EA572F"/>
<path d="M86.7563 69.5806L87.9546 69.7403V101.215C87.5552 100.976 87.1558 100.736 86.7563 100.417V69.5806Z" fill="#F9B500"/>
<path d="M100.656 103.691C100.497 103.771 100.337 103.851 100.177 104.011H100.097C100.257 103.931 100.497 103.771 100.656 103.691Z" fill="#F9B500"/>
<path d="M106.487 91.4691C102.733 91.4691 99.2978 89.1524 97.9397 85.4777L94.5845 76.0511L111.68 69.8999L115.035 79.3264C116.713 84.0397 114.316 89.2323 109.603 90.9099C108.565 91.3093 107.526 91.4691 106.567 91.4691H106.487ZM110.162 71.4177C110.002 71.4177 109.843 71.4177 109.683 71.4976L103.931 73.5746C103.132 73.8942 102.733 74.693 103.052 75.4919L104.49 79.4063C105.129 81.2437 106.887 82.442 108.804 82.442C109.284 82.442 109.843 82.3621 110.322 82.2023C112.719 81.3236 113.917 78.7672 113.038 76.3707L111.6 72.4563C111.361 71.8172 110.801 71.4976 110.162 71.4976V71.4177Z" fill="#EE794F"/>
<path d="M108.725 82.4422C106.887 82.4422 105.13 81.2439 104.411 79.4066L102.973 75.4921C102.653 74.6933 103.133 73.8145 103.852 73.5749L109.603 71.4978C109.763 71.418 109.923 71.418 110.083 71.418C110.722 71.418 111.281 71.8174 111.521 72.3766L112.959 76.291C113.837 78.6876 112.559 81.2439 110.243 82.1227C109.763 82.2824 109.204 82.3623 108.725 82.3623V82.4422Z" fill="#F4A387"/>
<path d="M112.32 67.6646L75.4123 80.9257C74.7732 81.1653 74.1341 80.8458 73.8944 80.2067L70.6191 71.0997C70.3795 70.4606 70.699 69.8215 71.3381 69.5818L108.245 56.3208C108.885 56.0811 109.524 56.4007 109.763 57.0398L113.039 66.1467C113.278 66.7858 112.959 67.4249 112.32 67.6646Z" fill="#4D463F"/>
<path d="M93.6261 73.2559L91.2295 66.5455C91.549 65.507 91.7088 64.3886 91.7088 63.35L107.926 57.5183C108.006 57.5183 108.165 57.4385 108.245 57.4385C108.645 57.4385 108.964 57.6781 109.124 58.0776L111.92 65.7466C112.08 66.2259 111.84 66.7851 111.361 66.9449L93.706 73.2559H93.6261ZM106.807 58.477C106.727 58.477 106.568 58.477 106.408 58.5569L99.9371 60.8736C99.3779 61.0333 99.0583 61.6724 99.298 62.2316L101.615 68.7024C101.774 69.1018 102.174 69.4214 102.653 69.4214C102.733 69.4214 102.893 69.4214 103.053 69.3415L109.523 67.0248C110.083 66.865 110.402 66.2259 110.162 65.6667L107.846 59.196C107.686 58.7965 107.287 58.477 106.807 58.477Z" fill="#6F6762"/>
<path d="M102.653 69.3414C102.254 69.3414 101.775 69.1017 101.615 68.6224L99.2981 62.1516C99.1383 61.5924 99.378 60.9533 99.9372 60.7936L106.408 58.4769C106.488 58.397 106.648 58.397 106.807 58.397C107.207 58.397 107.686 58.6366 107.846 59.1159L110.163 65.5867C110.322 66.1459 110.083 66.785 109.524 66.9448L103.053 69.2615C102.973 69.3414 102.813 69.3414 102.653 69.3414Z" fill="#9C9591"/>
<path d="M109.603 100.097V102.094C109.603 112.08 102.813 113.039 93.7059 113.039C86.5162 113.039 80.4448 111.521 78.4477 106.168C78.0483 104.97 77.8086 103.612 77.8086 102.014V68.7817H86.9156V102.014C86.9156 103.612 87.4748 104.97 88.3535 106.168C88.4334 106.248 88.5133 106.328 88.5932 106.408V106.488C88.6731 106.568 88.753 106.648 88.8329 106.728L88.9127 106.807C88.9926 106.887 88.9926 106.887 89.0725 106.967L89.1524 107.047C89.3122 107.207 89.5518 107.367 89.7116 107.526C89.7915 107.606 89.8714 107.686 89.9513 107.686L90.0311 107.766C90.111 107.846 90.1909 107.846 90.2708 107.926C90.3507 108.006 90.4306 108.006 90.5105 108.086C90.5903 108.086 90.5903 108.166 90.6702 108.166H90.7501C90.83 108.166 90.9099 108.245 90.9898 108.245C91.0697 108.245 91.1495 108.325 91.3093 108.325C91.3892 108.325 91.4691 108.405 91.549 108.405C91.7088 108.405 91.7886 108.485 91.9484 108.485C92.0283 108.485 92.1082 108.485 92.1881 108.565H92.268C92.3478 108.565 92.4277 108.565 92.5875 108.645H92.907C92.9869 108.645 93.1467 108.645 93.2266 108.645H93.3864H93.7059C93.8657 108.645 93.9456 108.645 94.1053 108.645H94.4249C94.5048 108.645 94.6645 108.645 94.7444 108.645C94.8243 108.645 94.9042 108.645 94.9841 108.645C95.064 108.645 95.0639 108.645 95.1438 108.645C95.3036 108.645 95.4634 108.565 95.7031 108.485C95.7829 108.485 95.8628 108.405 95.9427 108.405H96.0226C96.1025 108.405 96.1025 108.405 96.1824 108.325C96.2622 108.325 96.3421 108.325 96.3421 108.245H96.422C96.5019 108.245 96.5818 108.166 96.6617 108.166C96.7416 108.086 96.9013 108.086 96.9812 108.006C97.0611 108.006 97.141 107.926 97.2209 107.846C97.3008 107.846 97.3806 107.766 97.4605 107.766C97.5404 107.686 97.6203 107.686 97.6203 107.606C97.7002 107.606 97.7002 107.526 97.7801 107.526C98.0197 107.367 98.1795 107.207 98.4192 107.047C98.4991 106.967 98.499 106.967 98.5789 106.887C98.6588 106.807 98.6588 106.728 98.7387 106.728L98.8186 106.648C98.8985 106.568 98.8985 106.568 98.9784 106.488C99.1382 106.328 99.2979 106.168 99.3778 105.929C99.3778 105.849 99.4577 105.849 99.4577 105.769C99.4577 105.689 99.5376 105.609 99.5376 105.529C99.5376 105.449 99.6175 105.449 99.6175 105.369L99.6974 105.29C99.6974 105.21 99.7772 105.13 99.8571 105.05C99.8571 104.97 99.937 104.97 99.937 104.89C100.017 104.73 100.017 104.651 100.097 104.571C100.097 104.491 100.177 104.331 100.177 104.251C100.177 104.171 100.257 104.091 100.257 104.011C100.496 104.011 100.816 103.932 101.055 103.932C101.535 103.852 102.014 103.772 102.573 103.612C103.132 103.452 103.772 103.292 104.331 103.053C106.008 102.414 107.606 101.615 108.964 100.576C109.204 100.417 109.443 100.257 109.603 100.097Z" fill="#4D463F"/>
<path d="M109.603 100.099V102.096C109.603 112.082 102.813 113.04 93.706 113.04C86.5162 113.04 80.4449 111.522 78.4478 106.17C80.4449 108.886 92.6674 111.123 92.6674 111.123L87.6346 106.25L88.2737 106.17C88.3536 106.25 88.4335 106.33 88.5134 106.41V106.49C88.5933 106.569 88.6731 106.649 88.753 106.729L88.8329 106.809C88.9128 106.889 88.9128 106.889 88.9927 106.969L89.0726 107.049C89.2323 107.209 89.472 107.368 89.6318 107.528C89.7117 107.608 89.7915 107.688 89.8714 107.688L89.9513 107.768C90.0312 107.848 90.1111 107.848 90.191 107.927C90.2709 108.007 90.3508 108.007 90.4306 108.087C90.5105 108.087 90.5105 108.167 90.5904 108.167H90.6703C90.7502 108.167 90.8301 108.247 90.9099 108.247C90.9898 108.247 91.0697 108.327 91.2295 108.327C91.3094 108.327 91.3893 108.407 91.4691 108.407C91.6289 108.407 91.7088 108.487 91.8686 108.487C91.9484 108.487 92.0284 108.487 92.1082 108.567H92.1881C92.268 108.567 92.3479 108.567 92.5077 108.646H92.8272C92.9071 108.646 93.0669 108.646 93.1467 108.646H93.3065H93.6261C93.7858 108.646 93.8657 108.646 94.0255 108.646H94.345C94.4249 108.646 94.5847 108.646 94.6646 108.646C94.7445 108.646 94.8244 108.646 94.9042 108.646C94.9841 108.646 94.9841 108.646 95.064 108.646C95.2238 108.646 95.3836 108.567 95.6232 108.487C95.7031 108.487 95.783 108.407 95.8629 108.407H95.9428C96.0226 108.407 96.0227 108.407 96.1025 108.327C96.1824 108.327 96.2623 108.327 96.2623 108.247H96.3422C96.4221 108.247 96.5019 108.167 96.5818 108.167C96.6617 108.087 96.8215 108.087 96.9014 108.007C96.9813 108.007 97.0611 107.927 97.141 107.848C97.2209 107.848 97.3008 107.768 97.3807 107.768C97.4606 107.688 97.5405 107.688 97.5405 107.608C97.6204 107.608 97.6204 107.528 97.7003 107.528C97.9399 107.368 98.0997 107.209 98.3393 107.049C98.4192 106.969 98.4192 106.969 98.4991 106.889C98.579 106.809 98.579 106.729 98.6589 106.729L98.7388 106.649C98.8186 106.569 98.8186 106.569 98.8985 106.49C99.0583 106.33 99.2181 106.17 99.298 105.93C99.298 105.85 99.3779 105.85 99.3779 105.771C99.3779 105.691 99.4577 105.611 99.4577 105.531C99.4577 105.451 99.5376 105.451 99.5376 105.371L99.6175 105.291C99.6175 105.211 99.6974 105.131 99.7773 105.052C99.7773 104.972 99.8572 104.972 99.8572 104.892C99.937 104.732 99.937 104.652 100.017 104.572C100.017 104.492 100.097 104.333 100.097 104.253C100.097 104.173 100.177 104.093 100.177 104.013C100.416 104.013 100.736 103.933 100.976 103.933C101.455 103.853 101.934 103.773 102.493 103.614C103.053 103.454 103.692 103.294 104.251 103.054C105.929 102.415 107.526 101.616 108.884 100.578C109.124 100.418 109.364 100.258 109.523 100.099H109.603Z" fill="#34312D"/>
<path d="M109.764 99.8589V101.936C109.764 103.853 109.444 105.531 108.885 106.969C108.885 107.049 108.805 107.129 108.805 107.208C108.485 107.927 108.086 108.566 107.607 109.126L107.527 109.206C104.731 112.88 97.7007 113.36 92.7478 111.123C92.4282 110.963 92.1886 110.883 91.9489 110.723L91.869 110.643C91.6294 110.484 91.3897 110.404 91.23 110.244L91.0702 110.164C89.4725 109.046 88.5937 107.847 88.5937 107.847C88.2742 107.368 87.9547 106.809 87.715 106.17C87.715 106.09 87.6351 106.01 87.6351 105.93C87.0759 104.492 86.7563 102.815 86.7563 100.897V69.4224H86.9161L87.9546 69.5821V101.137C87.9546 101.457 87.9546 101.696 87.9546 102.016C88.1943 105.85 90.0317 107.368 90.0317 107.368C90.0317 107.368 92.6679 110.484 97.8605 111.123C102.174 111.602 107.527 110.324 108.565 103.693C108.645 103.214 108.645 102.735 108.645 102.176V100.658C108.725 100.578 108.805 100.498 108.965 100.418C109.204 100.258 109.444 100.099 109.604 99.9388C109.684 99.8589 109.763 99.8589 109.843 99.779L109.764 99.8589Z" fill="#4D463F"/>
<path d="M99.2186 112.559C96.9818 112.559 94.7449 112.08 92.7478 111.201C92.4282 111.042 92.1886 110.962 91.9489 110.802L91.869 110.722C91.6294 110.562 91.3897 110.482 91.23 110.323L91.0702 110.243C89.4725 109.124 88.5937 107.926 88.5937 107.926C88.2742 107.447 87.9547 106.888 87.715 106.248C87.715 106.169 87.6351 106.089 87.6351 106.009C87.0759 104.571 86.7563 102.893 86.7563 100.976V71.8975C87.1558 71.6578 87.5552 71.4182 87.9546 71.0986V101.216C87.9546 101.535 87.9546 101.775 87.9546 102.094C88.1943 105.929 90.0317 107.447 90.0317 107.447C90.0317 107.447 92.6679 110.562 97.8605 111.201C98.4197 111.281 98.9789 111.281 99.5381 111.281C103.453 111.281 107.686 109.604 108.565 103.772C108.645 103.293 108.645 102.813 108.645 102.254V100.736C108.725 100.656 108.805 100.577 108.965 100.497C109.204 100.337 109.444 100.177 109.604 100.017C109.684 99.9375 109.763 99.9375 109.843 99.8576V101.935C109.843 103.852 109.524 105.529 108.965 106.967C108.965 107.047 108.885 107.127 108.885 107.207C108.565 107.926 108.166 108.565 107.686 109.124L107.607 109.204C105.929 111.441 102.654 112.48 99.2984 112.48L99.2186 112.559Z" fill="#847E7B"/>
<path d="M85.9569 99.7778C85.9569 99.7778 79.0068 94.3456 79.4861 86.1173L79.4062 73.0959C79.4062 73.016 79.4062 72.9361 79.4062 72.7764C80.0453 72.9361 80.6844 73.0959 81.4034 73.0959V81.5638C81.004 87.3156 85.877 91.0703 85.877 91.0703V99.7778H85.9569Z" fill="#6F6762"/>
<path d="M85.9576 91.0706V73.0163C85.9576 72.7767 85.8777 72.537 85.7979 72.3773C85.8777 72.3773 85.8777 72.3772 85.9576 72.2974C85.9576 72.3772 85.9576 72.4571 85.9576 72.537V91.0706Z" fill="#807A76"/>
<path d="M85.9572 91.0708C85.9572 91.0708 81.164 87.3161 81.4836 81.5643V73.0964C81.7232 73.0964 81.883 73.0964 82.1227 73.0964C83.3209 73.0964 84.5991 72.8568 85.7974 72.3774C85.8773 72.6171 85.9572 72.7769 85.9572 73.0165V91.0708Z" fill="#9C9591"/>
<path d="M90.67 59.4349C92.9867 64.1482 91.0694 69.8201 86.3562 72.1368C81.6429 74.4535 75.971 72.5362 73.6543 67.823C71.3376 63.1097 73.2549 57.4378 77.9682 55.1211C82.6814 52.8044 88.3533 54.7217 90.67 59.4349Z" fill="#34312D"/>
<path d="M80.9245 72.1378C77.8889 72.1378 75.013 70.4602 73.575 67.5843C71.5779 63.5102 73.2555 58.6371 77.2498 56.64C78.4481 56.0808 79.6464 55.7612 80.8447 55.7612C82.3625 55.7612 83.9602 56.2405 85.2384 57.0394C83.9602 56.2405 82.4424 55.7612 80.8447 55.7612C80.7648 55.7612 80.7648 55.7612 80.6849 55.7612V58.717C83.2412 59.0366 85.2384 61.1935 85.3982 63.8297L88.993 63.9096C88.993 66.9453 87.3154 69.901 84.4395 71.339C83.2412 71.8982 82.0429 72.2177 80.8447 72.2177L80.9245 72.1378ZM79.7263 59.436C77.0101 59.436 74.7733 61.6728 74.7733 64.3889C74.7733 67.105 77.0101 69.3418 79.7263 69.3418C82.4424 69.3418 84.6792 67.105 84.6792 64.3889C84.6792 61.6728 82.4424 59.436 79.7263 59.436ZM88.6735 61.513C88.5936 61.2734 88.5137 60.9538 88.3539 60.7142C88.4338 60.9538 88.5936 61.2734 88.6735 61.513Z" fill="#5A5452"/>
<path d="M79.7259 69.4198C77.0098 69.4198 74.7729 67.183 74.7729 64.4669C74.7729 61.7508 77.0098 59.514 79.7259 59.514C82.442 59.514 84.6788 61.7508 84.6788 64.4669C84.6788 67.183 82.442 69.4198 79.7259 69.4198ZM78.7672 61.8307C77.1695 61.8307 75.8913 63.1088 75.8913 64.7066C75.8913 66.3043 77.1695 67.5824 78.7672 67.5824C78.8471 67.5824 78.927 67.5824 79.0069 67.5824C80.5248 67.4227 81.6431 66.2244 81.6431 64.7066C81.6431 64.3071 81.5633 63.9876 81.4035 63.5881C81.8029 63.8278 82.2024 63.9876 82.6817 63.9876L84.3593 64.0675C84.4392 64.0675 84.519 64.0675 84.5989 64.0675C84.4391 61.6709 82.6817 59.7536 80.2851 59.4341C80.2851 59.514 80.2851 59.5938 80.2851 59.6737L80.2052 61.0318C80.2052 61.4312 80.2052 61.8306 80.365 62.1502C79.9655 61.9105 79.4862 61.6709 79.0069 61.6709C78.927 61.6709 78.8471 61.6709 78.7672 61.6709V61.8307Z" fill="#7A7472"/>
<path d="M84.6789 64.1487C84.599 64.1487 84.5191 64.1487 84.4392 64.1487L82.7616 64.0688C82.2823 64.0688 81.8829 63.9091 81.4834 63.6694C81.2438 63.1102 80.9242 62.6309 80.4449 62.3113C80.2852 61.9918 80.2852 61.5924 80.2852 61.1929L80.365 59.8349C80.365 59.755 80.365 59.6751 80.365 59.5952C82.6817 59.9148 84.5191 61.832 84.6789 64.2286V64.1487ZM82.0426 60.6337C81.6432 60.6337 81.2438 60.9533 81.2438 61.3527V61.7521C81.2438 62.2315 81.5633 62.551 81.9628 62.6309H82.4421C82.4421 62.6309 82.4421 62.6309 82.522 62.6309C83.0812 62.6309 83.4806 62.0717 83.2409 61.5125C83.0812 61.1929 82.8415 60.8734 82.3622 60.6337C82.2823 60.5539 82.1225 60.5539 82.0426 60.5539V60.6337Z" fill="#958F8F"/>
<path d="M82.5223 62.6314C82.5223 62.6314 82.5224 62.6314 82.4425 62.6314H81.9631C81.4838 62.6314 81.1643 62.232 81.2442 61.7527V61.3533C81.2442 60.8739 81.6436 60.6343 82.043 60.6343C82.1229 60.6343 82.2827 60.6343 82.3626 60.7142C82.8419 60.9538 83.0815 61.2734 83.2413 61.5929C83.481 62.1521 83.0815 62.7113 82.5223 62.7113V62.6314Z" fill="#B6B3B0"/>
<path d="M81.723 64.7074C81.723 66.2253 80.5247 67.5034 79.0867 67.5833C79.0069 67.5833 78.927 67.5833 78.8471 67.5833C77.2494 67.5833 75.9712 66.3052 75.9712 64.7074C75.9712 63.1097 77.2494 61.8315 78.8471 61.8315C78.927 61.8315 79.0069 61.8315 79.0867 61.8315C80.6046 61.9913 81.723 63.1896 81.723 64.7074Z" fill="#34312D"/>
<path d="M81.7232 64.7074C81.7232 66.2253 80.5249 67.5034 79.0869 67.5833C77.5691 67.4236 76.4507 66.2253 76.4507 64.7074C76.4507 63.1896 77.649 61.9114 79.0869 61.8315C80.6047 61.9913 81.7232 63.1896 81.7232 64.7074Z" fill="#3B3937"/>
<path d="M79.007 66.3846C78.0484 66.3846 77.2495 65.5858 77.2495 64.6271C77.2495 63.6685 78.0484 62.8696 79.007 62.8696C79.9656 62.8696 80.7645 63.6685 80.7645 64.6271C80.7645 65.5858 79.9656 66.3846 79.007 66.3846ZM79.8059 63.4288C79.4064 63.4288 79.0869 63.7484 79.0869 64.1478C79.0869 64.5472 79.4064 64.8668 79.8059 64.8668C80.2053 64.8668 80.5248 64.5472 80.5248 64.1478C80.5248 63.7484 80.2053 63.4288 79.8059 63.4288Z" fill="#888583"/>
<path d="M79.8855 64.8666C79.486 64.8666 79.1665 64.5471 79.1665 64.1477C79.1665 63.7482 79.486 63.4287 79.8855 63.4287C80.2849 63.4287 80.6045 63.7482 80.6045 64.1477C80.6045 64.5471 80.2849 64.8666 79.8855 64.8666Z" fill="#B9B5B4"/>
<path d="M89.0728 63.9093C89.0728 63.1104 88.913 62.3914 88.7533 61.5926C88.9929 62.3914 89.0728 63.1104 89.0728 63.9093Z" fill="#5A5452"/>
<path d="M89.0723 63.9096L85.4774 63.8297C85.3177 61.1935 83.3205 59.0366 80.7642 58.717V55.7612C80.844 55.7612 80.844 55.7612 80.9239 55.7612C82.4418 55.7612 84.0395 56.2405 85.3177 57.0394C86.5159 57.8383 87.5545 58.9567 88.2735 60.3147C88.3533 60.4745 88.4332 60.6343 88.5131 60.7941C88.593 61.0337 88.7528 61.3532 88.8327 61.5929C89.0723 62.3918 89.1522 63.1107 89.1522 63.9096H89.0723ZM84.7585 57.1992C84.7585 57.1992 84.5987 57.1992 84.5188 57.2791C84.1194 57.4388 83.72 57.9182 83.72 58.3975L83.6401 59.0366C83.5602 59.7555 84.1194 60.3946 84.9182 60.4745L85.7171 60.5544H85.797C86.2763 60.5544 86.6757 60.3147 86.9154 59.9153C87.0752 59.6756 87.0752 59.3561 86.9953 59.0366C86.8355 58.5572 85.2378 57.1193 84.7585 57.1193V57.1992Z" fill="#7A7472"/>
<path d="M85.8766 60.553H85.7967L84.9979 60.4731C84.2789 60.3932 83.7197 59.7541 83.7197 59.0351L83.7996 58.396C83.7996 57.8368 84.199 57.4374 84.5984 57.2776C84.6783 57.2776 84.8381 57.1978 84.8381 57.1978C85.3174 57.1978 86.9151 58.5558 87.0749 59.115C87.2347 59.3547 87.2347 59.6742 86.995 59.9938C86.7554 60.3932 86.3559 60.6329 85.8766 60.6329V60.553Z" fill="#A29D9C"/>
<path d="M135.646 54.962H121.426C120.548 54.962 119.829 54.2431 119.829 53.3643C119.829 52.4856 120.548 51.7666 121.426 51.7666H135.646C136.525 51.7666 137.244 52.4856 137.244 53.3643C137.244 54.2431 136.525 54.962 135.646 54.962Z" fill="#EA572F"/>
<path d="M116.634 46.1752C116.234 46.1752 115.835 46.0154 115.515 45.6958C114.876 45.0568 114.876 44.0981 115.515 43.459L126.38 32.5946C127.019 31.9555 127.978 31.9555 128.617 32.5946C129.256 33.2336 129.256 34.1923 128.617 34.8314L117.752 45.6958C117.433 46.0154 117.033 46.1752 116.634 46.1752Z" fill="#EA572F"/>
<path d="M95.1439 136.526C95.1439 136.526 90.3508 133.41 90.7502 128.537V113.199H93.9457C94.0255 113.199 94.1853 113.199 94.2652 113.199C94.9043 113.199 95.2238 113.439 95.2238 113.918C95.2238 113.519 94.9043 113.279 94.425 113.279H92.1083C92.1083 113.279 92.1083 113.599 92.1083 113.918V121.827C91.8686 125.262 95.1439 127.499 95.1439 127.499V136.606V136.526Z" fill="#6F6762"/>
<path d="M95.1445 127.419C95.1445 127.419 91.7893 125.182 92.1089 121.747V113.838C92.1089 113.439 92.1089 113.199 92.1089 113.199H94.4256C94.825 113.199 95.2244 113.519 95.2244 113.838V127.419H95.1445Z" fill="#8B8582"/>
<path d="M70.9388 53.2056C67.983 53.2056 63.7491 52.5665 60.3939 49.4509L57.2783 46.9745C57.3582 46.2555 57.4381 45.5365 57.5979 44.8176C57.9174 43.3796 58.3967 41.9417 59.0358 40.5037L59.8347 41.1428L67.9031 47.6934L74.3739 52.886C74.3739 52.886 72.936 53.2056 70.9388 53.2056ZM59.0358 40.4238C58.3967 41.7819 57.9174 43.2198 57.5979 44.7377L58.2369 45.217C60.5536 47.3739 63.5094 47.8532 65.5865 47.8532C67.0244 47.8532 67.983 47.6136 67.983 47.6136L59.9145 41.0629L59.1157 40.4238H59.0358Z" fill="#6F6762"/>
<path d="M65.5862 47.8532C63.5891 47.8532 60.6333 47.3739 58.2367 45.217L57.5977 44.7377C57.9172 43.2997 58.3965 41.8618 59.0356 40.4238L59.8345 41.0629L67.9029 47.6136C67.9029 47.6136 66.9443 47.8532 65.5063 47.8532H65.5862Z" fill="#9C9591"/>
<path d="M107.846 41.9397C106.967 41.9397 106.248 41.2207 106.248 40.3419V25.563C106.248 24.6843 106.967 23.9653 107.846 23.9653C108.724 23.9653 109.443 24.6843 109.443 25.563V40.3419C109.443 41.2207 108.724 41.9397 107.846 41.9397Z" fill="#EA572F"/>
</svg>
