<svg width="36" height="36" viewBox="0 0 36 36" fill="none" xmlns="http://www.w3.org/2000/svg">
<rect width="36" height="36" rx="18" fill="#FFF853"/>
<path d="M14.9755 10.4165L17.6346 9.82959H18.6573L21.521 11.1992L22.9528 14.1339V16.2861L24.7937 16.0905V16.6774V17.6557L23.5664 18.047L23.1573 18.6339L24.1801 20.5905L26.8392 21.96L26.2255 22.7426L24.3846 23.3296L23.9755 24.1122L23.5664 24.6992H21.3164L20.2937 25.0905L18.0437 26.2644L16.6119 25.8731L14.9755 25.0905L13.7482 24.6992H12.1119L11.4982 24.3079L10.8846 23.3296L9.86188 23.1339L9.0437 22.547V21.96L10.0664 21.3731L11.9073 20.0035L12.3164 18.6339L10.6801 17.6557L10.8846 16.6774L11.4982 16.0905L12.7255 16.2861L13.3392 12.7644L14.9755 10.4165Z" fill="white"/>
<path d="M18.012 10.3942C20.5271 10.395 22.6222 12.3997 22.6252 14.8134C22.6259 15.3787 22.6441 15.8993 22.6775 16.3789C22.698 16.6748 22.9551 16.8941 23.2498 16.8941C23.2933 16.8941 23.3375 16.8893 23.3819 16.8793L24.1698 16.7025C24.2033 16.695 24.237 16.6914 24.2702 16.6914C24.4703 16.6914 24.6546 16.8223 24.6995 17.0161C24.763 17.2901 24.6027 17.5669 24.3254 17.66L23.1294 18.1222C22.8275 18.2389 22.6653 18.5535 22.7503 18.8545C23.7098 22.2506 26.3899 21.8974 26.3899 22.3399C26.3899 22.8955 24.3698 22.9739 24.1873 23.1487C24.0048 23.3235 24.1794 24.1715 23.7716 24.3357C23.6948 24.3667 23.5856 24.3775 23.4524 24.3775C23.1452 24.3775 22.7108 24.3201 22.253 24.3201C21.8559 24.3201 21.4411 24.3632 21.0764 24.5245C20.1091 24.9523 19.1764 25.7514 18.0203 25.7514C16.8642 25.7514 15.9315 24.9523 14.9642 24.5245C14.5994 24.3632 14.1848 24.3201 13.7876 24.3201C13.3298 24.3201 12.8954 24.3775 12.5883 24.3775C12.4551 24.3775 12.3458 24.3666 12.269 24.3357C11.8612 24.1715 12.0358 23.3235 11.8533 23.1487C11.6708 22.9739 9.65072 22.8954 9.65072 22.3398C9.65072 21.8973 12.3308 22.2505 13.2903 18.8545C13.3753 18.5535 13.2131 18.2389 12.9112 18.1222L11.7152 17.66C11.4378 17.5669 11.2775 17.2901 11.341 17.0161C11.386 16.8222 11.5702 16.6913 11.7703 16.6913C11.8036 16.6913 11.8372 16.6949 11.8708 16.7025L12.6587 16.8793C12.7031 16.8893 12.7473 16.894 12.7907 16.894C13.0855 16.894 13.3426 16.6747 13.3631 16.3789C13.3964 15.8993 13.4147 15.3787 13.4154 14.8133C13.4185 12.3997 15.4968 10.3951 18.012 10.3942ZM18.0123 9.43652H18.0116C17.2609 9.43675 16.5295 9.58117 15.838 9.8658C15.1742 10.139 14.5768 10.5285 14.0624 11.0235C13.5487 11.5179 13.1444 12.0919 12.8608 12.7295C12.5659 13.3925 12.4159 14.0932 12.415 14.8122C12.4146 15.1652 12.4069 15.5078 12.3922 15.8358L12.0991 15.77C11.9915 15.7459 11.8809 15.7336 11.7704 15.7336C11.4514 15.7336 11.1367 15.8368 10.8843 16.0243C10.621 16.2199 10.4363 16.4984 10.3644 16.8086C10.1933 17.5469 10.6191 18.2922 11.357 18.5543L12.2348 18.8936C11.6535 20.6015 10.5818 20.9288 9.86007 21.1493C9.66857 21.2078 9.50315 21.2583 9.34566 21.3331C8.71813 21.6313 8.65039 22.1365 8.65039 22.3398C8.65039 22.7293 8.84293 23.0847 9.19261 23.3406C9.36671 23.468 9.58238 23.5731 9.85191 23.6619C10.2193 23.783 10.6451 23.8599 10.9912 23.9215C11.008 24.0443 11.0325 24.1761 11.0738 24.3091C11.2455 24.8611 11.6076 25.1083 11.8812 25.2185C12.1408 25.323 12.4091 25.3351 12.5883 25.3351C12.7635 25.3351 12.9488 25.3219 13.1449 25.308C13.3554 25.2931 13.5729 25.2777 13.7876 25.2777C14.1203 25.2777 14.3679 25.3157 14.5447 25.3938C14.7874 25.5012 15.0447 25.6459 15.3172 25.7991C16.0758 26.2256 16.9355 26.709 18.0203 26.709C19.1051 26.709 19.9648 26.2256 20.7234 25.7991C20.9959 25.6459 21.2532 25.5012 21.4959 25.3938C21.6727 25.3156 21.9203 25.2777 22.253 25.2777C22.4677 25.2777 22.6853 25.2931 22.8956 25.308C23.0918 25.3219 23.2771 25.3351 23.4523 25.3351C23.6315 25.3351 23.8997 25.323 24.1593 25.2185C24.433 25.1083 24.7951 24.8611 24.9667 24.3091C25.0081 24.1761 25.0326 24.0443 25.0493 23.9215C25.3954 23.8598 25.8213 23.783 26.1887 23.6619C26.4582 23.5731 26.6739 23.468 26.848 23.3406C27.1976 23.0847 27.3902 22.7293 27.3902 22.3398C27.3902 22.1365 27.3224 21.6313 26.6948 21.3332C26.5373 21.2584 26.3719 21.2078 26.1804 21.1493C25.4587 20.9289 24.3869 20.6016 23.8057 18.8936L24.6834 18.5544C25.4214 18.2923 25.8472 17.5469 25.6761 16.8086C25.6042 16.4984 25.4195 16.2199 25.1562 16.0243C24.9038 15.8368 24.5892 15.7336 24.2702 15.7336C24.1597 15.7336 24.0491 15.7459 23.9415 15.77L23.6483 15.8358C23.6336 15.5078 23.626 15.1652 23.6255 14.8122C23.6246 14.0926 23.4734 13.3912 23.1762 12.7273C22.8908 12.09 22.4843 11.5162 21.968 11.0218C21.4517 10.5274 20.8526 10.1383 20.1875 9.86534C19.4947 9.58106 18.7628 9.43679 18.0123 9.43652Z" fill="#050505"/>
</svg>
