<svg width="43" height="43" viewBox="0 0 43 43" fill="none" xmlns="http://www.w3.org/2000/svg">
<path fill-rule="evenodd" clip-rule="evenodd" d="M21.0791 0.69165C5.57572 0.69165 0.0791016 6.18827 0.0791016 21.6917C0.0791016 37.195 5.57572 42.6917 21.0791 42.6917C36.5825 42.6917 42.0791 37.195 42.0791 21.6917C42.0791 6.18827 36.5825 0.69165 21.0791 0.69165Z" fill="#26A5E4"/>
<path fill-rule="evenodd" clip-rule="evenodd" d="M8.87293 20.3846C14.9642 17.7308 19.026 15.9812 21.0583 15.1359C26.861 12.7223 28.0668 12.3031 28.8527 12.2892C29.0255 12.2862 29.412 12.329 29.6624 12.5321C29.8737 12.7037 29.9319 12.9354 29.9597 13.098C29.9876 13.2606 30.0222 13.6311 29.9947 13.9206C29.6802 17.2245 28.3196 25.2424 27.6274 28.9428C27.3345 30.5087 26.7578 31.0337 26.1994 31.085C24.986 31.1967 24.0646 30.2831 22.8894 29.5128C21.0504 28.3073 20.0114 27.5568 18.2264 26.3805C16.1634 25.021 17.5007 24.2739 18.6764 23.0527C18.9841 22.7332 24.3304 17.8703 24.4338 17.4292C24.4468 17.374 24.4588 17.1684 24.3366 17.0598C24.2144 16.9512 24.0341 16.9883 23.904 17.0179C23.7195 17.0597 20.7817 19.0015 15.0904 22.8433C14.2565 23.4159 13.5012 23.6949 12.8245 23.6803C12.0784 23.6642 10.6433 23.2584 9.57647 22.9117C8.26793 22.4863 7.22792 22.2614 7.31849 21.539C7.36566 21.1628 7.8838 20.778 8.87293 20.3846Z" fill="white"/>
</svg>
