<svg width="473" height="362" viewBox="0 0 473 362" fill="none" xmlns="http://www.w3.org/2000/svg">
<path d="M398.939 313.901C393.425 303.018 387.417 291.89 380.671 281.747L382.395 280.466C390.421 290.905 399.333 300.95 408.886 309.912C405.144 310.355 401.598 311.685 398.939 313.95V313.901Z" fill="#FEFEFE"/>
<path d="M411.742 309.764C402.534 299.128 393.277 288.591 384.167 277.857L384.807 277.315C384.906 277.463 385.004 277.561 385.152 277.66C393.523 283.864 401.894 290.314 410.708 295.928C407.606 299.916 408.886 305.973 411.988 309.764H411.693H411.742Z" fill="#FEFEFE"/>
<path d="M409.969 333.646C410.462 333.252 410.954 332.809 411.348 332.316C412.382 331.036 411.003 329.263 409.526 330.051C402.632 333.695 395.887 327.836 398.644 320.4C401.204 313.605 408.984 311.734 415.533 311.931C416.567 311.98 416.764 310.306 415.73 310.109C415.386 310.06 415.041 310.011 414.696 309.961C414.844 309.617 414.893 309.173 414.696 308.78C413.17 305.677 411.003 302.428 412.628 298.833C413.958 295.928 418.34 294.943 419.67 297.996C419.67 298.193 419.67 298.341 419.719 298.538C419.965 300.556 422.919 300.556 422.919 298.439C422.919 291.053 429.567 284.947 436.904 288.69C440.055 290.265 442.123 293.318 442.222 296.863C442.271 298.488 441.926 300.162 441.188 301.64C440.991 302.083 440.055 303.659 438.972 304.791C437.938 304.939 436.953 305.136 435.968 305.431C435.623 305.382 435.279 305.48 435.033 305.727C434.836 305.776 434.688 305.825 434.54 305.924C432.521 306.662 433.358 309.666 435.476 309.173C439.71 308.189 443.846 307.844 446.21 312.325C447.983 315.722 446.702 320.597 444.684 323.552C440.547 329.756 432.915 330.051 426.711 326.998C426.514 326.9 426.268 326.9 426.022 326.949C424.594 326.211 422.87 328.377 424.15 329.854C428.877 335.32 427.203 344.873 419.817 347.039C416.961 347.876 413.613 347.482 411.003 346.005C407.015 343.74 404.553 337.24 409.477 334.384C409.772 334.237 409.871 333.991 409.92 333.744L409.969 333.646Z" fill="#FEFEFE"/>
<path d="M409.526 334.237C404.602 337.093 407.064 343.543 411.053 345.857C413.662 347.335 417.011 347.729 419.867 346.891C427.253 344.725 428.927 335.172 424.2 329.707C422.919 328.229 424.643 326.112 426.071 326.801C426.268 326.752 426.514 326.752 426.76 326.851C432.964 329.904 440.597 329.608 444.733 323.404C446.702 320.449 448.032 315.575 446.259 312.177C443.896 307.647 439.809 307.992 435.525 309.026C433.408 309.567 432.521 306.514 434.589 305.776C434.786 305.727 434.934 305.677 435.082 305.579C435.328 305.382 435.673 305.234 436.017 305.284C437.002 304.988 438.036 304.742 439.021 304.643C440.104 303.511 441.04 301.886 441.237 301.492C441.926 300.015 442.32 298.341 442.271 296.716C442.172 293.17 440.104 290.118 436.953 288.542C429.616 284.8 422.969 290.905 422.969 298.291C422.969 300.409 420.014 300.409 419.768 298.39C419.719 298.193 419.768 298.045 419.719 297.848C418.389 294.795 414.007 295.829 412.677 298.685C411.003 302.28 413.17 305.53 414.746 308.632C414.943 309.026 414.893 309.469 414.746 309.814C415.09 309.863 415.435 309.912 415.78 309.961C416.814 310.158 416.617 311.832 415.583 311.783C409.034 311.586 401.254 313.457 398.693 320.252C395.887 327.688 402.682 333.547 409.575 329.904C411.053 329.116 412.431 330.888 411.397 332.169C410.954 332.71 410.511 333.153 410.018 333.498C410.018 333.744 409.871 333.991 409.575 334.138L409.526 334.237ZM428.681 330.494C432.817 339.111 427.942 350.388 417.158 350.634C411.988 350.781 406.424 348.122 404.504 343.051C403.568 340.49 403.667 337.388 405.045 335.172C399.777 334.975 394.409 329.707 394.36 324.142C394.311 320.4 395.591 317.446 397.561 315.181L398.89 313.851C401.549 311.586 405.144 310.257 408.837 309.814C399.235 300.852 390.322 290.807 382.345 280.368C381.311 278.989 380.228 277.61 379.243 276.183C378.308 274.902 380.425 273.228 381.41 274.459C382.296 275.542 383.232 276.626 384.167 277.758C393.228 288.493 402.534 299.03 411.742 309.666H412.037C408.886 305.924 407.655 299.867 410.757 295.829L412.087 294.254L412.234 294.352C414.549 292.58 417.749 292.678 419.916 294.204C421.885 284.75 434.786 280.614 442.025 288.296C445.668 292.186 446.21 298.144 443.748 302.821C443.502 303.363 443.059 304.003 442.517 304.643C444.487 304.939 446.309 305.825 447.786 307.598C451.036 311.537 451.036 317.594 449.214 322.173C445.915 330.298 436.411 333.892 428.779 330.445L428.681 330.494Z" fill="#2B2B2B"/>
<path d="M431.143 303.708C430.749 304.102 430.502 303.954 430.109 304.299C429.961 304.052 430.207 303.757 429.961 303.56C430.158 303.363 430.355 303.117 430.601 302.92C430.847 303.117 431.044 303.363 431.29 303.56C431.241 303.609 431.192 303.659 431.143 303.708Z" fill="#FEFEFE"/>
<path d="M407.162 311.094L407.113 311.143C406.867 311.192 407.015 310.798 407.113 310.651L407.162 310.601C407.408 310.552 407.261 310.946 407.162 311.094Z" fill="#5D5D5D"/>
<path d="M397.068 320.597C397.019 320.646 396.92 320.696 396.822 320.745C396.723 320.794 396.576 320.843 396.477 320.942C396.477 320.942 396.477 320.991 396.428 320.991C396.329 320.843 396.428 320.597 396.576 320.449C396.723 320.302 396.97 320.203 397.068 320.302C397.117 320.449 397.117 320.548 397.068 320.597Z" fill="#5D5D5D"/>
<path d="M401.943 315.082C401.598 315.427 401.155 315.525 400.761 315.033C400.81 314.738 400.909 314.59 401.007 314.491C401.106 314.393 401.254 314.294 401.45 314.245C401.647 314.147 401.844 314.048 402.091 313.802C402.189 313.704 402.288 313.605 402.386 313.457C402.681 313.851 402.435 314.688 402.041 315.132L401.943 315.082Z" fill="#5D5D5D"/>
<path d="M406.079 310.404C405.833 310.454 405.587 310.552 405.341 310.601C405.193 310.503 405.045 310.355 404.898 310.257C405.193 310.011 405.439 310.158 405.735 309.814C405.882 309.961 406.03 310.109 406.178 310.257C406.129 310.306 406.079 310.355 406.079 310.404Z" fill="#FEFEFE"/>
<path d="M406.03 310.454C405.784 310.749 405.538 310.7 405.341 310.601C405.587 310.552 405.833 310.454 406.079 310.404L406.03 310.454Z" fill="#5D5D5D"/>
<path d="M45.8871 329.263C50.7126 319.711 56.0305 309.961 61.8901 301.098L60.3637 299.966C53.3223 309.124 45.5424 317.889 37.1223 325.767C40.3722 326.161 43.5235 327.294 45.8378 329.263H45.8871Z" fill="#FEFEFE"/>
<path d="M34.6605 325.62C42.7359 316.313 50.8605 307.056 58.8374 297.651L58.2958 297.208C58.1973 297.307 58.0988 297.454 58.0003 297.553C50.6635 303.018 43.3267 308.632 35.596 313.556C38.3042 317.052 37.221 322.37 34.4635 325.669H34.7097L34.6605 325.62Z" fill="#FEFEFE"/>
<path d="M36.2362 346.547C35.7931 346.202 35.3992 345.808 35.0052 345.365C34.0697 344.232 35.3007 342.706 36.5809 343.395C42.6375 346.596 48.5463 341.475 46.0843 334.975C43.8685 329.017 37.0241 327.343 31.263 327.54C30.3767 327.589 30.1797 326.112 31.1153 325.964C31.4107 325.915 31.7061 325.866 32.0016 325.866C31.8539 325.57 31.8046 325.177 32.0016 324.832C33.3311 322.074 35.2514 319.268 33.8235 316.116C32.6417 313.556 28.801 312.67 27.6685 315.378C27.6685 315.525 27.6685 315.673 27.6192 315.87C27.373 317.643 24.8125 317.643 24.8125 315.772C24.8125 309.272 19.0022 303.954 12.5517 307.204C9.79426 308.583 7.97237 311.242 7.92313 314.344C7.87389 315.772 8.21858 317.249 8.80946 318.529C9.00642 318.923 9.79426 320.302 10.7298 321.287C11.6162 321.385 12.5025 321.582 13.3888 321.877C13.6842 321.828 13.9797 321.927 14.1766 322.124C14.3244 322.173 14.4721 322.222 14.6198 322.271C16.3924 322.911 15.6538 325.57 13.7827 325.127C10.0405 324.241 6.44593 323.946 4.37784 327.885C2.80215 330.839 3.93468 335.123 5.70733 337.733C9.3511 343.149 16.0478 343.445 21.4642 340.736C21.6611 340.638 21.8581 340.638 22.0551 340.687C23.2861 340.047 24.8125 341.918 23.68 343.198C19.4946 348.024 20.9718 356.346 27.4715 358.266C29.9827 359.005 32.9372 358.66 35.2022 357.33C38.6983 355.312 40.8156 349.649 36.5317 347.138C36.2855 346.99 36.187 346.793 36.187 346.596L36.2362 346.547Z" fill="#FEFEFE"/>
<path d="M36.5808 347.088C40.9139 349.6 38.7474 355.262 35.2513 357.281C32.9863 358.561 30.0319 358.906 27.5206 358.217C21.0209 356.346 19.5929 347.975 23.7291 343.149C24.8616 341.869 23.3352 339.998 22.1042 340.638C21.9072 340.589 21.7103 340.589 21.5133 340.687C16.0969 343.395 9.40022 343.1 5.75644 337.684C4.03304 335.074 2.85127 330.839 4.42696 327.835C6.49504 323.896 10.0896 324.192 13.8318 325.078C15.703 325.521 16.4416 322.862 14.6689 322.222C14.5212 322.173 14.3735 322.124 14.2258 322.074C14.0288 321.877 13.7334 321.779 13.4379 321.828C12.5516 321.582 11.6653 321.385 10.7789 321.237C9.84338 320.253 9.00629 318.825 8.85857 318.48C8.21845 317.2 7.92301 315.722 7.97225 314.294C8.02149 311.192 9.89262 308.533 12.6008 307.155C19.0513 303.856 24.8616 309.223 24.8616 315.722C24.8616 317.594 27.4714 317.544 27.6683 315.821C27.7176 315.673 27.6683 315.525 27.7176 315.328C28.8501 312.67 32.6908 313.556 33.8726 316.067C35.3498 319.218 33.4294 322.074 32.0507 324.783C31.8537 325.127 31.903 325.521 32.0507 325.817C31.7553 325.866 31.4598 325.915 31.1644 325.915C30.2781 326.063 30.4258 327.54 31.3121 327.491C37.024 327.294 43.8683 328.968 46.1334 334.926C48.5954 341.426 42.6373 346.547 36.63 343.346C35.3006 342.657 34.1188 344.232 35.0544 345.316C35.4483 345.759 35.8422 346.153 36.2854 346.498C36.2854 346.694 36.3838 346.891 36.63 347.039L36.5808 347.088ZM19.7899 343.839C16.1461 351.422 20.43 361.27 29.9334 361.516C34.4635 361.614 39.3382 359.3 41.0124 354.868C41.8495 352.603 41.751 349.895 40.52 347.975C45.1486 347.827 49.8264 343.149 49.8756 338.324C49.9249 335.025 48.8416 332.464 47.069 330.445L45.8872 329.263C43.5237 327.294 40.4215 326.112 37.1717 325.767C45.5918 317.889 53.3717 309.075 60.413 299.966C61.3486 298.735 62.2349 297.553 63.1705 296.322C64.0076 295.189 62.1365 293.761 61.2501 294.795C60.4623 295.731 59.6252 296.716 58.8374 297.651C50.8605 307.056 42.7358 316.313 34.6604 325.62H34.4142C37.1717 322.321 38.255 317.003 35.5468 313.507L34.4142 312.128L34.2665 312.226C32.2477 310.7 29.441 310.749 27.5698 312.079C25.8464 303.806 14.5212 300.162 8.16921 306.908C4.9686 310.306 4.52544 315.525 6.64276 319.612C6.88897 320.056 7.23365 320.646 7.72605 321.188C6.00264 321.434 4.37772 322.222 3.09747 323.798C0.24154 327.245 0.24154 332.563 1.86647 336.551C4.7224 343.691 13.0932 346.842 19.7899 343.789V343.839Z" fill="#2B2B2B"/>
<path d="M17.6727 320.302C18.0174 320.646 18.2636 320.499 18.559 320.843C18.6575 320.646 18.5098 320.351 18.7067 320.154C18.5098 319.957 18.3621 319.76 18.1651 319.563C17.9681 319.76 17.7712 319.957 17.5742 320.154C17.6235 320.203 17.6727 320.253 17.6727 320.302Z" fill="#FEFEFE"/>
<path d="M38.6979 326.801L38.7472 326.851C38.9441 326.9 38.8457 326.555 38.7472 326.408L38.6979 326.358C38.501 326.309 38.5995 326.654 38.6979 326.801Z" fill="#5D5D5D"/>
<path d="M47.5614 335.123C47.6106 335.172 47.7091 335.172 47.8076 335.221C47.9061 335.271 48.0046 335.32 48.103 335.418C48.103 335.418 48.103 335.418 48.1523 335.468C48.2508 335.32 48.1523 335.123 48.0538 335.025C47.9061 334.877 47.7091 334.828 47.6106 334.877C47.5614 335.025 47.5614 335.074 47.6106 335.123H47.5614Z" fill="#5D5D5D"/>
<path d="M43.2776 330.297C43.5731 330.593 43.967 330.691 44.3117 330.248C44.2624 330.002 44.2132 329.854 44.1147 329.756C44.0162 329.657 43.8685 329.608 43.7208 329.51C43.573 329.411 43.3761 329.313 43.1791 329.116C43.0806 329.017 43.0314 328.919 42.9329 328.82C42.6867 329.165 42.8837 329.904 43.2776 330.297Z" fill="#5D5D5D"/>
<path d="M39.6338 326.211C39.8307 326.26 40.0769 326.309 40.2739 326.408C40.4216 326.309 40.5201 326.211 40.6678 326.112C40.4216 325.915 40.1754 326.014 39.9292 325.718C39.7815 325.866 39.683 325.964 39.5353 326.112C39.5845 326.161 39.5845 326.211 39.6338 326.26V326.211Z" fill="#FEFEFE"/>
<path d="M39.683 326.26C39.9292 326.506 40.1262 326.506 40.2739 326.407C40.077 326.358 39.8307 326.309 39.6338 326.211L39.683 326.26Z" fill="#5D5D5D"/>
<path d="M421.442 40.125C417.995 51.8442 414.105 63.9081 409.378 75.0856L411.298 76.0704C417.256 64.3512 424.199 52.829 431.979 42.2916C428.237 42.5378 424.495 41.8977 421.442 40.1743V40.125Z" fill="#FEFEFE"/>
<path d="M434.835 41.8977C427.745 54.06 420.556 66.0746 413.564 78.3354L414.302 78.7294C414.352 78.5816 414.45 78.4339 414.598 78.2862C421.688 70.654 428.779 62.7755 436.411 55.685C432.669 52.2874 432.767 46.1323 435.18 41.8484L434.885 41.8977H434.835Z" fill="#FEFEFE"/>
<path d="M428.68 18.7548C429.222 19.0503 429.764 19.3949 430.305 19.8381C431.585 20.8721 430.551 22.891 428.926 22.3986C421.491 20.0843 415.927 27.0764 420.014 33.8715C423.756 40.0758 431.782 40.519 438.184 39.091C439.168 38.8448 439.71 40.4697 438.725 40.8144C438.381 40.9129 438.036 41.0114 437.74 41.1591C437.937 41.5038 438.085 41.8977 437.937 42.3409C437.002 45.6892 435.426 49.2837 437.74 52.4843C439.562 55.0941 444.092 55.291 444.782 52.0412C444.782 51.8442 444.733 51.6965 444.733 51.4995C444.634 49.4807 447.539 48.8898 447.933 51.0071C449.263 58.2947 456.944 63.071 463.493 58.0485C466.3 55.9312 467.777 52.5336 467.186 49.0375C466.94 47.4618 466.251 45.8369 465.315 44.5074C465.02 44.1135 463.838 42.7348 462.558 41.7992C461.524 41.8485 460.489 41.7992 459.455 41.7007C459.111 41.7992 458.766 41.75 458.52 41.6023C458.323 41.553 458.175 41.553 457.978 41.5038C455.861 41.1591 456.156 38.0077 458.323 38.1554C462.705 38.3524 466.792 37.9585 468.269 33.0837C469.402 29.4399 467.235 24.8606 464.724 22.3493C459.505 17.0314 451.971 18.1147 446.407 22.2509C446.21 22.3986 445.964 22.4478 445.767 22.4478C444.486 23.4326 442.418 21.6107 443.403 19.9366C447.047 13.6831 443.699 4.62287 436.017 3.83503C433.013 3.53959 429.813 4.52439 427.548 6.494C424.052 9.44841 422.821 16.2928 428.188 18.1639C428.483 18.2624 428.631 18.4594 428.73 18.7056L428.68 18.7548Z" fill="#FEFEFE"/>
<path d="M428.188 18.2132C422.821 16.2928 424.052 9.49765 427.548 6.54324C429.813 4.62287 433.063 3.63807 436.017 3.88427C443.699 4.67211 447.047 13.7323 443.403 19.9858C442.418 21.66 444.487 23.4326 445.767 22.4971C445.964 22.4971 446.21 22.4478 446.407 22.3001C451.922 18.1639 459.505 17.0314 464.724 22.3986C467.236 24.9591 469.402 29.4892 468.27 33.1329C466.743 38.0077 462.656 38.4509 458.323 38.2047C456.156 38.057 455.861 41.2083 457.978 41.553C458.175 41.6023 458.323 41.6023 458.52 41.6515C458.815 41.7992 459.16 41.8484 459.456 41.75C460.49 41.8484 461.524 41.8977 462.558 41.8484C463.838 42.784 465.02 44.1627 465.315 44.5567C466.251 45.8862 466.94 47.4618 467.186 49.0868C467.777 52.5828 466.251 55.9311 463.493 58.0977C456.944 63.1202 449.312 58.3439 447.933 51.0564C447.539 48.9883 444.634 49.5299 444.733 51.5488C444.733 51.7457 444.782 51.8934 444.782 52.0904C444.043 55.3403 439.562 55.1433 437.741 52.5336C435.476 49.333 437.002 45.7384 437.938 42.3901C438.085 41.9469 437.938 41.553 437.741 41.2083C438.085 41.1099 438.43 41.0114 438.725 40.8637C439.71 40.4697 439.218 38.894 438.184 39.1402C431.783 40.5682 423.806 40.1251 420.014 33.9208C415.927 27.1256 421.491 20.1335 428.927 22.4478C430.552 22.9402 431.586 20.9706 430.305 19.8873C429.764 19.4442 429.222 19.0995 428.68 18.804C428.631 18.5578 428.483 18.3609 428.139 18.2624L428.188 18.2132ZM447.736 18.3609C450.248 9.10372 443.403 -1.08899 432.718 0.683656C427.597 1.52074 422.624 5.11528 421.688 10.4332C421.245 13.1414 421.885 16.1451 423.658 18.0654C418.488 19.198 414.204 25.4022 415.189 30.8187C415.829 34.5117 417.601 37.2199 420.014 39.0418L421.541 40.125C424.593 41.8484 428.336 42.5378 432.078 42.2424C424.298 52.829 417.355 64.302 411.397 76.0211C410.609 77.5968 409.821 79.1233 409.083 80.699C408.393 82.1269 410.757 83.3579 411.545 82.0285C412.234 80.7974 412.973 79.5664 413.662 78.2862C420.605 66.0746 427.843 54.0108 434.934 41.8484L435.229 41.7992C432.817 46.0831 432.718 52.2381 436.46 55.6357L438.036 56.9652L438.135 56.8175C440.744 58.147 443.846 57.4576 445.718 55.5865C449.361 64.4989 462.853 66.2223 468.565 57.3591C471.47 52.8783 470.879 46.9202 467.58 42.784C467.236 42.3409 466.694 41.75 466.054 41.2083C467.925 40.5682 469.599 39.3372 470.682 37.3184C473.144 32.8375 472.061 26.8794 469.402 22.7433C464.675 15.3572 454.63 13.5353 447.786 18.3609H447.736Z" fill="#2B2B2B"/>
<path d="M454.975 44.3105C454.531 44.015 454.285 44.212 453.842 43.9165C453.744 44.1627 454.039 44.4582 453.842 44.7044C454.088 44.9013 454.334 45.0491 454.581 45.246C454.778 44.9998 454.925 44.7536 455.122 44.5074C455.073 44.4582 455.024 44.4089 454.975 44.3597V44.3105Z" fill="#FEFEFE"/>
<path d="M430.059 41.4545C430.01 41.4545 430.01 41.4053 430.01 41.4053C429.764 41.4053 429.961 41.7992 430.108 41.8977C430.157 41.8977 430.157 41.9469 430.207 41.9469C430.453 41.9469 430.256 41.553 430.108 41.4545H430.059Z" fill="#5D5D5D"/>
<path d="M418.389 33.9208C418.34 33.8715 418.241 33.8715 418.094 33.8223C417.995 33.8223 417.847 33.7731 417.7 33.6746C417.7 33.6746 417.651 33.6746 417.651 33.6253C417.601 33.8223 417.7 34.0193 417.847 34.1177C418.044 34.2655 418.291 34.3147 418.389 34.167C418.438 34.0193 418.389 33.9208 418.34 33.8715L418.389 33.9208Z" fill="#5D5D5D"/>
<path d="M424.2 38.4509C423.806 38.1554 423.362 38.1554 423.018 38.6971C423.116 38.9925 423.215 39.1402 423.362 39.1895C423.51 39.288 423.658 39.3372 423.855 39.3864C424.052 39.4357 424.249 39.5342 424.544 39.7311C424.643 39.8296 424.741 39.8789 424.889 40.0266C425.086 39.5834 424.741 38.7956 424.2 38.4509Z" fill="#5D5D5D"/>
<path d="M429.123 42.2916C428.877 42.2916 428.631 42.2424 428.336 42.2424C428.188 42.3409 428.089 42.5378 427.942 42.6855C428.286 42.8333 428.483 42.6855 428.828 42.981C428.976 42.784 429.074 42.6363 429.222 42.4886C429.173 42.4393 429.123 42.3901 429.074 42.3409L429.123 42.2916Z" fill="#FEFEFE"/>
<path d="M429.074 42.2424C428.779 41.9962 428.533 42.0946 428.385 42.2424C428.631 42.2916 428.877 42.2916 429.173 42.2916L429.124 42.2424H429.074Z" fill="#5D5D5D"/>
<path d="M58.9852 42.0947C62.432 53.8138 66.3219 65.8777 71.049 77.0552L69.1286 78.04C63.1706 66.3208 56.2277 54.7986 48.4478 44.2612C52.19 44.5074 55.9323 43.8673 58.9852 42.1439V42.0947Z" fill="#FEFEFE"/>
<path d="M45.5918 43.8673C52.6824 56.0296 59.8715 68.0442 66.8636 80.305L66.125 80.699C66.0757 80.5512 65.9772 80.4035 65.8295 80.2558C58.7389 72.6236 51.6483 64.7451 44.0161 57.6546C47.7584 54.257 47.6599 48.102 45.2471 43.8181L45.5426 43.8673H45.5918Z" fill="#FEFEFE"/>
<path d="M51.7466 20.7244C51.2049 21.0199 50.6633 21.3645 50.1216 21.8077C48.8414 22.8417 49.8754 24.8606 51.5004 24.3682C58.9356 22.0539 64.4998 29.046 60.4128 35.8412C56.6706 42.0454 48.6444 42.4886 42.2432 41.0606C41.2584 40.8144 40.7168 42.4393 41.7016 42.784C42.0462 42.8825 42.3909 42.981 42.6864 43.1287C42.4894 43.4734 42.3417 43.8673 42.4894 44.3105C43.425 47.6588 45.0007 51.2533 42.6864 54.454C40.8645 57.0637 36.3344 57.2606 35.645 54.0108C35.645 53.8138 35.6943 53.6661 35.6943 53.4691C35.7927 51.4503 32.8876 50.8594 32.4936 52.9767C31.1642 60.2643 23.4827 65.0406 16.9337 60.0181C14.1271 57.9008 12.6498 54.5032 13.2407 51.0071C13.4869 49.4314 14.1763 47.8065 15.1119 46.477C15.4073 46.0831 16.5891 44.7044 17.8693 43.7688C18.9034 43.8181 19.9374 43.7688 20.9714 43.6703C21.3161 43.7688 21.6608 43.7196 21.907 43.5719C22.104 43.5226 22.2517 43.5226 22.4486 43.4734C24.566 43.1287 24.2705 39.9773 22.104 40.125C17.7216 40.322 13.6347 39.9281 12.1574 35.0533C11.0249 31.4095 13.1915 26.8302 15.7027 24.3189C20.9222 19.001 28.456 20.0843 34.0201 24.2205C34.2171 24.3682 34.4633 24.4174 34.6602 24.4174C35.9405 25.4022 38.0085 23.5803 37.0237 21.9062C33.38 15.6527 36.7283 6.59248 44.4098 5.80463C47.4134 5.50919 50.614 6.494 52.8791 8.4636C56.3751 11.418 57.6061 18.2624 52.239 20.1335C51.9435 20.232 51.7958 20.429 51.6973 20.6752L51.7466 20.7244Z" fill="#FEFEFE"/>
<path d="M52.2393 20.1828C57.6065 18.2624 56.3755 11.4673 52.8794 8.51284C50.6144 6.59247 47.3645 5.60767 44.4101 5.85387C36.7287 6.64171 33.3803 15.7019 37.0241 21.9554C38.0089 23.6296 35.9408 25.4022 34.6606 24.4667C34.4636 24.4667 34.2174 24.4174 34.0204 24.2697C28.5055 20.1335 20.9226 19.001 15.7031 24.3682C13.1918 26.9287 11.0253 31.4588 12.1578 35.1025C13.6842 39.9773 17.7712 40.4205 22.1043 40.1743C24.2709 40.0266 24.5663 43.1779 22.449 43.5226C22.252 43.5718 22.1043 43.5719 21.9074 43.6211C21.6119 43.7688 21.2672 43.8181 20.9718 43.7196C19.9377 43.8181 18.9037 43.8673 17.8697 43.8181C16.5894 44.7536 15.4077 46.1323 15.1122 46.5263C14.1766 47.8558 13.4873 49.4314 13.2411 51.0564C12.6502 54.5524 14.1766 57.9007 16.9341 60.0673C23.483 65.0898 31.1153 60.3135 32.494 53.026C32.8879 50.9579 35.7931 51.4995 35.6946 53.5184C35.6946 53.7153 35.6454 53.863 35.6454 54.06C36.384 57.3099 40.8648 57.1129 42.6867 54.5032C44.9518 51.3026 43.4253 47.708 42.4898 44.3597C42.342 43.9165 42.4898 43.5226 42.6867 43.1779C42.342 43.0795 41.9974 42.981 41.7019 42.8333C40.7171 42.4393 41.2095 40.8636 42.2436 41.1098C48.6448 42.5378 56.6217 42.0947 60.4132 35.8904C64.5001 29.0952 58.936 22.1031 51.5007 24.4174C49.8758 24.9098 48.8417 22.9402 50.122 21.8569C50.6636 21.4138 51.2053 21.0691 51.7469 20.7737C51.7962 20.5275 51.9439 20.3305 52.2886 20.232L52.2393 20.1828ZM32.691 20.3305C30.1797 11.0733 37.0241 0.880613 47.7092 2.65326C52.8302 3.49034 57.8035 7.08488 58.739 12.4028C59.1822 15.111 58.5421 18.1147 56.7694 20.035C61.9396 21.1676 66.2235 27.3718 65.2387 32.7882C64.5986 36.4813 62.826 39.1895 60.4132 41.0114L58.8867 42.0947C55.8338 43.8181 52.0916 44.5074 48.3493 44.212C56.1293 54.7986 63.0722 66.2716 69.0302 77.9907C69.8181 79.5664 70.6059 81.0929 71.3445 82.6686C72.0339 84.0965 69.6703 85.3275 68.8825 83.9981C68.1931 82.767 67.4545 81.536 66.7652 80.2558C59.8223 68.0442 52.584 55.9804 45.4934 43.8181L45.198 43.7688C47.6107 48.0527 47.7092 54.2077 43.967 57.6053L42.3913 58.9348L42.2928 58.7871C39.6831 60.1166 36.5809 59.4272 34.7098 57.5561C31.066 66.4685 17.5742 68.1919 11.8624 59.3287C8.95719 54.8479 9.54807 48.8898 12.8472 44.7536C13.1918 44.3105 13.7335 43.7196 14.3736 43.1779C12.5025 42.5378 10.8283 41.3068 9.74503 39.288C7.28302 34.8071 8.3663 28.849 11.0253 24.7129C15.7523 17.3268 25.7973 15.505 32.6417 20.3305H32.691Z" fill="#2B2B2B"/>
<path d="M25.4524 46.2801C25.8956 45.9846 26.1418 46.1816 26.5849 45.8861C26.6834 46.1323 26.388 46.4278 26.5849 46.674C26.3387 46.8709 26.0925 47.0187 25.8463 47.2156C25.6494 46.9694 25.5016 46.7232 25.3047 46.477C25.3539 46.4278 25.4032 46.3785 25.4524 46.3293V46.2801Z" fill="#FEFEFE"/>
<path d="M50.3679 43.3749C50.4172 43.3749 50.4172 43.3257 50.4172 43.3257C50.6634 43.3257 50.4664 43.7196 50.3187 43.818C50.2694 43.818 50.2694 43.8673 50.2202 43.8673C49.974 43.8673 50.171 43.4734 50.3187 43.3749H50.3679Z" fill="#5D5D5D"/>
<path d="M62.0379 35.8904C62.0871 35.8411 62.1856 35.8411 62.3333 35.7919C62.4318 35.7919 62.5795 35.7427 62.7272 35.6442C62.7272 35.6442 62.7765 35.6442 62.7765 35.5949C62.8257 35.7919 62.7272 35.9889 62.5795 36.0873C62.3825 36.2351 62.1363 36.2843 62.0379 36.1366C61.9886 35.9889 62.0379 35.8904 62.0871 35.8411L62.0379 35.8904Z" fill="#5D5D5D"/>
<path d="M56.2278 40.4205C56.6217 40.125 57.0649 40.125 57.4095 40.6667C57.3111 40.9621 57.2126 41.1099 57.0649 41.1591C56.9171 41.2576 56.7694 41.3068 56.5725 41.356C56.3755 41.4053 56.1785 41.5038 55.8831 41.7007C55.7846 41.7992 55.6861 41.8485 55.5384 41.9962C55.3415 41.553 55.6861 40.7652 56.2278 40.4205Z" fill="#5D5D5D"/>
<path d="M51.3036 44.2612C51.5498 44.2612 51.796 44.212 52.0914 44.212C52.2391 44.3105 52.3376 44.5074 52.4853 44.6551C52.1406 44.8029 51.9437 44.6551 51.599 44.9506C51.4513 44.7536 51.3528 44.6059 51.2051 44.4582C51.2543 44.4089 51.3036 44.3597 51.3528 44.3105L51.3036 44.2612Z" fill="#FEFEFE"/>
<path d="M51.4021 44.212C51.6975 43.9658 51.9437 44.0643 52.0914 44.212C51.8452 44.2612 51.599 44.2612 51.3036 44.2612L51.3528 44.212H51.4021Z" fill="#5D5D5D"/>
<path fill-rule="evenodd" clip-rule="evenodd" d="M74.3971 96.8005L75.9235 90.4978C77.1053 90.3993 79.1242 90.2516 81.34 90.3501C81.0445 92.5166 78.0901 94.7817 74.4463 96.7513L74.3971 96.8005Z" fill="#071F53"/>
<path fill-rule="evenodd" clip-rule="evenodd" d="M151.901 92.3689C155.003 90.9409 157.909 89.1683 159.878 87.0509C156.924 87.6911 154.216 88.4297 152.886 88.7744L151.901 92.3689Z" fill="#071F53"/>
<path fill-rule="evenodd" clip-rule="evenodd" d="M193.755 103.94C187.896 110.834 180.657 116.447 174.65 120.19L178.737 139.393L193.755 103.94Z" fill="#071F53"/>
<path fill-rule="evenodd" clip-rule="evenodd" d="M44.1146 61.643C44.2623 61.5938 86.1165 51.8442 104.975 62.1847L114.233 67.2564C116.793 68.6351 118.91 70.4078 120.437 72.5743C121.52 68.6351 122.653 64.6959 123.736 60.7567L124.622 60.5597C124.77 60.5105 164.458 51.4995 184.104 59.5749C184.154 59.5749 184.203 59.6242 184.252 59.6242C184.991 59.9196 185.68 60.2643 186.369 60.609C186.419 60.6582 186.517 60.6582 186.566 60.7074C186.616 60.7074 186.616 60.7567 186.665 60.7567L195.922 65.8284C200.945 68.5859 204.145 72.8205 204.145 79.1233L213.008 58.1962L213.846 58.0485L267.37 48.5451L276.627 53.6169L270.816 101.38L283.57 66.0254L315.33 65.3853L324.587 70.457L324.931 80.1081L333.893 53.7153L372.005 54.0108L381.262 59.0825L381.164 59.378L406.621 57.2606L415.878 62.3324L413.416 68.6844L449.214 68.1427L458.471 73.2145L419.965 117.678L420.162 171.35L386.629 174.452L377.372 169.381L377.471 158.4L349.404 158.548L342.806 154.953C341.328 158.597 339.851 162.241 338.423 165.884L304.3 168.543L295.043 163.472L295.141 148.503L264.661 151.556L263.775 158.843L226.943 165.047L217.686 159.976L222.709 136.882L221.33 137.177L215.52 151.605L182.824 156.233L182.135 155.84L182.726 158.498L148.947 165.835L139.69 160.764L138.065 153.131L137.769 154.559L106.206 161.256L96.9493 156.184C101.233 140.87 105.566 125.557 109.85 110.194C94.635 125.852 71.3444 134.371 66.5681 136.045L61.9888 161.157L28.8994 166.968L19.6422 161.896C27.4714 128.511 35.3006 95.0771 43.1298 61.6923L44.0653 61.4953L44.1146 61.643Z" fill="#071F53"/>
<path d="M112.263 80.6497C117.532 46.0831 44.4593 63.1202 44.4593 63.1202L21.7595 160.074L51.5006 154.855L56.0307 129.939C56.0307 129.939 107.388 113.542 112.263 80.6497ZM81.7341 87.1494C88.8739 95.1263 60.5116 104.383 60.5116 104.383L65.3863 84.0473C65.3863 84.0473 77.4502 82.3731 81.7341 87.1987V87.1494ZM193.411 74.1993C193.805 46.3785 125.016 62.0369 125.016 62.0369L99.1651 154.313L127.232 148.355L132.845 121.421L140.921 159.089L171.696 152.393L163.571 114.379C175.34 107.19 193.115 92.3689 193.362 74.1993H193.411ZM163.817 82.7178C162.143 93.5999 137.769 98.6716 137.769 98.6716L142.349 82.4716C142.349 82.4716 164.901 75.7257 163.817 82.7178ZM265.646 50.4655L214.19 59.5749L176.177 149.389L205.278 145.302L211.039 130.973L226.5 127.526L219.853 158.252L253.287 152.59L265.695 50.4655H265.646ZM236.102 78.1385L231.818 100.789L222.019 102.168L229.553 80.1081L236.102 78.1385ZM369.888 55.5865L335.124 55.291L315.576 112.853L313.951 67.0102L284.751 67.6011L256.832 144.908L287.755 141.806L297.012 111.77L296.766 161.896L328.28 159.434L369.937 55.5865H369.888ZM445.964 69.7676L411.003 70.3093L389.879 96.3573L404.454 59.0333L374.713 61.4953L342.559 151.95L371.759 151.802L379.588 127.822L379.145 167.706L409.526 164.9L409.329 112.065L445.964 69.7676Z" fill="url(#paint0_linear_3477_685)" stroke="#113038" stroke-width="3.00365" stroke-miterlimit="2.61313"/>
<path fill-rule="evenodd" clip-rule="evenodd" d="M64.943 63.8096C103.153 58.4916 113.986 70.3585 98.0816 99.1148C108.471 70.8509 94.2902 61.3968 64.943 63.8096Z" fill="#E9F3E8"/>
<path fill-rule="evenodd" clip-rule="evenodd" d="M129.792 66.1731L127.724 65.8777L105.418 148.503L107.142 147.813L129.792 66.1731Z" fill="#E9F3E8"/>
<path fill-rule="evenodd" clip-rule="evenodd" d="M127.724 65.8777C169.185 57.4083 187.551 61.1998 186.173 75.5287C178.146 61.5938 154.61 62.677 127.331 67.3549C127.478 66.8625 127.626 66.3701 127.724 65.8284V65.8777Z" fill="#E9F3E8"/>
<path fill-rule="evenodd" clip-rule="evenodd" d="M256.192 96.702H254.321L246.492 150.078L248.215 149.783L249.988 149.488L256.192 96.702Z" fill="#E9F3E8"/>
<path fill-rule="evenodd" clip-rule="evenodd" d="M250.185 147.764L224.728 150.571L224.432 152.688L249.988 149.635L250.185 147.764Z" fill="#E9F3E8"/>
<path fill-rule="evenodd" clip-rule="evenodd" d="M286.573 71.9342H288.395L266.68 139.295L264.76 139.541L263.036 139.196L286.573 71.9342Z" fill="#E9F3E8"/>
<path fill-rule="evenodd" clip-rule="evenodd" d="M263.824 136.833L285.49 136.882L285.588 138.901L262.888 139.393L263.824 136.833Z" fill="#E9F3E8"/>
<path fill-rule="evenodd" clip-rule="evenodd" d="M357.774 71.9342H359.646L326.507 153.427L325.03 153.23L324.537 153.131L322.814 153.328L357.774 71.9342Z" fill="#E9F3E8"/>
<path fill-rule="evenodd" clip-rule="evenodd" d="M305.235 151.26L326.901 151.309L326.507 153.427L304.3 153.821L305.235 151.26Z" fill="#E9F3E8"/>
<path fill-rule="evenodd" clip-rule="evenodd" d="M441.237 78.9756C443.058 79.7634 444.388 81.8807 445.964 83.0625L447.096 84.1458C447.933 84.9336 448.623 85.5245 448.77 86.5093L448.967 86.9032C449.46 87.2971 449.213 87.0017 449.066 87.2971C449.361 87.4449 449.361 87.3464 449.115 87.5926C449.41 87.7403 449.41 87.6418 449.164 87.8388C449.607 88.4789 449.607 88.3312 449.263 88.9221C449.361 89.4637 449.164 89.9561 448.82 90.547C446.899 93.7476 444.092 95.2248 441.926 96.9482C440.695 97.933 440.892 97.6868 439.021 98.1792C438.381 98.3269 438.578 98.2285 437.494 98.2285C433.358 98.327 428.089 93.1567 427.942 91.1379L427.794 90.8917C427.4 90.1531 427.252 89.7592 427.252 89.1683L427.203 88.9221V88.6266L427.105 88.3312V88.085V87.7895L427.055 87.4941L427.105 87.2479C426.858 87.0509 426.908 87.1987 427.105 86.9032L427.252 85.9184C427.302 85.623 427.4 85.3768 427.499 85.1306C427.499 83.6041 428.188 81.6345 428.926 79.9111C430.305 76.6613 431.684 75.8734 434.441 76.0704C436.509 76.2181 439.267 77.5968 441.237 79.0248V78.9756ZM407.113 57.7038C408.443 56.522 409.723 56.3743 411.2 56.9159C412.628 57.4084 414.401 58.0977 415.484 59.2795C416.223 59.3287 417.158 60.1658 417.847 60.7074L421.097 63.3172L421.393 63.7111L421.787 64.105C422.279 64.5482 421.934 64.1543 422.23 64.5974C422.771 65.336 422.279 64.2035 422.279 64.8436C423.116 65.3853 422.722 65.0898 422.624 65.3853C423.264 65.8284 423.018 65.4837 423.018 65.9269C423.658 66.2716 423.362 66.0254 423.264 66.3208C424.199 67.0594 424.84 68.8321 424.741 69.5707C425.726 71.7865 422.673 74.2485 420.95 75.4795L417.946 77.0552C416.912 77.5968 414.499 78.237 413.367 78.237C413.022 78.237 412.825 78.0892 412.53 78.0892C411.299 77.9907 412.923 78.4339 410.56 78.04C407.802 77.5968 402.977 73.5591 402.928 72.1804C402.337 71.7372 402.632 72.0327 402.731 71.7865C401.943 71.2448 402.386 71.5403 402.435 71.2448C402.041 71.1464 401.992 71.2448 402.288 70.9986C401.992 70.8509 401.992 70.9494 402.189 70.7032L402.337 70.457C401.795 69.9154 401.647 68.9798 402.041 68.2904C401.647 68.1427 401.746 68.2412 402.041 67.8965C401.943 67.4041 402.14 66.8132 402.485 66.3208C402.485 65.4345 403.075 64.2035 403.666 63.2187C404.257 61.5938 405.734 59.0333 407.064 57.8515L407.113 57.7038ZM405.39 50.7609C402.337 54.1093 402.928 54.1093 402.731 57.2606C402.435 62.1354 395.591 67.5518 401.992 75.381C405.734 79.9111 410.166 81.536 414.253 80.9944C420.506 80.2066 423.362 76.4643 425.627 75.7749L426.957 76.9075C426.809 77.4983 426.809 77.9415 426.612 78.6309C426.021 80.4528 425.627 80.9944 424.987 83.4072C423.067 90.8917 427.4 97.6868 434.244 100.05C441.187 102.414 444.437 98.2285 449.361 94.8309C450.789 93.8461 451.134 94.1908 452.316 93.8953C453.202 93.6984 454.581 91.778 455.024 90.9409C455.615 89.8084 454.876 89.0698 454.039 87.9865C450.592 83.4564 448.13 80.2558 442.714 77.2029C438.676 74.9379 432.62 72.5251 429.222 69.3245C427.449 67.6503 425.874 65.4837 424.249 63.6126C422.673 61.7415 420.703 59.6242 418.685 57.9992C416.469 56.1773 407.409 50.9086 405.34 50.8594L405.39 50.7609Z" fill="#2B2A29"/>
<path fill-rule="evenodd" clip-rule="evenodd" d="M427.154 86.8047C426.957 87.0509 426.957 86.9525 427.154 87.1494L427.105 87.3956L427.154 87.6911V87.9865V88.2327L427.253 88.5281V88.8236L427.302 89.0698C427.302 89.6607 427.45 90.1038 427.843 90.7932L427.991 91.0394C428.139 93.0582 433.408 98.2285 437.544 98.13C438.627 98.0807 438.43 98.2285 439.07 98.0808C440.941 97.5884 440.744 97.8346 441.975 96.8498C444.142 95.1263 446.949 93.6491 448.869 90.4485C449.214 89.8576 449.411 89.4145 449.312 88.8236C449.657 88.2327 449.657 88.3804 449.214 87.7403C449.46 87.5433 449.46 87.6418 449.164 87.4941C449.411 87.2479 449.411 87.3464 449.115 87.1987C449.263 86.9032 449.509 87.1987 449.017 86.8047L448.82 86.4108C448.623 85.426 447.983 84.8351 447.146 84.0473L446.013 82.964C444.437 81.7822 443.108 79.6157 441.286 78.8771C439.316 77.4491 436.559 76.0704 434.491 75.9227C431.783 75.7257 430.404 76.5135 428.976 79.7634C428.237 81.4376 427.548 83.4072 427.548 84.9829C427.449 85.2291 427.4 85.4753 427.302 85.7707L427.154 86.7555V86.8047Z" fill="#2B2A29"/>
<path fill-rule="evenodd" clip-rule="evenodd" d="M402.977 72.1312L402.78 71.7372C402.731 71.491 402.928 71.5895 402.485 71.1956L402.682 71.0479L402.337 70.9494L402.632 70.8017L402.239 70.654C402.042 70.9494 401.992 70.8017 402.337 70.9494C402.042 71.1956 402.14 71.0971 402.485 71.1956C402.435 71.4911 401.992 71.1956 402.78 71.7372C402.682 71.9834 402.386 71.688 402.977 72.1312C403.026 73.5099 407.852 77.4984 410.609 77.9908C412.924 78.3847 411.348 77.9908 412.579 78.04C412.924 78.0892 413.071 78.1877 413.416 78.1877C414.499 78.1877 416.961 77.5476 417.995 77.006L420.999 75.4303C422.772 74.1993 425.825 71.7373 424.791 69.5214C424.446 70.3093 424.594 71.7865 423.264 72.1804C422.673 72.3281 422.476 71.9834 421.738 72.1312C420.457 72.3281 421.541 72.919 420.162 71.9835C419.867 73.2637 418.783 72.0819 416.666 72.8205C415.681 73.1652 416.173 73.116 415.041 73.2145C414.844 73.2145 414.647 73.2145 414.499 73.2637L411.89 73.6084C411.053 73.6576 410.708 73.8546 409.526 73.7561C409.083 73.7069 408.886 73.7069 408.394 73.7561L407.064 74.2485C405.784 74.9871 403.814 72.8698 402.977 72.1312ZM422.329 64.8929L422.673 65.4345C422.673 65.4838 422.673 65.5822 422.722 65.5822C422.722 65.6315 422.772 65.6807 422.772 65.7299C423.264 66.6163 422.575 65.6807 423.018 65.9269C423.018 66.1731 422.526 65.8777 423.264 66.3208C423.264 67.0594 423.953 67.5026 423.658 68.5366C423.166 68.5859 423.461 68.5366 423.067 68.5366C422.87 68.5366 422.87 68.5366 422.624 68.4874C421.491 68.3889 422.033 68.3397 421.245 68.5859L408.591 70.2108C406.572 70.9002 409.132 70.6047 404.897 70.4078C403.026 70.3093 404.257 72.0327 402.78 70.3585C402.632 70.9002 402.189 70.9494 402.928 71.0971L402.682 70.9986C402.977 70.7524 402.977 70.8509 402.583 70.7032C402.632 70.4078 403.174 70.654 402.386 70.3093C402.583 69.8661 402.485 70.1616 402.534 69.7184C402.534 69.6199 402.485 69.2752 402.485 69.1768C402.386 68.4874 402.485 68.6351 402.14 68.0935C402.534 67.8473 402.485 67.995 402.14 67.6996C401.845 68.0442 401.795 67.9458 402.14 68.0935C401.746 68.7828 401.894 69.7184 402.435 70.26L402.288 70.5062L402.682 70.654L402.386 70.8017L402.731 70.9002L402.534 71.0479C402.977 71.3926 402.829 71.3433 402.829 71.5895L403.026 71.9835C403.863 72.7221 405.833 74.8394 407.113 74.1008L408.443 73.6084C408.886 73.5591 409.083 73.5591 409.575 73.6084C410.708 73.7069 411.053 73.5099 411.939 73.4607L414.549 73.116C414.746 73.116 414.893 73.0667 415.09 73.0667C416.223 73.0175 415.73 73.0175 416.715 72.6728C418.832 71.9342 419.916 73.116 420.211 71.8357C421.541 72.7713 420.507 72.1804 421.787 71.9835C422.525 71.885 422.722 72.1804 423.313 72.0327C424.692 71.688 424.495 70.2108 424.84 69.3737C424.988 68.6351 424.298 66.8625 423.363 66.1239C423.461 65.8284 423.806 66.0746 423.116 65.7299C423.166 65.2868 423.363 65.6315 422.722 65.1883C422.772 64.9421 423.166 65.1883 422.378 64.6467C422.378 64.0558 422.919 65.1883 422.329 64.4005C421.984 63.9573 422.378 64.3512 421.885 63.9081C421.935 64.0558 421.935 64.1543 422.132 64.4497C422.132 64.4989 422.181 64.5974 422.23 64.5482C422.279 64.5482 422.329 64.5974 422.378 64.6467L422.329 64.8929ZM421.442 63.7603H417.601C417.109 63.8096 417.601 63.8096 417.06 63.8096C414.844 63.7603 415.878 63.9573 414.204 64.2527L407.163 64.9421C403.913 65.6807 404.504 64.4497 402.534 66.3208C402.189 66.8132 401.992 67.4041 402.091 67.8965C402.485 68.192 402.485 68.0442 402.091 68.2904C402.485 68.8321 402.337 68.6351 402.435 69.3737C402.435 69.5214 402.485 69.8169 402.485 69.9154C402.485 70.3585 402.534 70.0631 402.337 70.5062C403.125 70.8509 402.583 70.6047 402.534 70.9002C402.879 71.0479 402.879 70.9494 402.632 71.1956L402.879 71.2941C402.14 71.1464 402.583 71.0971 402.731 70.5555C404.208 72.2297 402.977 70.5062 404.848 70.6047C409.083 70.8017 406.522 71.0479 408.541 70.4078L421.196 68.7828C422.033 68.5366 421.491 68.5859 422.575 68.6844C422.772 68.6844 422.821 68.6844 423.018 68.7336C423.412 68.7336 423.166 68.7828 423.609 68.7336C423.904 67.6996 423.215 67.2564 423.215 66.5178C422.525 66.0746 422.969 66.3701 422.969 66.1239C422.525 65.8777 423.166 66.764 422.722 65.9269C422.722 65.8777 422.673 65.8284 422.673 65.7792C422.673 65.7299 422.624 65.6807 422.624 65.6315L422.279 65.0898C422.23 65.0406 422.181 64.9913 422.132 64.9913C422.082 64.9913 422.033 64.9421 422.033 64.8929C421.836 64.5974 421.836 64.4989 421.787 64.3512L421.393 63.9573L421.442 63.7603ZM403.716 63.1202C403.174 64.105 402.583 65.336 402.534 66.2224C404.504 64.3512 403.913 65.6315 407.163 64.8436L414.204 64.1543C415.927 63.8588 414.844 63.7111 417.06 63.7111C417.651 63.7111 417.109 63.7111 417.601 63.6619H421.442L421.147 63.2679L417.897 60.6582L419.867 62.3816C417.454 60.609 417.7 61.643 415.878 61.7415C415.287 61.7907 414.499 61.6923 413.908 61.7415C413.121 61.84 412.382 62.2831 409.92 62.3816C408.738 62.4309 407.704 62.9233 405.784 62.9233C405.291 62.9233 405.341 62.874 404.799 62.9725C403.913 63.1202 404.504 63.2679 403.666 63.071L403.716 63.1202ZM407.113 57.753C405.784 58.9348 404.257 61.4953 403.716 63.1202C404.553 63.2679 403.962 63.1695 404.848 63.0217C405.341 62.9233 405.291 62.9725 405.833 62.9725C407.704 62.9725 408.738 62.4801 409.969 62.4309C412.382 62.3324 413.17 61.8892 413.958 61.7907C414.499 61.7415 415.336 61.7907 415.927 61.7907C417.749 61.6923 417.503 60.6582 419.916 62.4309L417.946 60.7074C417.257 60.1166 416.321 59.3287 415.583 59.2795L416.321 59.9688C416.124 59.8211 416.863 59.9688 415.927 59.9688C413.81 60.0181 415.238 60.0181 413.958 60.3135C413.416 60.412 411.939 60.3135 409.575 60.7567C408.837 60.9044 408.837 60.7567 408.197 60.7567C407.261 60.7567 407.507 61.0029 406.818 61.1506C406.375 61.2491 406.424 61.0521 405.587 61.3968L405.636 60.5597C405.735 59.5749 406.473 58.7378 407.212 57.753H407.113ZM407.113 57.753C406.325 58.7378 405.636 59.5749 405.538 60.5597L405.488 61.3968C406.375 61.1014 406.276 61.2491 406.719 61.1506C407.409 61.0029 407.163 60.7074 408.098 60.7567C408.738 60.7567 408.738 60.9044 409.477 60.7567C411.84 60.3135 413.367 60.412 413.859 60.3135C415.139 60.0673 413.711 60.0181 415.829 59.9688C416.764 59.9688 416.026 59.8211 416.223 59.9688L415.484 59.2795C414.401 58.147 412.628 57.4084 411.2 56.916C409.723 56.4236 408.443 56.522 407.113 57.7038V57.753Z" fill="#2B2A29"/>
<path fill-rule="evenodd" clip-rule="evenodd" d="M442.123 78.237C443.945 79.0248 445.274 81.1421 446.85 82.3239L447.983 83.4072C448.82 84.195 449.509 84.7859 449.657 85.7707L449.854 86.1646C450.346 86.5586 450.1 86.2631 449.952 86.5586C450.248 86.7063 450.248 86.6078 450.001 86.854C450.297 87.0017 450.297 86.9032 450.051 87.1002C450.494 87.7403 450.494 87.5926 450.149 88.1835C450.248 88.7251 450.051 89.2175 449.706 89.8084C447.786 93.009 444.979 94.4862 442.812 96.2096C441.581 97.1944 441.778 96.9482 439.907 97.4406C439.267 97.5884 439.464 97.4899 438.381 97.4899C434.245 97.5884 428.976 92.4181 428.828 90.3993L428.68 90.1531C428.287 89.4145 428.139 89.0206 428.139 88.4297L428.09 88.1835V87.888L427.991 87.5926V87.3464V87.051L427.942 86.7555L427.991 86.5093C427.745 86.3123 427.794 86.4601 427.991 86.1646L428.139 85.1798C428.188 84.8844 428.287 84.6382 428.385 84.392C428.385 82.8655 429.074 80.8959 429.813 79.1725C431.192 75.9227 432.57 75.1348 435.328 75.3318C437.396 75.4795 440.153 76.8582 442.123 78.2862V78.237ZM408 56.9652C409.329 55.7834 410.609 55.6357 412.086 56.1773C413.514 56.6698 415.287 57.3591 416.37 58.5409C417.109 58.5901 418.045 59.4272 418.734 59.9688L421.984 62.5786L422.279 62.9725L422.673 63.3664C423.166 63.8096 422.821 63.4157 423.116 63.8588C423.658 64.5974 423.166 63.4649 423.166 64.105C424.003 64.6467 423.609 64.3512 423.51 64.6467C424.15 65.0898 423.904 64.7451 423.904 65.1883C424.544 65.533 424.249 65.2868 424.15 65.5822C425.086 66.3208 425.726 68.0935 425.628 68.8321C426.612 71.0479 423.559 73.5099 421.836 74.7409L418.832 76.3166C417.798 76.8582 415.386 77.4984 414.253 77.4984C413.908 77.4984 413.711 77.3506 413.416 77.3506C412.185 77.2522 413.81 77.6953 411.446 77.3014C408.689 76.8582 403.863 72.8205 403.814 71.4418C403.223 70.9986 403.519 71.2941 403.617 71.0479C402.829 70.5062 403.272 70.8017 403.322 70.5062C402.928 70.4078 402.879 70.5062 403.174 70.26C402.879 70.1123 402.879 70.2108 403.076 69.9646L403.223 69.7184C402.682 69.1768 402.534 68.2412 402.928 67.5518C402.534 67.4041 402.632 67.5026 402.928 67.1579C402.829 66.6655 403.026 66.0746 403.371 65.5822C403.371 64.6959 403.962 63.4649 404.553 62.4801C405.144 60.8552 406.621 58.2947 407.95 57.1129L408 56.9652ZM406.276 50.0223C403.223 53.3707 403.814 53.3707 403.617 56.522C403.322 61.3968 396.477 66.8132 402.879 74.6424C406.621 79.1725 411.052 80.7975 415.139 80.2558C421.393 79.468 424.249 75.7257 426.514 75.0363L427.843 76.1689C427.696 76.7598 427.696 77.2029 427.499 77.8923C426.908 79.7142 426.514 80.2558 425.874 82.6686C423.953 90.1531 428.287 96.9482 435.131 99.3118C442.074 101.675 445.324 97.4899 450.248 94.0923C451.676 93.1075 452.02 93.4522 453.202 93.1567C454.088 92.9105 455.467 91.0394 455.91 90.2023C456.501 89.0698 455.763 88.3312 454.925 87.2479C451.479 82.7178 449.017 79.5172 443.6 76.4643C439.563 74.1993 433.506 71.7865 430.108 68.5859C428.336 66.9117 426.76 64.7451 425.135 62.874C423.559 61.0029 421.59 58.8856 419.571 57.2606C417.355 55.4388 408.295 50.17 406.227 50.1208L406.276 50.0223Z" fill="#ACCF35"/>
<path fill-rule="evenodd" clip-rule="evenodd" d="M427.991 86.1154C427.794 86.3616 427.794 86.2631 427.991 86.4601L427.942 86.7063L427.991 87.0017V87.2972V87.5434L428.089 87.8388V88.1342L428.139 88.3804C428.139 88.9713 428.286 89.4145 428.68 90.1039L428.828 90.3501C428.976 92.3689 434.244 97.5391 438.381 97.4406C439.464 97.3914 439.267 97.5391 439.907 97.3914C441.778 96.899 441.581 97.1452 442.812 96.1604C444.979 94.437 447.785 92.9598 449.706 89.7592C450.05 89.1683 450.247 88.7251 450.149 88.1342C450.494 87.5434 450.494 87.6418 450.05 87.051C450.297 86.854 450.297 86.9525 450.001 86.8048C450.247 86.5586 450.247 86.657 449.952 86.5093C450.1 86.2139 450.346 86.5093 449.853 86.1154L449.657 85.7215C449.46 84.7367 448.819 84.1458 447.982 83.3579L446.85 82.2747C445.274 81.0929 443.945 78.9263 442.123 78.1877C440.153 76.7598 437.396 75.381 435.328 75.2333C432.619 75.0364 431.241 75.8242 429.813 79.0741C429.074 80.7482 428.385 82.7178 428.385 84.2935C428.286 84.5397 428.237 84.7859 428.139 85.0814L427.991 86.0661V86.1154Z" fill="#00BBEF"/>
<path fill-rule="evenodd" clip-rule="evenodd" d="M403.863 71.3926L403.666 70.9986C403.617 70.7524 403.814 70.8509 403.371 70.457L403.568 70.3093L403.223 70.2108L403.518 70.0631L403.125 69.9154C402.928 70.2108 402.878 70.0631 403.223 70.2108C402.928 70.457 403.026 70.3585 403.371 70.457C403.322 70.7525 402.878 70.457 403.666 70.9986C403.568 71.2449 403.272 70.9494 403.863 71.3926C403.912 72.7713 408.738 76.7598 411.495 77.2522C413.81 77.6461 412.234 77.2522 413.465 77.3014C413.81 77.3506 413.957 77.4491 414.302 77.4491C415.385 77.4491 417.847 76.809 418.881 76.2673L421.885 74.6917C423.658 73.4607 426.711 71.0479 425.677 68.7828C425.332 69.5707 425.48 71.0479 424.15 71.4418C423.559 71.5895 423.362 71.2449 422.624 71.3926C421.343 71.5895 422.427 72.1804 421.048 71.2449C420.753 72.5251 419.669 71.3433 417.552 72.0819C416.567 72.4266 417.06 72.3774 415.927 72.4759C415.73 72.4759 415.533 72.4759 415.385 72.5251L412.776 72.8698C411.939 72.919 411.594 73.116 410.412 73.0175C409.969 72.9683 409.772 72.9683 409.28 73.0175L407.95 73.5099C406.67 74.2485 404.7 72.1312 403.863 71.3926ZM423.215 64.1543L423.559 64.6959C423.559 64.7452 423.559 64.8436 423.609 64.8436C423.609 64.8929 423.658 64.9421 423.658 64.9913C424.15 65.8777 423.461 64.9421 423.904 65.1883C423.904 65.4345 423.412 65.1391 424.15 65.5822C424.15 66.3208 424.839 66.764 424.544 67.798C424.052 67.8473 424.347 67.798 423.953 67.798C423.756 67.798 423.756 67.798 423.51 67.7488C422.377 67.6503 422.919 67.6011 422.131 67.8473L409.477 69.4722C407.458 70.1616 410.018 69.8661 405.784 69.6692C403.912 69.5707 405.143 71.2941 403.666 69.6199C403.518 70.1616 403.075 70.2108 403.814 70.3585L403.568 70.26C403.863 70.0138 403.863 70.1123 403.469 69.9646C403.518 69.6692 404.06 69.9154 403.272 69.5707C403.469 69.1275 403.371 69.423 403.42 68.9798C403.42 68.8813 403.371 68.5366 403.371 68.4382C403.272 67.7488 403.371 67.8965 403.026 67.3549C403.42 67.1087 403.371 67.2564 403.026 66.961C402.731 67.3056 402.681 67.2072 403.026 67.3549C402.632 68.0442 402.78 68.9798 403.322 69.5214L403.174 69.7676L403.568 69.9154L403.272 70.0631L403.617 70.1616L403.42 70.3093C403.863 70.654 403.715 70.6047 403.715 70.8509L403.912 71.2449C404.75 71.9835 406.719 74.1008 407.999 73.3622L409.329 72.8698C409.772 72.8205 409.969 72.8205 410.461 72.8698C411.594 72.9683 411.939 72.7713 412.825 72.7221L415.435 72.3774C415.632 72.3774 415.779 72.3281 415.976 72.3281C417.109 72.2789 416.616 72.2789 417.601 71.9342C419.719 71.1956 420.802 72.3774 421.097 71.0971C422.427 72.0327 421.393 71.4418 422.673 71.2449C423.412 71.1464 423.608 71.4418 424.199 71.2941C425.578 70.9494 425.381 69.4722 425.726 68.6351C425.874 67.8965 425.184 66.1239 424.249 65.3853C424.347 65.0898 424.692 65.336 424.002 64.9913C424.052 64.5482 424.249 64.8929 423.609 64.4497C423.658 64.2035 424.052 64.4497 423.264 63.9081C423.264 63.3172 423.805 64.4497 423.215 63.6619C422.87 63.2187 423.264 63.6126 422.771 63.1695C422.821 63.3172 422.821 63.4157 423.018 63.7111C423.018 63.7603 423.067 63.8588 423.116 63.8096C423.165 63.8096 423.215 63.8588 423.264 63.9081L423.215 64.1543ZM422.328 63.0217H418.488C417.995 63.071 418.488 63.071 417.946 63.071C415.73 63.0217 416.764 63.2187 415.09 63.5141L408.049 64.2035C404.799 64.9421 405.39 63.7111 403.42 65.5822C403.075 66.0746 402.878 66.6655 402.977 67.1579C403.371 67.4534 403.371 67.3056 402.977 67.5518C403.371 68.0935 403.223 67.8965 403.322 68.6351C403.322 68.7828 403.371 69.0783 403.371 69.1768C403.371 69.6199 403.42 69.3245 403.223 69.7676C404.011 70.1123 403.469 69.8661 403.42 70.1616C403.765 70.3093 403.765 70.2108 403.518 70.457L403.765 70.5555C403.026 70.4078 403.469 70.3585 403.617 69.8169C405.094 71.4911 403.863 69.7676 405.734 69.8661C409.969 70.0631 407.408 70.3093 409.427 69.6692L422.082 68.0442C422.919 67.798 422.378 67.8473 423.461 67.9458C423.658 67.9458 423.707 67.9458 423.904 67.995C424.298 67.995 424.052 68.0442 424.495 67.995C424.79 66.961 424.101 66.5178 424.101 65.7792C423.412 65.336 423.855 65.6315 423.855 65.3853C423.412 65.1391 424.052 66.0254 423.609 65.1883C423.609 65.1391 423.559 65.0898 423.559 65.0406C423.559 64.9914 423.51 64.9421 423.51 64.8929L423.165 64.3512C423.116 64.302 423.067 64.2527 423.018 64.2527C422.968 64.2527 422.919 64.2035 422.919 64.1543C422.722 63.8588 422.722 63.7603 422.673 63.6126L422.279 63.2187L422.328 63.0217ZM404.602 62.3816C404.06 63.3664 403.469 64.5974 403.42 65.4838C405.39 63.6126 404.799 64.8929 408.049 64.105L415.09 63.4157C416.813 63.1202 415.73 62.9725 417.946 62.9725C418.537 62.9725 417.995 62.9725 418.488 62.9233H422.328L422.033 62.5293L418.783 59.9196L420.753 61.643C418.34 59.8704 418.586 60.9044 416.764 61.0029C416.173 61.0521 415.385 60.9537 414.795 61.0029C414.007 61.1014 413.268 61.5445 410.806 61.643C409.624 61.6923 408.59 62.1847 406.67 62.1847C406.177 62.1847 406.227 62.1354 405.685 62.2339C404.799 62.3816 405.39 62.5293 404.553 62.3324L404.602 62.3816ZM407.999 57.0144C406.67 58.1962 405.143 60.7567 404.602 62.3816C405.439 62.5293 404.848 62.4309 405.734 62.2831C406.227 62.1847 406.177 62.2339 406.719 62.2339C408.59 62.2339 409.624 61.7415 410.855 61.6923C413.268 61.5938 414.056 61.1506 414.844 61.0521C415.385 61.0029 416.222 61.0521 416.813 61.0521C418.635 60.9536 418.389 59.9196 420.802 61.6923L418.832 59.9688C418.143 59.378 417.207 58.5901 416.469 58.5409L417.207 59.2302C417.01 59.0825 417.749 59.2302 416.813 59.2302C414.696 59.2795 416.124 59.2795 414.844 59.5749C414.302 59.6734 412.825 59.5749 410.461 60.0181C409.723 60.1658 409.723 60.0181 409.083 60.0181C408.147 60.0181 408.393 60.2643 407.704 60.412C407.261 60.5105 407.31 60.3135 406.473 60.6582L406.522 59.8211C406.621 58.8363 407.359 57.9992 408.098 57.0144H407.999ZM407.999 57.0144C407.211 57.9992 406.522 58.8363 406.424 59.8211L406.374 60.6582C407.261 60.3628 407.162 60.5105 407.605 60.412C408.295 60.2643 408.049 59.9688 408.984 60.0181C409.624 60.0181 409.624 60.1658 410.363 60.0181C412.726 59.5749 414.253 59.6734 414.745 59.5749C416.026 59.3287 414.598 59.2795 416.715 59.2302C417.65 59.2302 416.912 59.0825 417.109 59.2302L416.37 58.5409C415.287 57.4084 413.514 56.6698 412.086 56.1773C410.609 55.6849 409.329 55.7834 407.999 56.9652V57.0144Z" fill="#00BBEF"/>
<path fill-rule="evenodd" clip-rule="evenodd" d="M377.175 65.6807H378.997L350.733 148.257C349.108 148.06 349.65 148.207 347.976 148.355L377.175 65.6807Z" fill="#E9F3E8"/>
<path fill-rule="evenodd" clip-rule="evenodd" d="M348.567 146.385H366.638L366.342 148.552L347.779 148.946L348.567 146.385Z" fill="#E9F3E8"/>
<path fill-rule="evenodd" clip-rule="evenodd" d="M118.398 237.049L130.04 242.5C133.141 243.922 135.432 246.103 137.006 248.758C138.867 251.886 139.678 255.726 139.583 259.802C139.487 263.737 138.485 268.003 136.768 272.222C132.76 281.987 124.696 291.751 113.913 297.203C106.947 300.758 98.2155 304.171 88.5297 306.541C80.3708 308.532 71.5438 309.764 62.4306 309.764C57.0867 309.764 46.9238 308.627 38.3832 304.645L26.6458 299.146C25.3575 298.53 24.0692 297.866 22.8764 297.108C16.6737 293.268 12.0455 287.533 11.8547 279.237C11.6638 272.269 16.2443 261.888 16.2443 261.888L16.8646 260.561L18.3914 260.229C18.4868 260.229 48.069 253.593 54.4148 253.071C53.0788 252.645 51.7906 252.218 50.6455 251.839C50.1206 251.649 49.5958 251.459 49.0709 251.222L37.3335 245.724C34.5661 244.444 32.3713 242.263 30.9399 239.467C29.3654 236.48 28.6974 232.641 29.1268 228.375C30.2242 217.709 36.6178 207.043 46.2081 198.938C55.2736 191.353 67.2019 185.997 80.3708 185.096C81.2773 185.049 82.3747 184.954 83.5198 184.907C95.1618 184.433 105.134 186.044 112.386 189.41C112.434 189.41 112.434 189.457 112.482 189.457L124.219 194.956C130.994 198.132 135.432 202.777 136.863 208.703L143.972 184.764L146.072 184.575L231.669 175.947L243.407 181.446L242.023 186.281L311.302 180.166L323.04 185.665L313.068 218.704L298.897 219.984L301.617 221.264L294.03 246.482L299.565 245.771L303.143 247.43L327.239 187.324L329.052 187.087C329.243 187.04 377.624 180.593 400.812 191.401L412.55 196.899C442.895 222.212 398.951 254.256 385.496 257.669L391.651 300.853L348.28 306.257L336.543 300.758L335.398 292.937L296.941 297.535L286.492 292.652L206.62 300.236L194.882 294.738C202.946 269.946 210.962 245.155 219.025 220.364L207.335 221.786L188.012 291.562L143.638 298.862L131.901 293.363L154.803 227.142L144.259 228.564L135.193 224.345C134.477 226.241 133.571 227.806 132.521 228.943L130.66 229.891L106.422 233.257C109.905 234.252 113.293 235.295 116.49 236.338H116.537C117.158 236.575 117.778 236.812 118.35 237.097L118.446 237.144L118.398 237.049ZM361.544 223.065L362.117 221.643C362.976 221.501 364.121 221.264 365.457 221.075C364.264 221.786 362.928 222.449 361.544 223.065ZM77.174 226.715C77.4125 225.341 79.1302 224.061 81.4204 223.018C82.3747 222.591 83.4244 222.212 84.4741 221.88C84.1401 222.923 83.7584 223.966 83.329 225.056L82.327 227.663L79.0825 227.142L78.2237 227C77.8897 226.952 77.5557 226.858 77.174 226.81V226.715ZM67.6313 268.192C68.0131 266.391 68.7765 264.4 69.6353 262.409L71.2575 258.57L69.1105 257.574C73.5001 258.759 77.7465 259.707 81.1819 260.134C82.5656 260.324 83.997 260.513 85.3806 260.703C83.7584 263.452 81.0387 265.159 77.6988 266.249C74.7883 267.244 71.353 267.813 67.6313 268.192Z" fill="url(#paint1_linear_3477_685)"/>
<path d="M82.4226 189.979L81.9932 184.29L84.3312 184.148L86.6214 184.053L88.8639 184.006H91.0587L93.2058 184.053L95.3052 184.196L97.3568 184.385L99.3608 184.622L101.317 184.907L103.226 185.238L105.086 185.618L106.852 186.044L108.569 186.518L110.239 187.04L111.862 187.608L113.388 188.225L114.868 188.936L116.299 189.694L117.635 190.5L118.923 191.353L120.116 192.254L121.213 193.202L122.263 194.197L123.217 195.288L124.076 196.425L124.84 197.61L125.508 198.843L126.08 200.123L126.557 201.45L126.891 202.825L127.13 204.199L127.273 205.621L121.118 205.906L121.023 204.91L120.879 203.962L120.641 203.062L120.307 202.161L119.925 201.308L119.448 200.455L118.923 199.649L118.303 198.843L117.635 198.084L116.872 197.326L116.06 196.615L115.154 195.951L114.152 195.288L113.102 194.671L111.957 194.055L110.764 193.486L109.476 192.965L108.14 192.491L106.709 192.017L105.23 191.59L103.655 191.211L102.033 190.879L100.363 190.595L98.5974 190.358L96.7843 190.168L94.9235 190.026L93.015 189.931L91.0587 189.884H89.007L86.9077 189.931L84.7606 190.026L82.5658 190.168L82.4226 189.979ZM36.8566 228.043L30.7016 227.521L30.9879 225.53L31.3696 223.587L31.8467 221.643L32.467 219.7L33.1827 217.804L33.9938 215.908L34.9003 214.012L35.9023 212.163L36.9997 210.362L38.1925 208.56L39.4808 206.806L40.8645 205.1L42.2959 203.441L43.8227 201.829L45.445 200.265L47.1149 198.748L48.8803 197.279L50.6934 195.856L52.5542 194.529L54.5104 193.249L56.5144 192.064L58.5661 190.927L60.7132 189.884L62.908 188.888L65.1505 187.988L67.4407 187.182L69.7787 186.471L72.1643 185.855L74.5977 185.333L77.0788 184.907L79.5598 184.575L82.0886 184.338L82.5181 190.026L80.2755 190.216L78.0807 190.5L75.8859 190.879L73.7388 191.353L71.6395 191.922L69.5401 192.586L67.4884 193.297L65.4845 194.103L63.5282 195.003L61.6197 195.951L59.7589 196.947L57.9458 198.037L56.1804 199.175L54.5104 200.36L52.8882 201.64L51.3137 202.967L49.8346 204.342L48.4032 205.764L47.0195 207.186L45.7312 208.655L44.5384 210.172L43.3933 211.736L42.3436 213.301L41.3893 214.912L40.5305 216.524L39.7194 218.183L39.0037 219.842L38.3834 221.501L37.8586 223.16L37.4291 224.819L37.0951 226.478L36.8566 228.138V228.043ZM42.5822 240.178L40.4828 245.534H40.5305L39.8625 245.297L39.2422 245.06L38.622 244.776L38.0017 244.444L37.4291 244.112L36.8566 243.733L36.3317 243.354L35.8069 242.927L35.3298 242.5L34.8526 242.026L34.4232 241.552L33.9938 241.031L33.6121 240.51L33.2304 239.941L32.8964 239.372L32.5624 238.803L32.2761 238.187L31.9898 237.571L31.7513 236.954L31.5127 236.291L31.3219 235.627L31.131 234.963L30.9879 234.252L30.8447 233.541L30.7493 232.83L30.6539 232.119L30.6062 231.361L30.5584 230.602V229.844V229.086L30.6062 228.28L30.6539 227.474L36.8089 227.995L36.7612 228.612L36.7134 229.228V229.844V230.413L36.7612 230.982L36.8089 231.55L36.8566 232.072L36.952 232.593L37.0474 233.115L37.1429 233.589L37.286 234.063L37.4291 234.537L37.5723 234.963L37.7631 235.39L37.954 235.817L38.1448 236.196L38.3357 236.575L38.5743 236.907L38.8128 237.239L39.0514 237.571L39.2899 237.855L39.5285 238.139L39.8148 238.424L40.1011 238.661L40.3874 238.898L40.6736 239.135L40.9599 239.324L41.2462 239.514L41.5802 239.656L41.9142 239.798L42.2482 239.941L42.5822 240.083H42.6299L42.5822 240.178ZM71.9257 248.141L71.1146 253.782L70.2558 253.687L69.3969 253.545L68.4904 253.403L67.5838 253.213L66.6296 253.024L65.6753 252.834L64.7211 252.645L63.7191 252.408L62.7171 252.17L61.7151 251.933L60.6654 251.696L59.6157 251.412L58.5661 251.128L57.5164 250.843L56.4667 250.559L55.417 250.274L54.3673 249.99L53.3176 249.706L52.2679 249.421L51.2659 249.089L50.264 248.758L49.262 248.426L48.26 248.094L47.3058 247.809L46.3515 247.525L45.445 247.241L44.5384 246.956L43.6318 246.672L42.773 246.387L41.9619 246.103L41.1508 245.819L40.3874 245.582L42.4867 240.225L43.2501 240.462L44.0136 240.747L44.8247 241.031L45.6835 241.315L46.5424 241.6L47.4489 241.884L48.3554 242.169L49.3097 242.453L50.264 242.737L51.2182 243.022L52.2202 243.306L53.2222 243.591L54.2242 243.875L55.2261 244.16L56.2281 244.444L57.2301 244.728L58.2321 245.013L59.234 245.297L60.236 245.582L61.238 245.866L62.24 246.103L63.1942 246.34L64.1485 246.577L65.1028 246.814L66.0093 247.004L66.9159 247.193L67.8224 247.383L68.6813 247.572L69.4924 247.715L70.3035 247.857L71.0669 247.952L71.7826 248.046L71.9257 248.141ZM93.4444 260.703L87.7188 258.57L87.8142 258.38L87.8619 258.238V258.191V258.143L87.8142 258.096L87.7188 258.001L87.5757 257.859L87.3848 257.669L87.0985 257.48L86.7645 257.29L86.3351 257.053L85.858 256.816L85.3331 256.579L84.7606 256.342L84.1403 256.152L83.4723 255.963L82.7566 255.773L81.9932 255.583L81.1821 255.394L80.371 255.204L79.5121 255.015L78.6533 254.872L77.7467 254.73L76.8402 254.588L75.9336 254.446L74.9794 254.304L74.0251 254.161L73.0709 254.019L72.1166 253.877L71.1623 253.735L71.9735 248.094L72.9754 248.236L73.9774 248.378L74.9794 248.521L75.9814 248.663L76.9833 248.805L77.9853 248.947L78.9396 249.089L79.8938 249.279L80.8481 249.469L81.8024 249.658L82.7089 249.848L83.6155 250.037L84.522 250.274L85.3808 250.511L86.2397 250.748L87.0508 251.033L87.8619 251.317L88.6253 251.649L89.341 251.981L90.0567 252.36L90.7247 252.787L91.3927 253.261L92.013 253.782L92.5855 254.351L93.1104 255.015L93.5398 255.726L93.8738 256.532L94.0646 257.385L94.1124 258.238L94.0646 259.091L93.8738 259.944L93.5875 260.75L93.4444 260.703ZM87.7188 258.57L87.6711 258.712L87.7188 258.617V258.57ZM64.3394 273.549L63.7668 267.861L64.8642 267.766L65.9616 267.671L67.059 267.576L68.1564 267.481L69.2061 267.387L70.2558 267.244L71.2578 267.102L72.2597 266.96L73.214 266.818L74.1683 266.676L75.0748 266.486L75.9814 266.296L76.8402 266.107L77.699 265.87L78.5102 265.633L79.2736 265.396L80.037 265.111L80.7527 264.827L81.4684 264.542L82.1364 264.211L82.7566 263.879L83.3292 263.5L83.9017 263.12L84.4266 262.741L84.9037 262.315L85.3808 261.888L85.8103 261.414L86.2397 260.94L86.6214 260.419L87.0031 259.85L87.3371 259.233L87.6234 258.57L93.3489 260.703L92.9195 261.651L92.3947 262.552L91.8698 263.405L91.2973 264.211L90.677 264.969L90.009 265.68L89.2933 266.344L88.5299 266.96L87.7188 267.576L86.9077 268.145L86.0488 268.667L85.19 269.141L84.2834 269.567L83.3769 269.946L82.4226 270.326L81.4684 270.657L80.5141 270.989L79.5121 271.274L78.5102 271.511L77.5082 271.748L76.4585 271.985L75.4088 272.174L74.3591 272.364L73.3094 272.506L72.212 272.648L71.1146 272.791L70.0172 272.933L68.9198 273.075L67.8224 273.17L66.6773 273.265L65.5322 273.359L64.3871 273.454L64.3394 273.549ZM56.6575 257.906L56.7052 252.218L59.568 256.105L59.2818 256.816L58.9955 257.527L58.7092 258.238L58.4706 258.949L58.2321 259.66L58.0412 260.324L57.8504 260.987L57.7072 261.651L57.5641 262.267L57.4687 262.883L57.3732 263.452L57.3255 263.974V264.448V264.922L57.3732 265.348L57.4209 265.728L57.5164 266.059L57.6118 266.344L57.7072 266.581L57.8504 266.77L57.9935 266.96L58.1844 267.102L58.3752 267.244L58.6138 267.387L58.9478 267.529L59.3295 267.671L59.8066 267.813L60.3792 267.908L61.0471 267.955L61.8106 268.003H62.7171L63.7191 267.955L64.2916 273.644L63.0034 273.739H61.7628L60.6177 273.691L59.5203 273.596L58.4706 273.407L57.4687 273.17L56.5144 272.838L55.6078 272.411L54.749 271.937L53.9856 271.368L53.3176 270.752L52.7451 270.041L52.2679 269.283L51.8862 268.524L51.5999 267.718L51.3614 266.913L51.2182 266.107L51.1228 265.301L51.0751 264.495V263.689L51.1228 262.883L51.2182 262.078L51.3614 261.272L51.5522 260.466L51.7431 259.66L51.9817 258.854L52.2202 258.048L52.5065 257.243L52.7928 256.437L53.079 255.631L53.413 254.825L53.747 254.019L56.6098 257.906H56.6575ZM56.7052 252.218L61.1903 252.265L59.5203 256.152L56.6575 252.265L56.7052 252.218ZM23.5446 263.263L17.819 261.13L19.9661 259.423L20.3478 259.328L21.3498 259.091L22.0655 258.949L22.9243 258.759L23.9263 258.522L25.0237 258.285L26.2165 258.001L27.5048 257.717L28.8885 257.432L30.3199 257.1L31.799 256.769L33.3258 256.437L34.9003 256.105L36.4749 255.773L38.0971 255.441L39.7194 255.109L41.2939 254.778L42.8684 254.446L44.3953 254.114L45.9221 253.83L47.3535 253.545L48.7372 253.261L50.0731 253.024L51.3137 252.787L52.4588 252.597L53.5085 252.455L54.4627 252.313L55.2739 252.218L56.0373 252.17L56.753 252.123L56.7052 257.811H56.5144L56.0373 257.859L55.3693 257.954L54.5582 258.096L53.6039 258.238L52.5065 258.428L51.3137 258.617L50.0254 258.854L48.6894 259.091L47.258 259.376L45.7789 259.66L44.2521 259.944L42.6776 260.276L41.103 260.608L39.5285 260.94L37.954 261.272L36.3794 261.604L34.8049 261.935L33.2781 262.267L31.799 262.599L30.3676 262.883L29.0316 263.168L27.7434 263.452L26.5505 263.689L25.4531 263.926L24.4512 264.163L23.5923 264.353L22.8766 264.495L21.8747 264.732L21.5407 264.827L23.6878 263.12L23.5446 263.263ZM17.819 261.13L18.4393 259.802L19.9661 259.47L17.819 261.177V261.13ZM19.5844 278.384L13.4294 278.526V277.815L13.4771 277.104L13.5249 276.393L13.6203 275.682L13.7157 274.971L13.8111 274.213L13.9543 273.454L14.0974 272.743L14.2406 272.032L14.4314 271.321L14.6223 270.61L14.8131 269.899L15.004 269.188L15.1948 268.524L15.3857 267.861L15.5765 267.197L15.7674 266.581L15.9582 265.965L16.1491 265.396L16.3399 264.827L16.5308 264.306L16.7216 263.831L16.9125 263.357L17.0556 262.931L17.1988 262.552L17.3419 262.22L17.485 261.935L17.5805 261.698L17.7236 261.367L17.7713 261.224L23.4969 263.357L23.4492 263.452L23.306 263.784L23.2106 264.021L23.1152 264.306L22.9721 264.637L22.8289 264.969L22.6858 265.348L22.5426 265.775L22.3518 266.249L22.1609 266.723L21.9701 267.244L21.7792 267.766L21.5884 268.335L21.3975 268.904L21.2067 269.52L21.0158 270.136L20.825 270.752L20.6341 271.368L20.4433 271.985L20.3001 272.648L20.157 273.265L20.0138 273.881L19.8707 274.497L19.7753 275.113L19.6798 275.729L19.5844 276.346L19.5367 276.915L19.489 277.483V278.005V278.526L19.5844 278.384ZM52.2679 297.819V303.507H51.2659L50.1685 303.46L48.9757 303.412L47.7352 303.318L46.4469 303.175L45.0632 303.033L43.6318 302.844L42.1527 302.607L40.6259 302.322L39.0991 301.99L37.5246 301.611L35.95 301.185L34.3755 300.711L32.801 300.189L31.2264 299.62L29.6519 299.004L28.1251 298.293L26.5983 297.535L25.1191 296.729L23.6878 295.828L22.3041 294.833L20.9681 293.79L19.7276 292.652L18.5347 291.42L17.4373 290.092L16.4354 288.67L15.5765 287.153L14.8608 285.589L14.2406 283.93L13.8111 282.176L13.5249 280.327L13.3817 278.431L19.5367 278.289L19.6321 279.759L19.8707 281.133L20.2047 282.413L20.6341 283.598L21.159 284.736L21.7792 285.826L22.4949 286.869L23.306 287.817L24.1649 288.718L25.1191 289.571L26.1688 290.377L27.2662 291.135L28.4114 291.846L29.6519 292.51L30.9402 293.126L32.2284 293.695L33.5644 294.216L34.9481 294.69L36.3317 295.164L37.7154 295.591L39.0991 295.97L40.4828 296.302L41.8665 296.587L43.2024 296.824L44.5384 297.013L45.8267 297.203L47.0672 297.345L48.26 297.44L49.3574 297.535L50.4071 297.582L51.3614 297.629H52.2202L52.2679 297.819ZM100.84 285.921L103.798 290.946L102.558 291.562L101.317 292.178L100.029 292.794L98.6928 293.411L97.3568 293.979L95.9732 294.548L94.5418 295.117L93.1104 295.686L91.6313 296.255L90.1522 296.776L88.6253 297.298L87.0985 297.819L85.524 298.34L83.9495 298.814L82.3272 299.288L80.705 299.715L79.035 300.142L77.365 300.568L75.6474 300.948L73.9297 301.327L72.212 301.659L70.4466 301.99L68.6813 302.275L66.9159 302.559L65.1028 302.796L63.2897 302.986L61.4766 303.175L59.6635 303.318L57.8027 303.412L55.9418 303.507L54.081 303.555H52.2202V297.866H53.9856L55.7033 297.819L57.4209 297.724L59.1386 297.629L60.8563 297.487L62.574 297.298L64.2916 297.108L65.9616 296.871L67.6316 296.634L69.3015 296.349L70.9715 296.065L72.5937 295.733L74.216 295.401L75.8382 295.022L77.4128 294.643L78.9873 294.216L80.5141 293.79L82.0409 293.363L83.5677 292.889L85.0469 292.415L86.526 291.941L87.9574 291.42L89.3888 290.898L90.7724 290.377L92.1084 289.855L93.4444 289.334L94.7326 288.765L96.0209 288.196L97.2614 287.627L98.4543 287.059L99.6471 286.49L100.792 285.921H100.84ZM100.84 285.921H100.888L100.84 285.968V285.921ZM116.06 240.747L118.16 235.39H118.208L120.164 236.196L121.929 237.191L123.551 238.376L124.983 239.704L126.176 241.173L127.178 242.737L127.989 244.397L128.609 246.15L129.086 247.999L129.372 249.895L129.516 251.839V253.83L129.372 255.868L129.086 257.906L128.657 259.992L128.084 262.078L127.416 264.163L126.605 266.249L125.698 268.335L124.649 270.42L123.504 272.459L122.215 274.45L120.832 276.44L119.353 278.384L117.778 280.233L116.108 282.034L114.295 283.788L112.386 285.447L110.383 287.011L108.283 288.481L106.088 289.808L103.798 291.04L100.84 286.016L102.796 284.973L104.657 283.835L106.47 282.555L108.188 281.181L109.858 279.759L111.432 278.242L112.911 276.63L114.343 274.971L115.679 273.265L116.919 271.511L118.064 269.709L119.114 267.908L120.021 266.107L120.832 264.258L121.547 262.409L122.12 260.608L122.597 258.807L122.979 257.053L123.217 255.346L123.361 253.687V252.076L123.265 250.559L123.027 249.137L122.693 247.809L122.263 246.577L121.691 245.439L121.023 244.397L120.259 243.496L119.4 242.69L118.398 241.979L117.253 241.363L115.965 240.841H116.013L116.06 240.747ZM79.703 231.835L80.8004 226.241H80.7527L81.8978 226.431L83.0906 226.621L84.2834 226.81L85.4763 227L86.6691 227.237L87.8619 227.474L89.0548 227.711L90.2476 227.948L91.4404 228.185L92.6333 228.422L93.8261 228.706L95.0189 228.991L96.2117 229.275L97.4046 229.56L98.5974 229.844L99.7902 230.128L100.983 230.413L102.176 230.697L103.369 231.029L104.562 231.361L105.754 231.693L106.947 232.024L108.092 232.356L109.237 232.688L110.383 233.02L111.528 233.352L112.673 233.684L113.77 234.015L114.868 234.347L115.965 234.679L117.062 235.011L118.112 235.343L116.013 240.699L114.963 240.367L113.913 240.035L112.864 239.704L111.814 239.372L110.717 239.04L109.619 238.708L108.522 238.376L107.424 238.045L106.279 237.713L105.134 237.381L103.989 237.049L102.844 236.717L101.699 236.386L100.554 236.101L99.4085 235.817L98.2634 235.532L97.0706 235.248L95.8777 234.963L94.6849 234.679L93.4921 234.395L92.2993 234.11L91.1064 233.873L89.9136 233.636L88.7685 233.399L87.6234 233.162L86.4783 232.925L85.3331 232.688L84.188 232.499L83.0429 232.309L81.8978 232.119L80.7527 231.93L79.6553 231.74H79.6076L79.703 231.835ZM61.0949 219.415L67.1544 220.411V220.506V220.601V220.695V220.79L67.2021 220.885L67.2499 220.98L67.3453 221.122L67.4884 221.312L67.6793 221.501L67.9178 221.738L68.2041 221.975L68.5381 222.212L68.9198 222.449L69.3492 222.686L69.8264 222.923L70.3512 223.16L70.8761 223.397L71.4486 223.634L72.0689 223.871L72.6892 224.108L73.3094 224.345L73.9774 224.535L74.6454 224.725L75.3134 224.914L75.9814 225.104L76.6493 225.293L77.3173 225.436L77.9376 225.578L78.5579 225.72L79.1781 225.862L79.7507 225.957L80.3233 226.052L80.8481 226.147L79.7507 231.74L79.1304 231.645L78.5102 231.503L77.8422 231.361L77.1742 231.219L76.4585 231.076L75.7428 230.887L75.0271 230.697L74.2637 230.508L73.5003 230.318L72.7369 230.081L71.9735 229.844L71.21 229.607L70.4466 229.323L69.6832 229.038L68.9675 228.754L68.2518 228.422L67.5361 228.09L66.8204 227.758L66.1525 227.379L65.4845 227L64.8642 226.573L64.2439 226.099L63.6714 225.625L63.0988 225.104L62.574 224.535L62.0968 223.919L61.7151 223.255L61.3811 222.497L61.1426 221.691L60.9994 220.885V220.032L61.1426 219.178V219.273L61.0949 219.415ZM67.1544 220.411V220.458V220.506V220.411ZM82.1364 208.75L81.9932 214.438H81.4207H80.8481L80.2278 214.486L79.6076 214.533L78.9873 214.58L78.367 214.675L77.699 214.77L77.031 214.912L76.3631 215.054L75.6951 215.197L75.0271 215.386L74.4068 215.576L73.7866 215.765L73.1663 215.955L72.5937 216.192L72.0212 216.429L71.4486 216.666L70.9238 216.903L70.3989 217.14L69.9218 217.425L69.4924 217.709L69.063 217.993L68.6813 218.278L68.3473 218.562L68.061 218.847L67.8224 219.131L67.5838 219.368L67.393 219.605L67.2499 219.842L67.1544 220.079L67.059 220.269L67.0113 220.458L60.9517 219.463L61.1426 218.704L61.3811 217.993L61.7151 217.282L62.0968 216.619L62.5263 216.002L63.0034 215.434L63.5282 214.912L64.1008 214.391L64.6733 213.917L65.2936 213.443L65.9139 213.016L66.5819 212.59L67.2499 212.21L67.9655 211.831L68.6813 211.499L69.3969 211.167L70.1604 210.883L70.9238 210.599L71.6872 210.314L72.4506 210.077L73.2617 209.84L74.0728 209.651L74.884 209.461L75.6951 209.271L76.5062 209.129L77.3173 208.987L78.1285 208.892L78.9396 208.797L79.7507 208.75L80.5141 208.703H81.2775H82.0409L82.1364 208.75ZM87.5279 222.354L88.4345 227.995L85.0946 224.203L85.3331 223.587L85.5717 222.971L85.7626 222.402L85.9534 221.833L86.1443 221.264L86.2874 220.695L86.4305 220.174L86.5737 219.652L86.6691 219.131L86.7645 218.657L86.8122 218.23L86.86 217.804V217.425V217.093L86.8122 216.761L86.7645 216.477L86.7168 216.239L86.6691 216.05L86.5737 215.86L86.4783 215.718L86.3828 215.576L86.2397 215.434L86.0965 215.291L85.9057 215.149L85.6671 215.007L85.3808 214.865L84.9991 214.723L84.5697 214.58L84.0449 214.486L83.4246 214.391L82.7566 214.343L81.9932 214.296L82.1364 208.608L83.1861 208.655L84.188 208.75L85.1423 208.892L86.0488 209.082L86.9077 209.319L87.7665 209.603L88.5776 209.935L89.341 210.362L90.009 210.836L90.6293 211.357L91.2019 211.926L91.679 212.542L92.0607 213.206L92.3947 213.869L92.6333 214.58L92.8241 215.291L92.9195 216.002L92.9672 216.714V217.377V218.041L92.9195 218.704L92.8241 219.368L92.681 220.032L92.5378 220.695L92.3947 221.359L92.2038 222.023L92.013 222.686L91.7744 223.35L91.5359 224.014L91.2973 224.677L91.0587 225.341L90.8202 226.004L87.4802 222.212L87.5279 222.354ZM88.4345 227.995L83.3292 228.706L85.0946 224.203L88.4345 227.995ZM120.641 223.539L88.4345 227.995L87.5279 222.354L119.734 217.899L122.502 222.591L120.641 223.539ZM122.502 222.591L121.738 223.397L120.641 223.539L122.502 222.591ZM121.07 205.858L127.225 205.574V206.143V206.712V207.28V207.849L127.178 208.418L127.13 208.987L127.082 209.556L127.034 210.125L126.939 210.693L126.844 211.262L126.748 211.831L126.653 212.4L126.557 212.969L126.414 213.538L126.271 214.106L126.128 214.675L125.985 215.244L125.842 215.813L125.651 216.334L125.46 216.856L125.269 217.377L125.078 217.899L124.887 218.42L124.696 218.894L124.458 219.368L124.219 219.842L123.981 220.316L123.695 220.743L123.408 221.169L123.122 221.596L122.788 221.975L122.454 222.354L117.826 218.61L117.921 218.467L118.064 218.325L118.208 218.136L118.351 217.899L118.494 217.614L118.637 217.33L118.78 216.998L118.923 216.666L119.066 216.287L119.209 215.908L119.353 215.528L119.496 215.102L119.639 214.675L119.782 214.249L119.925 213.775L120.068 213.301L120.164 212.827L120.259 212.353L120.355 211.878L120.45 211.404L120.545 210.93L120.641 210.409L120.689 209.888L120.736 209.414L120.784 208.892L120.832 208.418L120.879 207.944L120.927 207.47V206.996V206.522V206.048V205.621L121.07 205.858ZM147.694 183.674L228.902 175.521L229.57 181.209L148.362 189.362L145.07 185.76L147.694 183.674ZM145.07 185.76L145.643 183.911L147.742 183.721L145.118 185.807L145.07 185.76ZM135.48 218.041L145.07 185.76L151.034 187.277L141.444 219.558L138.915 221.643L135.48 218.088V218.041ZM138.915 221.596L134.239 222.212L135.48 217.993L138.915 221.549V221.596ZM163.964 218.23L138.915 221.596L138.008 215.955L163.058 212.59L166.445 216.287L163.964 218.23ZM163.058 212.59L167.925 211.926L166.398 216.287L163.01 212.59H163.058ZM135.146 288.007L160.577 214.533L166.445 216.287L141.014 289.761L138.629 291.704L135.146 288.007ZM138.629 291.704L133.571 292.51L135.146 288.007L138.629 291.704ZM176.036 285.542L138.629 291.704L137.531 286.111L174.938 279.948L178.469 283.456L176.036 285.542ZM178.469 283.456L177.992 285.257L176.036 285.589L178.469 283.503V283.456ZM197.793 213.632L178.469 283.456L172.505 282.034L191.829 212.21L194.405 210.077L197.793 213.632ZM191.829 212.21L192.354 210.362L194.405 210.125L191.829 212.258V212.21ZM220.743 212.637L195.217 215.765L194.405 210.125L219.932 206.996L223.32 210.551L220.743 212.637ZM223.32 210.551L222.795 212.4L220.743 212.637L223.32 210.551ZM232.194 179.123L223.32 210.551L217.355 209.129L226.23 177.701L228.902 175.568L232.242 179.123H232.194ZM228.854 175.568L233.292 175.142L232.146 179.123L228.807 175.568H228.854ZM233.482 186.329L308.488 179.692L309.06 185.381L234.055 192.017L230.811 188.367L233.482 186.329ZM230.811 188.367L231.383 186.518L233.435 186.329L230.763 188.367H230.811ZM197.888 289.855L230.811 188.367L236.727 190.026L203.805 291.514L201.181 293.553L197.888 289.903V289.855ZM201.181 293.505L196.6 293.932L197.936 289.855L201.228 293.505H201.181ZM286.969 285.352L201.181 293.505L200.56 287.817L286.349 279.664L289.641 283.266L286.969 285.352ZM289.641 283.266L289.068 285.163L286.969 285.352L289.641 283.266ZM299.947 249.089L289.641 283.266L283.677 281.75L293.983 247.572L296.512 245.534L299.899 249.137L299.947 249.089ZM296.559 245.487L301.235 244.871L299.947 249.089L296.559 245.487ZM244.79 252.265L296.559 245.487L297.418 251.128L245.649 257.906L242.262 254.256L244.79 252.265ZM245.649 257.906L240.878 258.522L242.262 254.256L245.649 257.906ZM251.136 246.719L248.178 255.868L242.262 254.209L245.22 245.06L247.796 243.069L251.136 246.719ZM245.22 245.06L245.792 243.306L247.796 243.069L245.22 245.06ZM280.528 244.918L248.608 248.71L247.796 243.069L279.716 239.277L283.104 242.88L280.528 244.965V244.918ZM283.104 242.832L282.579 244.634L280.528 244.871L283.104 242.785V242.832ZM290.309 218.894L283.104 242.832L277.14 241.315L284.345 217.377L286.969 215.291L290.261 218.894H290.309ZM287.017 215.291L291.549 214.817L290.309 218.894L287.017 215.291ZM254.619 218.562L287.017 215.291L287.685 220.98L255.287 224.251L251.995 220.553L254.619 218.61V218.562ZM255.287 224.251L250.564 224.725L251.995 220.553L255.287 224.251ZM260.584 214.486L257.864 222.307L251.995 220.553L254.715 212.732L257.339 210.741L260.584 214.438V214.486ZM254.715 212.732L255.335 210.93L257.339 210.741L254.715 212.732ZM300.853 212.495L257.959 216.429L257.339 210.741L300.233 206.806L303.525 210.409L300.853 212.495ZM303.525 210.409L302.953 212.305L300.853 212.495L303.525 210.409ZM311.732 183.2L303.525 210.409L297.561 208.892L305.768 181.683L308.44 179.597L311.684 183.2H311.732ZM308.488 179.597L312.973 179.218L311.78 183.2L308.535 179.597H308.488ZM334.014 189.979L328.241 187.988L330.674 186.139L330.96 186.092L331.676 185.997L332.821 185.855L334.348 185.665L336.257 185.475L338.499 185.286L341.028 185.049L343.843 184.812L346.897 184.622L350.189 184.433L353.624 184.29L357.25 184.196L360.972 184.148H364.789L368.654 184.243L372.566 184.385L376.479 184.622L380.344 184.954L384.161 185.428L387.882 185.997L391.508 186.708L394.991 187.561L398.284 188.604L401.385 189.836L404.296 191.258L406.92 192.918L409.258 194.861L411.262 197.089L412.836 199.601L413.886 202.351L414.411 205.337L414.363 208.513L408.208 207.991L408.256 205.716L407.922 203.725L407.254 201.924L406.252 200.312L404.916 198.795L403.198 197.421L401.146 196.141L398.761 194.956L396.089 193.913L393.178 193.012L390.029 192.207L386.689 191.543L383.206 191.021L379.58 190.595L375.906 190.263L372.185 190.026L368.415 189.884L364.646 189.836H360.924L357.298 189.884L353.767 189.979L350.38 190.121L347.183 190.31L344.177 190.5L341.41 190.69L338.928 190.927L336.734 191.116L334.873 191.306L333.394 191.495L332.296 191.638L331.628 191.732L331.438 191.78L333.871 189.931L334.014 189.979ZM328.241 187.988L328.861 186.376L330.674 186.139L328.241 187.988ZM288.639 286.727L328.241 187.988L334.014 189.979L294.412 288.718L291.931 290.566L288.639 286.727ZM291.931 290.566L286.873 291.183L288.639 286.774L291.931 290.614V290.566ZM325.903 286.49L291.931 290.566L291.12 284.926L325.092 280.849L328.432 284.499L325.855 286.537L325.903 286.49ZM328.479 284.452L327.907 286.253L325.903 286.49L328.479 284.452ZM337.736 255.489L328.479 284.452L322.563 282.84L331.819 253.877L337.831 254.304L337.736 255.489ZM337.736 297.013L331.724 255.062L337.831 254.304L343.843 296.255L341.171 299.478L337.688 297.013H337.736ZM341.219 299.478L338.165 299.857L337.736 297.013L341.219 299.478ZM378.483 294.833L341.219 299.478L340.408 293.837L377.672 289.192L381.155 291.657L378.483 294.833ZM381.155 291.657L381.536 294.453L378.483 294.833L381.155 291.657ZM375.143 249.326L381.155 291.657L375.047 292.415L369.035 250.085L370.705 247.146L375.143 249.326ZM369.035 250.085L368.749 248.094L370.705 247.193L369.035 250.132V250.085ZM408.351 208.086L414.506 208.608L414.22 210.599L413.838 212.59L413.313 214.533L412.693 216.429L411.977 218.278L411.118 220.079L410.212 221.833L409.21 223.587L408.113 225.293L406.967 226.952L405.727 228.564L404.439 230.128L403.103 231.645L401.719 233.115L400.288 234.537L398.809 235.911L397.282 237.239L395.707 238.566L394.133 239.846L392.51 241.078L390.888 242.263L389.266 243.401L387.644 244.491L386.021 245.534L384.399 246.53L382.777 247.478L381.202 248.378L379.628 249.232L378.101 250.037L376.574 250.796L375.095 251.507L373.664 252.17L370.896 247.098L372.232 246.435L373.616 245.724L375.047 245.013L376.526 244.254L378.006 243.448L379.532 242.595L381.059 241.695L382.586 240.747L384.113 239.751L385.64 238.708L387.166 237.665L388.693 236.575L390.172 235.437L391.652 234.252L393.083 233.02L394.514 231.787L395.898 230.508L397.234 229.18L398.522 227.853L399.763 226.478L400.908 225.056L402.005 223.634L403.055 222.165L404.009 220.695L404.868 219.178L405.679 217.662L406.395 216.097L407.015 214.533L407.54 212.921L407.969 211.31L408.303 209.651L408.542 207.991L408.351 208.086ZM339.978 229.228L345.751 231.219L342.459 227.379H342.507L342.746 227.332L343.127 227.284L343.652 227.189L344.32 227.095L345.083 226.952L345.942 226.81L346.897 226.621L347.946 226.431L349.091 226.194L350.284 225.957L351.572 225.673L352.908 225.341L354.244 225.009L355.628 224.63L357.012 224.251L358.395 223.824L359.779 223.35L361.163 222.876L362.499 222.354L363.787 221.786L365.028 221.217L366.22 220.601L367.318 219.937L368.32 219.273L369.226 218.61L370.037 217.899L370.753 217.188L371.326 216.477L371.803 215.765L372.137 215.054L372.375 214.343L378.387 215.671L377.91 217.093L377.242 218.42L376.431 219.652L375.477 220.838L374.427 221.928L373.282 222.923L372.041 223.824L370.753 224.677L369.37 225.483L367.938 226.241L366.507 226.952L365.028 227.616L363.501 228.232L361.974 228.801L360.447 229.323L358.92 229.797L357.393 230.223L355.914 230.602L354.483 230.982L353.099 231.313L351.763 231.598L350.475 231.882L349.282 232.119L348.137 232.309L347.087 232.499L346.133 232.641L345.322 232.783L344.606 232.878L344.034 232.973L343.604 233.02L343.318 233.067H343.223L339.93 229.228H339.978ZM343.27 233.067L338.213 233.636L339.978 229.228L343.27 233.067ZM352.765 213.917L345.799 231.266L340.026 229.275L346.992 211.926L349.235 210.125L352.765 213.917ZM346.992 211.926L347.565 210.456L349.235 210.125L346.992 211.926ZM378.435 215.765L372.423 214.438L372.471 214.628L372.566 214.723L372.375 214.628L371.994 214.486L371.469 214.343L370.801 214.201L369.99 214.106L369.083 214.012L368.081 213.964H367.032H365.934L364.789 214.012L363.596 214.059L362.403 214.154L361.211 214.249L360.018 214.343L358.873 214.486L357.727 214.628L356.63 214.77L355.58 214.912L354.626 215.054L353.72 215.197L352.908 215.339L352.193 215.481L351.572 215.576L351.095 215.671L350.714 215.718L350.475 215.765H350.427L349.139 210.172H349.235L349.473 210.125L349.855 210.077L350.38 209.982L351 209.888L351.763 209.745L352.622 209.603L353.576 209.461L354.578 209.319L355.676 209.177L356.821 209.034L358.014 208.892L359.254 208.75L360.543 208.608L361.831 208.513L363.119 208.418L364.407 208.371L365.696 208.323H366.984L368.224 208.371L369.465 208.418L370.658 208.513L371.803 208.655L372.948 208.892L374.045 209.224L375.095 209.651L376.145 210.219L377.099 211.025L377.91 212.068L378.387 213.301L378.53 214.628L378.34 215.908L378.435 215.765Z" fill="#61070E"/>
<path d="M124.076 205.716C123.408 192.633 106.422 185.381 82.1838 187.134C56.6095 188.841 35.7589 208.418 33.7549 227.806C32.9915 235.485 36.1883 241.173 41.5322 242.88C49.4526 245.534 63.2894 249.99 71.496 250.985C81.8498 252.265 92.9669 254.161 90.5336 259.66C86.7165 268.382 76.1242 269.709 64.0051 270.705C51.4565 271.748 53.2219 263.026 56.6095 255.062C52.6016 255.015 20.5861 262.172 20.5861 262.172C20.5861 262.172 16.2442 271.985 16.4351 278.384C16.8645 296.776 42.6773 300.663 52.2199 300.616C71.5438 300.663 89.8179 294.738 102.271 288.386C125.173 276.867 135.145 244.302 117.014 238.045C105.897 234.347 92.299 230.839 80.1321 228.991C74.1203 227.995 62.9077 225.009 64.0051 219.889C64.9593 214.77 74.9791 211.452 81.9452 211.547C92.0604 211.736 90.4382 218.42 87.8139 225.104L120.02 220.648C122.501 218.041 124.219 210.978 123.98 205.669L124.076 205.716ZM229.14 178.365L147.932 186.518L138.342 218.799L163.392 215.434L137.96 288.907L175.368 282.745L194.691 212.921L220.218 209.793L229.093 178.365H229.14ZM308.726 182.489L233.721 189.125L200.799 290.614L286.587 282.461L296.893 248.283L245.124 255.062L248.082 245.913L280.002 242.121L287.207 218.183L254.81 221.454L257.53 213.632L300.424 209.698L308.63 182.489H308.726ZM411.357 208.371C414.458 177.938 331.103 189.031 331.103 189.031L291.501 287.77L325.473 283.693L334.729 254.73L340.741 296.681L378.005 292.036L371.993 249.706C386.689 242.88 409.257 228.185 411.309 208.323L411.357 208.371ZM375.333 215.102C372.28 226.858 342.793 230.271 342.793 230.271L349.759 212.921C349.759 212.921 377.29 207.517 375.333 215.102Z" fill="url(#paint2_linear_3477_685)"/>
<path fill-rule="evenodd" clip-rule="evenodd" d="M119.361 197.743C84.1539 179.623 59.3861 190.012 39.6407 214.238C64.5563 192.031 91.1952 187.156 119.361 197.743Z" fill="#FFF6D3"/>
<path fill-rule="evenodd" clip-rule="evenodd" d="M89.045 291.702C24.5635 308.591 12.8171 287.369 20.995 264.324C17.6742 289.289 39.8785 304.307 89.045 291.702Z" fill="#FFF6D3"/>
<path fill-rule="evenodd" clip-rule="evenodd" d="M153.357 187.746L222.786 181L222.49 185.136L153.357 191.685V187.746Z" fill="#FBF9D2"/>
<path fill-rule="evenodd" clip-rule="evenodd" d="M337.25 189.867C392.497 184.008 421.845 192.034 399.391 227.93C411.849 193.068 379.843 186.618 337.25 189.867Z" fill="#FEFEFE"/>
<path fill-rule="evenodd" clip-rule="evenodd" d="M205.501 287.799L285.615 281.939L285.32 280.314L205.501 286.371V287.799Z" fill="#FBF9D2"/>
<path fill-rule="evenodd" clip-rule="evenodd" d="M285.615 281.989L294.527 252.445L293.247 252.592L284.039 281.989H285.615Z" fill="#FBF9D2"/>
<defs>
<linearGradient id="paint0_linear_3477_685" x1="222.266" y1="41.9469" x2="245.507" y2="176.274" gradientUnits="userSpaceOnUse">
<stop stop-color="#66E1E9"/>
<stop offset="1" stop-color="#055394"/>
</linearGradient>
<linearGradient id="paint1_linear_3477_685" x1="219.455" y1="175.758" x2="215.31" y2="309.956" gradientUnits="userSpaceOnUse">
<stop stop-color="#5C010E"/>
<stop offset="0.490196" stop-color="#8D0F00"/>
<stop offset="1" stop-color="#230703"/>
</linearGradient>
<linearGradient id="paint2_linear_3477_685" x1="210.15" y1="177.417" x2="217.639" y2="301.57" gradientUnits="userSpaceOnUse">
<stop stop-color="#F7C937"/>
<stop offset="1" stop-color="#F56F15"/>
</linearGradient>
</defs>
</svg>
