<svg width="555" height="565" viewBox="0 0 555 565" fill="none" xmlns="http://www.w3.org/2000/svg">
<path d="M276.619 428.029C276.619 434.739 276.619 441.61 276.619 448.48C277.578 430.585 277.977 412.691 277.738 394.796C277.338 405.98 277.019 417.085 276.619 428.029Z" fill="black"/>
<path d="M296.51 189.729C253.292 189.729 217.743 207.703 188.984 232.308C188.984 230.79 186.428 232.308 186.188 233.027C185.948 233.746 185.629 234.865 185.309 235.823C184.99 236.782 183.232 237.581 182.273 238.539C181.315 239.498 181.395 239.498 181.634 240.057V240.776C181.794 240.936 181.954 241.016 182.194 241.016C182.433 241.016 182.593 240.936 182.753 240.776C182.593 241.335 182.433 241.895 182.433 242.454C182.433 243.013 182.513 243.572 182.753 244.131C183.392 245.969 186.268 247.007 188.185 247.646C189.144 247.966 190.102 248.126 191.141 248.126C191.141 248.126 191.141 248.126 191.221 248.126C216.385 268.576 218.462 303.487 222.376 330.488C224.294 345.746 225.332 361.164 225.332 376.502C225.332 384.251 225.092 392.16 224.613 399.909C223.335 411.412 222.616 423.076 222.616 434.659C222.616 438.015 222.696 441.37 222.776 444.645C224.373 435.378 225.731 426.111 227.489 416.925C228.208 407.258 232.122 397.832 238.673 389.763C239.392 389.044 241.229 388.325 242.188 389.204C242.747 389.604 243.226 390.083 243.626 390.642C244.265 389.683 244.904 391.361 245.543 393.598C246.662 397.512 247.221 401.587 247.221 405.661C247.221 408.776 246.901 411.812 246.262 414.927C245.703 428.668 247.061 442.648 246.981 456.548C246.981 505.278 252.174 475.161 251.135 523.972C251.135 528.046 251.135 532.12 251.135 536.194C252.254 516.542 244.984 575.898 247.94 556.166C250.336 540.508 251.694 523.892 261.52 509.832C262.239 508.873 264.236 507.755 265.515 508.793C274.302 515.504 273.423 526.768 274.302 535.715C274.302 533.958 274.941 532.52 275.021 531.801C276.139 517.181 275.74 502.562 276.858 488.023C277.498 480.035 278.296 468.451 286.285 462.699C292.676 458.226 295.072 466.294 296.51 470.608C299.306 486.106 301.224 502.083 301.943 517.741C302.582 522.694 303.221 527.647 303.86 532.599C305.777 543.144 307.455 553.929 309.292 564.394C307.535 537.313 307.854 509.992 308.893 482.671C308.893 482.431 308.893 482.191 308.893 482.032C308.893 481.792 308.893 481.632 308.893 481.393C308.413 472.445 308.174 463.418 308.174 454.391C308.174 434.579 309.372 414.768 311.689 395.116C318 340.873 338.53 288.069 371.683 240.616C372.881 243.013 380.47 240.616 380.47 236.702C382.228 201.792 330.542 189.649 296.67 189.889L296.51 189.729Z" fill="white"/>
<path d="M246.662 527.326C246.662 527.965 246.662 528.125 247.7 528.045C249.458 510.79 250.416 493.295 250.416 475.959C250.416 470.927 250.336 465.734 250.257 460.781C251.135 435.857 251.535 411.092 251.055 386.008C250.496 360.924 248.499 337.837 245.863 313.791C244.744 296.376 240.271 279.12 232.682 262.824C234.359 268.735 235.238 274.966 236.436 280.558C238.593 290.864 239.951 301.249 241.07 311.554C243.706 335.28 245.224 359.006 246.262 382.493C248.419 431.064 246.102 479.075 246.742 527.246L246.662 527.326Z" fill="black"/>
<path d="M276.779 243.491C274.382 271.132 269.27 297.015 270.148 325.055C270.148 326.812 272.385 325.055 272.385 323.936C273.503 297.015 277.897 269.934 277.897 243.092C277.897 242.133 276.859 242.852 276.779 243.491Z" fill="black"/>
<path d="M312.088 279.52L313.926 275.765C314.565 274.008 315.044 272.25 315.683 270.413C315.683 269.774 314.725 270.093 314.565 270.413C312.727 274.807 310.89 279.2 309.212 283.594L312.088 279.44V279.52Z" fill="black"/>
<path d="M304.179 296.218C294.833 320.903 288.522 346.306 285.406 372.03C283.968 386.409 283.169 400.948 283.169 415.328C283.169 427.231 283.729 439.214 284.687 451.117C284.687 445.205 284.687 439.373 284.687 433.542C284.687 432.104 284.687 430.506 284.687 429.068C284.687 408.857 286.045 388.486 288.602 368.435C291.478 348.064 295.951 327.613 301.783 307.642C303.301 302.689 304.739 297.736 306.496 292.783L304.1 296.298L304.179 296.218Z" fill="black"/>
<path d="M295.393 412.77C294.354 426.431 293.795 440.011 293.875 453.672C293.875 470.847 293.156 488.262 294.674 505.358C295.712 505.358 296.91 504.16 296.831 503.361C295.792 473.164 293.955 442.967 295.313 412.77H295.393Z" fill="black"/>
<path d="M309.612 372.349C310.73 371.949 311.449 371.071 311.689 370.112C312.967 333.764 323.672 297.895 342.924 265.062C338.371 270.414 334.137 276.006 330.462 281.758C322.394 295.339 316.162 309.718 312.008 324.337C310.171 335.601 309.212 347.105 309.212 358.529C309.212 363.082 309.372 367.715 309.692 372.269L309.612 372.349Z" fill="black"/>
<path d="M554.462 238.06C554.462 230.391 548.471 223.681 539.603 221.204C548.551 211.538 553.424 199.795 553.424 187.732C553.424 182.859 552.625 177.986 551.107 173.352C548.151 165.444 542 158.494 533.612 153.78C537.447 147.07 539.364 139.72 539.364 132.291C539.364 126.38 538.086 120.548 535.689 114.956C528.979 101.615 512.922 92.8275 495.187 92.8275C494.708 92.8275 494.148 92.8275 493.669 92.8275C499.261 84.8389 502.297 75.8118 502.456 66.6249C502.456 45.2953 481.446 27.321 458.679 19.2525C450.051 16.6163 440.864 15.1783 431.598 15.1783C416.02 15.1783 400.762 19.0927 388.06 26.3624C385.503 27.9601 383.027 29.7176 380.79 31.6348C360.339 10.9444 308.893 12.7817 286.764 34.5107C280.453 14.2197 258.005 0 232.202 0C228.048 0 223.974 0.39943 219.9 1.1184C202.485 4.39373 187.626 13.7404 179.398 26.6819C148.322 13.8203 103.746 21.1698 77.7029 40.9016C58.8499 55.2811 47.5859 75.1727 46.4675 96.1028C46.9468 106.248 50.8613 116.074 57.8912 124.462C40.7157 126.539 25.138 133.729 14.1137 144.514C6.28491 151.863 2.05095 161.29 2.05095 171.036C2.05095 174.311 2.53027 177.666 3.56879 180.862C8.76137 195.081 20.3448 200.993 36.2421 206.265C35.9226 207.624 35.7628 208.982 35.7628 210.34C35.7628 211.698 35.9226 213.056 36.2421 214.414C10.9183 212.576 -4.65946 247.806 1.25209 263.703C7.40331 281.838 27.7742 294.38 50.9411 294.38C62.7643 294.38 74.2678 291.104 83.4547 285.033C84.653 287.43 86.2507 289.666 88.168 291.664C93.1209 296.057 100.151 298.534 107.5 298.534C111.894 298.534 116.208 297.655 120.042 295.977C120.042 296.457 120.042 296.936 120.042 297.415C120.042 299.173 120.202 300.93 120.602 302.688C123.557 316.268 139.774 324.577 154.953 327.852C181.954 333.684 204.562 318.266 211.512 298.454C215.346 310.277 218.302 322.42 220.299 334.562C222.057 348.942 223.015 363.481 223.015 377.94C223.015 382.414 222.856 386.967 222.776 391.361C224.613 379.139 226.211 366.836 226.53 354.614C226.61 351.977 226.69 349.261 226.69 346.545C226.69 323.778 223.095 301.01 216.065 278.962C213.349 273.05 209.515 267.458 204.642 262.425C216.704 257.792 226.291 249.644 231.483 239.658C235.238 243.333 240.351 245.809 246.102 246.768C260.162 249.404 275.66 240.696 285.326 233.027C285.566 239.258 288.043 245.25 292.436 250.363C300.185 257.313 311.05 261.387 322.553 261.706C323.033 261.706 323.512 261.706 324.071 261.706C333.977 261.706 343.404 258.271 349.874 252.2C350.593 257.392 354.428 261.866 360.1 264.263C355.067 271.213 352.351 279.201 352.351 287.35C352.351 287.749 352.351 288.149 352.351 288.468C353.389 309.238 370.405 327.133 394.77 333.364C400.282 334.482 405.954 335.042 411.626 335.042C429.6 335.042 446.856 329.29 459.717 319.144C470.981 310.197 477.292 297.975 477.292 285.113C477.292 284.234 477.292 283.276 477.213 282.397C483.444 285.273 490.553 286.711 497.743 286.711C500.459 286.711 503.175 286.471 505.892 286.072C520.431 283.994 533.532 277.524 542.479 267.937C550.468 260.109 554.862 250.203 554.862 239.977C554.862 239.338 554.862 238.699 554.782 238.06H554.462Z" fill="black"/>
<path d="M538.725 263.144C528.899 276.006 492.072 291.504 475.375 278.083C474.577 276.006 473.458 273.929 471.94 272.091V274.248C471.94 276.405 471.94 278.482 471.541 280.639C480.328 312.194 435.752 338.237 397.487 328.491C381.19 323.139 368.488 312.434 362.497 299.093C359.221 293.022 353.709 272.651 361.298 264.822C363.695 265.541 366.171 266.02 368.728 266.18C367.37 265.381 366.091 264.502 364.893 263.624C361.059 261.467 358.023 258.511 356.106 254.996C353.39 251.481 351.952 247.407 351.952 243.253C351.952 241.255 352.271 239.258 352.99 237.261C350.274 240.457 348.676 244.211 348.357 248.126C341.806 252.36 333.658 254.676 325.27 254.676C320.956 254.676 316.642 254.037 312.648 252.839C303.86 250.922 296.351 246.368 291.718 239.977C287.883 234.944 285.886 229.113 285.886 223.121C285.886 221.763 286.126 220.325 286.525 218.967C284.768 222.323 283.889 225.997 283.889 229.592H283.489C280.693 231.35 277.738 233.027 274.702 234.545C269.27 239.258 261.681 241.974 253.692 241.974C252.094 241.974 250.497 241.895 248.979 241.655C242.987 241.096 237.395 238.939 233.081 235.584C230.525 233.027 228.528 230.071 227.09 227.036C226.85 228.074 226.691 229.193 226.691 230.311C226.691 232.628 227.33 234.944 228.608 237.101C216.146 251.321 202.325 262.106 179.078 256.514C166.616 253.478 158.148 244.131 158.148 233.666C158.148 227.595 161.024 221.683 166.217 217.21C166.616 216.89 166.217 216.411 165.817 216.81C159.986 222.003 156.79 228.793 156.79 235.823C156.79 251.481 172.448 264.183 191.78 264.183C194.417 264.183 197.053 263.943 199.609 263.464C202.645 273.21 206 282.796 209.036 292.382C201.926 309.638 188.825 322.899 166.696 322.1C164.619 322.42 162.542 322.579 160.385 322.579C151.198 322.579 142.251 319.783 135.541 314.671C127.951 309.718 123.318 302.368 122.839 294.46C122.839 294.3 122.839 294.22 122.839 294.06C122.839 289.986 124.037 285.912 126.354 282.317C127.472 280.719 128.75 279.201 130.188 277.843C125.076 281.598 121.561 286.551 120.282 292.063C118.046 292.462 115.729 292.702 113.412 292.702C110.297 292.702 107.261 292.303 104.305 291.584C96.5563 290.705 89.9258 286.631 86.8102 280.799C84.893 276.885 83.8545 272.651 83.8545 268.337C83.8545 267.378 83.9343 266.34 84.0142 265.381C82.3366 268.896 81.4579 272.651 81.4579 276.405C81.4579 278.482 81.6975 280.559 82.2567 282.556C59.7289 290.945 36.0827 290.305 18.1882 274.728C0.213866 259.15 6.60474 218.728 37.2011 216.89C38.8787 224.719 46.5477 230.79 56.2938 231.829C48.3851 227.435 43.2724 220.405 42.2339 212.656C42.154 211.857 42.154 210.979 42.154 210.18C42.154 203.629 44.231 197.079 48.2253 191.407C43.9914 194.842 40.6362 198.916 38.1597 203.31C30.1711 198.357 22.9814 192.445 16.91 185.895C12.6761 180.303 10.4393 173.912 10.4393 167.361C10.4393 160.81 12.6761 154.419 16.91 148.827C26.4963 136.685 42.2339 128.616 59.8887 126.699C62.8444 130.134 66.5192 133.17 70.7531 135.566C69.5549 134.608 68.3566 133.489 67.2382 132.451C64.8416 129.974 62.7646 127.338 61.087 124.462C55.2553 116.394 51.7403 107.287 50.7817 98.02C48.9443 77.9686 65.0812 57.3581 82.3366 44.1769C97.8345 32.7532 118.046 26.4422 138.976 26.4422C145.446 26.4422 151.837 27.0813 158.148 28.1997C159.506 28.4394 160.864 28.7589 162.143 29.1583C168.773 29.9572 175.244 31.6348 181.235 34.1113C192.26 38.9843 202.006 45.6148 209.755 53.6034C204.882 42.9786 195.615 33.9515 183.472 28.2796C194.337 14.5392 212.87 6.0713 233.001 5.67188C257.926 5.67188 275.74 21.01 283.889 38.5849C280.693 42.7389 278.536 47.2924 277.658 52.1655C280.693 46.4137 285.167 41.2211 290.759 36.9872C293.475 35.1498 296.351 33.4722 299.547 32.194C310.331 26.1227 323.273 22.8473 336.374 22.8473C337.972 22.8473 339.649 22.9272 341.247 23.0071C350.913 23.4864 360.18 26.602 367.529 31.7147C371.044 33.7118 374.24 36.1084 377.036 38.8245C382.548 44.0171 387.181 49.8488 390.616 56.0799C390.696 55.1213 390.776 54.1626 390.776 53.204C390.776 47.3723 389.019 41.7004 385.743 36.5078C388.38 34.1911 391.335 32.0342 394.531 30.117C410.668 20.8502 436.391 20.7703 454.525 25.7232C480.009 32.8331 497.424 52.0856 498.303 73.8945C498.383 74.3738 498.383 74.8531 498.383 75.4123C498.383 76.9301 498.223 78.3681 497.823 79.806C497.104 83.8003 495.587 87.7147 493.35 91.3096C490.953 95.7033 487.678 99.8574 483.763 103.452L482.725 104.651C485.681 102.494 488.397 100.177 490.793 97.5407C507.41 98.3395 522.029 106.568 528.899 118.79C531.695 124.063 533.213 129.735 533.213 135.487C533.213 140.759 532.015 145.952 529.618 150.825C523.706 148.108 517.316 146.191 510.605 145.153C507.17 144.594 503.655 144.354 500.14 144.354C499.341 144.354 498.622 144.354 497.823 144.354C501.738 144.993 505.572 146.031 509.327 147.23C519.552 149.626 528.42 154.979 534.172 162.248C535.929 164.006 537.527 165.843 538.885 167.84C540.083 169.118 541.122 170.556 542 171.994C555.661 192.525 544.157 216.73 522.908 229.672C520.191 232.148 517.236 234.545 514.12 236.782C524.026 234.066 532.734 229.113 539.364 222.562C555.741 231.27 547.592 252.2 539.284 263.064L538.725 263.144Z" fill="white"/>
<path d="M206.48 48.7306C211.752 45.3754 218.303 43.538 225.093 43.538C226.85 43.538 228.528 43.6978 230.206 43.9374C246.103 46.6536 254.491 57.5181 261.761 68.3027C269.589 60.1543 281.652 55.3611 294.434 55.3611C295.233 55.3611 296.032 55.3611 296.831 55.441C291.958 50.3283 289.241 44.0972 289.241 37.6265C283.969 41.7805 279.735 46.7335 276.859 52.1657C277.738 47.3725 279.895 42.7392 283.09 38.5851C281.812 35.7891 280.214 33.073 278.457 30.4367C270.788 35.3098 261.761 38.665 252.174 40.1029C234.679 41.7006 213.669 34.1914 208.397 18.7734C207.598 16.1371 207.199 13.421 207.199 10.7049C207.199 10.5451 207.199 10.3854 207.199 10.2256C196.893 14.0601 188.106 20.2912 181.955 28.12C192.579 32.8333 201.207 40.1029 206.559 48.8105L206.48 48.7306Z" fill="#CCC6C2" fill-opacity="0.6"/>
<path d="M167.575 98.6592C172.208 97.1414 177.081 95.8632 181.954 94.8247L181.634 94.4253C178.918 90.5907 177.401 86.197 177.401 81.8033C177.401 76.0515 179.797 70.5394 184.271 66.0657C187.386 63.0301 191.54 60.8732 196.174 59.8346C198.171 56.1599 201.127 52.8846 204.961 50.2483C198.091 43.8575 189.783 38.5051 180.516 34.5108C174.525 32.0343 168.054 30.3567 161.423 29.5579C160.145 29.1584 158.787 28.8389 157.429 28.5992L154.313 28.04C168.933 38.8246 177.241 54.0829 177.241 70.06C177.241 80.1257 173.965 90.0315 167.654 98.7391L167.575 98.6592Z" fill="#CCC6C2" fill-opacity="0.6"/>
<path d="M375.837 186.694C385.344 182.78 395.889 180.703 406.513 180.703C407.632 180.703 408.75 180.703 409.789 180.783C412.425 165.684 423.689 152.503 440.145 145.313C459.078 136.845 481.606 138.922 502.936 144.435C505.172 144.514 507.409 144.754 509.566 145.153C516.197 146.192 522.668 148.109 528.579 150.825C530.976 145.793 532.174 140.52 532.174 135.168C528.899 136.765 525.304 137.884 521.549 138.603C519.871 138.842 518.194 139.002 516.436 139.002C501.578 139.002 489.515 129.336 489.355 117.353C489.275 116.874 489.275 116.315 489.275 115.835C489.275 110.163 492.551 104.811 498.143 101.296C499.341 100.657 500.699 100.098 502.057 99.6984C497.983 98.4202 493.749 97.6213 489.355 97.4616C486.958 100.018 484.242 102.415 481.287 104.571L482.325 103.373C486.24 99.7783 489.515 95.6242 491.991 91.2305C494.228 87.6356 495.746 83.7212 496.465 79.7269C496.864 78.289 497.024 76.7711 497.024 75.3332C497.024 74.8539 497.024 74.3745 496.944 73.8153C496.705 62.871 491.991 52.1663 483.603 43.5386C484.722 48.0122 485.281 52.5657 485.281 57.1192C485.281 72.1377 479.21 86.7569 468.026 98.6599C457.241 112.24 438.707 120.389 418.816 120.389C410.188 120.389 401.72 118.871 393.891 115.915C393.971 116.954 394.051 117.992 394.051 118.951C394.051 126.141 391.655 133.25 387.181 139.482C380.79 148.828 368.568 154.66 355.386 154.66C347.957 154.66 340.767 152.823 334.696 149.387C333.977 153.621 332.14 157.775 329.264 161.37C349.155 162.649 366.73 172.235 375.677 186.694H375.837Z" fill="#CCC6C2" fill-opacity="0.6"/>
<path d="M538.006 222.882C531.455 229.432 522.667 234.385 512.762 237.101C515.877 234.864 518.753 232.468 521.549 229.991C537.047 221.044 546.234 206.505 546.234 191.087C546.234 187.971 545.834 184.776 545.115 181.74C538.405 190.927 528.499 198.357 516.676 203.07C501.338 210.1 484.242 214.414 466.667 215.692C468.665 219.846 469.703 224.24 469.703 228.633C469.703 235.583 467.147 242.454 462.434 248.285C429.76 284.554 358.023 254.996 357.384 220.805C338.131 227.914 310.73 226.876 299.626 213.695C295.232 208.662 292.916 202.591 292.916 196.439C292.916 190.927 294.753 185.495 298.268 180.862C289.88 183.418 281.013 184.856 271.985 185.016C232.682 185.974 202.804 168.799 199.13 139.64C184.75 153.86 164.619 165.124 142.251 154.579C125.794 147.789 115.489 134.048 115.489 119.11C115.489 114.237 116.607 109.444 118.684 104.89C98.7928 107.766 74.9069 108.804 64.9211 92.4278C60.4475 85.3979 57.8912 77.6489 57.4119 69.7402C52.2193 77.7288 49.5032 86.5962 49.5032 95.6233C49.5032 96.4221 49.5032 97.3009 49.5831 98.0997C50.7015 107.367 54.2963 116.394 60.2079 124.462C61.8855 127.258 63.9625 129.974 66.3591 132.371C67.4775 133.409 68.5959 134.528 69.8741 135.486C65.6401 133.09 61.9654 130.054 59.0096 126.619C57.4119 126.619 55.894 127.178 54.2963 127.498C55.255 128.217 56.2136 128.936 57.1722 129.735C70.1137 141.478 78.5018 164.565 57.1722 173.272C51.1009 175.27 44.6301 176.308 38.1594 176.308C28.0937 176.308 18.1879 173.832 9.79986 169.278C9.87975 175.19 11.9568 181.021 15.9511 185.974C22.0224 192.525 29.2121 198.357 37.2007 203.389C39.6772 198.996 43.1123 194.921 47.2664 191.486C43.2721 197.238 41.195 203.709 41.195 210.26C41.195 211.058 41.195 211.937 41.2749 212.736C42.3134 220.485 47.506 227.435 55.3348 231.909C45.6686 230.79 37.9197 224.799 36.2421 216.97C5.72568 218.807 -0.904855 259.15 17.2292 274.807C35.3634 290.465 58.8498 291.024 81.2978 282.636C80.7386 280.639 80.4989 278.562 80.4989 276.485C80.4989 272.73 81.3777 268.976 83.0553 265.461C82.9754 266.419 82.8955 267.458 82.8955 268.417C82.8955 272.651 83.934 276.884 85.8513 280.879C88.9668 286.71 95.5973 290.785 103.346 291.663C106.302 292.462 109.338 292.782 112.453 292.782C114.77 292.782 117.087 292.542 119.323 292.143C120.602 286.631 124.117 281.678 129.229 277.923C127.791 279.281 126.513 280.799 125.395 282.397C123.078 285.991 121.88 290.066 121.88 294.14C121.88 294.3 121.88 294.379 121.88 294.539C122.359 302.448 126.993 309.797 134.582 314.75C141.372 319.783 150.239 322.659 159.426 322.659C161.503 322.659 163.66 322.499 165.737 322.18C187.866 322.979 200.727 309.718 208.077 292.462C205.041 282.876 201.686 273.29 198.65 263.544C195.854 264.103 193.058 264.422 190.182 264.422C183.312 264.422 176.602 262.825 170.93 259.709C161.104 254.676 155.192 245.889 155.192 236.462C155.192 231.19 157.03 226.077 160.545 221.603C160.784 220.245 161.184 218.887 161.743 217.609C170.61 202.031 188.984 191.407 210.074 189.649C210.154 189.649 210.234 189.649 210.314 189.649C212.79 189.649 215.027 191.007 215.746 192.924C219.421 193.883 222.376 196.2 223.734 199.076C231.004 215.532 211.352 232.468 193.937 238.3C186.028 241.016 174.605 242.773 167.654 237.181C163.101 233.666 160.385 228.793 160.225 223.68C158.228 226.956 157.189 230.551 157.189 234.145C157.189 244.451 165.577 253.558 177.8 256.514C201.207 262.106 214.947 251.401 227.329 237.101C226.051 235.024 225.412 232.708 225.412 230.311C225.412 229.193 225.572 228.154 225.811 227.036C227.169 230.151 229.247 233.027 231.803 235.583C236.117 239.019 241.709 241.175 247.7 241.655C249.218 241.894 250.816 241.974 252.413 241.974C260.402 241.974 267.991 239.258 273.423 234.545C276.459 233.027 279.415 231.349 282.211 229.592H282.61C282.61 225.917 283.489 222.322 285.247 218.967C284.847 220.325 284.687 221.683 284.607 223.041C284.607 228.953 286.684 234.785 290.439 239.897C295.072 246.208 302.582 250.842 311.369 252.759C315.443 253.957 319.677 254.596 323.991 254.596C332.379 254.596 340.528 252.28 347.078 248.046C347.398 244.131 348.995 240.377 351.712 237.181C351.073 239.098 350.673 241.175 350.673 243.173C350.673 247.327 352.111 251.401 354.827 254.916C356.744 258.351 359.78 261.307 363.615 263.544C364.813 264.422 366.091 265.301 367.449 266.1C364.893 265.94 362.416 265.461 360.02 264.742C352.51 272.571 358.023 293.101 361.218 299.013C367.209 312.354 379.991 323.059 396.208 328.411C434.473 338.237 479.05 312.194 470.262 280.559C470.262 278.402 470.662 276.325 470.662 274.168V272.011C472.18 273.849 473.298 275.846 474.097 278.003C490.793 291.344 527.7 275.846 537.446 263.064C546.793 252.2 554.941 231.27 537.766 222.802L538.006 222.882ZM82.8156 237.101C69.7143 231.509 61.4861 220.405 61.4861 208.422C61.4861 203.629 62.8441 198.836 65.3206 194.522C77.0638 173.752 104.784 168.559 130.428 173.193C131.706 173.432 132.824 173.991 133.703 174.79C148.721 178.225 159.107 189.409 159.107 202.111C159.107 203.629 158.947 205.227 158.627 206.745C152.955 232.148 112.613 249.084 83.215 237.181L82.8156 237.021V237.101Z" fill="#CCC6C2" fill-opacity="0.6"/>
<path d="M106.941 146.112C103.506 141.399 101.669 135.967 101.669 130.455C101.669 128.857 101.828 127.339 102.148 125.821C77.623 120.149 58.4503 104.651 51.3405 84.7598C50.4617 88.115 49.9824 91.4702 49.9824 94.9053C49.9824 95.8639 50.0623 96.9024 50.0623 97.8611C51.1807 107.128 54.7756 116.155 60.6871 124.223C62.3647 127.019 64.4418 129.736 66.8384 132.212C67.9568 133.251 69.0752 134.369 70.3533 135.328C66.1194 132.931 62.4446 129.895 59.4889 126.46C57.8911 126.46 56.3733 127.019 54.7756 127.339C55.7342 128.058 56.6928 128.777 57.6515 129.576C58.6101 130.455 59.3291 131.173 60.2078 132.052C74.9068 141.319 85.4518 154.181 90.3248 168.64C102.228 165.125 114.85 163.288 127.552 163.288C131.226 163.288 134.981 163.447 138.656 163.767C125.874 161.051 114.69 154.74 106.941 146.112Z" fill="#CCC6C2" fill-opacity="0.6"/>
<path d="M471.701 232.947C478.331 234.544 485.281 235.423 492.231 235.423C502.457 235.423 512.522 233.666 521.789 230.231C536.328 221.603 545.435 208.182 546.634 193.563C528.739 213.934 501.898 227.994 471.701 232.947Z" fill="#CCC6C2" fill-opacity="0.6"/>
<path d="M538.006 222.883C535.689 225.04 533.133 227.037 530.417 228.874C532.174 229.593 533.452 231.031 533.772 232.629C537.527 272.252 496.226 273.371 467.387 256.754C466.268 279.123 453.327 303.248 435.672 312.195C398.765 330.968 369.686 287.67 390.936 270.095C373.281 261.468 361.698 246.609 359.78 229.993C359.78 229.114 359.141 228.395 358.981 227.516C351.712 234.706 340.927 239.1 329.424 239.419C304.18 239.419 293.555 224.64 289.401 207.864C285.327 215.693 277.338 221.764 267.432 224.64C263.518 225.839 259.364 226.478 255.13 226.478C244.425 226.478 234.359 222.483 227.649 215.693C223.095 228.155 213.669 239.1 200.887 246.928C193.777 251.003 185.309 253.239 176.602 253.239C175.084 253.239 173.566 253.16 172.048 253C172.048 253.479 172.847 253.958 173.167 254.598C175.004 255.396 176.921 256.035 178.919 256.515C202.325 262.107 216.065 251.402 228.448 237.103C227.17 235.025 226.531 232.709 226.531 230.312C226.531 229.194 226.69 228.155 226.93 227.037C228.288 230.152 230.365 233.028 232.921 235.585C237.235 239.02 242.827 241.177 248.819 241.656C250.337 241.896 251.934 241.976 253.532 241.976C261.521 241.976 269.11 239.259 274.542 234.546C277.578 233.028 280.533 231.351 283.329 229.593H283.729C283.729 225.918 284.608 222.324 286.365 218.968C285.966 220.326 285.806 221.685 285.726 223.043C285.726 228.954 287.803 234.786 291.558 239.899C296.191 246.21 303.7 250.843 312.488 252.76C316.562 253.958 320.796 254.598 325.11 254.598C333.498 254.598 341.646 252.281 348.197 248.047C348.516 244.132 350.114 240.378 352.83 237.182C352.191 239.1 351.792 241.177 351.792 243.174C351.792 247.328 353.23 251.402 355.946 254.917C357.863 258.352 360.899 261.308 364.733 263.545C365.932 264.423 367.21 265.302 368.568 266.101C366.011 265.941 363.535 265.462 361.138 264.743C353.629 272.572 359.141 293.103 362.337 299.014C368.328 312.355 381.11 323.06 397.327 328.412C435.592 338.238 480.168 312.195 471.381 280.56C471.381 278.404 471.78 276.327 471.78 274.17V272.013C473.298 273.85 474.417 275.847 475.215 278.004C491.912 291.345 528.819 275.847 538.565 263.065C546.793 252.201 554.942 231.271 537.766 222.803L538.006 222.883Z" fill="#CCC6C2" fill-opacity="0.6"/>
<path d="M178.039 262.185C186.827 277.683 190.182 297.095 172.687 301.569C147.044 308.119 136.099 287.828 133.463 268.176C132.025 270.014 130.268 271.691 128.27 273.209C123.717 276.005 118.125 277.603 112.373 277.603C104.225 277.603 96.5557 274.567 91.6028 269.375C86.0907 263.064 82.4958 255.714 81.3774 248.045C77.1434 256.433 68.8353 262.984 58.3702 266.179C54.8553 266.978 51.2604 267.378 47.5857 267.378C32.3274 267.378 18.4273 260.188 12.0364 248.924C10.5985 246.048 9.55994 243.092 9.08063 240.057C8.04211 243.332 7.48291 246.687 7.48291 250.042C7.48291 258.91 11.0778 267.537 17.7882 274.567C35.7625 290.145 59.4088 290.784 81.8567 282.396C81.2975 280.399 81.0579 278.322 81.0579 276.245C81.0579 272.49 81.9366 268.736 83.6142 265.221C83.5343 266.179 83.4544 267.218 83.4544 268.176C83.4544 272.41 84.4929 276.644 86.4102 280.639C89.5258 286.47 96.1563 290.545 103.905 291.423C106.861 292.222 109.897 292.542 113.012 292.542C115.329 292.542 117.646 292.302 119.882 291.903C121.161 286.391 124.676 281.438 129.788 277.683C128.35 279.041 127.072 280.559 125.954 282.157C123.637 285.751 122.439 289.826 122.439 293.9C122.439 294.06 122.439 294.139 122.439 294.299C122.918 302.208 127.551 309.557 135.141 314.51C141.931 319.543 150.798 322.419 159.985 322.419C162.062 322.419 164.219 322.259 166.296 321.94C188.425 322.739 201.286 309.478 208.636 292.222C205.6 282.636 202.245 273.05 199.209 263.303C196.493 263.863 193.697 264.182 190.901 264.182C186.427 264.182 182.034 263.463 177.959 262.025L178.039 262.185Z" fill="#CCC6C2" fill-opacity="0.6"/>
<path d="M306.416 420.919C306.257 427.31 306.177 434.1 306.177 440.571C306.177 480.434 309.452 520.457 315.923 559.921C315.923 561.918 318.559 560.48 318.959 558.962C311.609 513.267 307.135 466.934 306.416 420.839V420.919Z" fill="black"/>
<path d="M347.957 280.24C339.649 295.977 332.139 312.194 325.908 328.571C322.633 337.917 320.077 347.424 317.92 356.93C314.964 380.097 313.366 403.584 313.366 426.83C313.366 434.1 313.526 441.529 313.766 448.719C313.766 430.026 314.325 411.412 316.402 392.719C318.878 372.268 322.953 351.738 328.385 331.686C333.098 314.032 342.125 297.415 348.436 280.16C347.957 279.84 347.957 280 347.957 280.24Z" fill="black"/>
<path d="M239.632 368.434C239.472 347.823 236.915 327.213 232.202 307.002C227.489 286.791 231.403 307.002 231.483 307.002C235.238 325.615 237.075 344.628 237.075 363.481C237.075 365.318 236.995 367.236 236.995 369.073C237.315 376.822 237.554 384.731 237.554 392.56C237.554 408.537 236.756 424.594 235.398 440.491C235.398 444.725 234.599 449.039 234.199 453.353C233.88 471.567 232.362 490.1 229.726 508.155C227.649 526.928 235.078 520.377 232.122 539.15C236.836 519.898 229.726 525.41 231.483 505.758C234.599 483.709 237.634 461.581 239.552 439.453C240.51 427.31 240.91 414.928 240.91 402.705C240.91 391.281 240.35 379.698 239.632 368.354H239.711L239.632 368.434Z" fill="black"/>
<path d="M264.796 460.223C264.796 446.004 266.314 430.825 266.314 416.046C265.754 413.49 265.195 410.934 264.636 408.377C264.636 417.964 263.997 427.55 263.518 436.737C264.077 444.726 264.476 452.474 264.796 460.144V460.223Z" fill="black"/>
<path d="M198.331 60.3933C197.133 60.1536 195.855 60.0737 194.656 60.0737C193.458 60.0737 192.18 60.1536 190.982 60.3933C193.458 50.088 204.562 42.6586 217.424 42.6586C218.303 42.6586 219.181 42.6586 219.98 42.7385H221.418C223.415 42.8184 225.333 42.9781 227.25 43.3776C234.679 44.9753 241.31 48.5701 245.783 53.6828C242.029 44.3362 231.244 37.9453 219.101 37.9453C216.305 37.9453 213.509 38.2649 210.793 38.9838C199.849 41.9396 187.546 50.7271 188.984 60.7927C181.954 63.9881 177.641 69.9796 177.641 76.4503V76.5302C178.2 79.6458 179.478 82.6016 181.395 85.3177C177.8 75.6515 183.952 63.0295 197.612 62.2306C199.13 62.5502 200.089 60.6329 198.331 60.3134V60.3933Z" fill="black"/>
<path d="M129.07 156.977C115.889 154.261 106.143 145.154 104.785 134.13C104.785 132.532 104.066 131.014 103.826 129.417C103.107 131.573 102.708 133.89 102.708 136.127C102.708 150.347 116.927 161.93 134.502 161.93C137.698 161.93 140.893 161.531 143.929 160.812C138.736 160.173 133.703 158.894 129.07 157.057V156.977Z" fill="black"/>
<path d="M400.443 131.653C399.883 134.689 398.845 137.725 397.407 140.601C395.649 148.19 388.939 154.501 379.912 156.897C376.796 158.655 373.122 159.534 369.287 159.534C368.328 159.534 367.37 159.454 366.411 159.374C375.678 164.806 387.181 160.013 393.892 153.862C398.845 149.628 401.641 144.036 401.641 138.204C401.641 135.967 401.241 133.81 400.443 131.653Z" fill="black"/>
<path d="M307.295 465.576C307.854 465.416 308.174 465.097 308.174 464.617C308.174 464.537 308.174 464.457 308.174 464.378C308.094 463.818 307.615 463.419 306.976 463.419C306.337 463.419 305.777 463.898 305.777 464.378C305.777 464.537 305.777 464.617 305.857 464.777C306.017 465.256 306.496 465.576 307.135 465.576C307.215 465.576 307.295 465.576 307.375 465.576H307.295Z" fill="black"/>
</svg>
