<svg width="168" height="169" viewBox="0 0 168 169" fill="none" xmlns="http://www.w3.org/2000/svg">
<path d="M17.0157 61.3524L33.2325 133.649L17.0157 137.324L0.79886 65.0272L17.0157 61.3524ZM31.1555 17.0956L34.8303 33.3923L33.632 33.7119L32.5136 34.0314L31.3952 34.4308L30.3567 34.9102L29.3181 35.3895L28.2796 35.9487L27.321 36.5079L26.3624 37.147L25.4836 37.8659L24.6049 38.5849L23.806 39.3838L23.0071 40.1826L22.2882 41.0614L21.5692 41.9401L20.9301 42.8189L20.291 43.7775L19.7318 44.7361L19.1726 45.6948L18.6933 46.7333L18.2939 47.7718L17.8945 48.8103L17.5749 49.9287L17.2554 51.0471L17.0157 52.1655L16.8559 53.2839L16.6962 54.4023L16.6163 55.5207V56.6391L16.6962 57.8374L16.776 59.0357L16.9358 60.234L17.1755 61.4323L0.958632 65.107L0.559203 63.1099L0.239658 61.1127L0.0798859 59.1156L0 57.1184V55.1213L0.0798859 53.1241L0.319543 51.2069L0.639089 49.2896L1.03852 47.3724L1.51783 45.4551L2.07704 43.6177L2.71612 41.7803L3.4351 40.0229L4.23396 38.2654L5.1127 36.5878L6.07133 34.9102L7.10985 33.3124L8.22825 31.7946L9.42654 30.2768L10.7047 28.8388L12.0628 27.4808L13.5007 26.2026L15.0186 24.9244L16.5364 23.7261L18.1341 22.6077L19.8117 21.5692L21.5692 20.6106L23.3267 19.7318L25.1641 18.933L27.0813 18.214L28.9986 17.6548L30.9957 17.1755L31.1555 17.0956ZM106.648 17.2554L34.8303 33.3923L31.1555 17.0956L102.973 0.958638L106.648 17.2554ZM150.825 31.3153L134.608 34.99L134.288 33.7917L133.969 32.6734L133.569 31.555L133.09 30.5164L132.611 29.4779L132.051 28.4394L131.492 27.4808L130.853 26.5221L130.134 25.6434L129.415 24.7646L128.616 23.9658L127.817 23.1669L126.939 22.4479L126.06 21.729L125.181 21.0899L124.223 20.4508L123.264 19.8916L122.305 19.3324L121.267 18.8531L120.228 18.3738L119.19 17.9743L118.071 17.6548L116.953 17.3352L115.835 17.0956L114.716 16.9358L113.598 16.7761L112.479 16.6962H111.281L110.083 16.7761L108.885 16.8559L107.686 17.0157L106.488 17.2554L102.813 0.958638L104.81 0.559199L106.807 0.239663L108.805 0.0798878L110.802 0H112.799L114.796 0.0798878L116.713 0.319551L118.631 0.639087L120.548 1.03851L122.465 1.51784L124.303 2.07704L126.14 2.71612L127.897 3.4351L129.655 4.23396L131.332 5.1127L133.01 6.07133L134.608 7.10984L136.126 8.22826L137.643 9.42654L139.081 10.7047L140.439 12.0628L141.718 13.5007L142.996 15.0186L144.194 16.5364L145.313 18.1341L146.351 19.8117L147.31 21.5692L148.188 23.3267L148.987 25.1641L149.706 27.0813L150.265 28.9986L150.745 30.9957L150.825 31.3153ZM150.825 107.287L134.608 34.99L150.825 31.3153L167.041 103.612L150.825 107.287ZM136.685 151.544L133.01 135.247L134.208 134.927L135.327 134.608L136.445 134.208L137.484 133.729L138.522 133.25L139.561 132.691L140.519 132.131L141.478 131.492L142.357 130.773L143.235 130.054L144.034 129.255L144.833 128.457L145.552 127.578L146.271 126.699L146.91 125.82L147.549 124.862L148.109 123.903L148.668 122.944L149.147 121.906L149.546 120.867L149.946 119.829L150.265 118.711L150.585 117.592L150.825 116.474L150.984 115.355L151.144 114.237L151.224 113.118V112L151.144 110.802L151.064 109.604L150.905 108.405L150.665 107.207L166.882 103.612L167.281 105.609L167.601 107.606L167.76 109.604L167.84 111.601V113.598L167.76 115.595L167.521 117.592L167.201 119.509L166.802 121.427L166.323 123.344L165.763 125.181L165.124 127.019L164.405 128.776L163.606 130.534L162.728 132.211L161.769 133.889L160.73 135.487L159.612 137.004L158.414 138.522L157.136 139.96L155.778 141.318L154.34 142.596L152.822 143.875L151.304 145.073L149.706 146.191L148.029 147.23L146.271 148.188L144.514 149.067L142.676 149.866L140.759 150.585L138.842 151.144L136.845 151.624L136.685 151.544ZM61.1926 151.384L133.01 135.247L136.685 151.544L64.8674 167.681L61.1926 151.384ZM17.0157 137.324L33.2325 133.649L33.5521 134.847L33.8716 135.966L34.2711 137.084L34.7504 138.123L35.2297 139.161L35.7889 140.2L36.3481 141.158L36.9872 142.117L37.7062 142.996L38.4251 143.875L39.224 144.673L40.0229 145.472L40.9016 146.191L41.7803 146.91L42.6591 147.549L43.6177 148.188L44.5763 148.748L45.535 149.307L46.5735 149.786L47.612 150.186L48.6505 150.585L49.7689 150.905L50.8873 151.224L52.0057 151.464L53.1241 151.624L54.2425 151.783L55.361 151.863H56.5592L57.7575 151.783L58.9558 151.703L60.1541 151.544L61.3524 151.304L65.0272 167.601L63.03 168L61.0329 168.32L59.0357 168.479L57.0386 168.559H55.0414L53.0443 168.479L51.127 168.24L49.2097 167.92L47.2925 167.521L45.3752 167.042L43.5378 166.482L41.7005 165.843L39.943 165.124L38.1855 164.325L36.5079 163.447L34.8303 162.488L33.2325 161.449L31.7147 160.331L30.1969 159.133L28.7589 157.855L27.4009 156.497L26.1227 155.059L24.8445 153.541L23.6462 152.023L22.5278 150.425L21.4893 148.748L20.5307 146.99L19.6519 145.233L18.8531 143.395L18.1341 141.478L17.5749 139.561L17.0956 137.564L17.0157 137.324Z" fill="#FEFEFE"/>
<path fill-rule="evenodd" clip-rule="evenodd" d="M25.1639 135.488L8.94706 63.191C5.11253 46.1753 15.8971 29.0797 32.9927 25.2452L104.81 9.10819C121.826 5.27367 138.921 16.0583 142.756 33.1539L158.973 105.451C162.807 122.466 152.023 139.562 134.927 143.396L63.1097 159.533C46.094 163.368 28.9984 152.583 25.1639 135.488Z" fill="#EF7D01"/>
<path fill-rule="evenodd" clip-rule="evenodd" d="M38.3452 74.8529L124.542 55.5205L138.762 118.87C139.72 123.104 137.004 127.418 132.77 128.376L62.0713 144.274C57.8374 145.232 53.5235 142.516 52.5649 138.282L38.3452 74.9328V74.8529Z" fill="#D3242B"/>
<path d="M124.573 55.5216L38.3418 74.8706L41.0837 87.0902L127.315 67.7411L124.573 55.5216Z" fill="#FEFEFE"/>
<path fill-rule="evenodd" clip-rule="evenodd" d="M44.6558 86.2778L59.6743 82.9226L62.71 69.4219L48.4903 72.6173L44.6558 86.2778Z" fill="#2B2A29"/>
<path fill-rule="evenodd" clip-rule="evenodd" d="M76.5303 79.0879L91.5488 75.7326L94.5845 62.2319L80.3648 65.4274L76.5303 79.0879Z" fill="#2B2A29"/>
<path fill-rule="evenodd" clip-rule="evenodd" d="M108.085 72.0569L121.586 69.0212L124.541 55.5205L111.999 58.3165L108.085 72.0569Z" fill="#2B2A29"/>
<path d="M110.526 23.3826L32.2944 63.8647L38.3473 74.8798L116.579 34.3977L110.526 23.3826Z" fill="#FEFEFE"/>
<path fill-rule="evenodd" clip-rule="evenodd" d="M41.5405 73.1746L55.201 66.1447L54.4022 52.4043L41.5405 59.1147V73.1746Z" fill="#2B2A29"/>
<path fill-rule="evenodd" clip-rule="evenodd" d="M70.5394 58.2381L84.12 51.1283L83.3211 37.4678L70.4595 44.0983L70.5394 58.2381Z" fill="#2B2A29"/>
<path fill-rule="evenodd" clip-rule="evenodd" d="M99.1377 43.3797L111.36 37.0687L110.561 23.4082L99.1377 29.3198V43.3797Z" fill="#2B2A29"/>
<path d="M102.834 87.5664L71.6994 94.5526C69.0034 95.1575 67.5627 98.9675 68.4816 103.062L72.8335 122.457C73.7524 126.552 76.6828 129.381 79.3788 128.776L110.514 121.79C113.21 121.185 114.65 117.375 113.732 113.28L109.38 93.8854C108.461 89.7906 105.53 86.9614 102.834 87.5664Z" fill="#2B2F2E" stroke="#FEFEFE" stroke-width="0.981677" stroke-miterlimit="2.61313"/>
<path fill-rule="evenodd" clip-rule="evenodd" d="M99.3767 106.649L84.438 99.5391L88.5921 118.232L99.3767 106.649Z" fill="#D3242B"/>
</svg>
