<svg width="182" height="182" viewBox="0 0 182 182" fill="none" xmlns="http://www.w3.org/2000/svg">
<path d="M75.2526 24.1255L24.2853 75.0928L11.7432 62.5507L62.7105 11.5835L75.2526 24.1255ZM118.95 11.5835L106.328 24.2054L105.529 23.4066L104.651 22.6876L103.772 22.0485L102.893 21.4094L101.934 20.8502L100.976 20.291L100.017 19.8117L99.0586 19.4123L98.02 19.0129L96.9815 18.6933L95.943 18.4536L94.9045 18.214L93.866 18.0542L92.8275 17.8944L91.7889 17.8146H90.7504H89.7119L88.6734 17.8944L87.6349 18.0542L86.5963 18.214L85.5579 18.4536L84.5193 18.6933L83.4808 19.0129L82.5222 19.4123L81.5636 19.8117L80.6049 20.291L79.6463 20.8502L78.7675 21.4094L77.8888 22.0485L77.0101 22.6876L76.1313 23.4066L75.3324 24.2054L62.7903 11.6633L64.3082 10.2254L65.826 8.94722L67.4237 7.74894L69.0215 6.63053L70.6991 5.59201L72.3767 4.63338L74.1342 3.75464L75.8917 2.95578L77.729 2.2368L79.5664 1.6776L81.4038 1.19829L83.2412 0.798855L85.1584 0.479311L87.0757 0.239656L88.9929 0.0798878L90.9102 0L92.8275 0.0798878L94.7447 0.239656L96.662 0.479311L98.5792 0.798855L100.417 1.19829L102.254 1.6776L104.091 2.2368L105.929 2.95578L107.686 3.75464L109.444 4.63338L111.121 5.59201L112.799 6.63053L114.397 7.74894L115.994 8.94722L117.512 10.2254L118.95 11.6633V11.5835ZM156.976 74.8531L106.328 24.2054L118.95 11.5835L169.598 62.2311L156.976 74.8531ZM169.518 118.471L156.976 105.929L157.775 105.13L158.494 104.251L159.133 103.372L159.772 102.494L160.331 101.535L160.89 100.576L161.37 99.6178L161.769 98.6591L162.168 97.7005L162.488 96.662L162.728 95.6235L162.967 94.5849L163.127 93.5464L163.287 92.5079L163.367 91.4694V90.4309V89.3924L163.287 88.3538L163.127 87.3153L162.967 86.2768L162.728 85.2383L162.488 84.1998L162.168 83.1613L161.769 82.1227L161.37 81.1641L160.89 80.2055L160.331 79.2468L159.772 78.2882L159.133 77.4095L158.494 76.5307L157.775 75.652L156.976 74.8531L169.598 62.2311L171.036 63.6691L172.314 65.1869L173.512 66.7846L174.631 68.3824L175.669 70.06L176.628 71.7376L177.507 73.4951L178.305 75.2525L179.024 77.0899L179.584 78.9273L180.063 80.7647L180.462 82.6021L180.782 84.5193L181.022 86.4366L181.181 88.3538L181.261 90.2711L181.181 92.1884L181.022 94.1056L180.782 96.0229L180.462 97.9402L180.063 99.7775L179.584 101.615L179.024 103.452L178.305 105.29L177.507 107.047L176.628 108.805L175.669 110.562L174.631 112.24L173.512 113.837L172.314 115.435L171.036 116.953L169.598 118.391L169.518 118.471ZM106.009 156.896L156.976 105.929L169.518 118.471L118.551 169.438L106.009 156.896ZM62.311 169.438L74.933 156.816L75.7319 157.615L76.6106 158.334L77.4894 158.973L78.3681 159.612L79.3267 160.171L80.2854 160.73L81.244 161.21L82.2026 161.609L83.2412 162.009L84.2797 162.328L85.3182 162.568L86.3567 162.808L87.3952 162.967L88.4337 163.127L89.4722 163.207H90.5108H91.5493L92.5878 163.127L93.6263 162.967L94.6648 162.808L95.7034 162.568L96.7419 162.328L97.7804 162.009L98.739 161.609L99.6977 161.21L100.656 160.73L101.615 160.171L102.574 159.612L103.452 158.973L104.331 158.334L105.21 157.615L106.009 156.816L118.551 169.358L117.113 170.796L115.595 172.074L113.997 173.273L112.4 174.391L110.722 175.43L108.964 176.388L107.207 177.267L105.449 178.066L103.612 178.785L101.775 179.344L99.9373 179.823L98.0999 180.223L96.1827 180.542L94.2654 180.782L92.3481 180.942L90.4309 181.022L88.5136 180.942L86.5963 180.782L84.6791 180.542L82.7618 180.223L80.9245 179.823L79.0871 179.344L77.2497 178.785L75.4123 178.066L73.6548 177.267L71.8974 176.388L70.2197 175.43L68.5421 174.391L66.9444 173.273L65.3467 172.074L63.8289 170.796L62.3909 169.358L62.311 169.438ZM24.2853 106.168L74.933 156.816L62.311 169.438L11.6634 118.79L24.2853 106.168ZM11.7432 62.5507L24.2853 75.0928L23.4865 75.8916L22.7675 76.7704L22.1284 77.6491L21.4893 78.5279L20.9301 79.4066L20.3709 80.3653L19.8916 81.3239L19.4922 82.2825L19.0927 83.2411L18.7732 84.2797L18.5335 85.3182L18.2939 86.3567L18.1341 87.3952L17.9743 88.4337L17.8944 89.4722V90.5108V91.5493L17.9743 92.5878L18.1341 93.6263L18.2939 94.6648L18.5335 95.7034L18.7732 96.7419L19.0927 97.7804L19.4922 98.8189L19.8916 99.7775L20.3709 100.736L20.9301 101.695L21.4893 102.653L22.1284 103.532L22.7675 104.411L23.4865 105.29L24.2853 106.089L11.6634 118.71L10.2254 117.273L8.94723 115.755L7.74893 114.157L6.63053 112.559L5.59202 110.882L4.63338 109.204L3.75463 107.447L2.95579 105.689L2.23681 103.852L1.67761 102.014L1.19829 100.177L0.798862 98.3396L0.479311 96.4223L0.239663 94.5051L0.0798878 92.5878L0 90.6705L0.0798878 88.7533L0.239663 86.836L0.479311 84.9188L0.798862 83.0015L1.19829 81.1641L1.67761 79.3267L2.23681 77.4894L2.95579 75.652L3.75463 73.8945L4.63338 72.137L5.59202 70.4594L6.63053 68.7818L7.74893 67.1841L8.94723 65.5864L10.2254 64.0685L11.6634 62.5507H11.7432Z" fill="#FEFEFE"/>
<path fill-rule="evenodd" clip-rule="evenodd" d="M17.9745 68.7811L68.9417 17.8138C80.9246 5.83094 100.577 5.83094 112.639 17.8138L163.287 68.4615C175.27 80.4444 175.27 100.096 163.287 112.159L112.32 163.126C100.337 175.109 80.6849 175.109 68.6221 163.126L17.9745 112.479C5.99158 100.496 5.99158 80.8438 17.9745 68.7811Z" fill="#00BF63"/>
<path fill-rule="evenodd" clip-rule="evenodd" d="M116.553 90.8303C113.678 89.3125 112.959 96.0229 115.435 97.1413C117.432 98.0201 118.311 96.3425 118.391 94.6649C118.551 92.4281 118.071 91.6292 116.553 90.8303ZM91.4693 142.517C91.1498 142.037 91.8687 141.877 90.9101 142.197C90.4308 141.558 90.6705 141.558 90.8302 140.519C90.99 139.88 91.0699 139.241 91.2297 138.602L96.1826 111.361C96.6619 108.725 97.1412 106.168 97.6205 103.532C98.02 101.216 98.659 98.0201 99.2981 96.0229C100.496 92.5079 101.615 89.4723 103.852 86.7562C105.449 84.8389 105.689 85.0785 106.807 85.2383C107.926 85.2383 117.752 86.9958 118.71 87.3952C121.347 88.4338 123.504 92.4281 124.063 96.4224C124.702 100.816 123.823 105.05 123.104 109.124L118.71 133.17C118.391 135.167 117.991 137.164 117.592 139.241C117.193 141.478 117.272 143.475 115.675 144.434C110.642 147.39 94.3452 144.194 91.4693 142.596V142.517Z" fill="#2DC6F3" fill-opacity="0.901961"/>
<path fill-rule="evenodd" clip-rule="evenodd" d="M89.1532 145.312C91.0704 146.989 106.808 149.865 112.879 148.747C115.835 148.187 117.752 147.229 117.992 144.353L116.874 145.072C115.835 145.871 115.276 146.11 113.838 146.43C111.841 146.909 110.642 146.829 108.645 146.909L104.172 146.829C103.613 146.43 104.092 146.67 103.293 146.51C103.053 146.43 102.574 146.43 102.254 146.43C98.4199 146.03 90.1118 143.634 89.7124 143.634C89.3129 143.155 86.1974 141.797 85.3985 141.237C83.0818 139.719 83.002 138.601 82.283 137.642C81.6439 140.119 82.6824 141.797 84.1204 142.835C85.4784 143.794 87.2359 144.912 89.233 145.391L89.1532 145.312ZM106.808 85.1574C105.929 84.758 103.213 84.2787 102.095 84.1988C100.657 84.1189 98.8992 84.9178 97.9406 85.6367C95.8636 87.0747 94.2659 88.9919 92.9078 91.788C90.1917 97.6196 86.7566 120.547 85.2388 128.535C84.9192 130.133 83.4014 136.764 83.9606 138.042C84.5997 139.4 88.6739 142.116 90.8308 142.276L91.39 142.595C94.2659 144.113 110.642 147.309 115.595 144.433C117.273 143.474 117.113 141.477 117.513 139.24C117.912 137.163 118.312 135.166 118.631 133.169L123.025 109.123C123.744 105.049 124.623 100.815 123.983 96.4213C123.424 92.427 121.267 88.4327 118.631 87.3942C117.672 86.9948 107.846 85.2373 106.728 85.2373L106.808 85.1574ZM106.089 83.8792L111.601 84.758C112.56 84.9178 113.199 85.1574 114.237 85.0775C114.717 85.477 114.477 85.3172 115.276 85.477L118.791 86.0362C119.031 84.2787 117.113 84.1988 115.436 83.9591C114.397 83.6396 112.959 83.32 111.841 83.3999L111.361 83.1603C111.282 83.1603 111.202 83.1603 111.202 83.0804L106.728 82.4413C106.728 82.4413 102.814 80.7637 102.254 82.8407L103.213 83.2402C103.453 83.32 103.932 83.32 104.172 83.3999C104.971 83.5597 105.45 83.5597 106.169 83.8792H106.089ZM119.829 76.5297C122.545 76.4498 123.904 70.6182 121.108 69.2601L119.829 76.5297ZM109.844 68.7808C109.684 70.4584 110.003 71.4969 109.524 73.3343C109.205 74.6924 108.725 75.651 108.086 76.6895C108.006 76.7694 108.006 76.7694 107.926 76.8493L107.607 77.2487C105.769 79.2459 104.891 77.6481 104.971 80.6838L107.287 81.0034L117.273 82.7608C117.672 78.9263 118.791 74.2929 119.51 70.3785C119.989 67.6624 120.548 66.1446 118.152 65.1061C117.033 64.6267 113.359 63.9078 112.16 63.9876C111.681 63.5882 110.163 63.5882 109.444 63.8279C108.565 64.0675 108.246 64.5468 107.767 65.2658C108.086 65.9848 108.645 65.6653 109.364 67.7423L109.844 68.7808ZM127.978 67.4227L128.617 69.4199L128.697 73.1745L128.777 73.9734C128.617 74.213 128.697 73.8935 128.537 74.4527C128.537 74.5326 128.457 74.7722 128.457 74.8521C128.377 75.2516 128.377 75.4113 128.377 75.8108C127.978 75.8108 128.137 75.7309 128.137 76.2901C127.978 76.6895 127.578 77.5683 127.419 78.1275C126.38 79.4855 126.06 80.3643 124.623 81.4028L123.983 81.8821C123.983 81.8821 123.904 81.962 123.824 82.0419L123.584 82.3614C127.179 82.5212 129.256 80.1246 130.215 78.0476C130.614 77.3286 130.774 77.0889 130.774 76.2901C131.173 75.9705 130.854 76.5297 131.173 75.4912C131.173 75.4113 131.253 75.0119 131.333 74.6924L131.253 74.2929C131.732 73.6538 131.652 72.0561 131.333 71.4969C131.413 71.0176 131.413 71.1774 131.333 70.6182C131.253 70.2187 131.173 70.2986 131.093 70.059C131.093 69.2601 130.694 68.1417 130.215 67.7423C129.575 66.4641 128.137 64.8664 126.54 65.0262L127.978 67.3429V67.4227ZM119.51 77.9677C119.35 79.0062 118.551 81.243 119.35 81.5626C123.584 83.32 130.215 74.3728 126.46 67.263C125.182 64.7865 123.664 63.9877 120.149 64.467C120.468 65.3457 120.868 65.4256 121.108 66.3043C121.587 67.9819 120.788 67.1831 122.066 68.1417C125.182 70.4584 124.543 77.009 119.51 77.8878V77.9677ZM113.199 62.7095L118.391 63.6681C118.232 60.952 115.995 60.7123 113.359 60.4727C111.841 60.5526 110.882 60.8721 110.802 62.31L113.199 62.6296V62.7095ZM83.8008 77.4884C84.2801 77.1688 83.8807 77.4085 84.5997 77.1688C84.5997 78.6867 83.7209 79.5654 83.3215 81.0034C84.2002 80.6838 84.9991 80.0447 85.9577 79.5654C86.8365 79.0861 87.7152 78.7665 88.6739 78.3671C101.216 73.574 104.891 80.3643 107.447 75.0119C108.725 73.3343 109.045 68.7009 107.527 67.0233C106.728 66.1446 104.891 66.1446 103.453 65.825C96.4228 64.0675 91.8693 60.4727 88.1147 55.2801C87.6353 56.0789 88.2744 56.9577 87.7951 58.0761C87.156 57.8364 87.3158 57.9163 87.0761 56.9577L86.1974 52.9634C85.3985 50.0875 83.8807 46.3329 80.6853 45.534C73.6553 43.6966 68.7823 57.3571 67.4242 64.3871C66.0661 71.417 65.5868 81.4028 69.7409 86.116C73.7352 90.6695 79.4071 85.2373 81.564 81.8022C82.1232 80.9235 83.641 78.6068 83.7209 77.6481L83.8008 77.4884ZM124.063 111.36C122.545 121.346 120.149 131.491 118.631 140.998C118.312 142.915 120.309 143.794 118.791 146.67C117.193 149.705 112.64 150.344 108.086 150.264C100.896 150.105 90.5112 147.948 85.1589 145.072C81.564 143.155 79.0077 139.32 81.4042 136.364C82.9221 134.527 82.283 136.844 83.3215 131.331C83.7209 129.254 84.1204 127.257 84.4399 125.18C85.3187 121.506 86.0376 116.712 86.7566 112.718C87.9549 106.008 89.3928 94.8236 92.5882 89.4713C94.6653 86.0362 96.263 84.4384 100.497 82.9206C101.216 81.8821 101.056 81.0832 102.254 80.6838C103.772 80.2045 103.772 80.6838 103.772 78.447C94.9848 77.2487 87.2359 78.6068 81.0048 84.6781C79.7266 85.8764 78.6881 87.8735 75.4927 88.9121C69.4213 90.9092 66.3857 84.6781 65.427 79.7252C63.6696 70.3785 66.7052 55.0404 72.5369 48.0105C76.1318 43.6167 80.845 42.019 84.9991 47.2116C86.2773 48.8892 87.3158 51.6852 88.5141 53.6824C92.0291 59.4342 99.8579 64.7865 106.488 65.0262C107.207 62.5497 108.565 63.3486 109.364 62.0704C109.924 61.1118 109.524 60.8721 110.403 60.1531C110.802 59.8336 111.601 59.4341 112.32 59.2744C113.838 59.0347 115.995 59.4341 117.193 59.9933C118.711 60.7123 119.35 61.2715 119.51 63.1888C122.785 62.6296 127.658 63.1888 129.655 65.0262C133.889 68.7808 133.809 77.728 128.137 82.2815C124.463 85.2373 120.069 82.1218 118.471 83.0005C119.59 84.4384 120.149 83.6396 120.069 86.4356C123.025 88.0333 125.102 92.3471 125.501 97.2202C125.901 101.534 124.942 107.286 123.983 111.28L124.063 111.36Z" fill="#130D1B" fill-opacity="0.901961"/>
<path fill-rule="evenodd" clip-rule="evenodd" d="M69.022 79.3251C69.2617 79.0056 69.1818 79.1653 69.2616 78.7659L69.1818 74.4521C69.022 73.2538 69.1019 73.5733 68.5427 73.1739C67.3444 73.5733 67.3444 74.6917 67.4243 76.5291C67.5042 78.0469 67.584 79.2452 69.022 79.405V79.3251ZM88.3544 66.8629C90.1119 67.0227 93.6269 66.2238 92.9878 64.3864C92.6682 63.5077 90.1918 61.1111 88.8337 61.2709C88.7538 62.3094 88.2745 66.3836 88.3544 66.8629ZM86.0377 65.8244C87.1561 65.7445 87.236 63.9071 87.3159 62.7887C87.3957 62.0697 87.3958 61.191 87.236 60.5519C87.0762 59.5134 86.9963 59.4335 86.1176 59.3536C86.0377 60.7916 85.7181 65.1054 86.0377 65.9043V65.8244ZM75.6525 83.7188C75.0933 83.5591 75.2531 83.4792 75.2531 84.0384C74.7738 84.7573 73.1761 84.8372 72.2973 84.4378C71.2588 83.9585 70.8594 82.9999 70.3002 82.7602C69.9806 84.5976 73.176 87.3936 76.6111 84.6775C82.5227 79.8843 85.4785 68.7003 85.3986 60.8715C85.3986 57.676 84.9992 54.3208 83.8808 51.6047C80.6853 43.696 75.4927 48.3294 72.6967 53.8415C71.3387 56.3978 70.7795 58.6346 69.9806 61.5904L69.8208 62.3893C69.8208 62.4692 69.9007 62.7887 69.9007 63.1881C69.9007 63.7473 69.2617 66.3836 69.1818 68.9399C70.5398 68.1411 71.3387 65.2652 74.2146 66.2238C77.9692 67.4221 79.1675 76.1297 77.0905 81.4021L76.0519 83.3194C75.7324 83.7188 75.9721 83.3194 75.7324 83.7188H75.6525ZM107.367 75.0912L106.728 75.8101C102.574 75.2509 100.417 74.1325 94.7452 74.4521C92.7481 74.6118 90.9107 74.9314 89.0734 75.4107C85.7181 76.3693 86.1176 77.0883 83.8808 76.9285C83.6411 77.2481 83.8808 76.9285 83.8009 77.5676C83.6411 78.6061 82.2032 80.8429 81.644 81.7217C79.487 85.1568 73.8151 90.589 69.8208 86.0355C65.6668 81.4021 66.1461 71.3365 67.5041 64.3065C68.8622 57.2766 73.7352 43.6161 80.7652 45.4535C83.9606 46.2523 85.4785 50.007 86.2774 52.8829L87.1561 56.8772C87.3159 57.8358 87.1561 57.7559 87.8751 57.9956C88.2745 56.8771 87.7153 55.9984 88.1946 55.1995C91.9492 60.3921 96.5028 63.9071 103.533 65.7445C105.051 66.1439 106.888 66.1439 107.607 66.9428C109.125 68.6204 108.805 73.3337 107.527 74.9314L107.367 75.0912Z" fill="#FC4849" fill-opacity="0.901961"/>
<path fill-rule="evenodd" clip-rule="evenodd" d="M106.808 85.1576C105.69 85.0777 105.37 84.7582 103.852 86.6755C101.615 89.4715 100.417 92.4273 99.2987 95.9422C98.6596 97.9394 98.0206 101.135 97.6211 103.452C97.2217 106.088 96.6625 108.644 96.1832 111.28L91.2303 138.521C91.1504 139.161 90.9906 139.8 90.8308 140.439C90.5912 141.477 90.4314 141.477 90.9107 142.116C91.8693 141.797 91.2302 141.957 91.4699 142.436L90.9107 142.116C88.7538 142.036 84.5997 139.24 84.0405 137.882C83.4813 136.604 84.9991 129.974 85.3187 128.376C86.8365 120.387 90.2716 97.4601 92.9878 91.6284C94.2659 88.8324 95.9435 86.995 98.0205 85.4772C98.9792 84.7582 100.737 83.9593 102.175 84.0392C103.373 84.1191 106.089 84.5984 106.888 84.9979L106.808 85.1576Z" fill="#28A0DC" fill-opacity="0.901961"/>
<path fill-rule="evenodd" clip-rule="evenodd" d="M75.6527 83.721C75.7326 84.2003 75.8125 84.0405 75.2533 84.0405C75.2533 83.4014 75.0935 83.4813 75.6527 83.721C75.8924 83.3216 75.5728 83.8009 75.9722 83.3215L77.0108 81.4043C79.0878 76.1318 77.8895 67.4242 74.1349 66.226C71.259 65.2673 70.4601 68.1432 69.1021 68.9421C69.1819 66.4656 69.821 63.7495 69.821 63.1903C69.821 62.7909 69.7412 62.5512 69.7412 62.3914L69.9009 61.5926C70.0607 62.3914 69.6613 61.9121 70.1406 62.3115L71.4188 58.9563C71.8182 57.8379 72.2176 56.8793 72.6969 55.8408C76.851 46.574 82.5229 45.2958 83.9608 56.7994C84.6798 62.2317 83.8011 67.7438 82.3631 72.6168C81.3246 76.2916 78.2889 83.002 75.6527 83.721Z" fill="#C82F32" fill-opacity="0.901961"/>
<path fill-rule="evenodd" clip-rule="evenodd" d="M115.915 71.4985C117.193 71.4186 117.512 70.7795 117.832 69.5014C118.072 68.5427 118.391 66.8651 117.193 66.4657C115.196 65.8266 114.796 69.9807 115.835 71.4985H115.915ZM107.287 81.0049L108.006 76.6911C108.645 75.6526 109.044 74.6939 109.444 73.3359C109.923 71.4985 109.604 70.3801 109.763 68.7824C109.763 67.664 109.843 66.7054 110.243 65.587C110.323 65.2674 110.722 64.5484 110.882 64.3887C111.361 63.9094 111.281 64.2289 112.08 64.0691C113.278 63.9892 117.033 64.7082 118.072 65.1875C120.548 66.226 119.909 67.7439 119.43 70.46C118.711 74.2945 117.672 79.0078 117.193 82.8423L107.207 81.0848L107.287 81.0049Z" fill="#FC4849" fill-opacity="0.901961"/>
<path fill-rule="evenodd" clip-rule="evenodd" d="M119.51 78.0482C124.622 77.1695 125.261 70.6189 122.066 68.3022C120.788 67.3435 121.587 68.1424 121.107 66.4648C120.868 65.5062 120.468 65.5061 120.149 64.6274C123.664 64.1481 125.182 64.9469 126.46 67.4234C130.214 74.5333 123.584 83.4805 119.35 81.723C118.551 81.4035 119.35 79.1666 119.51 78.1281V78.0482Z" fill="#C82F32" fill-opacity="0.901961"/>
<path fill-rule="evenodd" clip-rule="evenodd" d="M75.2523 84.1191C75.8115 84.0392 75.7316 84.2789 75.6518 83.7996C78.288 83.0806 81.3237 76.3702 82.3622 72.6954C83.8001 67.8224 84.6789 62.2304 83.9599 56.878C82.522 45.3744 76.8501 46.6526 72.696 55.9194C72.2167 56.9579 71.8971 57.9165 71.4178 59.0349L70.1396 62.3901C69.6603 61.9907 69.9799 62.47 69.9 61.6712C70.6988 58.7154 71.258 56.4786 72.6161 53.9222C75.492 48.4101 80.6047 43.7767 83.8001 51.6854C84.9185 54.4814 85.3179 57.7568 85.3179 60.9522C85.3978 68.781 82.4421 79.965 76.5305 84.7582C73.0954 87.5542 69.9 84.6783 70.2195 82.8409C70.8586 83.0007 71.1781 83.9593 72.2167 84.5185C73.0954 84.918 74.6931 84.8381 75.1725 84.1191H75.2523Z" fill="#130D1B" fill-opacity="0.901961"/>
<path fill-rule="evenodd" clip-rule="evenodd" d="M58.7165 61.5923C58.397 61.2727 58.7165 61.5124 58.3171 61.2727L47.133 56.9589C46.0146 56.5595 44.1773 55.6807 43.2186 55.5209C42.4997 56.6393 42.1002 58.7963 42.1801 60.3141L58.7964 61.5923H58.7165ZM63.27 62.7906C61.2729 62.9503 42.26 61.6722 40.5025 61.2727C40.1031 59.0359 41.0617 55.1215 42.1801 53.7635C43.2186 53.6836 57.7579 59.9147 60.9533 61.3526C63.0303 62.2314 63.0303 61.9118 63.27 62.8704V62.7906Z" fill="#DC9A14" fill-opacity="0.901961"/>
<path fill-rule="evenodd" clip-rule="evenodd" d="M61.9919 51.1264C60.9534 50.008 51.2872 41.1407 50.2487 40.7412C49.6096 41.9395 48.4912 42.8982 48.0119 44.4959C48.4912 44.8154 61.5925 51.0465 61.9919 51.1264ZM65.8264 53.6029C64.7879 53.8425 57.3585 50.1678 55.9206 49.4488C52.7251 48.0109 49.2901 46.1735 46.2544 44.9752C46.2544 43.4574 47.213 42.339 47.8521 41.3004C50.5682 37.2263 50.3286 38.4246 54.4027 42.339C55.1217 43.0579 55.8407 43.5372 56.4798 44.1763C57.758 45.4545 65.7466 52.804 65.8264 53.523V53.6029Z" fill="#DC9A14" fill-opacity="0.901961"/>
<path fill-rule="evenodd" clip-rule="evenodd" d="M42.7391 72.4551L43.1385 76.4494C44.6563 76.4494 48.5707 75.2511 50.1685 74.8517L56.8789 73.0942L42.819 72.4551H42.7391ZM61.8318 72.4551C61.5123 72.8546 62.0715 72.7747 61.033 73.0942L57.1185 74.1327C55.5208 74.5322 53.8432 75.0115 52.1656 75.4109C49.2897 76.1299 44.896 77.4879 41.9402 77.8874C41.5408 76.2896 40.5023 72.6149 41.5408 71.0172C42.0201 70.5379 43.3782 70.7775 44.0172 70.8574C47.3725 71.177 60.7933 71.8959 61.9117 72.4551H61.8318Z" fill="#DC9A14" fill-opacity="0.901961"/>
<path fill-rule="evenodd" clip-rule="evenodd" d="M107.367 75.0916C104.81 80.444 101.136 73.6537 88.5936 78.4468C87.6349 78.8462 86.7562 79.1658 85.8775 79.6451C84.9188 80.2043 84.12 80.8434 83.2412 81.0831C83.6406 79.6451 84.4395 78.8462 84.5194 77.2485C83.8004 77.4083 84.1999 77.2485 83.7205 77.5681C83.8004 76.929 83.5608 77.2485 83.8004 76.929C86.0372 77.1686 85.6378 76.3698 88.993 75.4111C90.8304 74.9318 92.6678 74.6123 94.6649 74.4525C100.417 74.0531 102.494 75.2514 106.648 75.8106L107.287 75.0916H107.367Z" fill="#C82F32" fill-opacity="0.901961"/>
<path fill-rule="evenodd" clip-rule="evenodd" d="M104.172 146.83L102.973 146.989C103.133 147.788 103.213 147.788 103.932 148.108C104.571 148.348 105.13 148.427 105.849 148.507C107.367 148.667 108.645 148.747 109.284 147.708C108.965 146.75 109.524 147.549 108.565 146.989C110.563 146.91 111.761 146.989 113.758 146.51C115.116 146.191 115.755 145.951 116.794 145.152L117.912 144.433C117.672 147.309 115.755 148.268 112.799 148.827C106.728 149.945 90.9905 147.069 89.0733 145.392C88.9135 144.513 88.9135 144.034 89.6325 143.634C90.0319 143.634 98.34 145.951 102.175 146.43C102.494 146.43 102.894 146.51 103.213 146.51C104.092 146.67 103.613 146.43 104.092 146.83H104.172Z" fill="#CAC4BC" fill-opacity="0.901961"/>
<path fill-rule="evenodd" clip-rule="evenodd" d="M58.7167 61.5909L42.1004 60.3127C42.0205 58.7949 42.4199 56.6379 43.1389 55.5195C44.1774 55.6793 45.9349 56.5581 47.0533 56.9575L58.2374 61.2713C58.6368 61.511 58.3971 61.3512 58.6368 61.5909H58.7167Z" fill="white" fill-opacity="0.901961"/>
<path fill-rule="evenodd" clip-rule="evenodd" d="M61.9918 51.1264C61.5124 51.0465 48.491 44.8154 48.0117 44.4959C48.491 42.978 49.6094 41.9395 50.2485 40.7412C51.287 41.1406 60.9532 50.008 61.9918 51.1264Z" fill="white" fill-opacity="0.901961"/>
<path fill-rule="evenodd" clip-rule="evenodd" d="M52.8044 90.0309C53.6832 89.7912 55.2809 88.1136 56.1596 87.3946C56.9585 86.7555 58.716 85.2377 59.2752 84.5187C58.0769 84.6785 52.405 86.9153 51.2067 87.4745L52.7245 90.0309H52.8044ZM49.4492 86.5958C49.7687 85.8768 61.6717 82.4417 62.3907 82.3618C62.2309 83.4003 61.4321 83.7998 60.074 85.0779C58.3964 86.6757 53.4435 91.5487 52.2452 91.7884C51.2866 90.8297 49.3693 88.513 49.4492 86.5159V86.5958Z" fill="#DC9A14" fill-opacity="0.901961"/>
<path fill-rule="evenodd" clip-rule="evenodd" d="M56.7995 73.0956L50.0891 74.8531C48.4913 75.2525 44.5769 76.371 43.0591 76.4508L42.6597 72.4565L56.7196 73.0956H56.7995Z" fill="white" fill-opacity="0.901961"/>
<path fill-rule="evenodd" clip-rule="evenodd" d="M116.554 90.83C118.072 91.6289 118.552 92.4278 118.392 94.6646C118.312 96.3422 117.353 97.9399 115.436 97.141C112.96 96.0226 113.758 89.3921 116.554 90.83Z" fill="#B0E2F8" fill-opacity="0.901961"/>
<path fill-rule="evenodd" clip-rule="evenodd" d="M88.2746 66.8636C88.1149 66.3044 88.6741 62.3101 88.7539 61.2715C90.112 61.1917 92.5885 63.5084 92.908 64.3871C93.627 66.3044 90.112 67.0233 88.2746 66.8636Z" fill="#FB9488" fill-opacity="0.901961"/>
<path fill-rule="evenodd" clip-rule="evenodd" d="M89.712 143.635C88.9931 143.954 88.9931 144.513 89.1528 145.392C87.1557 144.913 85.478 143.794 84.0401 142.836C82.6022 141.877 81.6435 140.199 82.2027 137.643C82.9217 138.602 83.0815 139.72 85.3183 141.238C86.1171 141.797 89.2327 143.155 89.6321 143.635H89.712Z" fill="#908C94" fill-opacity="0.901961"/>
<path fill-rule="evenodd" clip-rule="evenodd" d="M52.8045 90.0302L51.2866 87.4739C52.405 86.9147 58.1568 84.7577 59.3551 84.5181C58.7959 85.237 57.0384 86.7549 56.2396 87.394C55.3608 88.1129 53.843 89.7905 52.8843 90.0302H52.8045Z" fill="white" fill-opacity="0.901961"/>
<path fill-rule="evenodd" clip-rule="evenodd" d="M119.829 76.5304L121.107 69.2607C123.903 70.6188 122.545 76.5304 119.829 76.5304Z" fill="#C82F32" fill-opacity="0.901961"/>
<path fill-rule="evenodd" clip-rule="evenodd" d="M113.119 62.79C112.64 61.8314 113.039 61.6716 113.279 60.5532C115.915 60.7929 118.072 61.0326 118.312 63.7487L113.119 62.79Z" fill="white" fill-opacity="0.901961"/>
<path fill-rule="evenodd" clip-rule="evenodd" d="M115.915 71.4966C114.876 69.9787 115.196 65.8247 117.273 66.4638C118.471 66.7833 118.152 68.5408 117.912 69.4994C117.592 70.7776 117.273 71.4966 115.995 71.4966H115.915Z" fill="#FB9488" fill-opacity="0.901961"/>
<path fill-rule="evenodd" clip-rule="evenodd" d="M69.0212 79.3263C67.6631 79.1665 67.5034 77.9683 67.4235 76.4504C67.3436 74.613 67.3436 73.5745 68.5419 73.0952C69.181 73.4946 69.0212 73.1751 69.181 74.3734L69.2608 78.6872C69.181 79.1665 69.181 78.9269 69.0212 79.2464V79.3263Z" fill="#FB9488" fill-opacity="0.901961"/>
<path fill-rule="evenodd" clip-rule="evenodd" d="M127.338 78.2081L127.019 79.007C128.057 78.9271 128.057 79.1667 129.176 79.2466C129.256 79.2466 129.255 79.1668 129.255 79.0869C129.255 79.0869 129.335 79.007 129.335 78.9271L129.895 78.2081C129.895 78.1282 129.974 78.1282 130.054 78.0483C129.096 80.1254 127.019 82.6018 123.424 82.3622L123.664 82.0426C123.664 82.0426 123.743 81.9627 123.823 81.8829L124.462 81.4035C125.9 80.365 126.22 79.4863 127.258 78.1282L127.338 78.2081Z" fill="#C82F32" fill-opacity="0.901961"/>
<path fill-rule="evenodd" clip-rule="evenodd" d="M108.645 146.91C109.604 147.469 108.965 146.671 109.364 147.629C108.725 148.588 107.447 148.588 105.929 148.428C105.29 148.348 104.651 148.268 104.012 148.029C103.213 147.789 103.133 147.709 103.053 146.91L104.252 146.75L108.725 146.83L108.645 146.91Z" fill="white" fill-opacity="0.901961"/>
<path fill-rule="evenodd" clip-rule="evenodd" d="M131.253 71.5764L131.173 74.3724L131.253 74.7718L130.773 75.2511L128.856 74.7718L128.776 74.1327L128.696 73.3339C129.096 72.7747 128.936 72.0557 128.936 71.2568L131.253 71.5764Z" fill="#FC4849" fill-opacity="0.901961"/>
<path fill-rule="evenodd" clip-rule="evenodd" d="M130.693 76.3718C130.693 77.1706 130.534 77.4103 130.134 78.1293C130.054 78.2092 130.054 78.2092 129.975 78.2891L129.415 79.008C129.415 79.008 129.335 79.0879 129.335 79.1678C129.335 79.1678 129.256 79.2477 129.256 79.3276C128.137 79.2477 128.137 79.008 127.099 79.0879L127.418 78.2891C127.578 77.8097 127.977 76.8511 128.137 76.4517C128.696 76.4517 128.616 76.5316 128.377 75.9724C128.696 75.7327 128.457 75.8126 128.936 75.8126C128.936 75.8126 129.655 75.8925 129.735 75.8925C130.454 76.0522 130.374 75.8925 130.773 76.3718H130.693Z" fill="#FC4849" fill-opacity="0.901961"/>
<path fill-rule="evenodd" clip-rule="evenodd" d="M111.761 83.4798L111.122 83.6396C111.122 84.3586 111.202 84.4385 111.601 84.8379L106.089 83.9591C105.929 83.32 105.929 82.681 106.648 82.6011L111.122 83.2402C111.202 83.2402 111.281 83.2402 111.281 83.32L111.761 83.5597V83.4798Z" fill="#CAC4BC" fill-opacity="0.901961"/>
<path fill-rule="evenodd" clip-rule="evenodd" d="M86.0372 65.8256C85.7176 65.0267 86.0372 60.7927 86.1171 59.2749C86.9958 59.3548 87.0757 59.4347 87.2355 60.4732C87.3154 61.1123 87.3153 62.0709 87.3153 62.71C87.2355 63.8284 87.1556 65.6658 86.0372 65.7457V65.8256Z" fill="#FB9488" fill-opacity="0.901961"/>
<path fill-rule="evenodd" clip-rule="evenodd" d="M109.844 68.7811L109.364 67.7426C108.645 65.7454 108.086 65.9851 107.767 65.2661C108.246 64.5471 108.565 64.0678 109.444 63.8282C110.243 63.6684 111.681 63.5885 112.16 63.9879C111.282 64.1477 111.441 63.9081 110.962 64.3075C110.802 64.4673 110.403 65.1862 110.323 65.5058C109.924 66.5443 109.844 67.5828 109.844 68.7012V68.7811Z" fill="#C82F32" fill-opacity="0.901961"/>
<path fill-rule="evenodd" clip-rule="evenodd" d="M107.287 81.0839L104.971 80.7643C104.811 77.6488 105.69 79.3264 107.607 77.3292L107.926 76.9298C107.926 76.9298 108.006 76.8499 108.086 76.77L107.367 81.0839H107.287Z" fill="#C82F32" fill-opacity="0.901961"/>
<path fill-rule="evenodd" clip-rule="evenodd" d="M115.355 84.0408L115.435 84.9196L114.157 85.1592C113.119 85.2391 112.559 84.9994 111.521 84.8397C111.201 84.4402 111.042 84.3604 111.042 83.6414L111.681 83.4816C112.799 83.4017 114.237 83.6414 115.275 84.0408H115.355Z" fill="white" fill-opacity="0.901961"/>
<path fill-rule="evenodd" clip-rule="evenodd" d="M106.648 82.5226C106.009 82.6025 105.929 83.2416 106.089 83.8807C105.37 83.641 104.891 83.5611 104.092 83.4013C103.773 83.3215 103.373 83.3215 103.133 83.2416L102.175 82.8421C102.734 80.7651 106.648 82.4427 106.648 82.4427V82.5226Z" fill="#908C94" fill-opacity="0.901961"/>
<path fill-rule="evenodd" clip-rule="evenodd" d="M114.237 85.0774L115.515 84.8377L115.435 83.959C117.113 84.1986 119.03 84.2785 118.79 86.036L115.275 85.4768C114.476 85.317 114.716 85.4768 114.237 85.0774Z" fill="#CAC4BC" fill-opacity="0.901961"/>
<path fill-rule="evenodd" clip-rule="evenodd" d="M130.134 67.8239C129.096 67.2647 129.735 67.5842 129.575 67.8239H129.495C129.255 67.6641 129.335 67.5842 128.856 67.5043C128.616 67.4245 128.217 67.5043 127.897 67.4245L126.459 65.1078C127.977 64.948 129.415 66.5457 130.134 67.8239Z" fill="#C82F32" fill-opacity="0.901961"/>
<path fill-rule="evenodd" clip-rule="evenodd" d="M129.495 67.823L128.856 67.9827C128.616 69.181 129.096 69.9 130.214 69.8201C130.374 68.7017 130.054 68.4621 129.495 67.823C129.655 67.5833 128.936 67.2638 130.054 67.823C130.534 68.1425 130.933 69.3408 130.933 70.1397L130.773 70.619C128.856 70.1396 129.335 70.4592 128.696 69.6603C128.696 69.5805 128.616 69.5805 128.537 69.5006L127.897 67.5034C128.137 67.5034 128.537 67.5034 128.856 67.5833C129.335 67.6632 129.256 67.7431 129.495 67.9028V67.823Z" fill="#FC4849" fill-opacity="0.901961"/>
<path fill-rule="evenodd" clip-rule="evenodd" d="M130.933 70.1398C131.093 70.3794 131.093 70.2196 131.173 70.699C131.333 71.3381 131.253 71.0984 131.173 71.5777C131.492 72.1369 131.572 73.6548 131.093 74.3737L131.173 71.5777L128.856 71.2582C128.856 72.057 129.016 72.776 128.617 73.3352L128.537 69.5806C128.617 69.6605 128.617 69.7403 128.696 69.7403C129.415 70.5392 128.856 70.2196 130.773 70.699L130.933 70.2197V70.1398Z" fill="#C82F32" fill-opacity="0.901961"/>
<path fill-rule="evenodd" clip-rule="evenodd" d="M113.119 62.7902L110.722 62.4707C110.802 61.0327 111.761 60.7132 113.279 60.6333C113.039 61.6718 112.639 61.9115 113.119 62.8701V62.7902Z" fill="#CAC4BC" fill-opacity="0.901961"/>
<path fill-rule="evenodd" clip-rule="evenodd" d="M131.253 74.7734C131.173 75.0929 131.093 75.4923 131.093 75.5722C130.774 76.5309 131.013 75.9717 130.694 76.3711C130.294 75.8918 130.374 76.0515 129.655 75.8918C129.575 75.8918 128.856 75.8119 128.856 75.8119C128.297 75.8119 128.617 75.732 128.297 75.9717C128.457 76.5309 128.617 76.451 128.057 76.451C128.057 75.8918 127.898 75.9717 128.297 75.9717C128.297 75.5722 128.297 75.3326 128.377 75.013C128.377 74.9331 128.457 74.6935 128.457 74.6136C128.697 74.0544 128.537 74.294 128.697 74.1343L128.776 74.7734L130.694 75.2527L131.173 74.7734H131.253Z" fill="#C82F32" fill-opacity="0.901961"/>
<path fill-rule="evenodd" clip-rule="evenodd" d="M129.575 67.8223C130.135 68.4614 130.454 68.701 130.294 69.8194C129.176 69.8993 128.697 69.1004 128.936 67.982L129.575 67.8223Z" fill="#FB9488" fill-opacity="0.901961"/>
</svg>
