<svg width="145" height="88" viewBox="0 0 145 88" fill="none" xmlns="http://www.w3.org/2000/svg">
<path d="M80.0135 83.4136C78.4158 71.5106 68.1904 62.3237 55.8081 62.3237C43.9051 62.3237 33.9992 70.8715 31.8423 82.1354C45.7424 82.9343 61.1604 83.4935 77.3773 83.4935C78.256 83.4935 79.1348 83.4935 80.0135 83.4935V83.4136Z" fill="#FEFEFE"/>
<path d="M66.513 67.2776C66.513 73.4288 68.8297 79.0208 72.5843 83.3347C74.182 83.3347 75.8597 83.3347 77.4574 83.3347C88.7213 83.3347 99.5858 83.095 109.811 82.6956C113.246 78.4617 115.323 73.1093 115.323 67.2776C115.323 53.7769 104.379 42.8325 90.8782 42.8325C77.3775 42.8325 66.4331 53.7769 66.4331 67.2776H66.513Z" fill="#FEFEFE"/>
<path d="M109.492 81.6558C109.492 82.0553 109.492 82.3748 109.572 82.7742C119.877 82.3748 129.543 81.7357 138.41 81.0167C138.011 73.3477 131.7 67.2764 123.951 67.2764C115.962 67.2764 109.492 73.7471 109.492 81.7357V81.6558Z" fill="#FEFEFE"/>
<path fill-rule="evenodd" clip-rule="evenodd" d="M144.561 84.2122C88.881 88.8456 56.2875 87.4077 6.51855 83.3335L1.40584 65.1195C-2.908 49.7015 2.76391 33.1651 17.6227 27.2536L80.3331 2.08951C95.1919 -3.90194 112.288 3.44756 118.199 18.3063C126.587 39.1566 137.132 63.2022 144.482 84.2122H144.561Z" fill="#E40615"/>
<path fill-rule="evenodd" clip-rule="evenodd" d="M45.1834 62.0831C42.7868 56.8106 46.9409 52.0973 51.4944 54.6537C55.7283 56.9704 58.1249 63.6808 53.2518 65.9176L52.5329 65.9975C49.8966 66.4768 46.9408 65.1986 45.1035 62.0032L45.1834 62.0831ZM34.7183 68.7136C35.4373 69.9918 39.5914 71.6694 40.7897 72.1487C45.8225 74.2257 56.2076 72.628 57.4858 63.7607L57.8053 61.8434C59.2433 66.8762 56.6869 74.5453 49.2575 75.0246C43.9851 75.3441 38.0735 73.0274 34.7183 68.7136ZM32.9608 45.8662C23.6142 54.1744 29.0464 70.7107 42.7069 75.0246C50.9352 77.5809 59.5628 73.8263 59.2433 63.4411C58.8439 50.7393 43.2661 36.5994 32.9608 45.7863V45.8662Z" fill="white"/>
<path fill-rule="evenodd" clip-rule="evenodd" d="M77.8564 49.9406C80.3329 50.8992 81.4513 52.0176 84.6467 51.7779C89.7594 51.4584 94.4727 46.2658 95.671 41.7123C95.9107 40.8336 96.0704 39.2359 96.1503 38.1973C96.3101 36.7594 96.0704 35.641 96.1503 34.3628C97.2687 36.9192 97.1089 40.2744 96.7095 42.5911C95.671 48.6624 92.2359 53.855 85.2059 53.5354C82.33 53.3757 80.5725 52.1774 77.9363 49.9406H77.8564ZM84.7266 47.7038C83.2887 50.1802 80.1731 49.4613 78.7352 48.3429C76.8179 46.9848 75.5397 44.3485 75.38 41.952C74.9805 36.36 80.8921 34.5226 84.6467 38.9962C86.6439 42.0319 86.6439 45.7865 84.8065 47.7038H84.7266ZM96.7894 32.2858C93.7537 22.9391 84.5669 18.3856 77.2972 20.6224C64.3557 24.6966 67.8707 44.9877 78.9748 52.3372C88.4813 58.5683 98.0676 51.059 97.8279 38.3571C97.8279 36.4399 97.4285 34.2829 96.7894 32.2858Z" fill="white"/>
<path fill-rule="evenodd" clip-rule="evenodd" d="M96.7098 32.2062C97.3489 34.2833 97.7483 36.3603 97.7483 38.2775C97.988 50.9794 88.3218 58.4887 78.8953 52.2576C67.7911 44.9081 64.2761 24.617 77.2176 20.5429C84.4873 18.2262 93.754 22.8596 96.7098 32.2062ZM72.1849 21.9808C65.075 28.2918 67.0721 39.7155 71.8653 46.9851C76.8182 54.6542 87.6028 59.8468 94.7127 51.6185C96.8696 49.142 97.9081 46.4259 98.4673 43.3902C99.5857 37.7982 99.1863 32.2861 95.5115 26.774C90.6385 19.3446 79.6142 15.2704 72.1849 21.9009V21.9808Z" fill="#030303"/>
<path fill-rule="evenodd" clip-rule="evenodd" d="M32.9607 45.8667C43.3459 36.6798 58.9236 50.8196 59.2431 63.5215C59.5627 73.9067 50.935 77.6613 42.7067 75.105C28.9664 70.7911 23.5341 54.2547 32.9607 45.9466V45.8667ZM32.1618 44.8282C30.3244 46.4259 29.0463 48.3432 28.3273 50.0208C23.9336 59.5272 30.3244 72.6285 42.6269 76.1435C59.8024 81.0964 66.1133 63.2818 55.3287 50.0208C49.4971 42.8311 39.9107 37.8781 32.1618 44.7483V44.8282Z" fill="#030303"/>
<path fill-rule="evenodd" clip-rule="evenodd" d="M101.183 52.8173C99.9052 53.9357 98.7868 55.2139 98.3874 56.3323C97.0293 60.8059 104.219 61.5248 109.252 57.0512C116.282 50.7402 108.373 46.5862 101.103 52.8173H101.183Z" fill="#FD7492"/>
<path fill-rule="evenodd" clip-rule="evenodd" d="M42.6271 81.3359C40.55 83.3331 47.6599 88.2061 50.4559 85.8894C52.7726 84.052 55.3289 79.898 51.5743 78.5399C49.3375 77.7411 45.1834 79.179 42.6271 81.3359Z" fill="#FD7492"/>
<path fill-rule="evenodd" clip-rule="evenodd" d="M49.4178 56.0941C51.0155 53.6176 54.2908 56.9728 53.0925 58.8901C52.3736 60.0884 50.9356 60.0884 50.0569 59.2895C49.4977 58.8102 49.258 58.3309 49.0982 57.6119C48.8586 56.5734 49.0184 56.6533 49.4178 56.0941ZM45.1838 62.0855C47.1011 61.047 48.6189 61.047 49.977 61.6861C52.2138 62.8045 52.1339 64.1626 52.6132 66.0798L53.3322 65.9999C58.1254 63.6833 55.7288 57.0527 51.5747 54.736C46.9413 52.1797 42.8671 56.893 45.2637 62.1654L45.1838 62.0855Z" fill="#030303"/>
<path fill-rule="evenodd" clip-rule="evenodd" d="M76.1791 40.9957C77.4572 38.1997 81.132 41.6347 79.7739 43.7917C78.975 44.99 77.617 44.8302 76.8181 44.0313C76.4187 43.6319 76.0992 43.0727 75.9394 42.5135C75.7796 41.6348 76.0193 41.475 76.2589 40.9957H76.1791ZM84.647 47.7061C82.9693 47.1469 81.3716 45.709 81.5314 43.3124C81.6113 41.475 82.4101 40.5164 84.4872 38.9985C80.7325 34.6048 74.821 36.3623 75.2204 41.9543C75.3802 44.271 76.6584 46.9871 78.5756 48.3452C80.0935 49.4636 83.1291 50.1826 84.5671 47.7061H84.647Z" fill="#030303"/>
<path fill-rule="evenodd" clip-rule="evenodd" d="M40.7896 72.15C39.5913 71.6707 35.4372 69.9931 34.7183 68.7149C38.0735 72.9489 44.0649 75.3454 49.2575 75.0259C56.6869 74.5466 59.2432 66.9574 57.8053 61.8447L57.4858 63.762C56.1277 72.7092 45.8224 74.2271 40.7896 72.15Z" fill="#C6C6C6"/>
<path fill-rule="evenodd" clip-rule="evenodd" d="M77.8568 49.9415C80.493 52.0984 82.2505 53.3766 85.1264 53.5364C92.1563 53.9358 95.5914 48.7432 96.6299 42.592C97.0294 40.3552 97.1891 36.9201 96.0707 34.3638C95.9909 35.6419 96.2305 36.7603 96.0707 38.1983C95.9909 39.2368 95.8311 40.8345 95.5914 41.7133C94.3931 46.2668 89.7598 51.4593 84.5672 51.7789C81.4516 51.9386 80.3332 50.8202 77.7769 49.9415H77.8568Z" fill="#C6C6C6"/>
<path fill-rule="evenodd" clip-rule="evenodd" d="M74.9008 10.7166C74.1819 8.16021 64.995 9.51829 64.1162 12.3942C62.8381 16.7879 73.4629 12.5539 74.9008 10.7166Z" fill="#030303"/>
<path fill-rule="evenodd" clip-rule="evenodd" d="M25.5315 38.8374C27.8482 38.5977 36.8753 31.5678 32.4017 30.4494C29.6855 29.7304 24.2533 36.281 25.2918 38.5178C25.2918 38.5977 25.3717 38.6776 25.3717 38.6776C25.3717 38.6776 25.4516 38.7575 25.4516 38.8374H25.5315Z" fill="#030303"/>
<path fill-rule="evenodd" clip-rule="evenodd" d="M84.7267 47.626C86.5641 45.7088 86.5641 41.9541 84.567 38.9185C82.4899 40.4363 81.691 41.3949 81.6112 43.2323C81.4514 45.6289 83.0491 47.0668 84.7267 47.626Z" fill="#787878"/>
<path fill-rule="evenodd" clip-rule="evenodd" d="M52.613 66.0792C52.1337 64.1619 52.2135 62.8039 49.9767 61.6855C48.6187 61.0464 47.1009 61.0464 45.1836 62.0849C47.021 65.2803 49.9768 66.5585 52.613 66.0792Z" fill="#787878"/>
<path fill-rule="evenodd" clip-rule="evenodd" d="M25.9311 52.0185C28.807 44.9087 30.0053 43.231 38.9525 40.1155C36.0766 39.7959 32.0024 40.9943 29.3662 43.6305C27.1294 45.8673 25.6116 49.7018 25.9311 52.0185Z" fill="#030303"/>
<path fill-rule="evenodd" clip-rule="evenodd" d="M69.0688 22.8608C71.7051 20.7039 73.2229 18.7867 77.2172 17.6683C81.1316 16.5499 82.969 17.4286 85.6052 17.5884C83.5282 15.9108 79.3742 15.751 76.7379 16.47C73.1431 17.4286 70.1873 20.3045 69.0688 22.8608Z" fill="#030303"/>
<path fill-rule="evenodd" clip-rule="evenodd" d="M76.179 40.9938C76.0192 41.3932 75.6997 41.6328 75.8595 42.5116C76.0192 43.0708 76.3388 43.63 76.7382 44.0294C77.5371 44.8283 78.8951 44.988 79.694 43.7898C81.1319 41.6328 77.3773 38.1978 76.0991 40.9938H76.179Z" fill="white"/>
<path fill-rule="evenodd" clip-rule="evenodd" d="M49.417 56.0924C49.0176 56.6516 48.8578 56.5717 49.0975 57.6102C49.2572 58.3292 49.4969 58.8085 50.0561 59.2878C50.9349 60.0867 52.2929 60.0867 53.0918 58.8884C54.29 56.9711 51.0946 53.6159 49.417 56.0924Z" fill="white"/>
<path d="M61.2407 82.8536C79.1352 87.487 91.198 81.7352 96.1509 63.2017" stroke="#FEFEFE" stroke-width="4.3157" stroke-miterlimit="2.61313" stroke-linecap="round"/>
</svg>
