<svg width="116" height="121" viewBox="0 0 116 121" fill="none" xmlns="http://www.w3.org/2000/svg">
<path d="M21.6491 29.0785L16.9358 84.1998L0.559207 82.682L5.27247 27.5606L21.6491 29.0785ZM37.6263 0.0798859L36.1084 17.4151L35.3895 17.3352H34.6705H33.9515L33.2325 17.4151L32.5935 17.495L31.9544 17.6548L31.3153 17.8146L30.6762 17.9743L30.0371 18.214L29.398 18.4537L28.8388 18.6933L28.2796 19.0129L27.7204 19.3324L27.1612 19.6519L26.602 20.0514L26.1227 20.4508L25.6434 20.8502L25.1641 21.3295L24.7646 21.8089L24.3652 22.2882L23.9658 22.7675L23.6462 23.2468L23.3267 23.806L23.0071 24.3652L22.7675 24.9244L22.5278 25.4836L22.2882 26.0428L22.1284 26.602L21.9686 27.2411L21.8089 27.8802L21.729 28.5193L21.6491 29.1584L5.27247 27.6405L5.43225 26.0428L5.6719 24.525L5.99144 23.0072L6.39088 21.4893L6.87019 20.0514L7.42939 18.6134L8.06848 17.2554L8.70757 15.8973L9.42654 14.6191L10.2254 13.341L11.1041 12.1427L11.9829 11.0243L12.9415 9.90586L13.9002 8.86734L14.9387 7.82882L16.0571 6.87019L17.1755 5.99145L18.3738 5.19259L19.5721 4.39373L20.7703 3.67475L22.0485 3.03567L23.3267 2.39658L24.6848 1.83738L26.0428 1.35806L27.4009 0.958632L28.8388 0.639087L30.2768 0.399429L31.7147 0.239658L33.1527 0.0798859L34.6705 0H36.1883L37.7062 0.0798859H37.6263ZM86.1969 22.1284L36.1084 17.4151L37.6263 0.0798859L87.7147 4.79316L86.1969 22.1284ZM114.876 37.8659L98.4994 36.3481V35.709V35.0699V34.4308L98.4195 33.7918L98.3396 33.1527L98.2597 32.5136L98.0999 31.9544L97.9402 31.3952L97.7005 30.836L97.4608 30.2768L97.2212 29.7176L96.9016 29.1584L96.5821 28.5992L96.2626 28.04L95.8631 27.4808L95.4637 27.0014L95.0643 26.5221L94.5849 26.0428L94.1056 25.5635L93.6263 25.1641L93.147 24.7646L92.5878 24.3652L92.0286 24.0457L91.4694 23.7261L90.9102 23.4066L90.2711 23.1669L89.632 22.9273L88.9929 22.6876L88.3538 22.5278L87.7147 22.3681L86.9958 22.2882L86.2768 22.2083L87.7946 4.87304L89.3125 5.03282L90.7504 5.27247L92.1884 5.59202L93.6263 5.99145L94.9844 6.47076L96.3424 7.02996L97.7005 7.58916L98.9787 8.22825L100.257 8.94723L101.455 9.74608L102.653 10.5449L103.772 11.4237L104.89 12.3823L105.929 13.341L106.967 14.3795L107.926 15.4979L108.805 16.6163L109.683 17.8146L110.482 19.0129L111.201 20.291L111.92 21.5692L112.559 22.9273L113.118 24.2853L113.598 25.7233L113.997 27.1612L114.397 28.5992L114.716 30.117L114.956 31.6348L115.116 33.1527L115.196 34.6705V36.2682L115.116 37.8659H114.876ZM93.7062 91.4694L98.4195 36.3481L114.796 37.8659L110.083 92.9872L93.7062 91.4694ZM77.729 120.468L79.2468 103.133L79.9658 103.213H80.6848H81.4038L82.1227 103.133L82.7618 103.053L83.4009 102.893L84.04 102.733L84.6791 102.574L85.3182 102.334L85.9573 102.094L86.5165 101.855L87.0757 101.535L87.6349 101.215L88.1941 100.896L88.7533 100.497L89.2326 100.097L89.7119 99.6977L90.1912 99.2183L90.5906 98.739L90.9901 98.2597L91.3895 97.7804L91.709 97.3011L92.0286 96.7419L92.3481 96.1827L92.5878 95.6235L92.8275 95.0643L93.0671 94.5051L93.2269 93.9459L93.3867 93.3068L93.5464 92.6677L93.6263 92.0286L93.7062 91.3895L110.083 92.9073L109.923 94.5051L109.683 96.0229L109.364 97.5407L108.964 99.0586L108.485 100.497L107.926 101.934L107.287 103.293L106.648 104.651L105.929 105.929L105.13 107.207L104.251 108.405L103.372 109.524L102.414 110.642L101.455 111.681L100.417 112.719L99.2982 113.678L98.1798 114.556L96.9815 115.355L95.7832 116.154L94.5849 116.873L93.3068 117.512L92.0286 118.071L90.6705 118.631L89.3125 119.11L87.9544 119.509L86.5165 119.829L85.0785 120.069L83.6406 120.228L82.2026 120.388L80.6848 120.468H79.167L77.6491 120.388L77.729 120.468ZM29.1584 98.4195L79.2468 103.133L77.729 120.468L27.6405 115.755L29.1584 98.4195ZM0.479319 82.682L16.8559 84.1998V84.8389V85.478V86.117L16.9358 86.7561L17.0157 87.3952L17.0956 88.0343L17.2554 88.6734L17.4151 89.2326L17.6548 89.7918L17.8944 90.351L18.1341 90.9102L18.4537 91.4694L18.7732 92.0286L19.0927 92.5878L19.4922 93.0671L19.8916 93.5464L20.291 94.0258L20.7703 94.5051L21.2497 94.9844L21.729 95.3838L22.2083 95.7832L22.7675 96.1827L23.3267 96.5022L23.8859 96.8218L24.4451 97.1413L25.0842 97.381L25.7233 97.6206L26.3624 97.8603L27.0014 98.0201L27.6405 98.1798L28.3595 98.2597L29.0785 98.3396L27.5606 115.675L26.0428 115.515L24.525 115.275L23.087 114.956L21.6491 114.556L20.2111 114.077L18.8531 113.518L17.495 112.959L16.2168 112.32L14.9387 111.601L13.7404 110.802L12.5421 110.003L11.4237 109.124L10.3053 108.166L9.26677 107.207L8.22826 106.168L7.26962 105.05L6.39088 103.932L5.51213 102.733L4.71327 101.535L3.9943 100.257L3.27532 98.9787L2.63624 97.6206L2.07704 96.2626L1.59772 94.8246L1.19829 93.3867L0.798862 91.9487L0.479319 90.4309L0.239663 88.9131L0.0798878 87.3952L0 85.8774V84.2797L0.0798878 82.682H0.479319Z" fill="#FEFEFE"/>
<path fill-rule="evenodd" clip-rule="evenodd" d="M8.70768 83.4001L13.4209 28.2789C14.4595 16.3758 25.0044 7.5884 36.8275 8.7068L86.916 13.4201C98.819 14.5385 107.686 25.1633 106.648 37.0663L101.935 92.1876C100.896 104.091 90.3511 112.878 78.528 111.76L28.4395 107.046C16.5365 105.928 7.66916 95.3031 8.70768 83.4001Z" fill="#2AB8CE"/>
<path d="M89.1532 42.2598C99.1389 59.675 93.0676 81.8832 75.5726 91.869C58.1574 101.855 35.9491 95.7834 25.9634 78.2884C15.9777 60.8732 22.049 38.665 39.544 28.6792C56.9591 18.6935 79.1674 24.7648 89.1532 42.2598Z" fill="#A6C25A"/>
<path d="M89.1532 42.2598C99.1389 59.675 93.0676 81.8832 75.5726 91.869C58.1574 101.855 35.9491 95.7834 25.9634 78.2884C15.9777 60.8732 22.049 38.665 39.544 28.6792C56.9591 18.6935 79.1674 24.7648 89.1532 42.2598Z" fill="#F9B340"/>
<path d="M79.2472 35.7098C72.4569 27.0821 57.3585 23.9666 45.6153 28.7597C33.872 33.5529 29.8777 44.4174 36.668 53.0451C43.4583 61.6727 58.5568 64.7883 70.3 59.9951C82.0432 55.202 86.0375 44.3375 79.2472 35.7098Z" fill="#FDCC5C"/>
<path d="M83.0815 56.7199C82.2827 58.8769 78.528 56.1607 73.4153 54.1636C68.3026 52.1664 63.6693 51.6871 64.4681 49.6101C65.267 47.4532 70.14 47.3733 75.2527 49.3704C80.3654 51.3676 83.8804 54.6429 83.0815 56.7998V56.7199Z" fill="#F9B340"/>
<path d="M32.354 52.007C33.073 54.1639 36.9075 51.6874 42.18 50.0098C47.4524 48.3322 52.0059 48.0926 51.3668 45.9356C50.6479 43.7787 45.8547 43.3793 40.5822 45.0569C35.3098 46.7345 31.635 49.85 32.354 52.007Z" fill="#F9B340"/>
<path d="M74.3741 72.5381C58.7164 81.4854 38.8248 76.0531 29.8776 60.3955C28.2 57.3598 27.0017 54.2443 26.2827 51.0488C23.8063 59.2771 24.6051 68.464 29.2385 76.5324C38.1857 92.1901 58.0773 97.6223 73.735 88.6751C86.3569 81.4854 92.3484 67.1059 89.4725 53.5253C87.1558 61.2742 81.9632 68.2243 74.3741 72.5381Z" fill="#F4993D"/>
<path d="M73.096 83.0819C58.2372 91.5498 39.2244 86.3572 30.7564 71.4984C28.28 67.1047 26.9219 62.3115 26.6823 57.4385C26.1231 63.7495 27.4012 70.0605 30.6766 75.6525C39.1445 90.5113 58.1573 95.7038 73.0161 87.2359C83.0018 81.564 88.8335 71.099 88.6737 59.9149C88.5939 59.9948 88.5939 60.0747 88.514 60.1546C87.3157 69.5811 81.7237 78.1289 73.096 83.0819Z" fill="#F18A2C"/>
<path d="M89.1528 42.2594C79.167 24.8443 56.9587 18.773 39.5436 28.6788C22.1285 38.6646 16.0571 60.8728 25.963 78.288C35.9487 95.7031 58.157 101.774 75.5722 91.8686C92.9873 81.8829 99.0586 59.6746 89.1528 42.2594Z" stroke="#26262F" stroke-width="0.935069" stroke-miterlimit="10"/>
<path fill-rule="evenodd" clip-rule="evenodd" d="M66.0659 63.1897C62.3113 62.5506 63.1102 57.358 67.2642 57.8374C72.8563 58.4764 81.7236 63.2696 80.9247 65.2667C80.2058 66.9443 74.7735 63.7489 66.0659 63.2696V63.1897Z" fill="#26262F"/>
<path fill-rule="evenodd" clip-rule="evenodd" d="M48.9707 62.7097C52.7253 62.3103 52.246 57.0378 48.092 57.2775C42.4999 57.597 33.3929 61.9108 34.1119 63.908C34.751 65.5856 40.343 62.7097 49.0506 62.7097H48.9707Z" fill="#26262F"/>
<path d="M66.3853 80.7661C70.6991 85.2398 74.1342 96.983 81.244 92.6692C88.274 88.3553 76.9302 74.6948 76.9302 74.6948C76.9302 74.6948 74.294 78.6092 66.3853 80.7661Z" fill="#EB5991"/>
<path d="M81.6437 85.7187C81.0845 86.1182 79.9662 84.6003 78.7679 82.6831C77.5696 80.8457 76.6908 79.3279 77.3299 78.9284C77.8891 78.529 78.9276 79.7273 80.1259 81.5647C81.3242 83.4021 82.2828 85.2394 81.7236 85.6389L81.6437 85.7187Z" fill="#EE7FB0"/>
<path d="M77.8888 75.8125C77.3296 75.0137 76.9302 74.6143 76.9302 74.6143C76.9302 74.6143 74.294 78.5287 66.3853 80.6856C70.6991 85.1592 74.1342 96.9024 81.244 92.5886C82.7619 91.63 83.4809 90.192 83.5607 88.5943C82.2027 92.6685 76.1313 92.9081 74.1342 89.1535C71.8974 85.0793 69.8204 81.8839 69.8204 81.8839C74.6934 79.4074 76.9302 77.1706 77.8888 75.8125Z" fill="#DB3870"/>
<path d="M72.8567 77.8885C73.4958 78.5276 74.1348 79.1667 74.694 79.8856C75.2532 80.6046 75.7326 81.3236 76.2119 82.1224C76.6912 82.8414 77.0906 83.6403 77.4102 84.519C77.7297 85.3179 78.0493 86.1966 78.2889 86.9955C77.8895 86.1966 77.49 85.3978 77.0107 84.6788C76.7711 84.2794 76.5314 83.9598 76.2918 83.5604C76.2119 83.4006 76.0521 83.2408 75.8923 83.0012C75.8124 82.8414 75.6527 82.6816 75.4929 82.442C75.0136 81.723 74.4544 81.0839 73.8952 80.4448C73.336 79.8057 72.6969 79.1667 72.1377 78.6075L72.8567 77.8086V77.8885Z" fill="#26262F"/>
<path d="M66.3853 80.7661C70.6991 85.2398 74.1342 96.983 81.244 92.6692C88.274 88.3553 76.9302 74.6948 76.9302 74.6948C76.9302 74.6948 74.294 78.6092 66.3853 80.7661Z" stroke="#26262F" stroke-width="0.935069" stroke-miterlimit="10"/>
<path d="M34.9902 69.6611C42.2599 81.2446 58.3169 85.2389 70.9389 78.6882C74.7734 76.6911 77.8091 73.975 80.0459 70.8594" stroke="#26262F" stroke-width="1.15085" stroke-miterlimit="10" stroke-linecap="round"/>
<path d="M75.972 72.5365C75.972 72.5365 78.6082 70.5393 82.4427 71.6577C82.4427 71.6577 84.0405 69.4209 82.1232 68.1428C79.9663 66.6249 75.972 69.3411 75.8921 72.5365H75.972Z" fill="#F4993D"/>
<path d="M75.972 72.5377C76.2915 72.0584 76.8507 71.6589 77.33 71.4193C77.8892 71.0997 78.4484 70.94 79.0076 70.8601C79.6467 70.7802 80.2059 70.7802 80.845 70.94C81.4042 71.0997 81.9634 71.3394 82.4427 71.7388C81.8036 71.7388 81.3243 71.659 80.7651 71.7388C80.2059 71.7388 79.7266 71.8187 79.1674 71.8986C78.6082 71.9785 78.1289 72.0584 77.5697 72.2182L75.8921 72.6176L75.972 72.5377Z" fill="#26262F"/>
<path d="M38.984 71.4971C38.984 71.4971 36.4277 69.3402 32.5133 70.2988C32.5133 70.2988 31.0753 67.9822 32.9926 66.7839C35.2294 65.4258 39.0639 68.3816 38.9041 71.4971H38.984Z" fill="#F4993D"/>
<path d="M38.9846 71.4971L37.3869 71.0178C36.8277 70.858 36.3484 70.6982 35.8691 70.6183C35.3898 70.4586 34.8306 70.4586 34.2714 70.3787C33.7122 70.2988 33.2328 70.3787 32.5938 70.2988C33.0731 69.9792 33.6323 69.6597 34.2714 69.5798C34.9104 69.4999 35.4696 69.4999 36.1087 69.6597C36.6679 69.8195 37.307 69.9792 37.7863 70.2988C38.2657 70.6183 38.745 71.0178 39.0645 71.4971H38.9846Z" fill="#26262F"/>
<path d="M83.1616 54.403C82.3628 56.56 78.6081 53.8438 73.4954 51.8467C68.3827 49.8495 63.7493 49.3702 64.5482 47.2932C65.3471 45.1363 70.2201 45.0564 75.3328 47.0535C80.4455 49.0507 83.9605 52.326 83.1616 54.4829V54.403Z" fill="#A0623A"/>
<path d="M73.4948 50.1682C69.5005 48.6504 65.9056 48.0113 64.7872 46.813C64.7073 46.9728 64.5475 47.1325 64.5475 47.2923C63.7487 49.4492 68.3022 49.9285 73.4948 51.8458C78.6075 53.843 82.3621 56.5591 83.161 54.4022C83.3207 53.9228 83.3207 53.4435 83.0811 52.8843C82.1224 54.6418 78.4477 52.0056 73.4948 50.0883V50.1682Z" fill="#58362D"/>
<path d="M83.1616 54.403C82.3628 56.56 78.6081 53.8438 73.4954 51.8467C68.3827 49.8495 63.7493 49.3702 64.5482 47.2932C65.3471 45.1363 70.2201 45.0564 75.3328 47.0535C80.4455 49.0507 83.9605 52.326 83.1616 54.4829V54.403Z" stroke="#26262F" stroke-width="0.935069" stroke-miterlimit="10"/>
<path d="M32.4336 49.6896C33.1526 51.8465 36.9871 49.37 42.2595 47.6924C47.532 46.0148 52.0855 45.7752 51.4464 43.6183C50.7275 41.4613 45.9343 41.0619 40.6618 42.7395C35.3894 44.4171 31.7146 47.5327 32.4336 49.6896Z" fill="#A0623A"/>
<path d="M42.2595 45.9355C46.3337 44.6573 50.0084 44.178 51.1268 43.0596C51.2067 43.2193 51.2866 43.3791 51.3665 43.5389C52.0855 45.6958 47.4521 45.9355 42.1796 47.6131C36.9071 49.2907 33.0726 51.7671 32.3536 49.6102C32.1939 49.1309 32.2737 48.6516 32.5134 48.0924C33.3922 49.8499 37.2267 47.5332 42.2595 45.8556V45.9355Z" fill="#58362D"/>
<path d="M32.4336 49.6896C33.1526 51.8465 36.9871 49.37 42.2595 47.6924C47.532 46.0148 52.0855 45.7752 51.4464 43.6183C50.7275 41.4613 45.9343 41.0619 40.6618 42.7395C35.3894 44.4171 31.7146 47.5327 32.4336 49.6896Z" stroke="#26262F" stroke-width="0.935069" stroke-miterlimit="10"/>
<path d="M64.7876 64.308C64.7876 64.308 72.3768 65.1069 78.2084 66.9443C78.2084 66.9443 72.5365 63.4293 64.7876 64.308Z" fill="#F4993D"/>
<path d="M36.5879 65.826C42.4994 64.3082 50.0886 63.9087 50.0886 63.9087C42.4196 62.6306 36.5879 65.826 36.5879 65.826Z" fill="#F4993D"/>
<path d="M66.1455 56.3995C71.2582 55.7604 80.7646 60.8731 80.7646 60.8731L81.7233 58.8759C81.7233 58.8759 70.4593 53.923 66.1455 56.3995Z" fill="#F9B340"/>
<path d="M33.4722 57.5978L34.3509 59.5949C34.3509 59.5949 44.097 54.9615 49.2097 55.9202C45.0556 53.2839 33.4722 57.5978 33.4722 57.5978Z" fill="#F9B340"/>
<path d="M67.1841 65.3465C67.9031 65.3465 68.622 65.4264 69.2611 65.5063C69.9801 65.5861 70.6192 65.7459 71.3382 65.9057C72.0571 66.0655 72.6962 66.2252 73.3353 66.4649C73.9744 66.7045 74.6934 66.8643 75.3325 67.1839C74.6135 67.1839 73.8945 67.104 73.2554 66.9442C72.5364 66.8643 71.8974 66.7045 71.1784 66.5448C70.4594 66.385 69.8203 66.2252 69.1812 65.9856C68.5421 65.7459 67.8232 65.5861 67.1841 65.2666V65.3465Z" fill="#26262F"/>
<path d="M47.6926 64.7871C47.0535 65.0268 46.3345 65.2664 45.6954 65.4262C44.9765 65.586 44.3374 65.7457 43.6184 65.8256C42.8994 65.9055 42.2604 66.0653 41.5414 66.0653C40.8224 66.1452 40.1833 66.1452 39.4644 66.1452C40.1034 65.9055 40.8224 65.7457 41.4615 65.586C42.1006 65.4262 42.8196 65.2664 43.5385 65.1865C44.2575 65.1067 44.8966 64.9469 45.6156 64.867C46.3346 64.7871 46.9736 64.7871 47.6926 64.7871Z" fill="#26262F"/>
</svg>
