<svg width="426" height="318" viewBox="0 0 426 318" fill="none" xmlns="http://www.w3.org/2000/svg">
<path d="M379.385 268.264C374.41 258.411 368.926 248.303 362.835 239.12L364.398 237.94C371.668 247.378 379.735 256.498 388.409 264.597C385.029 264.98 381.808 266.192 379.385 268.232V268.264Z" fill="#FEFEFE"/>
<path d="M390.991 264.502C382.637 254.873 374.251 245.338 366.024 235.581L366.598 235.103C366.662 235.23 366.789 235.326 366.917 235.422C374.506 241.066 382.095 246.869 390.066 251.971C387.26 255.606 388.408 261.09 391.246 264.502H390.959H390.991Z" fill="#FEFEFE"/>
<path d="M389.365 286.122C389.811 285.771 390.226 285.389 390.64 284.91C391.597 283.762 390.353 282.136 388.982 282.87C382.732 286.186 376.61 280.893 379.129 274.165C381.457 268.01 388.504 266.289 394.435 266.48C395.36 266.512 395.551 265.013 394.594 264.854C394.275 264.822 393.957 264.758 393.67 264.726C393.797 264.407 393.861 263.993 393.67 263.642C392.267 260.804 390.29 257.871 391.82 254.618C393.032 252.003 396.986 251.079 398.197 253.853C398.197 254.012 398.197 254.172 398.229 254.331C398.453 256.149 401.131 256.181 401.163 254.235C401.131 247.539 407.19 241.991 413.822 245.403C416.66 246.838 418.541 249.58 418.637 252.801C418.669 254.267 418.35 255.798 417.712 257.137C417.521 257.52 416.692 258.987 415.703 260.007C414.779 260.134 413.854 260.326 412.961 260.581C412.642 260.549 412.355 260.645 412.132 260.836C411.973 260.9 411.813 260.932 411.654 260.995C409.804 261.633 410.601 264.407 412.515 263.929C416.373 263.004 420.072 262.717 422.24 266.799C423.866 269.86 422.686 274.26 420.869 276.971C417.106 282.583 410.187 282.87 404.575 280.064C404.383 279.968 404.16 279.968 403.969 280C402.662 279.362 401.099 281.275 402.279 282.615C406.584 287.589 405.053 296.23 398.357 298.175C395.742 298.941 392.713 298.59 390.353 297.219C386.75 295.146 384.518 289.279 388.982 286.696C389.237 286.537 389.333 286.345 389.365 286.122Z" fill="#FEFEFE"/>
<path d="M388.982 286.696C384.518 289.279 386.75 295.146 390.353 297.218C392.713 298.558 395.742 298.908 398.357 298.175C405.053 296.23 406.584 287.589 402.279 282.614C401.131 281.275 402.694 279.362 403.969 280C404.16 279.936 404.384 279.968 404.575 280.063C410.187 282.838 417.074 282.582 420.869 276.97C422.686 274.292 423.866 269.892 422.24 266.799C420.072 262.717 416.373 263.004 412.515 263.929C410.601 264.407 409.804 261.633 411.654 260.995C411.813 260.931 411.973 260.9 412.132 260.836C412.355 260.644 412.642 260.549 412.961 260.581C413.854 260.326 414.779 260.102 415.703 260.007C416.692 258.986 417.521 257.52 417.712 257.137C418.35 255.798 418.669 254.267 418.637 252.8C418.573 249.612 416.66 246.838 413.822 245.403C407.158 242.023 401.131 247.539 401.163 254.235C401.163 256.148 398.484 256.148 398.229 254.331C398.198 254.171 398.197 254.012 398.197 253.853C397.018 251.078 393.032 252.003 391.82 254.618C390.321 257.87 392.298 260.804 393.67 263.642C393.861 264.024 393.829 264.407 393.67 264.726C393.988 264.758 394.307 264.79 394.594 264.853C395.519 265.013 395.36 266.543 394.435 266.48C388.504 266.288 381.457 267.978 379.129 274.164C376.61 280.892 382.732 286.186 388.982 282.869C390.321 282.136 391.565 283.762 390.64 284.91C390.258 285.388 389.811 285.803 389.365 286.122C389.333 286.345 389.237 286.536 388.982 286.696ZM406.36 283.316C410.123 291.128 405.723 301.332 395.902 301.555C391.214 301.683 386.144 299.291 384.454 294.667C383.593 292.34 383.689 289.534 384.933 287.525C380.15 287.365 375.303 282.551 375.271 277.544C375.239 274.164 376.355 271.454 378.173 269.413L379.384 268.202C381.808 266.161 385.028 264.949 388.408 264.566C379.735 256.435 371.668 247.348 364.398 237.909C363.441 236.634 362.484 235.39 361.56 234.147C360.699 232.999 362.612 231.468 363.505 232.552C364.334 233.541 365.163 234.529 365.992 235.518C374.219 245.243 382.637 254.777 390.959 264.439H391.246C388.408 261.027 387.26 255.543 390.066 251.908L391.246 250.473L391.374 250.568C393.478 248.974 396.348 249.038 398.325 250.441C400.111 241.895 411.813 238.132 418.35 245.084C421.666 248.591 422.112 254.012 419.912 258.221C419.657 258.699 419.275 259.273 418.796 259.879C420.582 260.166 422.24 260.931 423.547 262.558C426.481 266.129 426.481 271.645 424.823 275.759C421.857 283.125 413.216 286.409 406.297 283.252L406.36 283.316Z" fill="#2B2B2B"/>
<path d="M408.561 259.017C408.21 259.368 407.955 259.241 407.636 259.56C407.508 259.336 407.7 259.049 407.508 258.858C407.7 258.667 407.891 258.475 408.082 258.252C408.274 258.444 408.497 258.635 408.688 258.826C408.656 258.89 408.592 258.922 408.561 258.986V259.017Z" fill="#FEFEFE"/>
<path d="M386.846 265.714C386.814 265.746 386.814 265.746 386.782 265.746C386.559 265.778 386.687 265.427 386.782 265.299C386.814 265.267 386.814 265.267 386.846 265.267C387.069 265.236 386.942 265.586 386.846 265.714Z" fill="#5D5D5D"/>
<path d="M377.694 274.324C377.662 274.388 377.567 274.388 377.471 274.452C377.375 274.484 377.248 274.547 377.152 274.643L377.12 274.675C377.025 274.516 377.12 274.324 377.248 274.197C377.375 274.037 377.599 273.973 377.694 274.069C377.758 274.197 377.758 274.26 377.694 274.324Z" fill="#5D5D5D"/>
<path d="M382.095 269.349C381.808 269.668 381.393 269.764 381.011 269.318C381.043 269.062 381.138 268.903 381.234 268.807C381.33 268.712 381.457 268.648 381.617 268.552C381.776 268.457 381.967 268.361 382.191 268.138C382.286 268.042 382.35 267.946 382.446 267.819C382.701 268.17 382.509 268.935 382.127 269.349H382.095Z" fill="#5D5D5D"/>
<path d="M385.857 265.108C385.634 265.172 385.411 265.235 385.187 265.299C385.06 265.204 384.932 265.076 384.773 264.98C385.028 264.789 385.251 264.885 385.538 264.598C385.666 264.725 385.825 264.853 385.953 264.98C385.921 265.044 385.889 265.076 385.857 265.108Z" fill="#FEFEFE"/>
<path d="M385.793 265.14C385.538 265.395 385.347 265.363 385.156 265.268C385.379 265.204 385.602 265.14 385.825 265.076C385.825 265.108 385.793 265.108 385.793 265.14Z" fill="#5D5D5D"/>
<path d="M46.6152 284.113C51.5895 274.26 57.074 264.151 63.1644 254.968L61.6019 253.788C54.3318 263.227 46.2645 272.346 37.5913 280.446C40.9713 280.828 44.1918 282.04 46.6152 284.081V284.113Z" fill="#FEFEFE"/>
<path d="M35.0085 280.318C43.3628 270.688 51.749 261.154 59.9757 251.397L59.4018 250.918C59.338 251.046 59.2105 251.141 59.0829 251.237C51.4939 256.881 43.9049 262.684 35.9332 267.786C38.7392 271.421 37.5913 276.906 34.7534 280.318H35.0404H35.0085Z" fill="#FEFEFE"/>
<path d="M36.6346 301.937C36.1882 301.586 35.7737 301.203 35.3591 300.725C34.4025 299.577 35.6461 297.951 37.0172 298.684C43.267 302.001 49.3892 296.707 46.8702 289.979C44.5425 283.825 37.4955 282.103 31.5646 282.295C30.6399 282.327 30.4486 280.828 31.4052 280.668C31.7241 280.637 32.0429 280.573 32.3299 280.541C32.2024 280.222 32.1386 279.807 32.3299 279.457C33.7329 276.619 35.7099 273.685 34.1793 270.433C32.9676 267.818 29.0137 266.893 27.802 269.668C27.802 269.827 27.802 269.986 27.7701 270.146C27.5469 271.963 24.8684 271.995 24.8365 270.05C24.8684 263.354 18.81 257.806 12.1775 261.218C9.33963 262.652 7.45832 265.395 7.36266 268.615C7.33077 270.082 7.64964 271.613 8.28737 272.952C8.47869 273.334 9.30775 274.801 10.2962 275.822C11.2209 275.949 12.1457 276.141 13.0385 276.396C13.3573 276.364 13.6443 276.459 13.8675 276.651C14.027 276.714 14.1864 276.746 14.3458 276.81C16.1953 277.448 15.3981 280.222 13.4849 279.744C9.62661 278.819 5.92776 278.532 3.75947 282.613C2.13325 285.675 3.31306 290.075 5.1306 292.785C8.89322 298.397 15.8126 298.684 21.4247 295.878C21.616 295.783 21.8392 295.783 22.0305 295.815C23.3379 295.177 24.9003 297.09 23.7205 298.429C19.4158 303.404 20.9464 312.045 27.6426 313.99C30.2573 314.755 33.2865 314.404 35.6461 313.033C39.2493 310.961 41.4814 305.094 37.0172 302.511C36.7621 302.351 36.6665 302.16 36.6346 301.937Z" fill="#FEFEFE"/>
<path d="M37.0175 302.511C41.4816 305.094 39.2495 310.961 35.6463 313.033C33.2867 314.373 30.2575 314.723 27.6428 313.99C20.9466 312.045 19.416 303.404 23.7207 298.429C24.8687 297.09 23.3062 295.177 22.0307 295.815C21.8394 295.751 21.6162 295.783 21.4249 295.878C15.8128 298.653 8.92534 298.398 5.13083 292.785C3.31329 290.107 2.13348 285.707 3.7597 282.614C5.92799 278.532 9.62684 278.819 13.4851 279.744C15.3983 280.222 16.1955 277.448 14.3461 276.81C14.1866 276.746 14.0272 276.715 13.8678 276.651C13.6446 276.459 13.3576 276.364 13.0387 276.396C12.1459 276.141 11.2212 275.917 10.2965 275.822C9.30797 274.801 8.47892 273.335 8.2876 272.952C7.64987 271.613 7.331 270.082 7.36289 268.615C7.42666 265.427 9.33986 262.653 12.1778 261.218C18.8421 257.838 24.8687 263.354 24.8368 270.05C24.8368 271.963 27.5152 271.963 27.7703 270.146C27.8022 269.987 27.8022 269.827 27.8022 269.668C28.982 266.894 32.9679 267.818 34.1796 270.433C35.6782 273.685 33.7331 276.619 32.3301 279.457C32.1388 279.839 32.1707 280.222 32.3301 280.541C32.0113 280.573 31.6924 280.605 31.4054 280.669C30.4807 280.828 30.6401 282.359 31.5648 282.295C37.4958 282.103 44.5427 283.793 46.8704 289.979C49.3895 296.708 43.2672 302.001 37.0175 298.684C35.6782 297.951 34.4346 299.577 35.3594 300.725C35.742 301.204 36.1884 301.618 36.6348 301.937C36.6667 302.16 36.7624 302.351 37.0175 302.511ZM19.6392 299.131C15.8766 306.943 20.277 317.147 30.0981 317.37C34.7854 317.498 39.8554 315.106 41.5454 310.483C42.4063 308.155 42.3106 305.349 41.0671 303.372C45.8501 303.212 50.6968 298.398 50.7287 293.391C50.7606 290.011 49.6446 287.301 47.827 285.26L46.6153 284.049C44.192 282.008 40.9714 280.796 37.5914 280.413C46.2646 272.282 54.3319 263.195 61.6021 253.756C62.5587 252.481 63.5153 251.237 64.44 249.994C65.3009 248.846 63.3877 247.315 62.4949 248.399C61.6658 249.388 60.8368 250.376 60.0077 251.365C51.781 261.09 43.3629 270.624 35.0405 280.286H34.7535C37.5914 276.874 38.7393 271.39 35.9333 267.754L34.7535 266.32L34.626 266.415C32.5214 264.821 29.6517 264.885 27.6747 266.288C25.889 257.742 14.1866 253.979 7.64987 260.931C4.33366 264.438 3.88725 269.859 6.08743 274.068C6.34252 274.546 6.72516 275.12 7.20346 275.726C5.41781 276.013 3.7597 276.778 2.45235 278.405C-0.481222 281.976 -0.481222 287.492 1.17688 291.606C4.14234 298.971 12.7836 302.256 19.703 299.099L19.6392 299.131Z" fill="#2B2B2B"/>
<path d="M17.4391 274.833C17.7898 275.184 18.0449 275.056 18.3638 275.375C18.4913 275.152 18.3 274.865 18.4913 274.673C18.3 274.482 18.1087 274.291 17.9174 274.068C17.726 274.259 17.5028 274.45 17.3115 274.642C17.3434 274.705 17.4072 274.737 17.4391 274.801V274.833Z" fill="#FEFEFE"/>
<path d="M39.1538 281.529C39.1857 281.561 39.1857 281.561 39.2176 281.561C39.4408 281.593 39.3133 281.242 39.2176 281.115C39.1857 281.083 39.1857 281.083 39.1538 281.083C38.9306 281.051 39.0582 281.402 39.1538 281.529Z" fill="#5D5D5D"/>
<path d="M48.3052 290.138C48.337 290.202 48.4327 290.202 48.5284 290.266C48.624 290.298 48.7516 290.361 48.8472 290.457L48.8791 290.489C48.9748 290.33 48.8791 290.138 48.7516 290.011C48.624 289.851 48.4008 289.787 48.3052 289.883C48.2414 290.011 48.2414 290.074 48.3052 290.138Z" fill="#5D5D5D"/>
<path d="M43.9049 285.165C44.1919 285.484 44.6064 285.579 44.989 285.133C44.9572 284.878 44.8615 284.718 44.7658 284.623C44.6702 284.527 44.5426 284.463 44.3832 284.368C44.2238 284.272 44.0324 284.176 43.8092 283.953C43.7136 283.857 43.6498 283.762 43.5541 283.634C43.299 283.985 43.4904 284.75 43.873 285.165H43.9049Z" fill="#5D5D5D"/>
<path d="M40.1743 280.923C40.3975 280.987 40.6207 281.051 40.8439 281.115C40.9714 281.019 41.099 280.891 41.2584 280.796C41.0033 280.604 40.7801 280.7 40.4931 280.413C40.3656 280.541 40.2062 280.668 40.0786 280.796C40.1105 280.86 40.1424 280.891 40.1743 280.923Z" fill="#FEFEFE"/>
<path d="M40.2062 280.987C40.4613 281.242 40.6526 281.21 40.8439 281.115C40.6207 281.051 40.3975 280.987 40.1743 280.923C40.1743 280.955 40.2062 280.955 40.2062 280.987Z" fill="#5D5D5D"/>
<path d="M379.862 36.5769C376.769 47.1633 373.23 58.1004 368.925 68.2403L370.679 69.1013C376.1 58.483 382.35 48.0561 389.397 38.4901C386.017 38.7452 382.637 38.1393 379.862 36.5769Z" fill="#FEFEFE"/>
<path d="M391.979 38.1381C385.538 49.139 379.033 60.0442 372.72 71.1408L373.389 71.5234C373.453 71.3958 373.549 71.2683 373.644 71.1408C380.054 64.2214 386.463 57.1106 393.382 50.6376C389.97 47.5765 390.098 41.9964 392.266 38.1062L391.979 38.1381Z" fill="#FEFEFE"/>
<path d="M386.431 17.1889C386.942 17.444 387.42 17.7628 387.898 18.1455C389.046 19.1021 388.121 20.9196 386.655 20.4413C379.895 18.3368 374.856 24.6503 378.587 30.8045C381.999 36.4484 389.237 36.831 395.041 35.5556C395.965 35.3324 396.412 36.7992 395.519 37.1499C395.232 37.2456 394.913 37.3412 394.626 37.4369C394.817 37.7239 394.945 38.1065 394.817 38.4891C393.957 41.5184 392.554 44.7708 394.626 47.7044C396.284 50.064 400.366 50.2553 401.035 47.2899C401.035 47.1304 400.972 46.971 400.972 46.8116C400.876 44.9621 403.491 44.4519 403.873 46.3651C405.085 52.9657 412.036 57.3023 417.935 52.7425C420.454 50.8293 421.825 47.7682 421.315 44.6114C421.092 43.1765 420.486 41.7097 419.625 40.5299C419.37 40.1791 418.286 38.9037 417.138 38.0746C416.213 38.1384 415.257 38.1065 414.332 38.0108C414.045 38.1065 413.726 38.0746 413.471 37.9152C413.312 37.8833 413.152 37.8833 412.993 37.8514C411.048 37.5325 411.335 34.6946 413.312 34.8222C417.266 35.0135 420.965 34.6309 422.336 30.2305C423.356 26.9143 421.411 22.8009 419.147 20.5051C414.428 15.6902 407.572 16.6787 402.566 20.4413C402.407 20.5689 402.183 20.6326 401.992 20.6007C400.844 21.4617 398.931 19.8673 399.856 18.3368C403.172 12.661 400.111 4.4661 393.159 3.7646C390.449 3.5095 387.547 4.40233 385.475 6.1561C382.286 8.86646 381.202 15.0206 386.049 16.7425C386.336 16.8381 386.463 17.0294 386.527 17.2208L386.431 17.1889Z" fill="#FEFEFE"/>
<path d="M385.953 16.711C381.106 14.9891 382.19 8.80313 385.379 6.12465C387.452 4.37089 390.353 3.47806 393.064 3.73315C400.015 4.43466 403.076 12.6614 399.76 18.3053C398.867 19.8359 400.748 21.4302 401.896 20.5693C402.088 20.5693 402.311 20.5374 402.47 20.4099C407.476 16.6472 414.3 15.6588 419.051 20.4736C421.315 22.7695 423.292 26.8829 422.24 30.1991C420.869 34.5994 417.17 34.9821 413.216 34.7907C411.239 34.6632 410.984 37.533 412.897 37.82C413.057 37.8519 413.216 37.8519 413.375 37.8837C413.63 38.0113 413.949 38.0751 414.236 37.9794C415.161 38.0751 416.118 38.1069 417.042 38.0432C418.19 38.8722 419.274 40.1477 419.53 40.4984C420.39 41.6782 420.996 43.145 421.22 44.5799C421.73 47.7367 420.39 50.7978 417.839 52.711C411.909 57.2708 404.989 52.9342 403.778 46.3337C403.427 44.4524 400.78 44.9626 400.876 46.7801C400.876 46.9395 400.908 47.099 400.94 47.2584C400.27 50.192 396.22 50.0325 394.53 47.6729C392.458 44.7713 393.861 41.5188 394.722 38.4577C394.849 38.0751 394.722 37.6924 394.53 37.4054C394.817 37.3098 395.136 37.2141 395.423 37.1185C396.316 36.7677 395.87 35.3328 394.945 35.5241C389.173 36.7996 381.903 36.417 378.491 30.773C374.793 24.6189 379.831 18.2735 386.559 20.4099C388.026 20.8882 388.95 19.0706 387.802 18.114C387.324 17.7314 386.846 17.3806 386.336 17.1574C386.272 16.9661 386.144 16.7429 385.857 16.6791L385.953 16.711ZM403.65 16.8386C405.914 8.45237 399.728 -0.762862 390.034 0.799583C385.411 1.53298 380.883 4.8173 380.022 9.66407C379.607 12.1193 380.213 14.8616 381.808 16.5835C377.152 17.6357 373.262 23.2478 374.123 28.1583C374.729 31.5064 376.323 33.9298 378.46 35.6198L379.863 36.5764C382.637 38.1388 386.017 38.7447 389.397 38.4896C382.35 48.0556 376.068 58.4825 370.679 69.1008C369.978 70.5038 369.276 71.9068 368.575 73.3098C367.969 74.6171 370.105 75.7332 370.807 74.4896C371.444 73.3736 372.082 72.2256 372.72 71.1096C379.033 60.045 385.538 49.1078 391.979 38.1069L392.266 38.0751C390.098 41.9333 389.971 47.5454 393.382 50.6065L394.817 51.7863L394.913 51.6588C397.273 52.8386 400.079 52.2327 401.769 50.5427C405.085 58.6101 417.266 60.1725 422.463 52.1371C425.078 48.0875 424.536 42.6667 421.602 38.936C421.283 38.5215 420.773 38.0113 420.199 37.533C421.921 36.9271 423.388 35.843 424.408 34.0255C426.64 29.9759 425.652 24.5551 423.26 20.8244C418.987 14.1282 409.9 12.502 403.682 16.8386H403.65Z" fill="#2B2B2B"/>
<path d="M410.25 40.3392C409.868 40.0522 409.613 40.2435 409.23 39.9565C409.166 40.1797 409.389 40.4348 409.23 40.658C409.453 40.8175 409.676 40.9769 409.9 41.1363C410.059 40.9131 410.219 40.6899 410.41 40.4348C410.346 40.3711 410.314 40.3392 410.25 40.3073V40.3392Z" fill="#FEFEFE"/>
<path d="M387.675 37.7243C387.643 37.6924 387.643 37.6924 387.611 37.6924C387.388 37.6924 387.579 38.0431 387.707 38.1388C387.739 38.1707 387.739 38.1707 387.77 38.1707C387.994 38.1707 387.802 37.8199 387.675 37.7243Z" fill="#5D5D5D"/>
<path d="M377.088 30.9329C377.025 30.901 376.929 30.8691 376.833 30.8691C376.738 30.8373 376.61 30.8054 376.482 30.7416L376.451 30.7097C376.387 30.8691 376.514 31.0286 376.642 31.1561C376.801 31.2837 377.025 31.3156 377.12 31.188C377.152 31.0605 377.12 30.9648 377.088 30.9329Z" fill="#5D5D5D"/>
<path d="M382.35 35.0134C381.999 34.7583 381.584 34.7265 381.297 35.2366C381.393 35.4917 381.489 35.6193 381.584 35.7149C381.712 35.8106 381.839 35.8425 381.999 35.8744C382.158 35.9382 382.382 36.0019 382.637 36.1932C382.732 36.257 382.828 36.3527 382.955 36.4483C383.147 36.0338 382.796 35.3323 382.35 35.0134Z" fill="#5D5D5D"/>
<path d="M386.814 38.5218C386.591 38.5218 386.336 38.4899 386.112 38.458C385.985 38.5537 385.889 38.7131 385.762 38.8406C386.049 39.0001 386.272 38.8406 386.591 39.0957C386.718 38.9363 386.814 38.7769 386.942 38.6174C386.91 38.5856 386.846 38.5218 386.814 38.4899V38.5218Z" fill="#FEFEFE"/>
<path d="M386.75 38.4575C386.463 38.2662 386.272 38.2981 386.112 38.4575C386.336 38.4894 386.559 38.4894 386.814 38.5213C386.782 38.5213 386.782 38.4894 386.75 38.4894V38.4575Z" fill="#5D5D5D"/>
<path d="M51.5258 38.3303C54.6188 48.9167 58.1582 59.8538 62.4629 69.9938L60.7092 70.8547C55.2884 60.2364 49.0386 49.8095 41.9917 40.2435C45.3717 40.4986 48.7517 39.8928 51.5258 38.3303Z" fill="#FEFEFE"/>
<path d="M39.4406 39.9235C45.8817 50.9244 52.3866 61.8296 58.7001 72.9262L58.0305 73.3088C57.9667 73.1813 57.8711 73.0537 57.7754 72.9262C51.3662 66.0068 44.957 58.896 38.0376 52.423C41.4495 49.3619 41.3219 43.7818 39.1536 39.8916L39.4406 39.9235Z" fill="#FEFEFE"/>
<path d="M44.9891 18.9735C44.479 19.2286 44.0007 19.5475 43.5224 19.9301C42.3744 20.8867 43.2992 22.7043 44.7659 22.226C51.5259 20.1215 56.564 26.435 52.8333 32.5891C49.4214 38.2331 42.1831 38.6157 36.3798 37.3402C35.455 37.117 35.0086 38.5838 35.9015 38.9346C36.1884 39.0302 36.5073 39.1259 36.7943 39.2216C36.603 39.5085 36.4754 39.8912 36.603 40.2738C37.4639 43.303 38.8669 46.5555 36.7943 49.489C35.1362 51.8487 31.0547 52.04 30.3851 49.0745C30.3851 48.9151 30.4488 48.7557 30.4488 48.5962C30.5445 46.7468 27.9298 46.2366 27.5472 48.1498C26.3355 54.7503 19.3842 59.0869 13.4852 54.5271C10.9661 52.6139 9.59498 49.5528 10.1052 46.396C10.3284 44.9611 10.9342 43.4944 11.7952 42.3146C12.0503 41.9638 13.1344 40.6883 14.2823 39.8593C15.207 39.9231 16.1636 39.8912 17.0883 39.7955C17.3753 39.8912 17.6942 39.8593 17.9493 39.6999C18.1087 39.668 18.2681 39.668 18.4276 39.6361C20.3727 39.3172 20.0857 36.4793 18.1087 36.6068C14.1548 36.7982 10.4559 36.4155 9.0848 32.0152C8.06442 28.699 10.0095 24.5856 12.2735 22.2897C16.9927 17.4749 23.8483 18.4634 28.8545 22.226C29.0139 22.3535 29.2371 22.4173 29.4285 22.3854C30.5764 23.2463 32.4896 21.652 31.5649 20.1215C28.2487 14.4456 31.3098 6.25077 38.2611 5.54927C40.9714 5.29417 43.8731 6.187 45.9457 7.94076C49.1344 10.6511 50.2186 16.8052 45.3718 18.5271C45.0848 18.6228 44.9573 18.8141 44.8935 19.0054L44.9891 18.9735Z" fill="#FEFEFE"/>
<path d="M45.4673 18.4644C50.3141 16.7426 49.2299 10.5565 46.0412 7.87807C43.9686 6.1243 41.0669 5.23148 38.3566 5.48657C31.4053 6.18808 28.3442 14.4148 31.6604 20.0588C32.5532 21.5893 30.6719 23.1837 29.524 22.3227C29.3326 22.3227 29.1094 22.2908 28.95 22.1633C23.9438 18.4007 17.1201 17.4122 12.369 22.2271C10.105 24.5229 8.12804 28.6363 9.1803 31.9525C10.5514 36.3528 14.2503 36.7355 18.2042 36.5442C20.1812 36.4166 20.4363 39.2864 18.5231 39.5734C18.3636 39.6053 18.2042 39.6053 18.0448 39.6372C17.7897 39.7647 17.4708 39.8285 17.1838 39.7328C16.2591 39.8285 15.3025 39.8604 14.3778 39.7966C13.2299 40.6256 12.1458 41.9011 11.8907 42.2519C11.0297 43.4317 10.4239 44.8985 10.2007 46.3334C9.69048 49.4901 11.0297 52.5512 13.5807 54.4644C19.5116 59.0242 26.431 54.6876 27.6427 48.0871C27.9934 46.2058 30.64 46.716 30.5443 48.5335C30.5443 48.693 30.5125 48.8524 30.4806 49.0118C31.1502 51.9454 35.1998 51.786 36.8898 49.4264C38.9624 46.5247 37.5594 43.2722 36.6985 40.2111C36.5709 39.8285 36.6985 39.4458 36.8898 39.1589C36.6028 39.0632 36.2839 38.9675 35.997 38.8719C35.1041 38.5211 35.5505 37.0862 36.4753 37.2775C42.2467 38.553 49.5169 38.1704 52.9288 32.5264C56.6276 26.3723 51.5895 20.0269 44.8614 22.1633C43.3947 22.6416 42.4699 20.824 43.6179 19.8674C44.0962 19.4848 44.5745 19.1341 45.0846 18.9108C45.1484 18.7195 45.276 18.4963 45.5629 18.4325L45.4673 18.4644ZM27.7702 18.592C25.5063 10.2058 31.6923 0.990556 41.3858 2.553C46.0094 3.28639 50.5373 6.57072 51.3982 11.4175C51.8127 13.8728 51.2069 16.615 49.6126 18.3369C54.268 19.3891 58.1582 25.0012 57.2972 29.9117C56.6914 33.2598 55.0971 35.6832 52.9606 37.3732L51.5576 38.3298C48.7835 39.8923 45.4035 40.4981 42.0235 40.243C49.0705 49.809 55.3521 60.2359 60.741 70.8542C61.4425 72.2572 62.144 73.6602 62.8455 75.0632C63.4513 76.3706 61.3149 77.4866 60.6134 76.243C59.9757 75.127 59.338 73.9791 58.7002 72.863C52.3867 61.7984 45.8818 50.8613 39.4407 39.8604L39.1537 39.8285C41.322 43.6868 41.4177 49.2988 38.0377 52.3599L36.6028 53.5397L36.5071 53.4122C34.1475 54.592 31.3415 53.9861 29.6515 52.2962C26.3353 60.3635 14.1546 61.9259 8.95709 53.8905C6.34238 49.8409 6.88446 44.4202 9.81803 40.6894C10.1369 40.2749 10.6471 39.7647 11.221 39.2864C9.49916 38.6806 8.03238 37.5964 7.012 35.7789C4.77994 31.7293 5.76842 26.3085 8.15992 22.5778C12.4327 15.8816 21.5204 14.2554 27.7383 18.592H27.7702Z" fill="#2B2B2B"/>
<path d="M21.1697 42.1239C21.5523 41.8369 21.8074 42.0282 22.1901 41.7412C22.2538 41.9644 22.0306 42.2195 22.1901 42.4427C21.9669 42.6021 21.7436 42.7616 21.5204 42.921C21.361 42.6978 21.2016 42.4746 21.0103 42.2195C21.074 42.1557 21.1059 42.1238 21.1697 42.092V42.1239Z" fill="#FEFEFE"/>
<path d="M43.7453 39.5097C43.7772 39.4778 43.7772 39.4778 43.8091 39.4778C44.0323 39.4778 43.8409 39.8285 43.7134 39.9242C43.6815 39.9561 43.6496 39.9561 43.6496 39.9561C43.4264 39.9561 43.6177 39.6053 43.7453 39.5097Z" fill="#5D5D5D"/>
<path d="M54.3 32.7183C54.3638 32.6864 54.4594 32.6546 54.5551 32.6546C54.6507 32.6227 54.7783 32.5908 54.9058 32.527L54.9377 32.4951C55.0015 32.6546 54.8739 32.814 54.7464 32.9415C54.587 33.0691 54.3638 33.101 54.2681 32.9734C54.2362 32.8459 54.2681 32.7502 54.3 32.7183Z" fill="#5D5D5D"/>
<path d="M49.0704 36.7991C49.4211 36.544 49.8357 36.5121 50.1227 37.0223C50.027 37.2774 49.9313 37.4049 49.8357 37.5006C49.7081 37.5962 49.5806 37.6281 49.4211 37.66C49.2617 37.7238 49.0385 37.7876 48.7834 37.9789C48.6878 38.0427 48.5921 38.1383 48.4645 38.234C48.2732 37.8195 48.624 37.1179 49.0704 36.7991Z" fill="#5D5D5D"/>
<path d="M44.6066 40.2752C44.8298 40.2752 45.0849 40.2433 45.3081 40.2114C45.4356 40.3071 45.5313 40.4665 45.6588 40.5941C45.3718 40.7535 45.1486 40.5941 44.8298 40.8492C44.7022 40.6897 44.6066 40.5303 44.479 40.3709C44.5109 40.339 44.5747 40.2752 44.6066 40.2433V40.2752Z" fill="#FEFEFE"/>
<path d="M44.6385 40.2429C44.9255 40.0516 45.1168 40.0835 45.2762 40.2429C45.053 40.2748 44.8298 40.2748 44.5747 40.3067C44.6066 40.3067 44.6066 40.2748 44.6385 40.2748V40.2429Z" fill="#5D5D5D"/>
<path fill-rule="evenodd" clip-rule="evenodd" d="M38.0695 56.0278C38.2289 55.9959 76.1102 47.1314 93.2014 56.5061L101.62 61.0978C103.915 62.3413 105.86 63.9357 107.263 65.9445C108.252 62.3732 109.272 58.8019 110.261 55.2306L111.09 55.0393C111.217 55.0074 147.186 46.8126 164.978 54.1465C165.01 54.1784 165.074 54.1784 165.106 54.2102C165.775 54.4972 166.413 54.7842 167.019 55.1031C167.083 55.135 167.147 55.1669 167.21 55.1987C167.242 55.1987 167.274 55.2306 167.306 55.2306L175.724 59.8223C180.284 62.3095 183.186 66.1677 183.154 71.8754L191.157 52.9348L191.922 52.8072L240.422 44.2297L248.84 48.8214L243.579 92.0916L255.154 60.0774L283.947 59.5034L292.365 64.0951L292.684 72.832L300.815 48.9171L335.349 49.204L343.767 53.7957L343.671 54.0827L366.725 52.1695L375.143 56.7612L372.911 62.5008L405.372 62.0225L413.79 66.6142L378.906 106.887L379.097 155.514L348.741 158.32L340.323 153.728L340.419 143.78L314.973 143.907L308.978 140.623C307.639 143.939 306.332 147.224 304.992 150.54L274.062 152.963L265.644 148.371L265.708 134.82L238.094 137.594L237.297 144.226L203.944 149.87L195.526 145.278L200.054 124.361L198.81 124.648L193.549 137.689L163.926 141.867L163.288 141.516L163.798 143.939L133.187 150.604L124.769 146.012L123.302 139.124L123.047 140.4L94.4769 146.458L86.0588 141.867C89.949 127.996 93.8392 114.093 97.7293 100.223C83.9224 114.38 62.8773 122.129 58.5407 123.627L54.3954 146.363L24.422 151.624L16.0039 147.032C23.1146 116.772 30.1935 86.5433 37.2723 56.2829L38.1332 56.0916L38.0695 56.0278ZM173.62 94.3555C168.326 100.605 161.726 105.675 156.337 109.055L160.036 126.433L173.62 94.3236V94.3555ZM135.706 83.8648C138.512 82.5575 141.159 80.9312 142.945 79.0499C140.266 79.6239 137.811 80.2935 136.631 80.6443L135.706 83.8967V83.8648ZM65.5238 87.9144L66.895 82.2067C67.9472 82.1111 69.7967 81.9835 71.7736 82.0792C71.4866 84.0243 68.8082 86.065 65.5238 87.8825V87.9144Z" fill="#071F53"/>
<path d="M99.8023 73.2463C104.585 41.9336 38.3887 57.3986 38.3887 57.3986L17.8218 145.246L44.766 140.527L48.8794 117.951C48.8794 117.951 95.402 103.124 99.8023 73.2782V73.2463ZM72.1566 79.1453C78.5977 86.3836 52.929 94.7379 52.929 94.7379L57.3293 76.3074C57.3293 76.3074 68.2664 74.7768 72.1566 79.1453ZM173.333 67.411C173.684 42.2206 111.409 56.4101 111.409 56.4101L88.0043 139.985L113.418 134.596L118.52 110.235L125.854 144.353L153.723 138.295L146.389 103.857C157.039 97.3526 173.142 83.8964 173.365 67.4748L173.333 67.411ZM146.548 75.1276C145.018 84.9806 122.952 89.5722 122.952 89.5722L127.097 74.9044C127.097 74.9044 147.537 68.814 146.548 75.1276ZM238.764 45.9194L192.146 54.1781L157.74 135.521L184.079 131.79L189.308 118.812L203.306 115.719L197.28 143.556L227.54 138.423L238.764 45.9194ZM212.011 70.9823L208.121 91.4854L199.257 92.729L206.08 72.768L212.011 71.0142V70.9823ZM333.181 50.5749L301.708 50.3198L283.98 102.454L282.481 60.9062L256.047 61.4163L230.761 131.439L258.757 128.633L267.143 101.434L266.888 146.841L295.427 144.609L333.149 50.5749H333.181ZM402.088 63.4571L370.424 63.9354L351.292 87.5315L364.461 53.7317L337.517 55.9956L308.405 137.912L334.871 137.785L341.949 116.07L341.567 152.198L369.085 149.647L368.894 101.785L402.088 63.489V63.4571Z" fill="url(#paint0_linear_1114_23155)" stroke="#113038" stroke-width="2.71036" stroke-miterlimit="2.61313"/>
<path fill-rule="evenodd" clip-rule="evenodd" d="M94.7321 206.596L103.565 211.092C105.924 212.272 107.646 214.058 108.858 216.258C110.261 218.841 110.899 221.997 110.803 225.377C110.707 228.63 109.974 232.137 108.667 235.613C105.637 243.68 99.5151 251.716 91.3202 256.212C86.027 259.145 79.4265 261.983 72.0607 263.928C65.8747 265.555 59.1785 266.607 52.2591 266.575C48.2095 266.607 40.4929 265.65 34.0199 262.366L25.1235 257.838C24.1351 257.328 23.1785 256.786 22.2538 256.148C17.5664 252.959 14.027 248.272 13.8995 241.416C13.7719 235.645 17.2157 227.131 17.2157 227.099L17.6621 225.983L18.81 225.696C18.8738 225.664 41.322 220.212 46.1368 219.797C45.1165 219.446 44.1599 219.096 43.2989 218.777C42.8844 218.617 42.5018 218.458 42.1191 218.267L33.2228 213.739C31.1501 212.686 29.4601 210.901 28.3441 208.573C27.1643 206.086 26.6541 202.961 26.973 199.422C27.802 190.621 32.6488 181.82 39.9189 175.156C46.7746 168.906 55.8304 164.474 65.8109 163.772C66.5124 163.709 67.3096 163.677 68.2024 163.613C77.035 163.198 84.5921 164.538 90.0766 167.312C90.1085 167.312 90.1085 167.344 90.1404 167.344L99.0368 171.872C104.171 174.486 107.55 178.345 108.635 183.191L114.023 163.454L115.618 163.294L180.539 156.183L189.435 160.711L188.415 164.697L240.964 159.627L249.861 164.155L242.303 191.418L231.558 192.502L233.63 193.554L227.859 214.345L232.068 213.739L234.778 215.11L253.049 165.558L254.452 165.367C254.58 165.335 291.281 160.01 308.851 168.938L317.747 173.466C320.872 175.06 323.423 177.101 325.017 179.716C327.313 177.069 330.024 174.678 332.989 172.605C340.61 167.312 350.208 164.155 360.188 164.761C361.113 164.825 361.91 164.857 362.58 164.92C369.499 165.526 375.494 167.089 380.213 169.448C380.213 169.448 380.245 169.448 380.245 169.48C380.341 169.512 380.404 169.576 380.5 169.608L389.396 174.136C390.576 174.741 391.66 175.379 392.649 176.049C398.102 179.779 401.035 184.818 400.716 190.717V190.748L400.684 191.259C400.461 193.714 399.76 196.52 398.835 198.911C397.878 201.335 396.635 203.503 395.296 204.651L393.797 205.225L372.114 205.544C374.984 206.819 377.726 208.127 380.341 209.466L389.237 213.994C389.715 214.249 390.194 214.504 390.672 214.727L390.704 214.759C393.574 216.29 395.487 218.586 396.539 221.36C397.591 224.134 397.783 227.322 397.241 230.671C396.73 233.891 395.519 237.271 393.765 240.555C389.683 248.144 382.541 255.319 373.836 258.667C368.224 260.867 361.304 262.78 353.747 263.737C347.37 264.534 340.578 264.662 333.754 263.737C330.566 263.322 325.209 262.015 320.139 259.432L311.242 254.904C308.915 253.725 306.683 252.29 304.737 250.568C302.824 248.846 301.166 246.837 300.018 244.541L301.931 259.177L269.056 263.609L260.16 259.082L259.299 252.64L230.155 256.435L222.215 252.417L161.662 258.667L152.766 254.139C158.856 233.7 164.946 213.26 171.069 192.789L162.204 193.969L147.536 251.493L113.896 257.519L105 252.991L122.378 198.401L114.374 199.581L107.519 196.105C106.977 197.636 106.275 198.975 105.478 199.868L104.075 200.633L85.6763 203.376C88.3229 204.205 90.8738 205.066 93.2972 205.926H93.3291C93.8074 206.118 94.2538 206.309 94.7002 206.532L94.764 206.564L94.7321 206.596ZM298.52 233.572L297.212 223.56C303.653 220.148 311.593 214.791 317.62 207.872C317.875 207.585 318.098 207.298 318.353 207.043C319.342 208.605 320.681 209.817 322.307 210.646C323.519 211.283 324.954 212.017 326.484 212.814L335.38 217.342C337.421 218.362 339.653 219.478 341.917 220.531C345.967 222.412 350.08 224.134 353.301 224.995C354.321 225.282 355.373 225.569 356.394 225.888C356.394 225.951 356.362 226.015 356.33 226.079C354.799 228.757 352.344 230.128 349.315 230.798C347.115 231.276 344.564 231.404 341.853 231.404C342.268 229.682 343.225 227.673 344.309 225.728L345.967 222.763L337.07 218.235L333.691 217.756C330.406 217.278 305.375 219.925 305.28 219.925L304.068 220.052L303.462 221.105C303.462 221.136 299.508 227.992 298.456 233.604L298.52 233.572ZM354.799 199.007L357.032 199.709L358.084 197.7C358.722 196.456 359.327 195.244 359.71 194.128C358.945 194.288 358.211 194.479 357.542 194.702C355.724 195.34 354.289 196.233 353.939 197.317L353.907 197.413C353.779 197.859 354.13 198.433 354.799 199.039V199.007ZM279.101 195.085L279.515 193.937C280.185 193.81 281.046 193.65 282.066 193.459C281.173 194.065 280.153 194.607 279.101 195.085ZM63.4832 198.082C63.6745 196.966 64.9818 195.882 66.7037 195.021C67.4371 194.671 68.2024 194.352 69.0314 194.065C68.8082 194.894 68.4894 195.787 68.1705 196.679L67.4052 198.816L64.9181 198.369L64.2803 198.242C64.0252 198.178 63.7701 198.146 63.4832 198.082ZM56.2449 232.297C56.5319 230.798 57.1058 229.14 57.7436 227.514L58.9872 224.357L57.3609 223.528C60.709 224.485 63.9296 225.282 66.5124 225.632C67.5647 225.76 68.6488 225.919 69.7011 226.111C68.4575 228.375 66.4167 229.778 63.8658 230.702C61.6656 231.5 59.0509 231.978 56.213 232.329L56.2449 232.297Z" fill="url(#paint1_linear_1114_23155)"/>
<path d="M97.7614 181.437C97.2512 170.659 84.369 164.664 66.0023 166.099C46.6152 167.502 30.7994 183.637 29.3008 199.612C28.7268 205.957 31.1502 210.645 35.1998 212.048C41.1945 214.248 51.6852 217.915 57.935 218.744C65.7791 219.796 74.1972 221.359 72.3796 225.887C69.4779 233.061 61.4425 234.145 52.2591 235.006C42.7569 235.867 44.0643 228.693 46.679 222.092C43.6498 222.06 19.384 227.959 19.384 227.959C19.384 227.959 16.0997 236.058 16.2273 241.352C16.578 256.53 36.1564 259.718 43.3628 259.686C57.9987 259.718 71.8694 254.84 81.3079 249.61C98.6861 240.108 106.243 213.26 92.5001 208.094C84.082 205.065 73.7507 202.131 64.5355 200.632C59.9757 199.803 51.4939 197.348 52.3229 193.107C53.0563 188.898 60.6453 186.124 65.9385 186.22C73.5913 186.379 72.4115 191.864 70.4026 197.412L94.8278 193.745C96.7091 191.577 98.0165 185.773 97.8252 181.373L97.7614 181.437ZM177.414 158.893L115.841 165.621L108.571 192.214L127.575 189.44L108.316 250.025L136.663 244.955L151.331 187.368L170.686 184.785L177.414 158.893ZM237.776 162.305L180.89 167.789L155.954 251.492L221.035 244.795L228.847 216.608L189.595 222.188L191.859 214.631L216.093 211.506L221.545 191.768L196.993 194.446L199.033 188.005L231.558 184.753L237.776 162.305ZM315.579 183.637C317.939 158.542 254.707 167.725 254.707 167.725L224.702 249.164L250.466 245.816L257.482 221.933L262.041 256.53L290.293 252.703L285.733 217.787C296.862 212.175 313.985 200.027 315.547 183.669L315.579 183.637ZM288.252 189.185C285.956 198.879 263.572 201.685 263.572 201.685L268.865 187.399C268.865 187.399 289.719 182.935 288.252 189.185ZM389.428 186.57C390.385 175.825 378.396 168.172 359.997 167.151C340.61 165.972 322.785 179.874 319.15 195.499C317.715 201.717 319.533 206.659 323.327 208.604C328.971 211.57 338.888 216.64 344.978 218.266C352.599 220.338 360.762 223.049 358.339 227.258C354.513 233.986 346.413 233.986 337.198 233.603C327.664 233.189 329.928 226.237 333.372 220.051C330.374 219.637 305.535 222.252 305.535 222.252C305.535 222.252 301.198 229.841 300.624 235.102C298.934 250.184 317.907 255.956 325.049 256.88C339.558 258.857 353.939 255.892 363.983 251.938C382.477 244.859 393.542 219.254 380.596 212.303C372.656 208.158 362.803 203.917 353.875 201.174C349.474 199.74 341.375 196.168 342.778 192.087C344.054 188.005 351.962 186.283 357.191 187.081C364.78 188.26 362.835 193.522 360.125 198.751L384.805 198.368C386.973 196.487 389.014 190.875 389.428 186.507V186.57Z" stroke="#61070E" stroke-width="4.68734" stroke-miterlimit="2.61313"/>
<path d="M97.7614 181.437C97.2512 170.659 84.369 164.664 66.0023 166.099C46.6152 167.502 30.7994 183.637 29.3008 199.612C28.7268 205.957 31.1502 210.645 35.1998 212.048C41.1945 214.248 51.6852 217.915 57.935 218.744C65.7791 219.796 74.1972 221.359 72.3796 225.887C69.4779 233.061 61.4425 234.145 52.2591 235.006C42.7569 235.867 44.0643 228.693 46.679 222.092C43.6498 222.06 19.384 227.959 19.384 227.959C19.384 227.959 16.0997 236.058 16.2273 241.352C16.578 256.53 36.1564 259.718 43.3628 259.686C57.9987 259.718 71.8694 254.84 81.3079 249.61C98.6861 240.108 106.243 213.26 92.5001 208.094C84.082 205.065 73.7507 202.131 64.5355 200.632C59.9757 199.803 51.4939 197.348 52.3229 193.107C53.0563 188.898 60.6453 186.124 65.9385 186.22C73.5913 186.379 72.4115 191.864 70.4026 197.412L94.8278 193.745C96.7091 191.577 98.0165 185.773 97.8251 181.373L97.7614 181.437ZM177.414 158.893L115.841 165.621L108.571 192.214L127.575 189.44L108.316 250.025L136.663 244.955L151.331 187.368L170.686 184.785L177.414 158.893ZM237.776 162.305L180.89 167.789L155.954 251.492L221.035 244.795L228.847 216.608L189.595 222.188L191.859 214.631L216.093 211.506L221.545 191.768L196.993 194.446L199.033 188.005L231.558 184.753L237.776 162.305ZM315.579 183.637C317.939 158.542 254.707 167.725 254.707 167.725L224.702 249.164L250.466 245.816L257.482 221.933L262.041 256.53L290.293 252.703L285.733 217.787C296.862 212.175 313.985 200.027 315.547 183.669L315.579 183.637ZM288.252 189.185C285.956 198.879 263.572 201.685 263.572 201.685L268.865 187.399C268.865 187.399 289.719 182.935 288.252 189.185ZM389.428 186.57C390.385 175.825 378.396 168.172 359.997 167.151C340.61 165.972 322.785 179.874 319.15 195.499C317.715 201.717 319.533 206.659 323.327 208.604C328.971 211.57 338.888 216.64 344.978 218.266C352.599 220.338 360.762 223.049 358.339 227.258C354.513 233.986 346.413 233.986 337.198 233.603C327.664 233.189 329.928 226.237 333.372 220.051C330.374 219.637 305.535 222.252 305.535 222.252C305.535 222.252 301.198 229.841 300.624 235.102C298.934 250.184 317.907 255.956 325.049 256.88C339.558 258.857 353.939 255.892 363.983 251.938C382.477 244.859 393.542 219.254 380.596 212.303C372.656 208.158 362.803 203.917 353.875 201.174C349.474 199.74 341.375 196.168 342.778 192.087C344.054 188.005 351.962 186.283 357.191 187.081C364.78 188.26 362.835 193.522 360.125 198.751L384.805 198.368C386.973 196.487 389.014 190.875 389.428 186.507V186.57Z" fill="url(#paint2_linear_1114_23155)"/>
<path fill-rule="evenodd" clip-rule="evenodd" d="M93.2974 176.239C67.4374 161.858 49.2301 170.117 34.7217 189.313C53.0246 171.679 72.603 167.821 93.2974 176.239Z" fill="#FFF6D3"/>
<path fill-rule="evenodd" clip-rule="evenodd" d="M381.967 176.239C356.107 161.858 337.9 170.117 323.391 189.313C341.694 171.679 361.272 167.821 381.967 176.239Z" fill="#FFF6D3"/>
<path fill-rule="evenodd" clip-rule="evenodd" d="M356.617 247.219C309.553 260.644 300.975 243.776 306.938 225.473C304.515 245.306 320.745 257.232 356.617 247.219Z" fill="#FFF6D3"/>
<path fill-rule="evenodd" clip-rule="evenodd" d="M71.5827 251.843C24.5181 265.268 15.9406 248.4 21.9034 230.097C19.48 249.93 35.7103 261.856 71.5827 251.843Z" fill="#FFF6D3"/>
<path fill-rule="evenodd" clip-rule="evenodd" d="M119.891 167.248L170.91 161.891L170.687 165.143L119.891 170.341V167.248Z" fill="#FBF9D2"/>
<path fill-rule="evenodd" clip-rule="evenodd" d="M258.311 169.449C298.902 164.793 320.458 171.171 303.972 199.645C313.124 172 289.591 166.866 258.311 169.449Z" fill="#FEFEFE"/>
<path fill-rule="evenodd" clip-rule="evenodd" d="M56.9468 57.973C91.5438 53.1263 101.365 63.904 86.9521 89.9235C96.3587 64.3185 83.5083 55.741 56.9468 57.973Z" fill="#E9F3E8"/>
<path fill-rule="evenodd" clip-rule="evenodd" d="M115.65 60.1084L113.8 59.8533L93.6162 134.723L95.1468 134.085L115.65 60.1084Z" fill="#E9F3E8"/>
<path fill-rule="evenodd" clip-rule="evenodd" d="M113.8 59.8537C151.363 52.2009 168.008 55.6446 166.732 68.5906C159.43 55.9954 138.13 56.952 113.45 61.1929C113.577 60.7465 113.705 60.2682 113.832 59.8218L113.8 59.8537Z" fill="#E9F3E8"/>
<path fill-rule="evenodd" clip-rule="evenodd" d="M230.155 87.7866H228.465L221.386 136.159L222.949 135.872L224.543 135.617L230.155 87.7866Z" fill="#E9F3E8"/>
<path fill-rule="evenodd" clip-rule="evenodd" d="M224.734 134.023L201.648 136.574L201.393 138.519L224.543 135.745L224.734 134.023Z" fill="#E9F3E8"/>
<path fill-rule="evenodd" clip-rule="evenodd" d="M257.673 65.3696H259.363L239.689 126.401L237.935 126.624L236.341 126.273L257.673 65.3696Z" fill="#E9F3E8"/>
<path fill-rule="evenodd" clip-rule="evenodd" d="M237.106 124.137L256.685 124.169L256.812 125.986L236.213 126.464L237.106 124.137Z" fill="#E9F3E8"/>
<path fill-rule="evenodd" clip-rule="evenodd" d="M322.18 65.3696H323.87L293.832 139.187L292.525 139.028L292.079 138.9L290.516 139.06L322.18 65.3696Z" fill="#E9F3E8"/>
<path fill-rule="evenodd" clip-rule="evenodd" d="M274.605 137.211L294.183 137.243L293.832 139.188L273.744 139.538L274.605 137.211Z" fill="#E9F3E8"/>
<path fill-rule="evenodd" clip-rule="evenodd" d="M397.783 71.7469C399.441 72.4484 400.653 74.3935 402.056 75.4458L403.108 76.4024C403.873 77.1039 404.479 77.6459 404.638 78.5388L404.798 78.8895C405.244 79.2403 405.021 78.9852 404.893 79.2403C405.18 79.3678 405.18 79.2722 404.957 79.4954C405.212 79.6229 405.212 79.5591 405.021 79.7505C405.436 80.3244 405.436 80.1969 405.117 80.7389C405.212 81.2491 405.021 81.6955 404.702 82.2057C402.948 85.0755 400.429 86.4466 398.452 87.9772C397.336 88.8381 397.496 88.6468 395.838 89.0932C395.264 89.2527 395.423 89.1251 394.467 89.157C390.704 89.2527 385.921 84.5653 385.825 82.7159L385.698 82.4927C385.315 81.8231 385.219 81.4723 385.188 80.9303L385.156 80.6752V80.4201L385.06 80.165L385.028 79.9099V79.6548L384.996 79.3997L385.06 79.1446C384.837 78.9852 384.869 79.0808 385.028 78.8257L385.156 77.9329C385.219 77.6778 385.283 77.4546 385.347 77.2314C385.379 75.8284 385.985 74.0427 386.654 72.5122C387.898 69.5786 389.173 68.8771 391.629 69.0365C393.51 69.1641 395.997 70.4396 397.783 71.715V71.7469ZM366.885 52.4874C368.096 51.4032 369.244 51.2757 370.615 51.754C371.923 52.2004 373.517 52.8381 374.505 53.8904C375.175 53.9223 376.036 54.6876 376.674 55.1977L379.607 57.5892L379.894 57.94L380.245 58.3226C380.691 58.7372 380.373 58.3864 380.66 58.769C381.17 59.4706 380.691 58.4183 380.691 58.9923C381.425 59.4706 381.074 59.2155 381.01 59.4706C381.584 59.8532 381.393 59.5662 381.361 59.9489C381.967 60.2677 381.68 60.0445 381.584 60.2996C382.413 60.9692 383.019 62.5636 382.924 63.2332C383.816 65.242 381.074 67.4741 379.48 68.5901L376.769 69.9931C375.845 70.5033 373.613 71.0773 372.624 71.0454C372.305 71.0454 372.146 70.9179 371.859 70.9179C370.775 70.8222 372.21 71.2048 370.105 70.8541C367.618 70.4396 363.249 66.8045 363.186 65.5609C362.644 65.1783 362.931 65.4334 363.026 65.2101C362.293 64.7 362.707 64.9869 362.739 64.7318C362.42 64.6362 362.357 64.7319 362.612 64.5086C362.325 64.3811 362.325 64.4768 362.516 64.2217L362.676 63.9985C362.165 63.4883 362.07 62.6592 362.42 62.0215C362.07 61.8621 362.165 61.9896 362.42 61.6388C362.325 61.1924 362.516 60.6504 362.803 60.2039C362.835 59.3749 363.345 58.2908 363.855 57.366C364.366 55.8674 365.737 53.5715 366.948 52.4874H366.885ZM365.322 46.1738C362.548 49.2349 363.09 49.2031 362.899 52.0729C362.644 56.5051 356.426 61.4156 362.229 68.4626C365.609 72.576 369.659 74.0427 373.358 73.5644C379.033 72.8629 381.616 69.483 383.657 68.8133L384.869 69.8337C384.741 70.3758 384.741 70.7584 384.55 71.3962C384.008 73.0543 383.657 73.5326 383.083 75.7327C381.361 82.4927 385.251 88.6787 391.469 90.7832C397.751 92.9196 400.684 89.157 405.18 86.064C406.488 85.1712 406.775 85.49 407.827 85.235C408.624 85.0436 409.9 83.3218 410.314 82.5565C410.824 81.5361 410.187 80.8346 409.421 79.8461C406.296 75.7646 404.064 72.8311 399.154 70.0888C395.519 68.0481 390.002 65.8798 386.941 62.9462C385.347 61.4156 383.912 59.4706 382.445 57.7806C381.01 56.0906 379.225 54.1774 377.407 52.6787C375.398 51.0206 367.203 46.2376 365.29 46.2057L365.322 46.1738Z" fill="#2B2A29"/>
<path fill-rule="evenodd" clip-rule="evenodd" d="M385.028 78.8582C384.869 79.1133 384.837 78.9858 385.06 79.1771L384.996 79.4322L385.028 79.6873V79.9424L385.06 80.1975L385.155 80.4526V80.7077L385.187 80.9627C385.219 81.5048 385.315 81.8875 385.698 82.5252L385.825 82.7484C385.953 84.5659 390.736 89.2852 394.466 89.1895C395.423 89.1576 395.295 89.2852 395.838 89.1257C397.527 88.6793 397.336 88.9025 398.452 88.0097C400.429 86.4472 402.948 85.108 404.702 82.2382C405.021 81.728 405.212 81.2816 405.117 80.7714C405.435 80.2294 405.435 80.3569 405.021 79.7829C405.244 79.5916 405.244 79.6873 404.957 79.5278C405.18 79.3046 405.18 79.4003 404.893 79.2728C405.021 79.0177 405.276 79.2728 404.798 78.922L404.638 78.5713C404.479 77.7103 403.873 77.1364 403.108 76.4348L402.055 75.4782C400.62 74.426 399.409 72.449 397.783 71.7794C396.029 70.5039 393.51 69.2604 391.628 69.1009C389.173 68.9096 387.898 69.643 386.654 72.5766C385.985 74.1071 385.347 75.8928 385.347 77.2958C385.251 77.519 385.219 77.7422 385.155 77.9973L385.028 78.8901V78.8582Z" fill="#2B2A29"/>
<path fill-rule="evenodd" clip-rule="evenodd" d="M363.122 65.5287L362.962 65.1779C362.93 64.9547 363.09 65.0185 362.675 64.6996L362.867 64.5721L362.548 64.4764L362.803 64.317L362.452 64.1895C362.261 64.4446 362.261 64.3489 362.548 64.4764C362.293 64.6996 362.357 64.604 362.675 64.6996C362.643 64.9547 362.229 64.6678 362.962 65.1779C362.899 65.4011 362.612 65.1461 363.122 65.5287C363.186 66.7723 367.554 70.4074 370.041 70.8219C372.146 71.1726 370.711 70.79 371.795 70.8857C372.114 70.9175 372.241 71.0132 372.56 71.0132C373.549 71.0451 375.781 70.4392 376.706 69.9609L379.416 68.5579C381.01 67.4419 383.752 65.2417 382.86 63.201C382.541 63.9344 382.7 65.2736 381.457 65.5925C380.915 65.72 380.755 65.433 380.085 65.5287C378.938 65.6881 379.894 66.2621 378.682 65.4011C378.396 66.5491 377.439 65.4968 375.494 66.1664C374.601 66.4853 375.079 66.4534 374.027 66.5172C373.836 66.5172 373.676 66.5172 373.517 66.5491L371.157 66.8679C370.392 66.9317 370.073 67.0911 369.021 67.0274C368.606 66.9955 368.415 66.9636 368 67.0274L366.789 67.4738C365.609 68.1115 363.823 66.2302 363.09 65.5606L363.122 65.5287ZM380.659 58.9601L380.978 59.4383C380.978 59.5021 381.01 59.5659 381.01 59.5978C381.01 59.6297 381.042 59.6934 381.074 59.7253C381.52 60.5225 380.915 59.6616 381.329 59.9166C381.329 60.1399 380.915 59.8848 381.552 60.2674C381.552 60.937 382.158 61.3515 381.903 62.2763C381.488 62.34 381.744 62.2763 381.361 62.2763C381.202 62.2763 381.17 62.2763 380.978 62.2444C379.958 62.1806 380.468 62.1168 379.703 62.34L368.256 63.8387C366.438 64.4445 368.766 64.2213 364.907 64.03C363.217 63.9662 364.302 65.4968 362.994 63.9981C362.867 64.4764 362.452 64.5402 363.122 64.6678L362.867 64.5721C363.122 64.3489 363.122 64.4445 362.803 64.317C362.835 64.0619 363.313 64.2532 362.612 63.9663C362.771 63.5836 362.707 63.8387 362.707 63.4561C362.707 63.3923 362.675 63.0734 362.675 62.9778C362.58 62.34 362.707 62.4676 362.357 62.0212C362.707 61.798 362.675 61.9255 362.357 61.6385C362.101 61.9574 362.038 61.8617 362.357 62.0212C362.006 62.6589 362.101 63.488 362.612 63.9981L362.452 64.2213L362.803 64.3489L362.548 64.5083L362.867 64.604L362.675 64.7315C363.09 65.0504 362.93 64.9866 362.962 65.2098L363.122 65.5606C363.887 66.2302 365.673 68.1434 366.821 67.4738L368.032 67.0274C368.447 66.9636 368.638 66.9955 369.053 67.0274C370.073 67.0911 370.392 66.9317 371.189 66.8679L373.549 66.5491C373.708 66.5172 373.868 66.5172 374.059 66.5172C375.111 66.4534 374.633 66.4853 375.526 66.1664C377.439 65.4968 378.427 66.5491 378.714 65.4011C379.926 66.2621 378.969 65.72 380.117 65.5287C380.819 65.433 380.946 65.72 381.489 65.5925C382.732 65.2736 382.573 63.9344 382.892 63.201C383.019 62.5314 382.413 60.937 381.552 60.2674C381.648 59.9804 381.935 60.2036 381.329 59.9166C381.361 59.534 381.584 59.821 380.978 59.4383C381.042 59.2151 381.393 59.4702 380.659 58.9601C380.659 58.418 381.138 59.4383 380.628 58.7368C380.341 58.3542 380.659 58.705 380.213 58.2904C380.245 58.418 380.277 58.5136 380.436 58.7687C380.468 58.8006 380.5 58.8963 380.532 58.8644C380.564 58.8325 380.628 58.8963 380.659 58.9282V58.9601ZM379.862 57.9397L376.387 57.9078C375.908 57.9397 376.419 57.9397 375.876 57.9397C373.868 57.9078 374.824 58.0672 373.294 58.3223L366.948 58.9601C363.983 59.6616 364.525 58.5136 362.739 60.2036C362.452 60.65 362.261 61.1921 362.357 61.6385C362.707 61.9255 362.739 61.798 362.357 62.0212C362.707 62.4995 362.58 62.34 362.675 62.9778C362.675 63.1053 362.707 63.3923 362.707 63.4561C362.675 63.8387 362.771 63.5836 362.612 63.9663C363.313 64.2851 362.835 64.0619 362.803 64.317C363.122 64.4445 363.122 64.3489 362.867 64.5721L363.122 64.6678C362.452 64.5402 362.867 64.4764 362.994 63.9981C364.333 65.4968 363.217 63.9344 364.907 64.03C368.766 64.1895 366.438 64.4445 368.256 63.8387L379.703 62.34C380.436 62.1168 379.958 62.1806 380.978 62.2444C381.17 62.2444 381.202 62.2444 381.361 62.2763C381.744 62.3081 381.488 62.34 381.903 62.2763C382.158 61.3515 381.552 60.937 381.552 60.2674C380.915 59.8529 381.329 60.1399 381.329 59.9166C380.915 59.6616 381.52 60.5225 381.074 59.7253C381.042 59.6934 381.01 59.6297 381.01 59.5978C380.978 59.5659 380.978 59.5021 380.978 59.4383L380.659 58.9601C380.628 58.9282 380.596 58.8644 380.532 58.8963C380.5 58.9282 380.436 58.8325 380.436 58.8006C380.277 58.5455 380.277 58.4499 380.213 58.3223L379.862 57.9397ZM363.791 57.3657C363.281 58.2585 362.771 59.3746 362.739 60.2036C364.525 58.5136 363.983 59.6616 366.948 58.9601L373.294 58.3223C374.824 58.0672 373.899 57.9078 375.876 57.9397C376.387 57.9397 375.908 57.9397 376.387 57.9078L379.862 57.9397L379.575 57.5889L376.642 55.1974L378.395 56.7599C376.227 55.1337 376.419 56.0903 374.792 56.1859C374.25 56.2178 373.517 56.154 373.039 56.1859C372.337 56.2497 371.636 56.6642 369.435 56.7599C368.351 56.7918 367.395 57.2701 365.705 57.2701C365.258 57.2701 365.29 57.2382 364.844 57.3019C364.047 57.4295 364.557 57.557 363.791 57.3976V57.3657ZM366.884 52.4871C365.673 53.5712 364.302 55.867 363.791 57.3657C364.557 57.5252 364.047 57.3976 364.844 57.2701C365.29 57.2063 365.258 57.2382 365.705 57.2382C367.395 57.2382 368.351 56.7918 369.435 56.728C371.636 56.6642 372.337 56.2497 373.039 56.154C373.549 56.0903 374.282 56.1859 374.792 56.154C376.45 56.0903 376.227 55.1018 378.395 56.728L376.642 55.1655C376.004 54.6554 375.143 53.8901 374.473 53.8582L375.143 54.4959C374.984 54.3365 375.653 54.4959 374.792 54.4959C372.879 54.5278 374.186 54.5597 373.007 54.7829C372.528 54.8786 371.157 54.7829 369.021 55.1974C368.351 55.325 368.351 55.2293 367.777 55.1974C366.916 55.1974 367.171 55.4525 366.534 55.5801C366.151 55.6757 366.215 55.4844 365.418 55.7714L365.45 55.0061C365.545 54.1133 366.183 53.348 366.884 52.4552V52.4871ZM366.884 52.4871C366.183 53.3799 365.545 54.1452 365.45 55.038L365.418 55.8033C366.215 55.5163 366.151 55.6757 366.534 55.612C367.171 55.4844 366.916 55.2293 367.777 55.2293C368.351 55.2293 368.351 55.3569 369.021 55.2293C371.157 54.8148 372.528 54.9104 373.007 54.8148C374.186 54.5916 372.879 54.5597 374.792 54.5278C375.653 54.4959 374.984 54.3684 375.143 54.5278L374.473 53.8901C373.485 52.8378 371.891 52.2001 370.583 51.7537C369.244 51.2754 368.096 51.4029 366.853 52.4871H366.884Z" fill="#2B2A29"/>
<path fill-rule="evenodd" clip-rule="evenodd" d="M398.58 71.0775C400.238 71.779 401.45 73.7241 402.853 74.7763L403.905 75.7329C404.67 76.4344 405.276 76.9765 405.436 77.8693L405.595 78.2201C406.042 78.5708 405.818 78.3157 405.691 78.5708C405.978 78.6984 405.978 78.6027 405.755 78.8259C406.01 78.9535 406.01 78.8578 405.818 79.081C406.233 79.655 406.233 79.5274 405.914 80.0695C406.01 80.5797 405.818 81.0261 405.499 81.5363C403.746 84.4061 401.227 85.7772 399.25 87.3078C398.134 88.1687 398.293 87.9774 396.635 88.4238C396.061 88.5832 396.22 88.4557 395.264 88.4876C391.501 88.5832 386.718 83.8959 386.623 82.0465L386.495 81.8233C386.112 81.1537 386.017 80.8029 385.985 80.2608L385.953 80.0057V79.7506L385.857 79.4955L385.825 79.2405V78.9854L385.794 78.7303L385.857 78.4752C385.634 78.3157 385.666 78.4114 385.825 78.1563L385.953 77.2635C386.017 77.0084 386.081 76.7852 386.144 76.562C386.176 75.159 386.782 73.3733 387.452 71.8428C388.695 68.9092 389.971 68.2077 392.426 68.3671C394.307 68.4947 396.794 69.7701 398.58 71.0456V71.0775ZM367.682 51.8179C368.894 50.7338 370.042 50.6063 371.413 51.0846C372.72 51.531 374.314 52.1687 375.303 53.221C375.972 53.2528 376.833 54.0181 377.471 54.5283L380.405 56.9198L380.692 57.2706L381.042 57.6532C381.489 58.0677 381.17 57.717 381.457 58.0996C381.967 58.8011 381.489 57.7489 381.489 58.3228C382.222 58.8011 381.871 58.546 381.808 58.8011C382.382 59.1838 382.19 58.8968 382.158 59.2794C382.764 59.5983 382.477 59.3751 382.382 59.6621C383.211 60.3317 383.817 61.926 383.721 62.5956C384.614 64.6045 381.871 66.8366 380.277 67.9526L377.567 69.3556C376.642 69.8658 374.41 70.4397 373.422 70.4079C373.103 70.4079 372.943 70.2803 372.656 70.2803C371.572 70.1847 373.007 70.5673 370.902 70.2165C368.415 69.802 364.047 66.1669 363.983 64.9234C363.441 64.5407 363.728 64.7958 363.824 64.5726C363.09 64.0624 363.505 64.3494 363.537 64.0943C363.218 63.9986 363.154 64.0943 363.409 63.8711C363.122 63.7436 363.122 63.8392 363.313 63.5841L363.473 63.3609C362.963 62.8507 362.867 62.0217 363.218 61.3839C362.867 61.2245 362.963 61.3521 363.218 61.0013C363.122 60.5549 363.313 60.0128 363.6 59.5664C363.632 58.7373 364.143 57.6532 364.653 56.7285C365.163 55.2298 366.534 52.934 367.746 51.8498L367.682 51.8179ZM366.119 45.5044C363.345 48.5655 363.887 48.5336 363.696 51.4034C363.441 55.8357 357.223 60.7462 363.026 67.7932C366.406 71.9065 370.456 73.3733 374.155 72.895C379.831 72.1935 382.414 68.8135 384.454 68.1439L385.666 69.1643C385.538 69.7064 385.538 70.089 385.347 70.7267C384.805 72.3848 384.454 72.8631 383.88 75.0633C382.158 81.8233 386.049 88.0093 392.267 90.1138C398.548 92.2502 401.482 88.4876 405.978 85.3946C407.285 84.5018 407.572 84.8206 408.624 84.5655C409.422 84.3742 410.697 82.6523 411.112 81.887C411.622 80.8667 410.984 80.1652 410.219 79.1767C407.094 75.0952 404.862 72.1616 399.951 69.4194C396.316 67.3786 390.8 65.2103 387.739 62.2768C386.144 60.7462 384.709 58.8011 383.243 57.1111C381.808 55.4211 380.022 53.5079 378.205 52.0093C376.196 50.3512 368.001 45.5682 366.088 45.5363L366.119 45.5044Z" fill="#ACCF35"/>
<path fill-rule="evenodd" clip-rule="evenodd" d="M385.794 78.1888C385.634 78.4439 385.602 78.3163 385.825 78.5077L385.762 78.7628L385.794 79.0178V79.2729L385.825 79.528L385.921 79.7831V80.0382L385.953 80.2933C385.985 80.8354 386.081 81.218 386.463 81.8558L386.591 82.079C386.718 83.8965 391.501 88.6157 395.232 88.5201C396.189 88.4882 396.061 88.6157 396.603 88.4563C398.293 88.0099 398.102 88.2331 399.218 87.3403C401.195 85.7778 403.714 84.4386 405.468 81.5688C405.786 81.0586 405.978 80.6122 405.882 80.102C406.201 79.5599 406.201 79.6875 405.786 79.1135C406.01 78.9222 406.01 79.0178 405.723 78.8584C405.946 78.6352 405.946 78.7309 405.659 78.6033C405.786 78.3482 406.042 78.6033 405.563 78.2526L405.404 77.9018C405.244 77.0409 404.639 76.4669 403.873 75.7654L402.821 74.8088C401.386 73.7566 400.174 71.7796 398.548 71.11C396.794 69.8345 394.275 68.5909 392.394 68.4315C389.939 68.2402 388.663 68.9736 387.42 71.9071C386.75 73.4377 386.112 75.2233 386.112 76.6263C386.017 76.8496 385.985 77.0728 385.921 77.3279L385.794 78.2207V78.1888Z" fill="#00BBEF"/>
<path fill-rule="evenodd" clip-rule="evenodd" d="M363.919 64.86L363.76 64.5092C363.728 64.286 363.887 64.3498 363.473 64.0309L363.664 63.9034L363.345 63.8077L363.6 63.6483L363.25 63.5208C363.058 63.7759 363.058 63.6802 363.345 63.8077C363.09 64.0309 363.154 63.9353 363.473 64.0309C363.441 64.286 363.026 63.9991 363.76 64.5092C363.696 64.7325 363.409 64.4774 363.919 64.86C363.983 66.1036 368.351 69.7387 370.839 70.1532C372.943 70.5039 371.508 70.1213 372.592 70.217C372.911 70.2488 373.039 70.3445 373.358 70.3445C374.346 70.3764 376.578 69.7705 377.503 69.2922L380.213 67.8892C381.808 66.7732 384.55 64.573 383.657 62.5323C383.338 63.2657 383.498 64.6049 382.254 64.9238C381.712 65.0513 381.552 64.7643 380.883 64.86C379.735 65.0194 380.692 65.5934 379.48 64.7325C379.193 65.8804 378.236 64.8281 376.291 65.4977C375.398 65.8166 375.877 65.7847 374.824 65.8485C374.633 65.8485 374.474 65.8485 374.314 65.8804L371.955 66.1992C371.189 66.263 370.87 66.4224 369.818 66.3587C369.404 66.3268 369.212 66.2949 368.798 66.3587L367.586 66.8051C366.406 67.4428 364.621 65.5615 363.887 64.8919L363.919 64.86ZM381.457 58.2914L381.776 58.7696C381.776 58.8334 381.808 58.8972 381.808 58.9291C381.808 58.961 381.839 59.0247 381.871 59.0566C382.318 59.8538 381.712 59.0247 382.126 59.2479C382.126 59.4712 381.712 59.2161 382.35 59.6306C382.35 60.3002 382.955 60.7147 382.7 61.6394C382.286 61.7032 382.541 61.6394 382.158 61.6394C381.999 61.6394 381.967 61.6395 381.776 61.6076C380.755 61.5438 381.265 61.48 380.5 61.7032L369.053 63.2019C367.235 63.8077 369.563 63.5845 365.705 63.3932C364.015 63.3294 365.099 64.86 363.792 63.3613C363.664 63.8396 363.25 63.9034 363.919 64.0309L363.664 63.9353C363.919 63.7121 363.919 63.8077 363.6 63.6802C363.632 63.4251 364.11 63.6164 363.409 63.3294C363.568 62.9468 363.505 63.2019 363.505 62.8193C363.505 62.7555 363.473 62.4366 363.473 62.341C363.377 61.7032 363.505 61.8308 363.154 61.3844C363.505 61.1611 363.473 61.2887 363.154 61.0017C362.899 61.3206 362.835 61.2249 363.154 61.3844C362.803 62.0221 362.899 62.8511 363.409 63.3613L363.25 63.5845L363.6 63.7121L363.345 63.8715L363.664 63.9672L363.473 64.0947C363.887 64.4136 363.728 64.3498 363.76 64.573L363.919 64.9238C364.684 65.5934 366.47 67.5066 367.618 66.837L368.83 66.3906C369.244 66.3268 369.436 66.3587 369.85 66.3906C370.87 66.4543 371.189 66.2949 371.986 66.2311L374.346 65.9123C374.506 65.8804 374.665 65.8804 374.856 65.8804C375.909 65.8166 375.43 65.8485 376.323 65.5296C378.236 64.86 379.225 65.9123 379.512 64.7643C380.723 65.6253 379.767 65.0832 380.915 64.8919C381.616 64.7962 381.744 65.0832 382.286 64.9557C383.529 64.6368 383.37 63.2976 383.689 62.5642C383.816 61.8945 383.211 60.3002 382.35 59.6306C382.445 59.3436 382.732 59.5668 382.126 59.2479C382.158 58.8653 382.382 59.1523 381.776 58.7696C381.839 58.5464 382.19 58.8015 381.457 58.2914C381.457 57.7493 381.935 58.7697 381.425 58.0681C381.138 57.6855 381.457 58.0363 381.01 57.6217C381.042 57.7493 381.074 57.8449 381.234 58.1C381.265 58.1319 381.297 58.2276 381.329 58.1957C381.361 58.1638 381.425 58.2595 381.457 58.2595V58.2914ZM380.66 57.271H377.184C376.706 57.3029 377.216 57.3029 376.674 57.3029C374.665 57.271 375.622 57.4304 374.091 57.6855L367.746 58.3232C364.78 59.0247 365.322 57.8768 363.537 59.5668C363.25 60.0132 363.058 60.5553 363.154 61.0017C363.505 61.2887 363.537 61.1611 363.154 61.3844C363.505 61.8627 363.377 61.7032 363.473 62.341C363.473 62.4685 363.505 62.7555 363.505 62.8193C363.473 63.2019 363.568 62.9468 363.409 63.3294C364.11 63.6483 363.632 63.4251 363.6 63.6802C363.919 63.8077 363.919 63.7121 363.664 63.9353L363.919 64.0309C363.25 63.9034 363.664 63.8396 363.792 63.3613C365.131 64.86 364.015 63.2976 365.705 63.3932C369.563 63.5526 367.235 63.8077 369.053 63.2019L380.5 61.7032C381.234 61.48 380.755 61.5438 381.776 61.6076C381.967 61.6076 381.999 61.6076 382.158 61.6394C382.541 61.6713 382.286 61.7032 382.7 61.6394C382.955 60.7147 382.35 60.3002 382.35 59.6306C381.712 59.2161 382.126 59.503 382.126 59.2479C381.712 58.9929 382.318 59.8538 381.871 59.0566C381.839 59.0247 381.808 58.961 381.808 58.9291C381.776 58.8972 381.776 58.8334 381.776 58.7696L381.457 58.2914C381.425 58.2595 381.393 58.1957 381.329 58.2276C381.297 58.2595 381.234 58.1638 381.234 58.1319C381.074 57.8768 381.074 57.7812 381.01 57.6536L380.66 57.271ZM364.589 56.697C364.079 57.5898 363.568 58.7059 363.537 59.5349C365.322 57.8449 364.78 58.9929 367.746 58.2914L374.091 57.6536C375.622 57.3985 374.697 57.2391 376.674 57.271C377.184 57.271 376.706 57.271 377.184 57.2391H380.66L380.373 56.8883L377.439 54.4968L379.193 56.0274C377.025 54.4012 377.216 55.3578 375.59 55.4534C375.048 55.4853 374.314 55.4216 373.836 55.4534C373.134 55.5172 372.433 55.9317 370.233 56.0274C369.149 56.0593 368.192 56.5376 366.502 56.5376C366.056 56.5376 366.087 56.5057 365.641 56.5695C364.844 56.697 365.354 56.8246 364.589 56.6651V56.697ZM367.682 51.8184C366.47 52.9025 365.099 55.1983 364.589 56.697C365.354 56.8565 364.844 56.7289 365.641 56.6014C366.087 56.5376 366.056 56.5695 366.502 56.5695C368.192 56.5695 369.149 56.1231 370.233 56.0593C372.433 55.9955 373.134 55.581 373.836 55.4853C374.346 55.4216 375.079 55.5172 375.59 55.4853C377.248 55.4216 377.025 54.4331 379.193 56.0593L377.439 54.5287C376.801 54.0185 375.94 53.2533 375.271 53.2214L375.94 53.8591C375.781 53.6997 376.451 53.8591 375.59 53.8591C373.676 53.891 374.984 53.9229 373.804 54.1461C373.326 54.2418 371.955 54.1461 369.818 54.5606C369.149 54.6882 369.149 54.5925 368.575 54.5606C367.714 54.5287 367.969 54.8157 367.331 54.9433C366.948 55.0389 367.012 54.8476 366.215 55.1346L366.247 54.3693C366.343 53.4765 366.98 52.7112 367.682 51.8184ZM367.682 51.8184C366.98 52.7112 366.343 53.4765 366.247 54.3693L366.215 55.1346C367.012 54.8476 366.948 55.007 367.331 54.9433C367.969 54.8157 367.714 54.5606 368.575 54.5606C369.149 54.5606 369.149 54.6882 369.818 54.5606C371.955 54.1461 373.326 54.2418 373.804 54.1461C374.984 53.9229 373.676 53.891 375.59 53.8591C376.451 53.8591 375.781 53.6997 375.94 53.8591L375.271 53.2214C374.282 52.1691 372.688 51.5314 371.381 51.085C370.041 50.6067 368.893 50.7342 367.65 51.8184H367.682Z" fill="#00BBEF"/>
<path fill-rule="evenodd" clip-rule="evenodd" d="M339.781 59.7263H341.439L315.802 134.532C314.335 134.341 314.814 134.5 313.283 134.628L339.749 59.7263H339.781Z" fill="#E9F3E8"/>
<path fill-rule="evenodd" clip-rule="evenodd" d="M313.857 132.778L330.247 132.81L329.928 134.755L313.124 135.106L313.857 132.778Z" fill="#E9F3E8"/>
<path fill-rule="evenodd" clip-rule="evenodd" d="M160.291 248.335L219.122 243.68L218.899 242.372L160.259 247.187L160.291 248.335Z" fill="#FBF9D2"/>
<path fill-rule="evenodd" clip-rule="evenodd" d="M219.122 243.712L225.691 220.275L224.734 220.403L217.974 243.712H219.122Z" fill="#FBF9D2"/>
<defs>
<linearGradient id="paint0_linear_1114_23155" x1="199.448" y1="38.171" x2="220.493" y2="159.85" gradientUnits="userSpaceOnUse">
<stop stop-color="#66E1E9"/>
<stop offset="1" stop-color="#055394"/>
</linearGradient>
<linearGradient id="paint1_linear_1114_23155" x1="208.599" y1="156.056" x2="206.016" y2="266.734" gradientUnits="userSpaceOnUse">
<stop stop-color="#5C010E"/>
<stop offset="0.490196" stop-color="#8D0F00"/>
<stop offset="1" stop-color="#230703"/>
</linearGradient>
<linearGradient id="paint2_linear_1114_23155" x1="200.181" y1="158.096" x2="205.57" y2="260.547" gradientUnits="userSpaceOnUse">
<stop stop-color="#F7C937"/>
<stop offset="1" stop-color="#F56F15"/>
</linearGradient>
</defs>
</svg>
